%TF.GenerationSoftware,KiCad,Pcbnew,10.0.5*%
%TF.CreationDate,2026-09-27T21:25:40-07:00*%
%TF.ProjectId,STM32_HID_controller,53544d33-325f-4484-9944-5f636f6e7472,rev?*%
%TF.SameCoordinates,Original*%
%TF.FileFunction,Copper,L2,Bot*%
%TF.FilePolarity,Positive*%
%FSLAX46Y46*%
G04 Gerber Fmt 4.6, Leading zero omitted, Abs format (unit mm)*
G04 Created by KiCad (PCBNEW 10.0.5) date 2026-09-27 21:25:40*
%MOMM*%
%LPD*%
G01*
G04 APERTURE LIST*
G04 Aperture macros list*
%AMRoundRect*
0 Rectangle with rounded corners*
0 $1 Rounding radius*
0 $2 $3 $4 $5 $6 $7 $8 $9 X,Y pos of 4 corners*
0 Add a 4 corners polygon primitive as box body*
4,1,4,$2,$3,$4,$5,$6,$7,$8,$9,$2,$3,0*
0 Add four circle primitives for the rounded corners*
1,1,$1+$1,$2,$3*
1,1,$1+$1,$4,$5*
1,1,$1+$1,$6,$7*
1,1,$1+$1,$8,$9*
0 Add four rect primitives between the rounded corners*
20,1,$1+$1,$2,$3,$4,$5,0*
20,1,$1+$1,$4,$5,$6,$7,0*
20,1,$1+$1,$6,$7,$8,$9,0*
20,1,$1+$1,$8,$9,$2,$3,0*%
G04 Aperture macros list end*
%TA.AperFunction,ComponentPad*%
%ADD10C,1.778000*%
%TD*%
%TA.AperFunction,ComponentPad*%
%ADD11C,2.286000*%
%TD*%
%TA.AperFunction,ComponentPad*%
%ADD12RoundRect,0.250000X-0.600000X-0.725000X0.600000X-0.725000X0.600000X0.725000X-0.600000X0.725000X0*%
%TD*%
%TA.AperFunction,ComponentPad*%
%ADD13O,1.700000X1.950000*%
%TD*%
%TA.AperFunction,ComponentPad*%
%ADD14C,2.000000*%
%TD*%
%TA.AperFunction,ComponentPad*%
%ADD15O,3.000000X2.500000*%
%TD*%
%TA.AperFunction,HeatsinkPad*%
%ADD16O,1.150000X1.800000*%
%TD*%
%TA.AperFunction,HeatsinkPad*%
%ADD17O,1.450000X2.000000*%
%TD*%
%TA.AperFunction,ComponentPad*%
%ADD18R,1.700000X1.700000*%
%TD*%
%TA.AperFunction,ComponentPad*%
%ADD19C,1.700000*%
%TD*%
%TA.AperFunction,ViaPad*%
%ADD20C,0.700000*%
%TD*%
%TA.AperFunction,Conductor*%
%ADD21C,0.300000*%
%TD*%
%TA.AperFunction,Conductor*%
%ADD22C,0.500000*%
%TD*%
G04 APERTURE END LIST*
D10*
%TO.P,U5,B1A,SEL+_B1A*%
%TO.N,jl*%
X66900000Y-50220000D03*
%TO.P,U5,B1B*%
%TO.N,N/C*%
X73250000Y-50220000D03*
%TO.P,U5,B2A,SEL-_B2A*%
%TO.N,GND*%
X66900000Y-55300000D03*
%TO.P,U5,B2B*%
%TO.N,N/C*%
X73250000Y-55300000D03*
%TO.P,U5,H1,H+_H1*%
%TO.N,+3.3V*%
X67535000Y-73080000D03*
%TO.P,U5,H2,H_H2*%
%TO.N,vlx*%
X70075000Y-73080000D03*
%TO.P,U5,H3,H-_H3*%
%TO.N,GND*%
X72615000Y-73080000D03*
D11*
%TO.P,U5,S1,SHIELD_S1*%
X62455000Y-56252500D03*
%TO.P,U5,S2,SHIELD_S2*%
X62455000Y-69587500D03*
%TO.P,U5,S3,SHIELD_S3*%
X77695000Y-69587500D03*
%TO.P,U5,S4,SHIELD_S4*%
X77695000Y-56252500D03*
D10*
%TO.P,U5,V1,V+_V1*%
%TO.N,+3.3V*%
X59915000Y-60380000D03*
%TO.P,U5,V2,V_V2*%
%TO.N,vly*%
X59915000Y-62920000D03*
%TO.P,U5,V3,V-_V3*%
%TO.N,GND*%
X59915000Y-65460000D03*
%TD*%
D12*
%TO.P,J3,1,Pin_1_1*%
%TO.N,zr*%
X221000000Y-26000000D03*
D13*
%TO.P,J3,2,Pin_2_2*%
%TO.N,r*%
X223500000Y-26000000D03*
%TO.P,J3,3,Pin_3_3*%
%TO.N,GND*%
X226000000Y-26000000D03*
%TD*%
D14*
%TO.P,SW10,1,1_1*%
%TO.N,+*%
X184580000Y-65172500D03*
X191080000Y-65172500D03*
%TO.P,SW10,2,2_2*%
%TO.N,GND*%
X184580000Y-69672500D03*
X191080000Y-69672500D03*
%TD*%
%TO.P,SW14,1,1_1*%
%TO.N,ACC_control*%
X150600000Y-69800000D03*
X157100000Y-69800000D03*
%TO.P,SW14,2,2_2*%
%TO.N,GND*%
X150600000Y-74300000D03*
X157100000Y-74300000D03*
%TD*%
D12*
%TO.P,J5,1,Pin_1_1*%
%TO.N,zl*%
X73080000Y-26000000D03*
D13*
%TO.P,J5,2,Pin_2_2*%
%TO.N,l*%
X75580000Y-26000000D03*
%TO.P,J5,3,Pin_3_3*%
%TO.N,GND*%
X78080000Y-26000000D03*
%TD*%
D15*
%TO.P,SW9,1,1_1*%
%TO.N,Y*%
X217080000Y-51672500D03*
X229580000Y-51672500D03*
%TO.P,SW9,2,2_2*%
%TO.N,GND*%
X217080000Y-56672500D03*
X229580000Y-56672500D03*
%TD*%
D10*
%TO.P,U4,B1A,SEL+_B1A*%
%TO.N,jr*%
X215650000Y-87420000D03*
%TO.P,U4,B1B*%
%TO.N,N/C*%
X222000000Y-87420000D03*
%TO.P,U4,B2A,SEL-_B2A*%
%TO.N,GND*%
X215650000Y-92500000D03*
%TO.P,U4,B2B*%
%TO.N,N/C*%
X222000000Y-92500000D03*
%TO.P,U4,H1,H+_H1*%
%TO.N,+3.3V*%
X216285000Y-110280000D03*
%TO.P,U4,H2,H_H2*%
%TO.N,vrx*%
X218825000Y-110280000D03*
%TO.P,U4,H3,H-_H3*%
%TO.N,GND*%
X221365000Y-110280000D03*
D11*
%TO.P,U4,S1,SHIELD_S1*%
X211205000Y-93452500D03*
%TO.P,U4,S2,SHIELD_S2*%
X211205000Y-106787500D03*
%TO.P,U4,S3,SHIELD_S3*%
X226445000Y-106787500D03*
%TO.P,U4,S4,SHIELD_S4*%
X226445000Y-93452500D03*
D10*
%TO.P,U4,V1,V+_V1*%
%TO.N,+3.3V*%
X208665000Y-97580000D03*
%TO.P,U4,V2,V_V2*%
%TO.N,vry*%
X208665000Y-100120000D03*
%TO.P,U4,V3,V-_V3*%
%TO.N,GND*%
X208665000Y-102660000D03*
%TD*%
D16*
%TO.P,J1,6,Shield_6*%
%TO.N,GND*%
X157930000Y-19505000D03*
D17*
X157780000Y-23305000D03*
X150330000Y-23305000D03*
D16*
X150180000Y-19505000D03*
%TD*%
D15*
%TO.P,SW6,1,1_1*%
%TO.N,A*%
X262580000Y-51672500D03*
X275080000Y-51672500D03*
%TO.P,SW6,2,2_2*%
%TO.N,GND*%
X262580000Y-56672500D03*
X275080000Y-56672500D03*
%TD*%
D14*
%TO.P,SW3,1,1_1*%
%TO.N,GND*%
X129080000Y-91672500D03*
X135580000Y-91672500D03*
%TO.P,SW3,2,2_2*%
%TO.N,capture*%
X129080000Y-96172500D03*
X135580000Y-96172500D03*
%TD*%
D15*
%TO.P,SW8,1,1_1*%
%TO.N,X*%
X240080000Y-31672500D03*
X252580000Y-31672500D03*
%TO.P,SW8,2,2_2*%
%TO.N,GND*%
X240080000Y-36672500D03*
X252580000Y-36672500D03*
%TD*%
D18*
%TO.P,J2,1,Pin_1_1*%
%TO.N,+3.3V*%
X145060000Y-20250000D03*
D19*
%TO.P,J2,2,Pin_2_2*%
%TO.N,/SWDIO*%
X142520000Y-20250000D03*
%TO.P,J2,3,Pin_3_3*%
%TO.N,/SWCLK*%
X139980000Y-20250000D03*
%TO.P,J2,4,Pin_4_4*%
%TO.N,GND*%
X137440000Y-20250000D03*
%TD*%
D14*
%TO.P,SW11,1,1_1*%
%TO.N,-*%
X118080000Y-65172500D03*
X124580000Y-65172500D03*
%TO.P,SW11,2,2_2*%
%TO.N,GND*%
X118080000Y-69672500D03*
X124580000Y-69672500D03*
%TD*%
%TO.P,SW2,1,1_1*%
%TO.N,GND*%
X173080000Y-91672500D03*
X179580000Y-91672500D03*
%TO.P,SW2,2,2_2*%
%TO.N,home*%
X173080000Y-96172500D03*
X179580000Y-96172500D03*
%TD*%
D15*
%TO.P,SW7,1,1_1*%
%TO.N,B*%
X241080000Y-71172500D03*
X253580000Y-71172500D03*
%TO.P,SW7,2,2_2*%
%TO.N,GND*%
X241080000Y-76172500D03*
X253580000Y-76172500D03*
%TD*%
D20*
%TO.N,+3.3V*%
X151550000Y-33450000D03*
X150100000Y-33400000D03*
%TO.N,GND*%
X151500000Y-29500000D03*
X99494108Y-56995820D03*
X95500000Y-57500000D03*
X96500000Y-57500000D03*
X92500000Y-53500000D03*
X92500000Y-57500000D03*
X98500000Y-57000000D03*
X152000000Y-27500000D03*
X164500000Y-34500000D03*
X167800000Y-23350000D03*
X137600000Y-34350000D03*
X164900000Y-47050000D03*
X61000000Y-54650000D03*
X161200000Y-25400000D03*
X124550000Y-72200000D03*
X141650000Y-40850000D03*
X191050000Y-71700000D03*
X157100000Y-76400000D03*
X277550000Y-56650000D03*
X145062500Y-47437500D03*
X80250000Y-56200000D03*
X157850000Y-39300000D03*
X154500000Y-48400000D03*
X153250000Y-53900000D03*
X228800000Y-108650000D03*
X238550000Y-76250000D03*
X157650000Y-34150000D03*
X135600000Y-89400000D03*
X184500000Y-71900000D03*
X207350000Y-104950000D03*
X215600000Y-90200000D03*
X80050000Y-26050000D03*
X153621565Y-49928435D03*
X209950000Y-90500000D03*
X217100000Y-59900000D03*
X149383669Y-40082036D03*
X256050000Y-76200000D03*
X210500000Y-109600000D03*
X240300000Y-40800000D03*
X223250000Y-112200000D03*
X166050000Y-24000000D03*
X153000000Y-22000000D03*
X162550000Y-25400000D03*
X143950000Y-40950000D03*
X148050000Y-52200000D03*
X228400000Y-91800000D03*
X118050000Y-72000000D03*
X137440000Y-22560000D03*
X154950000Y-41600000D03*
X80350000Y-68750000D03*
X179600000Y-89500000D03*
X164900000Y-24050000D03*
X160100000Y-47150000D03*
X253000000Y-40600000D03*
X141700000Y-47550000D03*
X60650000Y-71050000D03*
X167800000Y-22350000D03*
X150600000Y-76400000D03*
X129100000Y-89400000D03*
X158678260Y-50500000D03*
X58000000Y-66450000D03*
X229700000Y-59600000D03*
X170250000Y-18050000D03*
X173050000Y-89200000D03*
X161450000Y-43700000D03*
X65900000Y-53600000D03*
X73450000Y-75400000D03*
X164350000Y-41100000D03*
X228300000Y-26000000D03*
X146850000Y-49900000D03*
X260150000Y-56700000D03*
%TO.N,+3.3V*%
X85800000Y-40700000D03*
X139805025Y-38955025D03*
X180900000Y-36751000D03*
X56090380Y-62969670D03*
X174381275Y-74381275D03*
X175346225Y-75396225D03*
X141749235Y-39699235D03*
X84400000Y-42100000D03*
X180850000Y-33650000D03*
X56294975Y-64744975D03*
%TO.N,i2c_sda*%
X144455025Y-36644975D03*
X149085701Y-35650585D03*
X110500000Y-40000000D03*
X109000000Y-44200000D03*
%TO.N,i2c_scl*%
X140600000Y-46300000D03*
X149249999Y-39192015D03*
%TD*%
%TO.N,+3.3V*%
D21*
X151500000Y-33500000D02*
X151550000Y-33450000D01*
X150200000Y-33500000D02*
X151500000Y-33500000D01*
X150100000Y-33400000D02*
X150200000Y-33500000D01*
%TO.N,GND*%
D22*
X161150000Y-25400000D02*
X161200000Y-25400000D01*
%TO.N,+3.3V*%
X56294975Y-63174265D02*
X56090380Y-62969670D01*
X56294975Y-64744975D02*
X56294975Y-63174265D01*
X84400000Y-42100000D02*
X85800000Y-40700000D01*
X180850000Y-36701000D02*
X180900000Y-36751000D01*
X139805025Y-38955025D02*
X141005025Y-38955025D01*
X141005025Y-38955025D02*
X141749235Y-39699235D01*
X174381275Y-74431275D02*
X175346225Y-75396225D01*
X174381275Y-74381275D02*
X174381275Y-74431275D01*
X180850000Y-33650000D02*
X180850000Y-36701000D01*
%TO.N,i2c_sda*%
D21*
X145449415Y-35650585D02*
X144455025Y-36644975D01*
X109000000Y-44200000D02*
X109000000Y-44100000D01*
X149085701Y-35650585D02*
X145449415Y-35650585D01*
X109000000Y-44100000D02*
X110500000Y-42600000D01*
X110500000Y-42600000D02*
X110500000Y-40000000D01*
%TO.N,i2c_scl*%
X149249999Y-39192015D02*
X148157985Y-39192015D01*
X148157985Y-39192015D02*
X143300000Y-44050000D01*
X141050000Y-46300000D02*
X140600000Y-46300000D01*
X143300000Y-44050000D02*
X141050000Y-46300000D01*
%TD*%
%TA.AperFunction,Conductor*%
%TO.N,GND*%
G36*
X282042474Y-17220220D02*
G01*
X282088262Y-17272995D01*
X282099500Y-17324578D01*
X282099500Y-120625578D01*
X282079815Y-120692617D01*
X282027011Y-120738372D01*
X281975578Y-120749578D01*
X44924578Y-120899420D01*
X44857526Y-120879778D01*
X44811738Y-120827003D01*
X44800500Y-120775420D01*
X44800500Y-114978711D01*
X49249500Y-114978711D01*
X49249500Y-115221288D01*
X49281161Y-115461785D01*
X49343947Y-115696104D01*
X49436773Y-115920205D01*
X49436776Y-115920212D01*
X49558064Y-116130289D01*
X49558066Y-116130292D01*
X49558067Y-116130293D01*
X49705733Y-116322736D01*
X49705739Y-116322743D01*
X49877256Y-116494260D01*
X49877262Y-116494265D01*
X50069711Y-116641936D01*
X50279788Y-116763224D01*
X50503900Y-116856054D01*
X50738211Y-116918838D01*
X50918586Y-116942584D01*
X50978711Y-116950500D01*
X50978712Y-116950500D01*
X51221289Y-116950500D01*
X51269388Y-116944167D01*
X51461789Y-116918838D01*
X51696100Y-116856054D01*
X51920212Y-116763224D01*
X52130289Y-116641936D01*
X52322738Y-116494265D01*
X52494265Y-116322738D01*
X52641936Y-116130289D01*
X52763224Y-115920212D01*
X52856054Y-115696100D01*
X52918838Y-115461789D01*
X52950500Y-115221288D01*
X52950500Y-114978712D01*
X52950500Y-114978711D01*
X275249500Y-114978711D01*
X275249500Y-115221288D01*
X275281161Y-115461785D01*
X275343947Y-115696104D01*
X275436773Y-115920205D01*
X275436776Y-115920212D01*
X275558064Y-116130289D01*
X275558066Y-116130292D01*
X275558067Y-116130293D01*
X275705733Y-116322736D01*
X275705739Y-116322743D01*
X275877256Y-116494260D01*
X275877262Y-116494265D01*
X276069711Y-116641936D01*
X276279788Y-116763224D01*
X276503900Y-116856054D01*
X276738211Y-116918838D01*
X276918586Y-116942584D01*
X276978711Y-116950500D01*
X276978712Y-116950500D01*
X277221289Y-116950500D01*
X277269388Y-116944167D01*
X277461789Y-116918838D01*
X277696100Y-116856054D01*
X277920212Y-116763224D01*
X278130289Y-116641936D01*
X278322738Y-116494265D01*
X278494265Y-116322738D01*
X278641936Y-116130289D01*
X278763224Y-115920212D01*
X278856054Y-115696100D01*
X278918838Y-115461789D01*
X278950500Y-115221288D01*
X278950500Y-114978712D01*
X278918838Y-114738211D01*
X278856054Y-114503900D01*
X278763224Y-114279788D01*
X278641936Y-114069711D01*
X278494265Y-113877262D01*
X278494260Y-113877256D01*
X278322743Y-113705739D01*
X278322736Y-113705733D01*
X278130293Y-113558067D01*
X278130292Y-113558066D01*
X278130289Y-113558064D01*
X277920212Y-113436776D01*
X277920205Y-113436773D01*
X277696104Y-113343947D01*
X277461785Y-113281161D01*
X277221289Y-113249500D01*
X277221288Y-113249500D01*
X276978712Y-113249500D01*
X276978711Y-113249500D01*
X276738214Y-113281161D01*
X276503895Y-113343947D01*
X276279794Y-113436773D01*
X276279785Y-113436777D01*
X276069706Y-113558067D01*
X275877263Y-113705733D01*
X275877256Y-113705739D01*
X275705739Y-113877256D01*
X275705733Y-113877263D01*
X275558067Y-114069706D01*
X275436777Y-114279785D01*
X275436773Y-114279794D01*
X275343947Y-114503895D01*
X275281161Y-114738214D01*
X275249500Y-114978711D01*
X52950500Y-114978711D01*
X52918838Y-114738211D01*
X52856054Y-114503900D01*
X52763224Y-114279788D01*
X52641936Y-114069711D01*
X52494265Y-113877262D01*
X52494260Y-113877256D01*
X52322743Y-113705739D01*
X52322736Y-113705733D01*
X52130293Y-113558067D01*
X52130292Y-113558066D01*
X52130289Y-113558064D01*
X51920212Y-113436776D01*
X51920205Y-113436773D01*
X51696104Y-113343947D01*
X51461785Y-113281161D01*
X51221289Y-113249500D01*
X51221288Y-113249500D01*
X50978712Y-113249500D01*
X50978711Y-113249500D01*
X50738214Y-113281161D01*
X50503895Y-113343947D01*
X50279794Y-113436773D01*
X50279785Y-113436777D01*
X50069706Y-113558067D01*
X49877263Y-113705733D01*
X49877256Y-113705739D01*
X49705739Y-113877256D01*
X49705733Y-113877263D01*
X49558067Y-114069706D01*
X49436777Y-114279785D01*
X49436773Y-114279794D01*
X49343947Y-114503895D01*
X49281161Y-114738214D01*
X49249500Y-114978711D01*
X44800500Y-114978711D01*
X44800500Y-110186384D01*
X215095500Y-110186384D01*
X215095500Y-110373615D01*
X215124790Y-110558543D01*
X215182645Y-110736606D01*
X215182646Y-110736609D01*
X215267651Y-110903437D01*
X215377694Y-111054900D01*
X215377698Y-111054905D01*
X215510094Y-111187301D01*
X215510099Y-111187305D01*
X215631649Y-111275615D01*
X215661566Y-111297351D01*
X215770620Y-111352917D01*
X215828390Y-111382353D01*
X215828393Y-111382354D01*
X215917424Y-111411281D01*
X216006458Y-111440210D01*
X216191384Y-111469500D01*
X216191385Y-111469500D01*
X216378615Y-111469500D01*
X216378616Y-111469500D01*
X216563542Y-111440210D01*
X216741609Y-111382353D01*
X216908434Y-111297351D01*
X217059907Y-111187300D01*
X217192300Y-111054907D01*
X217302351Y-110903434D01*
X217387353Y-110736609D01*
X217437069Y-110583598D01*
X217476506Y-110525923D01*
X217540865Y-110498724D01*
X217609711Y-110510638D01*
X217661187Y-110557882D01*
X217672931Y-110583598D01*
X217722645Y-110736606D01*
X217722646Y-110736609D01*
X217807651Y-110903437D01*
X217917694Y-111054900D01*
X217917698Y-111054905D01*
X218050094Y-111187301D01*
X218050099Y-111187305D01*
X218171649Y-111275615D01*
X218201566Y-111297351D01*
X218310620Y-111352917D01*
X218368390Y-111382353D01*
X218368393Y-111382354D01*
X218457424Y-111411281D01*
X218546458Y-111440210D01*
X218731384Y-111469500D01*
X218731385Y-111469500D01*
X218918615Y-111469500D01*
X218918616Y-111469500D01*
X219103542Y-111440210D01*
X219281609Y-111382353D01*
X219448434Y-111297351D01*
X219465893Y-111284666D01*
X219478352Y-111275615D01*
X219599901Y-111187305D01*
X219599903Y-111187302D01*
X219599907Y-111187300D01*
X219732300Y-111054907D01*
X219842351Y-110903434D01*
X219872562Y-110844139D01*
X219920536Y-110793345D01*
X219988357Y-110776549D01*
X220054492Y-110799086D01*
X220093532Y-110844140D01*
X220177020Y-111007993D01*
X220177021Y-111007995D01*
X220221806Y-111069638D01*
X220221807Y-111069638D01*
X220927352Y-110364093D01*
X220950792Y-110451571D01*
X221009311Y-110552930D01*
X221092070Y-110635689D01*
X221193429Y-110694208D01*
X221280905Y-110717647D01*
X220575360Y-111423191D01*
X220637008Y-111467980D01*
X220831808Y-111567237D01*
X220831811Y-111567238D01*
X221039740Y-111634797D01*
X221255684Y-111669000D01*
X221474316Y-111669000D01*
X221690259Y-111634797D01*
X221898188Y-111567238D01*
X221898191Y-111567237D01*
X222092995Y-111467978D01*
X222154638Y-111423191D01*
X222154639Y-111423191D01*
X221449094Y-110717647D01*
X221536571Y-110694208D01*
X221637930Y-110635689D01*
X221720689Y-110552930D01*
X221779208Y-110451571D01*
X221802647Y-110364094D01*
X222508191Y-111069639D01*
X222508191Y-111069638D01*
X222552978Y-111007995D01*
X222652237Y-110813191D01*
X222652238Y-110813188D01*
X222719797Y-110605259D01*
X222754000Y-110389316D01*
X222754000Y-110170683D01*
X222719797Y-109954740D01*
X222652238Y-109746811D01*
X222652237Y-109746808D01*
X222552980Y-109552008D01*
X222508191Y-109490360D01*
X221802647Y-110195904D01*
X221779208Y-110108429D01*
X221720689Y-110007070D01*
X221637930Y-109924311D01*
X221536571Y-109865792D01*
X221449092Y-109842352D01*
X222154638Y-109136807D01*
X222154638Y-109136806D01*
X222092995Y-109092021D01*
X222092993Y-109092020D01*
X221898191Y-108992762D01*
X221898188Y-108992761D01*
X221690259Y-108925202D01*
X221474316Y-108891000D01*
X221255684Y-108891000D01*
X221039740Y-108925202D01*
X220831811Y-108992761D01*
X220831808Y-108992762D01*
X220637001Y-109092023D01*
X220575360Y-109136806D01*
X220575360Y-109136807D01*
X221280905Y-109842352D01*
X221193429Y-109865792D01*
X221092070Y-109924311D01*
X221009311Y-110007070D01*
X220950792Y-110108429D01*
X220927352Y-110195905D01*
X220221807Y-109490360D01*
X220221806Y-109490360D01*
X220177021Y-109552004D01*
X220093531Y-109715860D01*
X220045557Y-109766655D01*
X219977735Y-109783450D01*
X219911601Y-109760912D01*
X219872562Y-109715859D01*
X219842348Y-109656561D01*
X219732305Y-109505099D01*
X219732301Y-109505094D01*
X219599905Y-109372698D01*
X219599900Y-109372694D01*
X219478351Y-109284384D01*
X219448437Y-109262651D01*
X219448436Y-109262650D01*
X219448434Y-109262649D01*
X219394988Y-109235416D01*
X219281609Y-109177646D01*
X219281606Y-109177645D01*
X219103543Y-109119790D01*
X219011079Y-109105145D01*
X218918616Y-109090500D01*
X218731384Y-109090500D01*
X218669742Y-109100263D01*
X218546456Y-109119790D01*
X218368393Y-109177645D01*
X218368390Y-109177646D01*
X218201562Y-109262651D01*
X218050099Y-109372694D01*
X218050094Y-109372698D01*
X217917698Y-109505094D01*
X217917694Y-109505099D01*
X217807651Y-109656562D01*
X217722646Y-109823390D01*
X217722645Y-109823393D01*
X217672931Y-109976401D01*
X217633494Y-110034076D01*
X217569135Y-110061275D01*
X217500289Y-110049361D01*
X217448813Y-110002116D01*
X217437069Y-109976401D01*
X217387354Y-109823393D01*
X217387353Y-109823390D01*
X217332562Y-109715859D01*
X217302351Y-109656566D01*
X217226383Y-109552004D01*
X217192305Y-109505099D01*
X217192301Y-109505094D01*
X217059905Y-109372698D01*
X217059900Y-109372694D01*
X216908437Y-109262651D01*
X216908436Y-109262650D01*
X216908434Y-109262649D01*
X216854988Y-109235416D01*
X216741609Y-109177646D01*
X216741606Y-109177645D01*
X216563543Y-109119790D01*
X216471079Y-109105145D01*
X216378616Y-109090500D01*
X216191384Y-109090500D01*
X216129742Y-109100263D01*
X216006456Y-109119790D01*
X215828393Y-109177645D01*
X215828390Y-109177646D01*
X215661562Y-109262651D01*
X215510099Y-109372694D01*
X215510094Y-109372698D01*
X215377698Y-109505094D01*
X215377694Y-109505099D01*
X215267651Y-109656562D01*
X215182646Y-109823390D01*
X215182645Y-109823393D01*
X215124790Y-110001456D01*
X215095500Y-110186384D01*
X44800500Y-110186384D01*
X44800500Y-106658193D01*
X209562000Y-106658193D01*
X209562000Y-106916806D01*
X209602456Y-107172233D01*
X209602456Y-107172234D01*
X209682374Y-107418195D01*
X209799783Y-107648622D01*
X209879963Y-107758981D01*
X209879964Y-107758982D01*
X210566837Y-107072109D01*
X210585997Y-107118364D01*
X210662439Y-107232768D01*
X210759732Y-107330061D01*
X210874136Y-107406503D01*
X210920390Y-107425661D01*
X210233516Y-108112534D01*
X210233517Y-108112536D01*
X210343877Y-108192716D01*
X210574304Y-108310125D01*
X210820266Y-108390043D01*
X211075694Y-108430500D01*
X211334306Y-108430500D01*
X211589733Y-108390043D01*
X211589734Y-108390043D01*
X211835695Y-108310125D01*
X212066119Y-108192718D01*
X212176481Y-108112534D01*
X212176482Y-108112534D01*
X211489609Y-107425662D01*
X211535864Y-107406503D01*
X211650268Y-107330061D01*
X211747561Y-107232768D01*
X211824003Y-107118364D01*
X211843161Y-107072109D01*
X212530034Y-107758982D01*
X212530034Y-107758981D01*
X212610218Y-107648619D01*
X212727625Y-107418195D01*
X212807543Y-107172234D01*
X212807543Y-107172233D01*
X212848000Y-106916806D01*
X212848000Y-106658193D01*
X224802000Y-106658193D01*
X224802000Y-106916806D01*
X224842456Y-107172233D01*
X224842456Y-107172234D01*
X224922374Y-107418195D01*
X225039783Y-107648622D01*
X225119963Y-107758981D01*
X225119964Y-107758982D01*
X225806837Y-107072109D01*
X225825997Y-107118364D01*
X225902439Y-107232768D01*
X225999732Y-107330061D01*
X226114136Y-107406503D01*
X226160390Y-107425661D01*
X225473516Y-108112534D01*
X225473517Y-108112536D01*
X225583877Y-108192716D01*
X225814304Y-108310125D01*
X226060266Y-108390043D01*
X226315694Y-108430500D01*
X226574306Y-108430500D01*
X226829733Y-108390043D01*
X226829734Y-108390043D01*
X227075695Y-108310125D01*
X227306119Y-108192718D01*
X227416481Y-108112534D01*
X227416482Y-108112534D01*
X226729609Y-107425662D01*
X226775864Y-107406503D01*
X226890268Y-107330061D01*
X226987561Y-107232768D01*
X227064003Y-107118364D01*
X227083161Y-107072109D01*
X227770034Y-107758982D01*
X227770034Y-107758981D01*
X227850218Y-107648619D01*
X227967625Y-107418195D01*
X228047543Y-107172234D01*
X228047543Y-107172233D01*
X228088000Y-106916806D01*
X228088000Y-106658193D01*
X228047543Y-106402766D01*
X228047543Y-106402765D01*
X227967625Y-106156804D01*
X227850216Y-105926377D01*
X227770036Y-105816017D01*
X227770034Y-105816016D01*
X227083161Y-106502889D01*
X227064003Y-106456636D01*
X226987561Y-106342232D01*
X226890268Y-106244939D01*
X226775864Y-106168497D01*
X226729608Y-106149337D01*
X227416482Y-105462464D01*
X227416481Y-105462463D01*
X227306122Y-105382283D01*
X227075695Y-105264874D01*
X226829733Y-105184956D01*
X226574306Y-105144500D01*
X226315694Y-105144500D01*
X226060266Y-105184956D01*
X226060265Y-105184956D01*
X225814304Y-105264874D01*
X225583884Y-105382279D01*
X225473517Y-105462464D01*
X225473517Y-105462465D01*
X226160390Y-106149337D01*
X226114136Y-106168497D01*
X225999732Y-106244939D01*
X225902439Y-106342232D01*
X225825997Y-106456636D01*
X225806837Y-106502890D01*
X225119965Y-105816017D01*
X225119964Y-105816017D01*
X225039779Y-105926384D01*
X224922374Y-106156804D01*
X224842456Y-106402765D01*
X224842456Y-106402766D01*
X224802000Y-106658193D01*
X212848000Y-106658193D01*
X212807543Y-106402766D01*
X212807543Y-106402765D01*
X212727625Y-106156804D01*
X212610216Y-105926377D01*
X212530036Y-105816017D01*
X212530034Y-105816016D01*
X211843161Y-106502889D01*
X211824003Y-106456636D01*
X211747561Y-106342232D01*
X211650268Y-106244939D01*
X211535864Y-106168497D01*
X211489608Y-106149337D01*
X212176482Y-105462464D01*
X212176481Y-105462463D01*
X212066122Y-105382283D01*
X211835695Y-105264874D01*
X211589733Y-105184956D01*
X211334306Y-105144500D01*
X211075694Y-105144500D01*
X210820266Y-105184956D01*
X210820265Y-105184956D01*
X210574304Y-105264874D01*
X210343884Y-105382279D01*
X210233517Y-105462464D01*
X210233517Y-105462465D01*
X210920390Y-106149337D01*
X210874136Y-106168497D01*
X210759732Y-106244939D01*
X210662439Y-106342232D01*
X210585997Y-106456636D01*
X210566837Y-106502890D01*
X209879965Y-105816017D01*
X209879964Y-105816017D01*
X209799779Y-105926384D01*
X209682374Y-106156804D01*
X209602456Y-106402765D01*
X209602456Y-106402766D01*
X209562000Y-106658193D01*
X44800500Y-106658193D01*
X44800500Y-102550683D01*
X207276000Y-102550683D01*
X207276000Y-102769316D01*
X207310202Y-102985259D01*
X207377761Y-103193188D01*
X207377762Y-103193191D01*
X207477020Y-103387993D01*
X207477021Y-103387995D01*
X207521806Y-103449638D01*
X207521807Y-103449638D01*
X208227352Y-102744093D01*
X208250792Y-102831571D01*
X208309311Y-102932930D01*
X208392070Y-103015689D01*
X208493429Y-103074208D01*
X208580905Y-103097647D01*
X207875360Y-103803191D01*
X207937008Y-103847980D01*
X208131808Y-103947237D01*
X208131811Y-103947238D01*
X208339740Y-104014797D01*
X208555684Y-104049000D01*
X208774316Y-104049000D01*
X208990259Y-104014797D01*
X209198188Y-103947238D01*
X209198191Y-103947237D01*
X209392995Y-103847978D01*
X209454638Y-103803191D01*
X209454639Y-103803191D01*
X208749094Y-103097647D01*
X208836571Y-103074208D01*
X208937930Y-103015689D01*
X209020689Y-102932930D01*
X209079208Y-102831571D01*
X209102647Y-102744095D01*
X209808191Y-103449639D01*
X209808191Y-103449638D01*
X209852978Y-103387995D01*
X209952237Y-103193191D01*
X209952238Y-103193188D01*
X210019797Y-102985259D01*
X210054000Y-102769316D01*
X210054000Y-102550683D01*
X210019797Y-102334740D01*
X209952238Y-102126811D01*
X209952237Y-102126808D01*
X209852980Y-101932008D01*
X209808191Y-101870360D01*
X209102647Y-102575904D01*
X209079208Y-102488429D01*
X209020689Y-102387070D01*
X208937930Y-102304311D01*
X208836571Y-102245792D01*
X208749092Y-102222352D01*
X209454638Y-101516807D01*
X209454638Y-101516806D01*
X209392995Y-101472021D01*
X209392993Y-101472020D01*
X209229140Y-101388532D01*
X209178344Y-101340557D01*
X209161549Y-101272736D01*
X209184087Y-101206601D01*
X209229139Y-101167563D01*
X209288434Y-101137351D01*
X209439907Y-101027300D01*
X209572300Y-100894907D01*
X209682351Y-100743434D01*
X209767353Y-100576609D01*
X209825210Y-100398542D01*
X209854500Y-100213616D01*
X209854500Y-100026384D01*
X209825210Y-99841458D01*
X209767353Y-99663391D01*
X209767353Y-99663390D01*
X209737917Y-99605620D01*
X209682351Y-99496566D01*
X209668290Y-99477212D01*
X209572305Y-99345099D01*
X209572301Y-99345094D01*
X209439905Y-99212698D01*
X209439900Y-99212694D01*
X209288437Y-99102651D01*
X209288436Y-99102650D01*
X209288434Y-99102649D01*
X209234988Y-99075416D01*
X209121609Y-99017646D01*
X209121606Y-99017645D01*
X208968598Y-98967931D01*
X208910923Y-98928494D01*
X208883724Y-98864135D01*
X208895638Y-98795289D01*
X208942882Y-98743813D01*
X208968598Y-98732069D01*
X209121606Y-98682354D01*
X209121609Y-98682353D01*
X209288434Y-98597351D01*
X209439907Y-98487300D01*
X209572300Y-98354907D01*
X209682351Y-98203434D01*
X209767353Y-98036609D01*
X209825210Y-97858542D01*
X209854500Y-97673616D01*
X209854500Y-97486384D01*
X209825210Y-97301458D01*
X209767353Y-97123391D01*
X209767353Y-97123390D01*
X209714526Y-97019713D01*
X209682351Y-96956566D01*
X209607913Y-96854110D01*
X209572305Y-96805099D01*
X209572301Y-96805094D01*
X209439905Y-96672698D01*
X209439900Y-96672694D01*
X209288437Y-96562651D01*
X209288436Y-96562650D01*
X209288434Y-96562649D01*
X209234988Y-96535416D01*
X209121609Y-96477646D01*
X209121606Y-96477645D01*
X208943543Y-96419790D01*
X208851079Y-96405145D01*
X208758616Y-96390500D01*
X208571384Y-96390500D01*
X208509742Y-96400263D01*
X208386456Y-96419790D01*
X208208393Y-96477645D01*
X208208390Y-96477646D01*
X208041562Y-96562651D01*
X207890099Y-96672694D01*
X207890094Y-96672698D01*
X207757698Y-96805094D01*
X207757694Y-96805099D01*
X207647651Y-96956562D01*
X207562646Y-97123390D01*
X207562645Y-97123393D01*
X207504790Y-97301456D01*
X207475500Y-97486384D01*
X207475500Y-97673615D01*
X207504790Y-97858543D01*
X207562645Y-98036606D01*
X207562646Y-98036609D01*
X207647651Y-98203437D01*
X207757694Y-98354900D01*
X207757698Y-98354905D01*
X207890094Y-98487301D01*
X207890099Y-98487305D01*
X208022212Y-98583290D01*
X208041566Y-98597351D01*
X208150620Y-98652917D01*
X208208390Y-98682353D01*
X208208393Y-98682354D01*
X208361401Y-98732069D01*
X208419076Y-98771506D01*
X208446275Y-98835865D01*
X208434361Y-98904711D01*
X208387116Y-98956187D01*
X208361401Y-98967931D01*
X208208393Y-99017645D01*
X208208390Y-99017646D01*
X208041562Y-99102651D01*
X207890099Y-99212694D01*
X207890094Y-99212698D01*
X207757698Y-99345094D01*
X207757694Y-99345099D01*
X207647651Y-99496562D01*
X207562646Y-99663390D01*
X207562645Y-99663393D01*
X207504790Y-99841456D01*
X207475500Y-100026384D01*
X207475500Y-100213615D01*
X207504790Y-100398543D01*
X207562645Y-100576606D01*
X207562646Y-100576609D01*
X207647651Y-100743437D01*
X207757694Y-100894900D01*
X207757698Y-100894905D01*
X207890094Y-101027301D01*
X207890099Y-101027305D01*
X208041561Y-101137348D01*
X208041563Y-101137349D01*
X208041566Y-101137351D01*
X208100860Y-101167562D01*
X208151655Y-101215536D01*
X208168450Y-101283357D01*
X208145913Y-101349492D01*
X208100860Y-101388531D01*
X207937004Y-101472021D01*
X207875360Y-101516806D01*
X207875360Y-101516807D01*
X208580905Y-102222352D01*
X208493429Y-102245792D01*
X208392070Y-102304311D01*
X208309311Y-102387070D01*
X208250792Y-102488429D01*
X208227352Y-102575905D01*
X207521807Y-101870360D01*
X207521806Y-101870360D01*
X207477023Y-101932001D01*
X207377762Y-102126808D01*
X207377761Y-102126811D01*
X207310202Y-102334740D01*
X207276000Y-102550683D01*
X44800500Y-102550683D01*
X44800500Y-96070148D01*
X127779500Y-96070148D01*
X127779500Y-96274851D01*
X127811522Y-96477034D01*
X127874781Y-96671723D01*
X127967715Y-96854113D01*
X128088028Y-97019713D01*
X128232786Y-97164471D01*
X128387749Y-97277056D01*
X128398390Y-97284787D01*
X128514607Y-97344003D01*
X128580776Y-97377718D01*
X128580778Y-97377718D01*
X128580781Y-97377720D01*
X128685137Y-97411627D01*
X128775465Y-97440977D01*
X128876557Y-97456988D01*
X128977648Y-97473000D01*
X128977649Y-97473000D01*
X129182351Y-97473000D01*
X129182352Y-97473000D01*
X129384534Y-97440977D01*
X129579219Y-97377720D01*
X129761610Y-97284787D01*
X129854590Y-97217232D01*
X129927213Y-97164471D01*
X129927215Y-97164468D01*
X129927219Y-97164466D01*
X130071966Y-97019719D01*
X130071968Y-97019715D01*
X130071971Y-97019713D01*
X130124732Y-96947090D01*
X130192287Y-96854110D01*
X130285220Y-96671719D01*
X130348477Y-96477034D01*
X130380500Y-96274852D01*
X130380500Y-96070148D01*
X134279500Y-96070148D01*
X134279500Y-96274851D01*
X134311522Y-96477034D01*
X134374781Y-96671723D01*
X134467715Y-96854113D01*
X134588028Y-97019713D01*
X134732786Y-97164471D01*
X134887749Y-97277056D01*
X134898390Y-97284787D01*
X135014607Y-97344003D01*
X135080776Y-97377718D01*
X135080778Y-97377718D01*
X135080781Y-97377720D01*
X135185137Y-97411627D01*
X135275465Y-97440977D01*
X135376557Y-97456988D01*
X135477648Y-97473000D01*
X135477649Y-97473000D01*
X135682351Y-97473000D01*
X135682352Y-97473000D01*
X135884534Y-97440977D01*
X136079219Y-97377720D01*
X136261610Y-97284787D01*
X136354590Y-97217232D01*
X136427213Y-97164471D01*
X136427215Y-97164468D01*
X136427219Y-97164466D01*
X136571966Y-97019719D01*
X136571968Y-97019715D01*
X136571971Y-97019713D01*
X136624732Y-96947090D01*
X136692287Y-96854110D01*
X136785220Y-96671719D01*
X136848477Y-96477034D01*
X136880500Y-96274852D01*
X136880500Y-96070148D01*
X171779500Y-96070148D01*
X171779500Y-96274851D01*
X171811522Y-96477034D01*
X171874781Y-96671723D01*
X171967715Y-96854113D01*
X172088028Y-97019713D01*
X172232786Y-97164471D01*
X172387749Y-97277056D01*
X172398390Y-97284787D01*
X172514607Y-97344003D01*
X172580776Y-97377718D01*
X172580778Y-97377718D01*
X172580781Y-97377720D01*
X172685137Y-97411627D01*
X172775465Y-97440977D01*
X172876557Y-97456988D01*
X172977648Y-97473000D01*
X172977649Y-97473000D01*
X173182351Y-97473000D01*
X173182352Y-97473000D01*
X173384534Y-97440977D01*
X173579219Y-97377720D01*
X173761610Y-97284787D01*
X173854590Y-97217232D01*
X173927213Y-97164471D01*
X173927215Y-97164468D01*
X173927219Y-97164466D01*
X174071966Y-97019719D01*
X174071968Y-97019715D01*
X174071971Y-97019713D01*
X174124732Y-96947090D01*
X174192287Y-96854110D01*
X174285220Y-96671719D01*
X174348477Y-96477034D01*
X174380500Y-96274852D01*
X174380500Y-96070148D01*
X178279500Y-96070148D01*
X178279500Y-96274851D01*
X178311522Y-96477034D01*
X178374781Y-96671723D01*
X178467715Y-96854113D01*
X178588028Y-97019713D01*
X178732786Y-97164471D01*
X178887749Y-97277056D01*
X178898390Y-97284787D01*
X179014607Y-97344003D01*
X179080776Y-97377718D01*
X179080778Y-97377718D01*
X179080781Y-97377720D01*
X179185137Y-97411627D01*
X179275465Y-97440977D01*
X179376557Y-97456988D01*
X179477648Y-97473000D01*
X179477649Y-97473000D01*
X179682351Y-97473000D01*
X179682352Y-97473000D01*
X179884534Y-97440977D01*
X180079219Y-97377720D01*
X180261610Y-97284787D01*
X180354590Y-97217232D01*
X180427213Y-97164471D01*
X180427215Y-97164468D01*
X180427219Y-97164466D01*
X180571966Y-97019719D01*
X180571968Y-97019715D01*
X180571971Y-97019713D01*
X180624732Y-96947090D01*
X180692287Y-96854110D01*
X180785220Y-96671719D01*
X180848477Y-96477034D01*
X180880500Y-96274852D01*
X180880500Y-96070148D01*
X180848477Y-95867966D01*
X180785220Y-95673281D01*
X180785218Y-95673278D01*
X180785218Y-95673276D01*
X180751503Y-95607107D01*
X180692287Y-95490890D01*
X180684556Y-95480249D01*
X180571971Y-95325286D01*
X180427213Y-95180528D01*
X180261613Y-95060215D01*
X180261612Y-95060214D01*
X180261610Y-95060213D01*
X180204653Y-95031191D01*
X180079223Y-94967281D01*
X179884534Y-94904022D01*
X179709995Y-94876378D01*
X179682352Y-94872000D01*
X179477648Y-94872000D01*
X179453329Y-94875851D01*
X179275465Y-94904022D01*
X179080776Y-94967281D01*
X178898386Y-95060215D01*
X178732786Y-95180528D01*
X178588028Y-95325286D01*
X178467715Y-95490886D01*
X178374781Y-95673276D01*
X178311522Y-95867965D01*
X178279500Y-96070148D01*
X174380500Y-96070148D01*
X174348477Y-95867966D01*
X174285220Y-95673281D01*
X174285218Y-95673278D01*
X174285218Y-95673276D01*
X174251503Y-95607107D01*
X174192287Y-95490890D01*
X174184556Y-95480249D01*
X174071971Y-95325286D01*
X173927213Y-95180528D01*
X173761613Y-95060215D01*
X173761612Y-95060214D01*
X173761610Y-95060213D01*
X173704653Y-95031191D01*
X173579223Y-94967281D01*
X173384534Y-94904022D01*
X173209995Y-94876378D01*
X173182352Y-94872000D01*
X172977648Y-94872000D01*
X172953329Y-94875851D01*
X172775465Y-94904022D01*
X172580776Y-94967281D01*
X172398386Y-95060215D01*
X172232786Y-95180528D01*
X172088028Y-95325286D01*
X171967715Y-95490886D01*
X171874781Y-95673276D01*
X171811522Y-95867965D01*
X171779500Y-96070148D01*
X136880500Y-96070148D01*
X136848477Y-95867966D01*
X136785220Y-95673281D01*
X136785218Y-95673278D01*
X136785218Y-95673276D01*
X136751503Y-95607107D01*
X136692287Y-95490890D01*
X136684556Y-95480249D01*
X136571971Y-95325286D01*
X136427213Y-95180528D01*
X136261613Y-95060215D01*
X136261612Y-95060214D01*
X136261610Y-95060213D01*
X136204653Y-95031191D01*
X136079223Y-94967281D01*
X135884534Y-94904022D01*
X135709995Y-94876378D01*
X135682352Y-94872000D01*
X135477648Y-94872000D01*
X135453329Y-94875851D01*
X135275465Y-94904022D01*
X135080776Y-94967281D01*
X134898386Y-95060215D01*
X134732786Y-95180528D01*
X134588028Y-95325286D01*
X134467715Y-95490886D01*
X134374781Y-95673276D01*
X134311522Y-95867965D01*
X134279500Y-96070148D01*
X130380500Y-96070148D01*
X130348477Y-95867966D01*
X130285220Y-95673281D01*
X130285218Y-95673278D01*
X130285218Y-95673276D01*
X130251503Y-95607107D01*
X130192287Y-95490890D01*
X130184556Y-95480249D01*
X130071971Y-95325286D01*
X129927213Y-95180528D01*
X129761613Y-95060215D01*
X129761612Y-95060214D01*
X129761610Y-95060213D01*
X129704653Y-95031191D01*
X129579223Y-94967281D01*
X129384534Y-94904022D01*
X129209995Y-94876378D01*
X129182352Y-94872000D01*
X128977648Y-94872000D01*
X128953329Y-94875851D01*
X128775465Y-94904022D01*
X128580776Y-94967281D01*
X128398386Y-95060215D01*
X128232786Y-95180528D01*
X128088028Y-95325286D01*
X127967715Y-95490886D01*
X127874781Y-95673276D01*
X127811522Y-95867965D01*
X127779500Y-96070148D01*
X44800500Y-96070148D01*
X44800500Y-93323193D01*
X209562000Y-93323193D01*
X209562000Y-93581806D01*
X209602456Y-93837233D01*
X209602456Y-93837234D01*
X209682374Y-94083195D01*
X209799783Y-94313622D01*
X209879963Y-94423981D01*
X209879964Y-94423982D01*
X210566837Y-93737109D01*
X210585997Y-93783364D01*
X210662439Y-93897768D01*
X210759732Y-93995061D01*
X210874136Y-94071503D01*
X210920390Y-94090661D01*
X210233516Y-94777534D01*
X210233517Y-94777536D01*
X210343877Y-94857716D01*
X210574304Y-94975125D01*
X210820266Y-95055043D01*
X211075694Y-95095500D01*
X211334306Y-95095500D01*
X211589733Y-95055043D01*
X211589734Y-95055043D01*
X211835695Y-94975125D01*
X212066119Y-94857718D01*
X212176481Y-94777534D01*
X212176482Y-94777534D01*
X211489609Y-94090662D01*
X211535864Y-94071503D01*
X211650268Y-93995061D01*
X211747561Y-93897768D01*
X211824003Y-93783364D01*
X211843161Y-93737109D01*
X212530034Y-94423982D01*
X212530034Y-94423981D01*
X212610218Y-94313619D01*
X212727625Y-94083195D01*
X212807543Y-93837234D01*
X212807543Y-93837233D01*
X212847999Y-93581809D01*
X212848000Y-93581802D01*
X212848000Y-93323193D01*
X212807543Y-93067766D01*
X212807543Y-93067765D01*
X212727625Y-92821804D01*
X212610216Y-92591377D01*
X212530036Y-92481017D01*
X212530034Y-92481016D01*
X211843161Y-93167889D01*
X211824003Y-93121636D01*
X211747561Y-93007232D01*
X211650268Y-92909939D01*
X211535864Y-92833497D01*
X211489608Y-92814337D01*
X211913263Y-92390683D01*
X214261000Y-92390683D01*
X214261000Y-92609316D01*
X214295202Y-92825259D01*
X214362761Y-93033188D01*
X214362762Y-93033191D01*
X214462020Y-93227993D01*
X214462021Y-93227995D01*
X214506806Y-93289638D01*
X214506807Y-93289638D01*
X215207861Y-92588584D01*
X215230667Y-92673694D01*
X215289910Y-92776306D01*
X215373694Y-92860090D01*
X215476306Y-92919333D01*
X215561414Y-92942137D01*
X214860360Y-93643191D01*
X214922008Y-93687980D01*
X215116808Y-93787237D01*
X215116811Y-93787238D01*
X215324740Y-93854797D01*
X215540684Y-93889000D01*
X215759316Y-93889000D01*
X215975259Y-93854797D01*
X216183188Y-93787238D01*
X216183191Y-93787237D01*
X216377995Y-93687978D01*
X216439638Y-93643191D01*
X216439639Y-93643191D01*
X215738585Y-92942138D01*
X215823694Y-92919333D01*
X215926306Y-92860090D01*
X216010090Y-92776306D01*
X216069333Y-92673694D01*
X216092137Y-92588585D01*
X216793191Y-93289639D01*
X216793191Y-93289638D01*
X216837978Y-93227995D01*
X216937237Y-93033191D01*
X216937238Y-93033188D01*
X217004797Y-92825259D01*
X217039000Y-92609316D01*
X217039000Y-92406384D01*
X220810500Y-92406384D01*
X220810500Y-92593615D01*
X220839790Y-92778543D01*
X220897645Y-92956606D01*
X220897646Y-92956609D01*
X220982651Y-93123437D01*
X221092694Y-93274900D01*
X221092698Y-93274905D01*
X221225094Y-93407301D01*
X221225099Y-93407305D01*
X221287304Y-93452499D01*
X221376566Y-93517351D01*
X221485620Y-93572917D01*
X221543390Y-93602353D01*
X221543393Y-93602354D01*
X221632424Y-93631281D01*
X221721458Y-93660210D01*
X221906384Y-93689500D01*
X221906385Y-93689500D01*
X222093615Y-93689500D01*
X222093616Y-93689500D01*
X222278542Y-93660210D01*
X222456609Y-93602353D01*
X222623434Y-93517351D01*
X222774907Y-93407300D01*
X222859014Y-93323193D01*
X224802000Y-93323193D01*
X224802000Y-93581806D01*
X224842456Y-93837233D01*
X224842456Y-93837234D01*
X224922374Y-94083195D01*
X225039783Y-94313622D01*
X225119963Y-94423981D01*
X225119964Y-94423982D01*
X225806837Y-93737109D01*
X225825997Y-93783364D01*
X225902439Y-93897768D01*
X225999732Y-93995061D01*
X226114136Y-94071503D01*
X226160390Y-94090661D01*
X225473516Y-94777534D01*
X225473517Y-94777536D01*
X225583877Y-94857716D01*
X225814304Y-94975125D01*
X226060266Y-95055043D01*
X226315694Y-95095500D01*
X226574306Y-95095500D01*
X226829733Y-95055043D01*
X226829734Y-95055043D01*
X227075695Y-94975125D01*
X227306119Y-94857718D01*
X227416481Y-94777534D01*
X227416482Y-94777534D01*
X226729609Y-94090662D01*
X226775864Y-94071503D01*
X226890268Y-93995061D01*
X226987561Y-93897768D01*
X227064003Y-93783364D01*
X227083161Y-93737109D01*
X227770034Y-94423982D01*
X227770034Y-94423981D01*
X227850218Y-94313619D01*
X227967625Y-94083195D01*
X228047543Y-93837234D01*
X228047543Y-93837233D01*
X228088000Y-93581806D01*
X228088000Y-93323193D01*
X228047543Y-93067766D01*
X228047543Y-93067765D01*
X227967625Y-92821804D01*
X227850216Y-92591377D01*
X227770036Y-92481017D01*
X227770034Y-92481016D01*
X227083161Y-93167889D01*
X227064003Y-93121636D01*
X226987561Y-93007232D01*
X226890268Y-92909939D01*
X226775864Y-92833497D01*
X226729608Y-92814337D01*
X227416482Y-92127464D01*
X227416481Y-92127463D01*
X227306122Y-92047283D01*
X227075695Y-91929874D01*
X226829733Y-91849956D01*
X226574306Y-91809500D01*
X226315694Y-91809500D01*
X226060266Y-91849956D01*
X226060265Y-91849956D01*
X225814304Y-91929874D01*
X225583884Y-92047279D01*
X225473517Y-92127464D01*
X225473517Y-92127465D01*
X226160390Y-92814337D01*
X226114136Y-92833497D01*
X225999732Y-92909939D01*
X225902439Y-93007232D01*
X225825997Y-93121636D01*
X225806837Y-93167890D01*
X225119965Y-92481017D01*
X225119964Y-92481017D01*
X225039779Y-92591384D01*
X224922374Y-92821804D01*
X224842456Y-93067765D01*
X224842456Y-93067766D01*
X224802000Y-93323193D01*
X222859014Y-93323193D01*
X222907300Y-93274907D01*
X222908758Y-93272899D01*
X222928713Y-93245436D01*
X223008537Y-93135565D01*
X223017351Y-93123434D01*
X223102353Y-92956609D01*
X223160210Y-92778542D01*
X223189500Y-92593616D01*
X223189500Y-92406384D01*
X223160210Y-92221458D01*
X223129670Y-92127464D01*
X223102354Y-92043393D01*
X223102353Y-92043390D01*
X223063332Y-91966808D01*
X223017351Y-91876566D01*
X222968625Y-91809500D01*
X222907305Y-91725099D01*
X222907301Y-91725094D01*
X222774905Y-91592698D01*
X222774900Y-91592694D01*
X222623437Y-91482651D01*
X222623436Y-91482650D01*
X222623434Y-91482649D01*
X222569988Y-91455416D01*
X222456609Y-91397646D01*
X222456606Y-91397645D01*
X222278543Y-91339790D01*
X222161500Y-91321252D01*
X222093616Y-91310500D01*
X221906384Y-91310500D01*
X221853059Y-91318946D01*
X221721456Y-91339790D01*
X221543393Y-91397645D01*
X221543390Y-91397646D01*
X221376562Y-91482651D01*
X221225099Y-91592694D01*
X221225094Y-91592698D01*
X221092698Y-91725094D01*
X221092694Y-91725099D01*
X220982651Y-91876562D01*
X220897646Y-92043390D01*
X220897645Y-92043393D01*
X220839790Y-92221456D01*
X220810500Y-92406384D01*
X217039000Y-92406384D01*
X217039000Y-92390683D01*
X217004797Y-92174740D01*
X216937238Y-91966811D01*
X216937237Y-91966808D01*
X216837980Y-91772008D01*
X216793191Y-91710360D01*
X216092137Y-92411414D01*
X216069333Y-92326306D01*
X216010090Y-92223694D01*
X215926306Y-92139910D01*
X215823694Y-92080667D01*
X215738583Y-92057861D01*
X216439638Y-91356807D01*
X216439638Y-91356806D01*
X216377995Y-91312021D01*
X216377993Y-91312020D01*
X216183191Y-91212762D01*
X216183188Y-91212761D01*
X215975259Y-91145202D01*
X215759316Y-91111000D01*
X215540684Y-91111000D01*
X215324740Y-91145202D01*
X215116811Y-91212761D01*
X215116808Y-91212762D01*
X214922001Y-91312023D01*
X214860360Y-91356806D01*
X214860360Y-91356807D01*
X215561414Y-92057861D01*
X215476306Y-92080667D01*
X215373694Y-92139910D01*
X215289910Y-92223694D01*
X215230667Y-92326306D01*
X215207861Y-92411414D01*
X214506807Y-91710360D01*
X214506806Y-91710360D01*
X214462023Y-91772001D01*
X214362762Y-91966808D01*
X214362761Y-91966811D01*
X214295202Y-92174740D01*
X214261000Y-92390683D01*
X211913263Y-92390683D01*
X212176482Y-92127464D01*
X212176481Y-92127463D01*
X212066122Y-92047283D01*
X211835695Y-91929874D01*
X211589733Y-91849956D01*
X211334306Y-91809500D01*
X211075694Y-91809500D01*
X210820266Y-91849956D01*
X210820265Y-91849956D01*
X210574304Y-91929874D01*
X210343884Y-92047279D01*
X210233517Y-92127464D01*
X210233517Y-92127465D01*
X210920390Y-92814337D01*
X210874136Y-92833497D01*
X210759732Y-92909939D01*
X210662439Y-93007232D01*
X210585997Y-93121636D01*
X210566837Y-93167890D01*
X209879965Y-92481017D01*
X209879964Y-92481017D01*
X209799779Y-92591384D01*
X209682374Y-92821804D01*
X209602456Y-93067765D01*
X209602456Y-93067766D01*
X209562000Y-93323193D01*
X44800500Y-93323193D01*
X44800500Y-91554447D01*
X127580000Y-91554447D01*
X127580000Y-91790552D01*
X127616934Y-92023747D01*
X127689897Y-92248302D01*
X127797087Y-92458674D01*
X127857338Y-92541604D01*
X127857340Y-92541605D01*
X128556212Y-91842733D01*
X128567482Y-91884792D01*
X128639890Y-92010208D01*
X128742292Y-92112610D01*
X128867708Y-92185018D01*
X128909765Y-92196287D01*
X128210893Y-92895158D01*
X128293828Y-92955414D01*
X128504197Y-93062602D01*
X128728752Y-93135565D01*
X128728751Y-93135565D01*
X128961948Y-93172500D01*
X129198052Y-93172500D01*
X129431247Y-93135565D01*
X129655802Y-93062602D01*
X129866163Y-92955418D01*
X129866169Y-92955414D01*
X129949104Y-92895158D01*
X129949105Y-92895158D01*
X129250233Y-92196287D01*
X129292292Y-92185018D01*
X129417708Y-92112610D01*
X129520110Y-92010208D01*
X129592518Y-91884792D01*
X129603787Y-91842734D01*
X130302658Y-92541605D01*
X130302658Y-92541604D01*
X130362914Y-92458669D01*
X130362918Y-92458663D01*
X130470102Y-92248302D01*
X130543065Y-92023747D01*
X130580000Y-91790552D01*
X130580000Y-91554447D01*
X134080000Y-91554447D01*
X134080000Y-91790552D01*
X134116934Y-92023747D01*
X134189897Y-92248302D01*
X134297087Y-92458674D01*
X134357338Y-92541604D01*
X134357340Y-92541605D01*
X135056212Y-91842733D01*
X135067482Y-91884792D01*
X135139890Y-92010208D01*
X135242292Y-92112610D01*
X135367708Y-92185018D01*
X135409765Y-92196287D01*
X134710893Y-92895158D01*
X134793828Y-92955414D01*
X135004197Y-93062602D01*
X135228752Y-93135565D01*
X135228751Y-93135565D01*
X135461948Y-93172500D01*
X135698052Y-93172500D01*
X135931247Y-93135565D01*
X136155802Y-93062602D01*
X136366163Y-92955418D01*
X136366169Y-92955414D01*
X136449104Y-92895158D01*
X136449105Y-92895158D01*
X135750233Y-92196287D01*
X135792292Y-92185018D01*
X135917708Y-92112610D01*
X136020110Y-92010208D01*
X136092518Y-91884792D01*
X136103787Y-91842734D01*
X136802658Y-92541605D01*
X136802658Y-92541604D01*
X136862914Y-92458669D01*
X136862918Y-92458663D01*
X136970102Y-92248302D01*
X137043065Y-92023747D01*
X137080000Y-91790552D01*
X137080000Y-91554447D01*
X171580000Y-91554447D01*
X171580000Y-91790552D01*
X171616934Y-92023747D01*
X171689897Y-92248302D01*
X171797087Y-92458674D01*
X171857338Y-92541604D01*
X171857340Y-92541605D01*
X172556212Y-91842733D01*
X172567482Y-91884792D01*
X172639890Y-92010208D01*
X172742292Y-92112610D01*
X172867708Y-92185018D01*
X172909765Y-92196287D01*
X172210893Y-92895158D01*
X172293828Y-92955414D01*
X172504197Y-93062602D01*
X172728752Y-93135565D01*
X172728751Y-93135565D01*
X172961948Y-93172500D01*
X173198052Y-93172500D01*
X173431247Y-93135565D01*
X173655802Y-93062602D01*
X173866163Y-92955418D01*
X173866169Y-92955414D01*
X173949104Y-92895158D01*
X173949105Y-92895158D01*
X173250233Y-92196287D01*
X173292292Y-92185018D01*
X173417708Y-92112610D01*
X173520110Y-92010208D01*
X173592518Y-91884792D01*
X173603787Y-91842733D01*
X174302658Y-92541605D01*
X174302658Y-92541604D01*
X174362914Y-92458669D01*
X174362918Y-92458663D01*
X174470102Y-92248302D01*
X174543065Y-92023747D01*
X174580000Y-91790552D01*
X174580000Y-91554447D01*
X178080000Y-91554447D01*
X178080000Y-91790552D01*
X178116934Y-92023747D01*
X178189897Y-92248302D01*
X178297087Y-92458674D01*
X178357338Y-92541604D01*
X178357340Y-92541605D01*
X179056212Y-91842733D01*
X179067482Y-91884792D01*
X179139890Y-92010208D01*
X179242292Y-92112610D01*
X179367708Y-92185018D01*
X179409765Y-92196287D01*
X178710893Y-92895158D01*
X178793828Y-92955414D01*
X179004197Y-93062602D01*
X179228752Y-93135565D01*
X179228751Y-93135565D01*
X179461948Y-93172500D01*
X179698052Y-93172500D01*
X179931247Y-93135565D01*
X180155802Y-93062602D01*
X180366163Y-92955418D01*
X180366169Y-92955414D01*
X180449104Y-92895158D01*
X180449105Y-92895158D01*
X179750233Y-92196287D01*
X179792292Y-92185018D01*
X179917708Y-92112610D01*
X180020110Y-92010208D01*
X180092518Y-91884792D01*
X180103787Y-91842733D01*
X180802658Y-92541605D01*
X180802658Y-92541604D01*
X180862914Y-92458669D01*
X180862918Y-92458663D01*
X180970102Y-92248304D01*
X181006461Y-92136405D01*
X181006461Y-92136404D01*
X181043065Y-92023748D01*
X181080000Y-91790552D01*
X181080000Y-91554447D01*
X181059254Y-91423464D01*
X181059254Y-91423463D01*
X181043066Y-91321253D01*
X181043065Y-91321252D01*
X180970102Y-91096697D01*
X180862914Y-90886328D01*
X180802658Y-90803394D01*
X180802658Y-90803393D01*
X180103787Y-91502265D01*
X180092518Y-91460208D01*
X180020110Y-91334792D01*
X179917708Y-91232390D01*
X179792292Y-91159982D01*
X179750234Y-91148712D01*
X180449105Y-90449840D01*
X180449104Y-90449838D01*
X180366174Y-90389587D01*
X180155802Y-90282397D01*
X179931247Y-90209434D01*
X179931248Y-90209434D01*
X179698052Y-90172500D01*
X179461948Y-90172500D01*
X179228752Y-90209434D01*
X179004197Y-90282397D01*
X178793830Y-90389584D01*
X178710894Y-90449840D01*
X179409766Y-91148712D01*
X179367708Y-91159982D01*
X179242292Y-91232390D01*
X179139890Y-91334792D01*
X179067482Y-91460208D01*
X179056212Y-91502266D01*
X178357340Y-90803394D01*
X178297084Y-90886330D01*
X178189897Y-91096697D01*
X178116934Y-91321252D01*
X178080000Y-91554447D01*
X174580000Y-91554447D01*
X174543065Y-91321252D01*
X174470102Y-91096697D01*
X174362914Y-90886328D01*
X174302658Y-90803394D01*
X174302658Y-90803393D01*
X173603787Y-91502265D01*
X173592518Y-91460208D01*
X173520110Y-91334792D01*
X173417708Y-91232390D01*
X173292292Y-91159982D01*
X173250234Y-91148712D01*
X173949105Y-90449840D01*
X173949104Y-90449839D01*
X173866174Y-90389587D01*
X173655802Y-90282397D01*
X173431247Y-90209434D01*
X173431248Y-90209434D01*
X173198052Y-90172500D01*
X172961948Y-90172500D01*
X172728752Y-90209434D01*
X172504197Y-90282397D01*
X172293830Y-90389584D01*
X172210894Y-90449840D01*
X172909766Y-91148712D01*
X172867708Y-91159982D01*
X172742292Y-91232390D01*
X172639890Y-91334792D01*
X172567482Y-91460208D01*
X172556212Y-91502266D01*
X171857340Y-90803394D01*
X171797084Y-90886330D01*
X171689897Y-91096697D01*
X171616934Y-91321252D01*
X171580000Y-91554447D01*
X137080000Y-91554447D01*
X137043065Y-91321252D01*
X136970102Y-91096697D01*
X136862914Y-90886328D01*
X136802658Y-90803394D01*
X136802658Y-90803393D01*
X136103787Y-91502265D01*
X136092518Y-91460208D01*
X136020110Y-91334792D01*
X135917708Y-91232390D01*
X135792292Y-91159982D01*
X135750234Y-91148712D01*
X136449105Y-90449840D01*
X136449104Y-90449839D01*
X136366174Y-90389587D01*
X136155802Y-90282397D01*
X135931247Y-90209434D01*
X135931248Y-90209434D01*
X135698052Y-90172500D01*
X135461948Y-90172500D01*
X135228752Y-90209434D01*
X135004197Y-90282397D01*
X134793830Y-90389584D01*
X134710894Y-90449840D01*
X135409766Y-91148712D01*
X135367708Y-91159982D01*
X135242292Y-91232390D01*
X135139890Y-91334792D01*
X135067482Y-91460208D01*
X135056212Y-91502266D01*
X134357340Y-90803394D01*
X134297084Y-90886330D01*
X134189897Y-91096697D01*
X134116934Y-91321252D01*
X134080000Y-91554447D01*
X130580000Y-91554447D01*
X130543065Y-91321252D01*
X130470102Y-91096697D01*
X130362914Y-90886328D01*
X130302658Y-90803394D01*
X130302658Y-90803393D01*
X129603787Y-91502265D01*
X129592518Y-91460208D01*
X129520110Y-91334792D01*
X129417708Y-91232390D01*
X129292292Y-91159982D01*
X129250234Y-91148712D01*
X129949105Y-90449840D01*
X129949104Y-90449839D01*
X129866174Y-90389587D01*
X129655802Y-90282397D01*
X129431247Y-90209434D01*
X129431248Y-90209434D01*
X129198052Y-90172500D01*
X128961948Y-90172500D01*
X128728752Y-90209434D01*
X128504197Y-90282397D01*
X128293830Y-90389584D01*
X128210894Y-90449840D01*
X128909766Y-91148712D01*
X128867708Y-91159982D01*
X128742292Y-91232390D01*
X128639890Y-91334792D01*
X128567482Y-91460208D01*
X128556212Y-91502266D01*
X127857340Y-90803394D01*
X127797084Y-90886330D01*
X127689897Y-91096697D01*
X127616934Y-91321252D01*
X127580000Y-91554447D01*
X44800500Y-91554447D01*
X44800500Y-87326384D01*
X214460500Y-87326384D01*
X214460500Y-87513615D01*
X214489790Y-87698543D01*
X214547645Y-87876606D01*
X214547646Y-87876609D01*
X214632651Y-88043437D01*
X214742694Y-88194900D01*
X214742698Y-88194905D01*
X214875094Y-88327301D01*
X214875099Y-88327305D01*
X215007212Y-88423290D01*
X215026566Y-88437351D01*
X215135620Y-88492917D01*
X215193390Y-88522353D01*
X215193393Y-88522354D01*
X215282424Y-88551281D01*
X215371458Y-88580210D01*
X215556384Y-88609500D01*
X215556385Y-88609500D01*
X215743615Y-88609500D01*
X215743616Y-88609500D01*
X215928542Y-88580210D01*
X216106609Y-88522353D01*
X216273434Y-88437351D01*
X216424907Y-88327300D01*
X216557300Y-88194907D01*
X216667351Y-88043434D01*
X216752353Y-87876609D01*
X216810210Y-87698542D01*
X216839500Y-87513616D01*
X216839500Y-87326384D01*
X220810500Y-87326384D01*
X220810500Y-87513615D01*
X220839790Y-87698543D01*
X220897645Y-87876606D01*
X220897646Y-87876609D01*
X220982651Y-88043437D01*
X221092694Y-88194900D01*
X221092698Y-88194905D01*
X221225094Y-88327301D01*
X221225099Y-88327305D01*
X221357212Y-88423290D01*
X221376566Y-88437351D01*
X221485620Y-88492917D01*
X221543390Y-88522353D01*
X221543393Y-88522354D01*
X221632424Y-88551281D01*
X221721458Y-88580210D01*
X221906384Y-88609500D01*
X221906385Y-88609500D01*
X222093615Y-88609500D01*
X222093616Y-88609500D01*
X222278542Y-88580210D01*
X222456609Y-88522353D01*
X222623434Y-88437351D01*
X222774907Y-88327300D01*
X222907300Y-88194907D01*
X223017351Y-88043434D01*
X223102353Y-87876609D01*
X223160210Y-87698542D01*
X223189500Y-87513616D01*
X223189500Y-87326384D01*
X223160210Y-87141458D01*
X223102353Y-86963391D01*
X223102353Y-86963390D01*
X223072917Y-86905620D01*
X223017351Y-86796566D01*
X223003290Y-86777212D01*
X222907305Y-86645099D01*
X222907301Y-86645094D01*
X222774905Y-86512698D01*
X222774900Y-86512694D01*
X222623437Y-86402651D01*
X222623436Y-86402650D01*
X222623434Y-86402649D01*
X222569988Y-86375416D01*
X222456609Y-86317646D01*
X222456606Y-86317645D01*
X222278543Y-86259790D01*
X222186079Y-86245145D01*
X222093616Y-86230500D01*
X221906384Y-86230500D01*
X221844742Y-86240263D01*
X221721456Y-86259790D01*
X221543393Y-86317645D01*
X221543390Y-86317646D01*
X221376562Y-86402651D01*
X221225099Y-86512694D01*
X221225094Y-86512698D01*
X221092698Y-86645094D01*
X221092694Y-86645099D01*
X220982651Y-86796562D01*
X220897646Y-86963390D01*
X220897645Y-86963393D01*
X220839790Y-87141456D01*
X220810500Y-87326384D01*
X216839500Y-87326384D01*
X216810210Y-87141458D01*
X216752353Y-86963391D01*
X216752353Y-86963390D01*
X216722917Y-86905620D01*
X216667351Y-86796566D01*
X216653290Y-86777212D01*
X216557305Y-86645099D01*
X216557301Y-86645094D01*
X216424905Y-86512698D01*
X216424900Y-86512694D01*
X216273437Y-86402651D01*
X216273436Y-86402650D01*
X216273434Y-86402649D01*
X216219988Y-86375416D01*
X216106609Y-86317646D01*
X216106606Y-86317645D01*
X215928543Y-86259790D01*
X215836079Y-86245145D01*
X215743616Y-86230500D01*
X215556384Y-86230500D01*
X215494742Y-86240263D01*
X215371456Y-86259790D01*
X215193393Y-86317645D01*
X215193390Y-86317646D01*
X215026562Y-86402651D01*
X214875099Y-86512694D01*
X214875094Y-86512698D01*
X214742698Y-86645094D01*
X214742694Y-86645099D01*
X214632651Y-86796562D01*
X214547646Y-86963390D01*
X214547645Y-86963393D01*
X214489790Y-87141456D01*
X214460500Y-87326384D01*
X44800500Y-87326384D01*
X44800500Y-72986384D01*
X66345500Y-72986384D01*
X66345500Y-73173615D01*
X66374790Y-73358543D01*
X66432645Y-73536606D01*
X66432646Y-73536609D01*
X66517651Y-73703437D01*
X66627694Y-73854900D01*
X66627698Y-73854905D01*
X66760094Y-73987301D01*
X66760099Y-73987305D01*
X66878244Y-74073141D01*
X66911566Y-74097351D01*
X67020620Y-74152917D01*
X67078390Y-74182353D01*
X67078393Y-74182354D01*
X67167424Y-74211281D01*
X67256458Y-74240210D01*
X67441384Y-74269500D01*
X67441385Y-74269500D01*
X67628615Y-74269500D01*
X67628616Y-74269500D01*
X67813542Y-74240210D01*
X67991609Y-74182353D01*
X68158434Y-74097351D01*
X68309907Y-73987300D01*
X68442300Y-73854907D01*
X68552351Y-73703434D01*
X68637353Y-73536609D01*
X68687069Y-73383598D01*
X68726506Y-73325923D01*
X68790865Y-73298724D01*
X68859711Y-73310638D01*
X68911187Y-73357882D01*
X68922931Y-73383598D01*
X68972645Y-73536606D01*
X68972646Y-73536609D01*
X69057651Y-73703437D01*
X69167694Y-73854900D01*
X69167698Y-73854905D01*
X69300094Y-73987301D01*
X69300099Y-73987305D01*
X69418244Y-74073141D01*
X69451566Y-74097351D01*
X69560620Y-74152917D01*
X69618390Y-74182353D01*
X69618393Y-74182354D01*
X69707424Y-74211281D01*
X69796458Y-74240210D01*
X69981384Y-74269500D01*
X69981385Y-74269500D01*
X70168615Y-74269500D01*
X70168616Y-74269500D01*
X70353542Y-74240210D01*
X70531609Y-74182353D01*
X70698434Y-74097351D01*
X70715893Y-74084666D01*
X70728352Y-74075615D01*
X70849901Y-73987305D01*
X70849903Y-73987302D01*
X70849907Y-73987300D01*
X70982300Y-73854907D01*
X71092351Y-73703434D01*
X71122562Y-73644139D01*
X71170536Y-73593345D01*
X71238357Y-73576549D01*
X71304492Y-73599086D01*
X71343532Y-73644140D01*
X71427020Y-73807993D01*
X71427021Y-73807995D01*
X71471806Y-73869638D01*
X71471807Y-73869638D01*
X72177352Y-73164093D01*
X72200792Y-73251571D01*
X72259311Y-73352930D01*
X72342070Y-73435689D01*
X72443429Y-73494208D01*
X72530905Y-73517647D01*
X71825360Y-74223191D01*
X71887008Y-74267980D01*
X72081808Y-74367237D01*
X72081811Y-74367238D01*
X72289740Y-74434797D01*
X72505684Y-74469000D01*
X72724316Y-74469000D01*
X72940259Y-74434797D01*
X73148188Y-74367238D01*
X73148191Y-74367237D01*
X73342995Y-74267978D01*
X73404638Y-74223191D01*
X73404639Y-74223191D01*
X73363395Y-74181947D01*
X149100000Y-74181947D01*
X149100000Y-74418052D01*
X149136934Y-74651247D01*
X149209897Y-74875802D01*
X149317087Y-75086174D01*
X149377338Y-75169104D01*
X149377340Y-75169105D01*
X150076212Y-74470233D01*
X150087482Y-74512292D01*
X150159890Y-74637708D01*
X150262292Y-74740110D01*
X150387708Y-74812518D01*
X150429765Y-74823787D01*
X149730893Y-75522658D01*
X149813828Y-75582914D01*
X150024197Y-75690102D01*
X150248752Y-75763065D01*
X150248751Y-75763065D01*
X150481948Y-75800000D01*
X150718052Y-75800000D01*
X150951247Y-75763065D01*
X151175802Y-75690102D01*
X151386163Y-75582918D01*
X151386169Y-75582914D01*
X151469104Y-75522658D01*
X151469105Y-75522658D01*
X150770233Y-74823787D01*
X150812292Y-74812518D01*
X150937708Y-74740110D01*
X151040110Y-74637708D01*
X151112518Y-74512292D01*
X151123787Y-74470234D01*
X151822658Y-75169105D01*
X151822658Y-75169104D01*
X151882914Y-75086169D01*
X151882918Y-75086163D01*
X151990102Y-74875802D01*
X152063065Y-74651247D01*
X152100000Y-74418052D01*
X152100000Y-74181947D01*
X155600000Y-74181947D01*
X155600000Y-74418052D01*
X155636934Y-74651247D01*
X155709897Y-74875802D01*
X155817087Y-75086174D01*
X155877338Y-75169104D01*
X155877340Y-75169105D01*
X156576212Y-74470233D01*
X156587482Y-74512292D01*
X156659890Y-74637708D01*
X156762292Y-74740110D01*
X156887708Y-74812518D01*
X156929765Y-74823787D01*
X156230893Y-75522658D01*
X156313828Y-75582914D01*
X156524197Y-75690102D01*
X156748752Y-75763065D01*
X156748751Y-75763065D01*
X156981948Y-75800000D01*
X157218052Y-75800000D01*
X157451247Y-75763065D01*
X157675802Y-75690102D01*
X157886163Y-75582918D01*
X157886169Y-75582914D01*
X157969104Y-75522658D01*
X157969105Y-75522658D01*
X157270233Y-74823787D01*
X157312292Y-74812518D01*
X157437708Y-74740110D01*
X157540110Y-74637708D01*
X157612518Y-74512292D01*
X157623787Y-74470234D01*
X158322658Y-75169105D01*
X158322658Y-75169104D01*
X158382914Y-75086169D01*
X158382918Y-75086163D01*
X158490102Y-74875802D01*
X158563065Y-74651247D01*
X158595677Y-74445346D01*
X173730774Y-74445346D01*
X173755772Y-74571013D01*
X173755774Y-74571019D01*
X173804808Y-74689399D01*
X173804813Y-74689408D01*
X173875998Y-74795943D01*
X173876001Y-74795947D01*
X173966602Y-74886548D01*
X173966606Y-74886551D01*
X174073141Y-74957736D01*
X174073153Y-74957743D01*
X174146072Y-74987946D01*
X174186301Y-75014826D01*
X174685008Y-75513533D01*
X174718493Y-75574856D01*
X174718944Y-75577023D01*
X174720722Y-75585961D01*
X174720724Y-75585969D01*
X174769758Y-75704349D01*
X174769763Y-75704358D01*
X174840948Y-75810893D01*
X174840951Y-75810897D01*
X174931552Y-75901498D01*
X174931556Y-75901501D01*
X175038091Y-75972686D01*
X175038097Y-75972689D01*
X175038098Y-75972690D01*
X175156481Y-76021726D01*
X175156485Y-76021726D01*
X175156486Y-76021727D01*
X175282153Y-76046725D01*
X175282156Y-76046725D01*
X175410296Y-76046725D01*
X175494840Y-76029907D01*
X175535969Y-76021726D01*
X175654352Y-75972690D01*
X175729468Y-75922499D01*
X239097811Y-75922499D01*
X239097812Y-75922500D01*
X240531518Y-75922500D01*
X240520889Y-75940909D01*
X240480000Y-76093509D01*
X240480000Y-76251491D01*
X240520889Y-76404091D01*
X240531518Y-76422500D01*
X239097812Y-76422500D01*
X239109942Y-76514637D01*
X239169318Y-76736230D01*
X239257102Y-76948159D01*
X239257106Y-76948168D01*
X239371809Y-77146838D01*
X239511455Y-77328829D01*
X239511461Y-77328836D01*
X239673663Y-77491038D01*
X239673670Y-77491044D01*
X239855661Y-77630690D01*
X240054331Y-77745393D01*
X240054340Y-77745397D01*
X240266269Y-77833181D01*
X240487862Y-77892557D01*
X240715289Y-77922498D01*
X240715306Y-77922500D01*
X240830000Y-77922500D01*
X240830000Y-76720982D01*
X240848409Y-76731611D01*
X241001009Y-76772500D01*
X241158991Y-76772500D01*
X241311591Y-76731611D01*
X241330000Y-76720982D01*
X241330000Y-77922500D01*
X241444694Y-77922500D01*
X241444710Y-77922498D01*
X241672137Y-77892557D01*
X241893730Y-77833181D01*
X242105659Y-77745397D01*
X242105668Y-77745393D01*
X242304338Y-77630690D01*
X242486329Y-77491044D01*
X242486336Y-77491038D01*
X242648538Y-77328836D01*
X242648544Y-77328829D01*
X242788190Y-77146838D01*
X242902893Y-76948168D01*
X242902897Y-76948159D01*
X242990681Y-76736230D01*
X243050057Y-76514637D01*
X243062188Y-76422500D01*
X241628482Y-76422500D01*
X241639111Y-76404091D01*
X241680000Y-76251491D01*
X241680000Y-76093509D01*
X241639111Y-75940909D01*
X241628482Y-75922500D01*
X243062188Y-75922500D01*
X243062188Y-75922499D01*
X251597811Y-75922499D01*
X251597812Y-75922500D01*
X253031518Y-75922500D01*
X253020889Y-75940909D01*
X252980000Y-76093509D01*
X252980000Y-76251491D01*
X253020889Y-76404091D01*
X253031518Y-76422500D01*
X251597812Y-76422500D01*
X251609942Y-76514637D01*
X251669318Y-76736230D01*
X251757102Y-76948159D01*
X251757106Y-76948168D01*
X251871809Y-77146838D01*
X252011455Y-77328829D01*
X252011461Y-77328836D01*
X252173663Y-77491038D01*
X252173670Y-77491044D01*
X252355661Y-77630690D01*
X252554331Y-77745393D01*
X252554340Y-77745397D01*
X252766269Y-77833181D01*
X252987862Y-77892557D01*
X253215289Y-77922498D01*
X253215306Y-77922500D01*
X253330000Y-77922500D01*
X253330000Y-76720982D01*
X253348409Y-76731611D01*
X253501009Y-76772500D01*
X253658991Y-76772500D01*
X253811591Y-76731611D01*
X253830000Y-76720982D01*
X253830000Y-77922500D01*
X253944694Y-77922500D01*
X253944710Y-77922498D01*
X254172137Y-77892557D01*
X254393730Y-77833181D01*
X254605659Y-77745397D01*
X254605668Y-77745393D01*
X254804338Y-77630690D01*
X254986329Y-77491044D01*
X254986336Y-77491038D01*
X255148538Y-77328836D01*
X255148544Y-77328829D01*
X255288190Y-77146838D01*
X255402893Y-76948168D01*
X255402897Y-76948159D01*
X255490681Y-76736230D01*
X255550057Y-76514637D01*
X255562188Y-76422500D01*
X254128482Y-76422500D01*
X254139111Y-76404091D01*
X254180000Y-76251491D01*
X254180000Y-76093509D01*
X254139111Y-75940909D01*
X254128482Y-75922500D01*
X255562188Y-75922500D01*
X255562188Y-75922499D01*
X255550057Y-75830362D01*
X255490681Y-75608769D01*
X255402897Y-75396840D01*
X255402893Y-75396831D01*
X255288190Y-75198161D01*
X255148544Y-75016170D01*
X255148538Y-75016163D01*
X254986336Y-74853961D01*
X254986329Y-74853955D01*
X254804338Y-74714309D01*
X254605668Y-74599606D01*
X254605659Y-74599602D01*
X254393730Y-74511818D01*
X254172137Y-74452442D01*
X253944710Y-74422501D01*
X253944694Y-74422500D01*
X253830000Y-74422500D01*
X253830000Y-75624017D01*
X253811591Y-75613389D01*
X253658991Y-75572500D01*
X253501009Y-75572500D01*
X253348409Y-75613389D01*
X253330000Y-75624017D01*
X253330000Y-74422500D01*
X253215306Y-74422500D01*
X253215289Y-74422501D01*
X252987862Y-74452442D01*
X252766269Y-74511818D01*
X252554340Y-74599602D01*
X252554331Y-74599606D01*
X252355661Y-74714309D01*
X252173670Y-74853955D01*
X252173663Y-74853961D01*
X252011461Y-75016163D01*
X252011455Y-75016170D01*
X251871809Y-75198161D01*
X251757106Y-75396831D01*
X251757102Y-75396840D01*
X251669318Y-75608769D01*
X251609942Y-75830362D01*
X251597811Y-75922499D01*
X243062188Y-75922499D01*
X243050057Y-75830362D01*
X242990681Y-75608769D01*
X242902897Y-75396840D01*
X242902893Y-75396831D01*
X242788190Y-75198161D01*
X242648544Y-75016170D01*
X242648538Y-75016163D01*
X242486336Y-74853961D01*
X242486329Y-74853955D01*
X242304338Y-74714309D01*
X242105668Y-74599606D01*
X242105659Y-74599602D01*
X241893730Y-74511818D01*
X241672137Y-74452442D01*
X241444710Y-74422501D01*
X241444694Y-74422500D01*
X241330000Y-74422500D01*
X241330000Y-75624017D01*
X241311591Y-75613389D01*
X241158991Y-75572500D01*
X241001009Y-75572500D01*
X240848409Y-75613389D01*
X240830000Y-75624017D01*
X240830000Y-74422500D01*
X240715306Y-74422500D01*
X240715289Y-74422501D01*
X240487862Y-74452442D01*
X240266269Y-74511818D01*
X240054340Y-74599602D01*
X240054331Y-74599606D01*
X239855661Y-74714309D01*
X239673670Y-74853955D01*
X239673663Y-74853961D01*
X239511461Y-75016163D01*
X239511455Y-75016170D01*
X239371809Y-75198161D01*
X239257106Y-75396831D01*
X239257102Y-75396840D01*
X239169318Y-75608769D01*
X239109942Y-75830362D01*
X239097811Y-75922499D01*
X175729468Y-75922499D01*
X175760894Y-75901501D01*
X175760897Y-75901498D01*
X175788060Y-75874336D01*
X175851498Y-75810897D01*
X175851501Y-75810894D01*
X175922690Y-75704352D01*
X175971726Y-75585969D01*
X175996725Y-75460294D01*
X175996725Y-75332156D01*
X175996725Y-75332153D01*
X175971727Y-75206486D01*
X175971726Y-75206485D01*
X175971726Y-75206481D01*
X175922690Y-75088098D01*
X175922689Y-75088097D01*
X175922686Y-75088091D01*
X175851501Y-74981556D01*
X175851498Y-74981552D01*
X175760897Y-74890951D01*
X175760893Y-74890948D01*
X175654358Y-74819763D01*
X175654349Y-74819758D01*
X175535969Y-74770724D01*
X175535961Y-74770722D01*
X175527023Y-74768944D01*
X175465112Y-74736559D01*
X175463533Y-74735008D01*
X175054906Y-74326381D01*
X175021421Y-74265058D01*
X175020996Y-74263023D01*
X175006776Y-74191531D01*
X174957740Y-74073148D01*
X174957739Y-74073147D01*
X174957736Y-74073141D01*
X174886551Y-73966606D01*
X174886548Y-73966602D01*
X174795947Y-73876001D01*
X174795943Y-73875998D01*
X174689408Y-73804813D01*
X174689399Y-73804808D01*
X174571019Y-73755774D01*
X174571013Y-73755772D01*
X174445346Y-73730775D01*
X174445344Y-73730775D01*
X174317206Y-73730775D01*
X174317204Y-73730775D01*
X174191536Y-73755772D01*
X174191530Y-73755774D01*
X174073150Y-73804808D01*
X174073141Y-73804813D01*
X173966606Y-73875998D01*
X173966602Y-73876001D01*
X173876001Y-73966602D01*
X173875998Y-73966606D01*
X173804813Y-74073141D01*
X173804808Y-74073150D01*
X173755774Y-74191530D01*
X173755772Y-74191536D01*
X173730775Y-74317203D01*
X173730775Y-74317206D01*
X173730775Y-74445344D01*
X173730775Y-74445346D01*
X173730774Y-74445346D01*
X158595677Y-74445346D01*
X158600000Y-74418052D01*
X158600000Y-74181947D01*
X158563065Y-73948752D01*
X158490102Y-73724197D01*
X158382914Y-73513828D01*
X158322658Y-73430894D01*
X158322658Y-73430893D01*
X157623787Y-74129765D01*
X157612518Y-74087708D01*
X157540110Y-73962292D01*
X157437708Y-73859890D01*
X157312292Y-73787482D01*
X157270234Y-73776212D01*
X157969105Y-73077340D01*
X157969104Y-73077338D01*
X157886174Y-73017087D01*
X157675802Y-72909897D01*
X157451247Y-72836934D01*
X157451248Y-72836934D01*
X157218052Y-72800000D01*
X156981948Y-72800000D01*
X156748752Y-72836934D01*
X156524197Y-72909897D01*
X156313830Y-73017084D01*
X156230894Y-73077340D01*
X156929766Y-73776212D01*
X156887708Y-73787482D01*
X156762292Y-73859890D01*
X156659890Y-73962292D01*
X156587482Y-74087708D01*
X156576212Y-74129766D01*
X155877340Y-73430894D01*
X155817084Y-73513830D01*
X155709897Y-73724197D01*
X155636934Y-73948752D01*
X155600000Y-74181947D01*
X152100000Y-74181947D01*
X152063065Y-73948752D01*
X151990102Y-73724197D01*
X151882914Y-73513828D01*
X151822658Y-73430894D01*
X151822658Y-73430893D01*
X151123787Y-74129765D01*
X151112518Y-74087708D01*
X151040110Y-73962292D01*
X150937708Y-73859890D01*
X150812292Y-73787482D01*
X150770234Y-73776212D01*
X151469105Y-73077340D01*
X151469104Y-73077339D01*
X151386174Y-73017087D01*
X151175802Y-72909897D01*
X150951247Y-72836934D01*
X150951248Y-72836934D01*
X150718052Y-72800000D01*
X150481948Y-72800000D01*
X150248752Y-72836934D01*
X150024197Y-72909897D01*
X149813830Y-73017084D01*
X149730894Y-73077340D01*
X150429766Y-73776212D01*
X150387708Y-73787482D01*
X150262292Y-73859890D01*
X150159890Y-73962292D01*
X150087482Y-74087708D01*
X150076212Y-74129766D01*
X149377340Y-73430894D01*
X149317084Y-73513830D01*
X149209897Y-73724197D01*
X149136934Y-73948752D01*
X149100000Y-74181947D01*
X73363395Y-74181947D01*
X72699094Y-73517647D01*
X72786571Y-73494208D01*
X72887930Y-73435689D01*
X72970689Y-73352930D01*
X73029208Y-73251571D01*
X73052647Y-73164095D01*
X73758191Y-73869639D01*
X73758191Y-73869638D01*
X73802978Y-73807995D01*
X73902237Y-73613191D01*
X73902238Y-73613188D01*
X73969797Y-73405259D01*
X74004000Y-73189316D01*
X74004000Y-72970683D01*
X73969797Y-72754740D01*
X73902238Y-72546811D01*
X73902237Y-72546808D01*
X73802980Y-72352008D01*
X73758191Y-72290360D01*
X73052647Y-72995904D01*
X73029208Y-72908429D01*
X72970689Y-72807070D01*
X72887930Y-72724311D01*
X72786571Y-72665792D01*
X72699092Y-72642352D01*
X73404638Y-71936807D01*
X73404638Y-71936806D01*
X73342995Y-71892021D01*
X73342993Y-71892020D01*
X73148191Y-71792762D01*
X73148188Y-71792761D01*
X72940259Y-71725202D01*
X72724316Y-71691000D01*
X72505684Y-71691000D01*
X72289740Y-71725202D01*
X72081811Y-71792761D01*
X72081808Y-71792762D01*
X71887001Y-71892023D01*
X71825360Y-71936806D01*
X71825360Y-71936807D01*
X72530905Y-72642352D01*
X72443429Y-72665792D01*
X72342070Y-72724311D01*
X72259311Y-72807070D01*
X72200792Y-72908429D01*
X72177352Y-72995905D01*
X71471807Y-72290360D01*
X71471806Y-72290360D01*
X71427021Y-72352004D01*
X71343531Y-72515860D01*
X71295557Y-72566655D01*
X71227735Y-72583450D01*
X71161601Y-72560912D01*
X71122562Y-72515859D01*
X71092351Y-72456566D01*
X71092349Y-72456563D01*
X71092348Y-72456561D01*
X70982305Y-72305099D01*
X70982301Y-72305094D01*
X70849905Y-72172698D01*
X70849900Y-72172694D01*
X70728351Y-72084384D01*
X70698437Y-72062651D01*
X70698436Y-72062650D01*
X70698434Y-72062649D01*
X70644988Y-72035416D01*
X70531609Y-71977646D01*
X70531606Y-71977645D01*
X70353543Y-71919790D01*
X70261079Y-71905145D01*
X70168616Y-71890500D01*
X69981384Y-71890500D01*
X69919742Y-71900263D01*
X69796456Y-71919790D01*
X69618393Y-71977645D01*
X69618390Y-71977646D01*
X69451562Y-72062651D01*
X69300099Y-72172694D01*
X69300094Y-72172698D01*
X69167698Y-72305094D01*
X69167694Y-72305099D01*
X69057651Y-72456562D01*
X68972646Y-72623390D01*
X68972645Y-72623393D01*
X68922931Y-72776401D01*
X68883494Y-72834076D01*
X68819135Y-72861275D01*
X68750289Y-72849361D01*
X68698813Y-72802116D01*
X68687069Y-72776401D01*
X68637354Y-72623393D01*
X68637353Y-72623390D01*
X68582562Y-72515859D01*
X68552351Y-72456566D01*
X68476383Y-72352004D01*
X68442305Y-72305099D01*
X68442301Y-72305094D01*
X68309905Y-72172698D01*
X68309900Y-72172694D01*
X68158437Y-72062651D01*
X68158436Y-72062650D01*
X68158434Y-72062649D01*
X68104988Y-72035416D01*
X67991609Y-71977646D01*
X67991606Y-71977645D01*
X67813543Y-71919790D01*
X67721079Y-71905145D01*
X67628616Y-71890500D01*
X67441384Y-71890500D01*
X67379742Y-71900263D01*
X67256456Y-71919790D01*
X67078393Y-71977645D01*
X67078390Y-71977646D01*
X66911562Y-72062651D01*
X66760099Y-72172694D01*
X66760094Y-72172698D01*
X66627698Y-72305094D01*
X66627694Y-72305099D01*
X66517651Y-72456562D01*
X66432646Y-72623390D01*
X66432645Y-72623393D01*
X66374790Y-72801456D01*
X66345500Y-72986384D01*
X44800500Y-72986384D01*
X44800500Y-69458193D01*
X60812000Y-69458193D01*
X60812000Y-69716806D01*
X60852456Y-69972233D01*
X60852456Y-69972234D01*
X60932374Y-70218195D01*
X61049783Y-70448622D01*
X61129963Y-70558981D01*
X61129964Y-70558982D01*
X61816837Y-69872108D01*
X61835997Y-69918364D01*
X61912439Y-70032768D01*
X62009732Y-70130061D01*
X62124136Y-70206503D01*
X62170390Y-70225661D01*
X61483516Y-70912534D01*
X61483517Y-70912536D01*
X61593877Y-70992716D01*
X61824304Y-71110125D01*
X62070266Y-71190043D01*
X62325694Y-71230500D01*
X62584306Y-71230500D01*
X62839733Y-71190043D01*
X62839734Y-71190043D01*
X63085695Y-71110125D01*
X63316119Y-70992718D01*
X63426481Y-70912534D01*
X63426482Y-70912534D01*
X62739609Y-70225662D01*
X62785864Y-70206503D01*
X62900268Y-70130061D01*
X62997561Y-70032768D01*
X63074003Y-69918364D01*
X63093161Y-69872109D01*
X63780034Y-70558982D01*
X63780034Y-70558981D01*
X63860218Y-70448619D01*
X63977625Y-70218195D01*
X64057543Y-69972234D01*
X64057543Y-69972233D01*
X64098000Y-69716806D01*
X64098000Y-69458193D01*
X76052000Y-69458193D01*
X76052000Y-69716806D01*
X76092456Y-69972233D01*
X76092456Y-69972234D01*
X76172374Y-70218195D01*
X76289783Y-70448622D01*
X76369963Y-70558981D01*
X76369964Y-70558982D01*
X77056837Y-69872109D01*
X77075997Y-69918364D01*
X77152439Y-70032768D01*
X77249732Y-70130061D01*
X77364136Y-70206503D01*
X77410390Y-70225661D01*
X76723516Y-70912534D01*
X76723517Y-70912536D01*
X76833877Y-70992716D01*
X77064304Y-71110125D01*
X77310266Y-71190043D01*
X77565694Y-71230500D01*
X77824306Y-71230500D01*
X78079733Y-71190043D01*
X78079734Y-71190043D01*
X78325695Y-71110125D01*
X78556119Y-70992718D01*
X78666481Y-70912534D01*
X78666482Y-70912534D01*
X77979609Y-70225662D01*
X78025864Y-70206503D01*
X78140268Y-70130061D01*
X78237561Y-70032768D01*
X78314003Y-69918364D01*
X78333161Y-69872109D01*
X79020034Y-70558982D01*
X79020034Y-70558981D01*
X79100218Y-70448619D01*
X79217625Y-70218195D01*
X79297543Y-69972234D01*
X79297543Y-69972233D01*
X79338000Y-69716806D01*
X79338000Y-69554447D01*
X116580000Y-69554447D01*
X116580000Y-69790552D01*
X116616934Y-70023747D01*
X116689897Y-70248302D01*
X116797087Y-70458674D01*
X116857338Y-70541604D01*
X116857340Y-70541605D01*
X117556212Y-69842733D01*
X117567482Y-69884792D01*
X117639890Y-70010208D01*
X117742292Y-70112610D01*
X117867708Y-70185018D01*
X117909765Y-70196287D01*
X117210893Y-70895158D01*
X117293828Y-70955414D01*
X117504197Y-71062602D01*
X117728752Y-71135565D01*
X117728751Y-71135565D01*
X117961948Y-71172500D01*
X118198052Y-71172500D01*
X118431247Y-71135565D01*
X118655802Y-71062602D01*
X118866163Y-70955418D01*
X118866169Y-70955414D01*
X118949104Y-70895158D01*
X118949105Y-70895158D01*
X118250233Y-70196287D01*
X118292292Y-70185018D01*
X118417708Y-70112610D01*
X118520110Y-70010208D01*
X118592518Y-69884792D01*
X118603787Y-69842734D01*
X119302658Y-70541605D01*
X119302658Y-70541604D01*
X119362914Y-70458669D01*
X119362918Y-70458663D01*
X119470102Y-70248302D01*
X119543065Y-70023747D01*
X119580000Y-69790552D01*
X119580000Y-69554447D01*
X123080000Y-69554447D01*
X123080000Y-69790552D01*
X123116934Y-70023747D01*
X123189897Y-70248302D01*
X123297087Y-70458674D01*
X123357338Y-70541604D01*
X123357340Y-70541605D01*
X124056212Y-69842733D01*
X124067482Y-69884792D01*
X124139890Y-70010208D01*
X124242292Y-70112610D01*
X124367708Y-70185018D01*
X124409765Y-70196287D01*
X123710893Y-70895158D01*
X123793828Y-70955414D01*
X124004197Y-71062602D01*
X124228752Y-71135565D01*
X124228751Y-71135565D01*
X124461948Y-71172500D01*
X124698052Y-71172500D01*
X124931247Y-71135565D01*
X125155802Y-71062602D01*
X125366163Y-70955418D01*
X125366169Y-70955414D01*
X125449104Y-70895158D01*
X125449105Y-70895158D01*
X124750233Y-70196287D01*
X124792292Y-70185018D01*
X124917708Y-70112610D01*
X125020110Y-70010208D01*
X125092518Y-69884792D01*
X125103787Y-69842733D01*
X125802658Y-70541605D01*
X125802658Y-70541604D01*
X125862914Y-70458669D01*
X125862918Y-70458663D01*
X125970102Y-70248302D01*
X126043065Y-70023747D01*
X126080000Y-69790552D01*
X126080000Y-69697648D01*
X149299500Y-69697648D01*
X149299500Y-69902351D01*
X149331522Y-70104534D01*
X149394781Y-70299223D01*
X149487715Y-70481613D01*
X149608028Y-70647213D01*
X149752786Y-70791971D01*
X149894814Y-70895158D01*
X149918390Y-70912287D01*
X150034607Y-70971503D01*
X150100776Y-71005218D01*
X150100778Y-71005218D01*
X150100781Y-71005220D01*
X150205137Y-71039127D01*
X150295465Y-71068477D01*
X150396557Y-71084488D01*
X150497648Y-71100500D01*
X150497649Y-71100500D01*
X150702351Y-71100500D01*
X150702352Y-71100500D01*
X150904534Y-71068477D01*
X151099219Y-71005220D01*
X151281610Y-70912287D01*
X151423186Y-70809427D01*
X151447213Y-70791971D01*
X151447215Y-70791968D01*
X151447219Y-70791966D01*
X151591966Y-70647219D01*
X151591968Y-70647215D01*
X151591971Y-70647213D01*
X151668699Y-70541604D01*
X151712287Y-70481610D01*
X151805220Y-70299219D01*
X151868477Y-70104534D01*
X151900500Y-69902352D01*
X151900500Y-69697648D01*
X155799500Y-69697648D01*
X155799500Y-69902351D01*
X155831522Y-70104534D01*
X155894781Y-70299223D01*
X155987715Y-70481613D01*
X156108028Y-70647213D01*
X156252786Y-70791971D01*
X156394814Y-70895158D01*
X156418390Y-70912287D01*
X156534607Y-70971503D01*
X156600776Y-71005218D01*
X156600778Y-71005218D01*
X156600781Y-71005220D01*
X156705137Y-71039127D01*
X156795465Y-71068477D01*
X156896557Y-71084488D01*
X156997648Y-71100500D01*
X156997649Y-71100500D01*
X157202351Y-71100500D01*
X157202352Y-71100500D01*
X157404534Y-71068477D01*
X157599219Y-71005220D01*
X157781610Y-70912287D01*
X157923186Y-70809427D01*
X157947213Y-70791971D01*
X157947215Y-70791968D01*
X157947219Y-70791966D01*
X158091966Y-70647219D01*
X158091968Y-70647215D01*
X158091971Y-70647213D01*
X158168699Y-70541604D01*
X158212287Y-70481610D01*
X158305220Y-70299219D01*
X158368477Y-70104534D01*
X158400500Y-69902352D01*
X158400500Y-69697648D01*
X158396517Y-69672499D01*
X158380120Y-69568973D01*
X158377819Y-69554447D01*
X183080000Y-69554447D01*
X183080000Y-69790552D01*
X183116934Y-70023747D01*
X183189897Y-70248302D01*
X183297087Y-70458674D01*
X183357338Y-70541604D01*
X183357340Y-70541605D01*
X184056212Y-69842733D01*
X184067482Y-69884792D01*
X184139890Y-70010208D01*
X184242292Y-70112610D01*
X184367708Y-70185018D01*
X184409765Y-70196287D01*
X183710893Y-70895158D01*
X183793828Y-70955414D01*
X184004197Y-71062602D01*
X184228752Y-71135565D01*
X184228751Y-71135565D01*
X184461948Y-71172500D01*
X184698052Y-71172500D01*
X184931247Y-71135565D01*
X185155802Y-71062602D01*
X185366163Y-70955418D01*
X185366169Y-70955414D01*
X185449104Y-70895158D01*
X185449105Y-70895158D01*
X184750233Y-70196287D01*
X184792292Y-70185018D01*
X184917708Y-70112610D01*
X185020110Y-70010208D01*
X185092518Y-69884792D01*
X185103787Y-69842733D01*
X185802658Y-70541605D01*
X185802658Y-70541604D01*
X185862914Y-70458669D01*
X185862918Y-70458663D01*
X185970102Y-70248302D01*
X186043065Y-70023747D01*
X186080000Y-69790552D01*
X186080000Y-69554447D01*
X189580000Y-69554447D01*
X189580000Y-69790552D01*
X189616934Y-70023747D01*
X189689897Y-70248302D01*
X189797087Y-70458674D01*
X189857338Y-70541604D01*
X189857340Y-70541605D01*
X190556212Y-69842733D01*
X190567482Y-69884792D01*
X190639890Y-70010208D01*
X190742292Y-70112610D01*
X190867708Y-70185018D01*
X190909765Y-70196287D01*
X190210893Y-70895158D01*
X190293828Y-70955414D01*
X190504197Y-71062602D01*
X190728752Y-71135565D01*
X190728751Y-71135565D01*
X190961948Y-71172500D01*
X191198052Y-71172500D01*
X191431247Y-71135565D01*
X191655802Y-71062602D01*
X191679607Y-71050473D01*
X239279500Y-71050473D01*
X239279500Y-71294527D01*
X239317679Y-71535576D01*
X239393096Y-71767685D01*
X239500076Y-71977646D01*
X239503896Y-71985142D01*
X239647339Y-72182576D01*
X239647343Y-72182581D01*
X239819918Y-72355156D01*
X239819923Y-72355160D01*
X239959491Y-72456561D01*
X240017361Y-72498606D01*
X240234815Y-72609404D01*
X240466924Y-72684821D01*
X240707973Y-72723000D01*
X240707974Y-72723000D01*
X241452026Y-72723000D01*
X241452027Y-72723000D01*
X241693076Y-72684821D01*
X241925185Y-72609404D01*
X242142639Y-72498606D01*
X242340083Y-72355155D01*
X242512655Y-72182583D01*
X242656106Y-71985139D01*
X242766904Y-71767685D01*
X242842321Y-71535576D01*
X242880500Y-71294527D01*
X242880500Y-71050473D01*
X251779500Y-71050473D01*
X251779500Y-71294527D01*
X251817679Y-71535576D01*
X251893096Y-71767685D01*
X252000076Y-71977646D01*
X252003896Y-71985142D01*
X252147339Y-72182576D01*
X252147343Y-72182581D01*
X252319918Y-72355156D01*
X252319923Y-72355160D01*
X252459491Y-72456561D01*
X252517361Y-72498606D01*
X252734815Y-72609404D01*
X252966924Y-72684821D01*
X253207973Y-72723000D01*
X253207974Y-72723000D01*
X253952026Y-72723000D01*
X253952027Y-72723000D01*
X254193076Y-72684821D01*
X254425185Y-72609404D01*
X254642639Y-72498606D01*
X254840083Y-72355155D01*
X255012655Y-72182583D01*
X255156106Y-71985139D01*
X255266904Y-71767685D01*
X255342321Y-71535576D01*
X255380500Y-71294527D01*
X255380500Y-71050473D01*
X255342321Y-70809424D01*
X255266904Y-70577315D01*
X255156106Y-70359861D01*
X255102443Y-70286000D01*
X255012660Y-70162423D01*
X255012656Y-70162418D01*
X254840081Y-69989843D01*
X254840076Y-69989839D01*
X254642642Y-69846396D01*
X254642641Y-69846395D01*
X254642639Y-69846394D01*
X254425185Y-69735596D01*
X254193076Y-69660179D01*
X254193074Y-69660178D01*
X254193072Y-69660178D01*
X254024769Y-69633521D01*
X253952027Y-69622000D01*
X253207973Y-69622000D01*
X253152093Y-69630850D01*
X252966927Y-69660178D01*
X252734812Y-69735597D01*
X252517357Y-69846396D01*
X252319923Y-69989839D01*
X252319918Y-69989843D01*
X252147343Y-70162418D01*
X252147339Y-70162423D01*
X252003896Y-70359857D01*
X251893097Y-70577312D01*
X251817678Y-70809427D01*
X251794556Y-70955414D01*
X251779500Y-71050473D01*
X242880500Y-71050473D01*
X242842321Y-70809424D01*
X242766904Y-70577315D01*
X242656106Y-70359861D01*
X242602443Y-70286000D01*
X242512660Y-70162423D01*
X242512656Y-70162418D01*
X242340081Y-69989843D01*
X242340076Y-69989839D01*
X242142642Y-69846396D01*
X242142641Y-69846395D01*
X242142639Y-69846394D01*
X241925185Y-69735596D01*
X241693076Y-69660179D01*
X241693074Y-69660178D01*
X241693072Y-69660178D01*
X241524769Y-69633521D01*
X241452027Y-69622000D01*
X240707973Y-69622000D01*
X240652093Y-69630850D01*
X240466927Y-69660178D01*
X240234812Y-69735597D01*
X240017357Y-69846396D01*
X239819923Y-69989839D01*
X239819918Y-69989843D01*
X239647343Y-70162418D01*
X239647339Y-70162423D01*
X239503896Y-70359857D01*
X239393097Y-70577312D01*
X239317678Y-70809427D01*
X239294556Y-70955414D01*
X239279500Y-71050473D01*
X191679607Y-71050473D01*
X191866163Y-70955418D01*
X191866169Y-70955414D01*
X191880115Y-70945283D01*
X191949104Y-70895158D01*
X191949105Y-70895158D01*
X191250233Y-70196287D01*
X191292292Y-70185018D01*
X191417708Y-70112610D01*
X191520110Y-70010208D01*
X191592518Y-69884792D01*
X191603787Y-69842734D01*
X192302658Y-70541605D01*
X192302658Y-70541604D01*
X192362914Y-70458669D01*
X192362918Y-70458663D01*
X192470102Y-70248302D01*
X192543065Y-70023747D01*
X192580000Y-69790552D01*
X192580000Y-69554447D01*
X192543065Y-69321252D01*
X192470102Y-69096697D01*
X192362914Y-68886328D01*
X192302658Y-68803394D01*
X192302658Y-68803393D01*
X191603787Y-69502265D01*
X191592518Y-69460208D01*
X191520110Y-69334792D01*
X191417708Y-69232390D01*
X191292292Y-69159982D01*
X191250234Y-69148712D01*
X191949105Y-68449840D01*
X191949104Y-68449838D01*
X191866174Y-68389587D01*
X191655802Y-68282397D01*
X191431247Y-68209434D01*
X191431248Y-68209434D01*
X191198052Y-68172500D01*
X190961948Y-68172500D01*
X190728752Y-68209434D01*
X190504197Y-68282397D01*
X190293830Y-68389584D01*
X190210894Y-68449840D01*
X190909766Y-69148712D01*
X190867708Y-69159982D01*
X190742292Y-69232390D01*
X190639890Y-69334792D01*
X190567482Y-69460208D01*
X190556212Y-69502266D01*
X189857340Y-68803394D01*
X189797084Y-68886330D01*
X189689897Y-69096697D01*
X189616934Y-69321252D01*
X189580000Y-69554447D01*
X186080000Y-69554447D01*
X186043065Y-69321252D01*
X185970102Y-69096697D01*
X185862914Y-68886328D01*
X185802658Y-68803394D01*
X185802658Y-68803393D01*
X185103787Y-69502265D01*
X185092518Y-69460208D01*
X185020110Y-69334792D01*
X184917708Y-69232390D01*
X184792292Y-69159982D01*
X184750234Y-69148712D01*
X185449105Y-68449840D01*
X185449104Y-68449839D01*
X185366174Y-68389587D01*
X185155802Y-68282397D01*
X184931247Y-68209434D01*
X184931248Y-68209434D01*
X184698052Y-68172500D01*
X184461948Y-68172500D01*
X184228752Y-68209434D01*
X184004197Y-68282397D01*
X183793830Y-68389584D01*
X183710894Y-68449840D01*
X184409766Y-69148712D01*
X184367708Y-69159982D01*
X184242292Y-69232390D01*
X184139890Y-69334792D01*
X184067482Y-69460208D01*
X184056212Y-69502266D01*
X183357340Y-68803394D01*
X183297084Y-68886330D01*
X183189897Y-69096697D01*
X183116934Y-69321252D01*
X183080000Y-69554447D01*
X158377819Y-69554447D01*
X158375515Y-69539902D01*
X158368477Y-69495466D01*
X158305220Y-69300781D01*
X158305218Y-69300778D01*
X158305218Y-69300776D01*
X158233479Y-69159982D01*
X158212287Y-69118390D01*
X158196526Y-69096697D01*
X158091971Y-68952786D01*
X157947213Y-68808028D01*
X157781614Y-68687715D01*
X157624348Y-68607584D01*
X157624346Y-68607582D01*
X157599225Y-68594782D01*
X157404534Y-68531522D01*
X157229995Y-68503878D01*
X157202352Y-68499500D01*
X156997648Y-68499500D01*
X156973329Y-68503351D01*
X156795465Y-68531522D01*
X156600776Y-68594781D01*
X156418386Y-68687715D01*
X156252786Y-68808028D01*
X156108028Y-68952786D01*
X155987715Y-69118386D01*
X155894781Y-69300776D01*
X155831522Y-69495465D01*
X155799500Y-69697648D01*
X151900500Y-69697648D01*
X151868477Y-69495466D01*
X151868476Y-69495464D01*
X151805218Y-69300776D01*
X151733479Y-69159982D01*
X151712287Y-69118390D01*
X151696526Y-69096697D01*
X151591971Y-68952786D01*
X151447213Y-68808028D01*
X151281613Y-68687715D01*
X151281612Y-68687714D01*
X151281610Y-68687713D01*
X151224653Y-68658691D01*
X151099223Y-68594781D01*
X150904534Y-68531522D01*
X150729995Y-68503878D01*
X150702352Y-68499500D01*
X150497648Y-68499500D01*
X150473329Y-68503351D01*
X150295465Y-68531522D01*
X150100776Y-68594781D01*
X149918386Y-68687715D01*
X149752786Y-68808028D01*
X149608028Y-68952786D01*
X149487715Y-69118386D01*
X149394781Y-69300776D01*
X149331522Y-69495465D01*
X149299500Y-69697648D01*
X126080000Y-69697648D01*
X126080000Y-69554447D01*
X126043065Y-69321252D01*
X125970102Y-69096697D01*
X125862914Y-68886328D01*
X125802658Y-68803394D01*
X125802658Y-68803393D01*
X125103787Y-69502265D01*
X125092518Y-69460208D01*
X125020110Y-69334792D01*
X124917708Y-69232390D01*
X124792292Y-69159982D01*
X124750234Y-69148712D01*
X125449105Y-68449840D01*
X125449104Y-68449838D01*
X125366174Y-68389587D01*
X125155802Y-68282397D01*
X124931247Y-68209434D01*
X124931248Y-68209434D01*
X124698052Y-68172500D01*
X124461948Y-68172500D01*
X124228752Y-68209434D01*
X124004197Y-68282397D01*
X123793830Y-68389584D01*
X123710894Y-68449840D01*
X124409766Y-69148712D01*
X124367708Y-69159982D01*
X124242292Y-69232390D01*
X124139890Y-69334792D01*
X124067482Y-69460208D01*
X124056212Y-69502266D01*
X123357340Y-68803394D01*
X123297084Y-68886330D01*
X123189897Y-69096697D01*
X123116934Y-69321252D01*
X123080000Y-69554447D01*
X119580000Y-69554447D01*
X119543065Y-69321252D01*
X119470102Y-69096697D01*
X119362914Y-68886328D01*
X119302658Y-68803394D01*
X119302658Y-68803393D01*
X118603787Y-69502265D01*
X118592518Y-69460208D01*
X118520110Y-69334792D01*
X118417708Y-69232390D01*
X118292292Y-69159982D01*
X118250234Y-69148712D01*
X118949105Y-68449840D01*
X118949104Y-68449839D01*
X118866174Y-68389587D01*
X118655802Y-68282397D01*
X118431247Y-68209434D01*
X118431248Y-68209434D01*
X118198052Y-68172500D01*
X117961948Y-68172500D01*
X117728752Y-68209434D01*
X117504197Y-68282397D01*
X117293830Y-68389584D01*
X117210894Y-68449840D01*
X117909766Y-69148712D01*
X117867708Y-69159982D01*
X117742292Y-69232390D01*
X117639890Y-69334792D01*
X117567482Y-69460208D01*
X117556212Y-69502266D01*
X116857340Y-68803394D01*
X116797084Y-68886330D01*
X116689897Y-69096697D01*
X116616934Y-69321252D01*
X116580000Y-69554447D01*
X79338000Y-69554447D01*
X79338000Y-69458193D01*
X79297543Y-69202766D01*
X79297543Y-69202765D01*
X79217625Y-68956804D01*
X79100216Y-68726377D01*
X79020035Y-68616017D01*
X79020034Y-68616016D01*
X78333161Y-69302889D01*
X78314003Y-69256636D01*
X78237561Y-69142232D01*
X78140268Y-69044939D01*
X78025864Y-68968497D01*
X77979608Y-68949337D01*
X78666482Y-68262464D01*
X78666481Y-68262463D01*
X78556122Y-68182283D01*
X78325695Y-68064874D01*
X78079733Y-67984956D01*
X77824306Y-67944500D01*
X77565694Y-67944500D01*
X77310266Y-67984956D01*
X77310265Y-67984956D01*
X77064304Y-68064874D01*
X76833884Y-68182279D01*
X76723517Y-68262464D01*
X76723517Y-68262465D01*
X77410390Y-68949337D01*
X77364136Y-68968497D01*
X77249732Y-69044939D01*
X77152439Y-69142232D01*
X77075997Y-69256636D01*
X77056837Y-69302890D01*
X76369965Y-68616017D01*
X76369964Y-68616017D01*
X76289779Y-68726384D01*
X76172374Y-68956804D01*
X76092456Y-69202765D01*
X76092456Y-69202766D01*
X76052000Y-69458193D01*
X64098000Y-69458193D01*
X64057543Y-69202766D01*
X64057543Y-69202765D01*
X63977625Y-68956804D01*
X63860216Y-68726377D01*
X63780036Y-68616017D01*
X63780034Y-68616016D01*
X63093161Y-69302889D01*
X63074003Y-69256636D01*
X62997561Y-69142232D01*
X62900268Y-69044939D01*
X62785864Y-68968497D01*
X62739608Y-68949337D01*
X63426482Y-68262464D01*
X63426481Y-68262463D01*
X63316122Y-68182283D01*
X63085695Y-68064874D01*
X62839733Y-67984956D01*
X62584306Y-67944500D01*
X62325694Y-67944500D01*
X62070266Y-67984956D01*
X62070265Y-67984956D01*
X61824304Y-68064874D01*
X61593884Y-68182279D01*
X61483517Y-68262464D01*
X61483517Y-68262465D01*
X62170390Y-68949337D01*
X62124136Y-68968497D01*
X62009732Y-69044939D01*
X61912439Y-69142232D01*
X61835997Y-69256636D01*
X61816837Y-69302890D01*
X61129965Y-68616017D01*
X61129964Y-68616017D01*
X61049779Y-68726384D01*
X60932374Y-68956804D01*
X60852456Y-69202765D01*
X60852456Y-69202766D01*
X60812000Y-69458193D01*
X44800500Y-69458193D01*
X44800500Y-63033741D01*
X55439879Y-63033741D01*
X55464877Y-63159408D01*
X55464879Y-63159414D01*
X55513913Y-63277794D01*
X55513918Y-63277803D01*
X55585103Y-63384338D01*
X55585106Y-63384342D01*
X55675707Y-63474943D01*
X55675710Y-63474945D01*
X55675711Y-63474946D01*
X55689364Y-63484068D01*
X55734170Y-63537678D01*
X55744475Y-63587171D01*
X55744475Y-64360373D01*
X55724790Y-64427412D01*
X55723579Y-64429261D01*
X55718509Y-64436847D01*
X55669474Y-64555230D01*
X55669472Y-64555236D01*
X55644475Y-64680903D01*
X55644475Y-64680906D01*
X55644475Y-64809044D01*
X55644475Y-64809046D01*
X55644474Y-64809046D01*
X55669472Y-64934713D01*
X55669474Y-64934719D01*
X55718508Y-65053099D01*
X55718513Y-65053108D01*
X55789698Y-65159643D01*
X55789701Y-65159647D01*
X55880302Y-65250248D01*
X55880306Y-65250251D01*
X55986841Y-65321436D01*
X55986847Y-65321439D01*
X55986848Y-65321440D01*
X56105231Y-65370476D01*
X56105235Y-65370476D01*
X56105236Y-65370477D01*
X56230903Y-65395475D01*
X56230906Y-65395475D01*
X56359046Y-65395475D01*
X56443590Y-65378657D01*
X56484719Y-65370476D01*
X56532503Y-65350683D01*
X58526000Y-65350683D01*
X58526000Y-65569316D01*
X58560202Y-65785259D01*
X58627761Y-65993188D01*
X58627762Y-65993191D01*
X58727020Y-66187993D01*
X58727021Y-66187995D01*
X58771806Y-66249638D01*
X58771807Y-66249638D01*
X59477352Y-65544093D01*
X59500792Y-65631571D01*
X59559311Y-65732930D01*
X59642070Y-65815689D01*
X59743429Y-65874208D01*
X59830905Y-65897647D01*
X59125360Y-66603191D01*
X59187008Y-66647980D01*
X59381808Y-66747237D01*
X59381811Y-66747238D01*
X59589740Y-66814797D01*
X59805684Y-66849000D01*
X60024316Y-66849000D01*
X60240259Y-66814797D01*
X60448188Y-66747238D01*
X60448191Y-66747237D01*
X60642995Y-66647978D01*
X60704638Y-66603191D01*
X60704639Y-66603191D01*
X59999094Y-65897647D01*
X60086571Y-65874208D01*
X60187930Y-65815689D01*
X60270689Y-65732930D01*
X60329208Y-65631571D01*
X60352647Y-65544095D01*
X61058191Y-66249639D01*
X61058191Y-66249638D01*
X61102978Y-66187995D01*
X61202237Y-65993191D01*
X61202238Y-65993188D01*
X61269797Y-65785259D01*
X61304000Y-65569316D01*
X61304000Y-65350683D01*
X61269797Y-65134738D01*
X61259678Y-65103593D01*
X61248811Y-65070148D01*
X116779500Y-65070148D01*
X116779500Y-65274852D01*
X116783878Y-65302495D01*
X116811522Y-65477034D01*
X116874781Y-65671723D01*
X116932632Y-65785259D01*
X116948136Y-65815689D01*
X116967715Y-65854113D01*
X117088028Y-66019713D01*
X117232786Y-66164471D01*
X117387749Y-66277056D01*
X117398390Y-66284787D01*
X117514607Y-66344003D01*
X117580776Y-66377718D01*
X117580778Y-66377718D01*
X117580781Y-66377720D01*
X117685137Y-66411627D01*
X117775465Y-66440977D01*
X117876557Y-66456988D01*
X117977648Y-66473000D01*
X117977649Y-66473000D01*
X118182351Y-66473000D01*
X118182352Y-66473000D01*
X118384534Y-66440977D01*
X118579219Y-66377720D01*
X118761610Y-66284787D01*
X118894837Y-66187993D01*
X118927213Y-66164471D01*
X118927215Y-66164468D01*
X118927219Y-66164466D01*
X119071966Y-66019719D01*
X119071968Y-66019715D01*
X119071971Y-66019713D01*
X119124732Y-65947090D01*
X119192287Y-65854110D01*
X119285220Y-65671719D01*
X119348477Y-65477034D01*
X119380500Y-65274852D01*
X119380500Y-65070148D01*
X123279500Y-65070148D01*
X123279500Y-65274852D01*
X123283878Y-65302495D01*
X123311522Y-65477034D01*
X123374781Y-65671723D01*
X123432632Y-65785259D01*
X123448136Y-65815689D01*
X123467715Y-65854113D01*
X123588028Y-66019713D01*
X123732786Y-66164471D01*
X123887749Y-66277056D01*
X123898390Y-66284787D01*
X124014607Y-66344003D01*
X124080776Y-66377718D01*
X124080778Y-66377718D01*
X124080781Y-66377720D01*
X124185137Y-66411627D01*
X124275465Y-66440977D01*
X124376557Y-66456988D01*
X124477648Y-66473000D01*
X124477649Y-66473000D01*
X124682351Y-66473000D01*
X124682352Y-66473000D01*
X124884534Y-66440977D01*
X125079219Y-66377720D01*
X125261610Y-66284787D01*
X125394837Y-66187993D01*
X125427213Y-66164471D01*
X125427215Y-66164468D01*
X125427219Y-66164466D01*
X125571966Y-66019719D01*
X125571968Y-66019715D01*
X125571971Y-66019713D01*
X125624732Y-65947090D01*
X125692287Y-65854110D01*
X125785220Y-65671719D01*
X125848477Y-65477034D01*
X125880500Y-65274852D01*
X125880500Y-65070148D01*
X183279500Y-65070148D01*
X183279500Y-65274852D01*
X183283878Y-65302495D01*
X183311522Y-65477034D01*
X183374781Y-65671723D01*
X183432632Y-65785259D01*
X183448136Y-65815689D01*
X183467715Y-65854113D01*
X183588028Y-66019713D01*
X183732786Y-66164471D01*
X183887749Y-66277056D01*
X183898390Y-66284787D01*
X184014607Y-66344003D01*
X184080776Y-66377718D01*
X184080778Y-66377718D01*
X184080781Y-66377720D01*
X184185137Y-66411627D01*
X184275465Y-66440977D01*
X184376557Y-66456988D01*
X184477648Y-66473000D01*
X184477649Y-66473000D01*
X184682351Y-66473000D01*
X184682352Y-66473000D01*
X184884534Y-66440977D01*
X185079219Y-66377720D01*
X185261610Y-66284787D01*
X185394837Y-66187993D01*
X185427213Y-66164471D01*
X185427215Y-66164468D01*
X185427219Y-66164466D01*
X185571966Y-66019719D01*
X185571968Y-66019715D01*
X185571971Y-66019713D01*
X185624732Y-65947090D01*
X185692287Y-65854110D01*
X185785220Y-65671719D01*
X185848477Y-65477034D01*
X185880500Y-65274852D01*
X185880500Y-65070148D01*
X189779500Y-65070148D01*
X189779500Y-65274852D01*
X189783878Y-65302495D01*
X189811522Y-65477034D01*
X189874781Y-65671723D01*
X189932632Y-65785259D01*
X189948136Y-65815689D01*
X189967715Y-65854113D01*
X190088028Y-66019713D01*
X190232786Y-66164471D01*
X190387749Y-66277056D01*
X190398390Y-66284787D01*
X190514607Y-66344003D01*
X190580776Y-66377718D01*
X190580778Y-66377718D01*
X190580781Y-66377720D01*
X190685137Y-66411627D01*
X190775465Y-66440977D01*
X190876557Y-66456988D01*
X190977648Y-66473000D01*
X190977649Y-66473000D01*
X191182351Y-66473000D01*
X191182352Y-66473000D01*
X191384534Y-66440977D01*
X191579219Y-66377720D01*
X191761610Y-66284787D01*
X191894837Y-66187993D01*
X191927213Y-66164471D01*
X191927215Y-66164468D01*
X191927219Y-66164466D01*
X192071966Y-66019719D01*
X192071968Y-66019715D01*
X192071971Y-66019713D01*
X192124732Y-65947090D01*
X192192287Y-65854110D01*
X192285220Y-65671719D01*
X192348477Y-65477034D01*
X192380500Y-65274852D01*
X192380500Y-65070148D01*
X192376642Y-65045792D01*
X192348477Y-64867965D01*
X192319127Y-64777637D01*
X192285220Y-64673281D01*
X192285218Y-64673278D01*
X192285218Y-64673276D01*
X192225070Y-64555231D01*
X192192287Y-64490890D01*
X192153023Y-64436847D01*
X192071971Y-64325286D01*
X191927213Y-64180528D01*
X191761613Y-64060215D01*
X191761612Y-64060214D01*
X191761610Y-64060213D01*
X191656391Y-64006601D01*
X191579223Y-63967281D01*
X191384534Y-63904022D01*
X191209995Y-63876378D01*
X191182352Y-63872000D01*
X190977648Y-63872000D01*
X190953329Y-63875851D01*
X190775465Y-63904022D01*
X190580776Y-63967281D01*
X190398386Y-64060215D01*
X190232786Y-64180528D01*
X190088028Y-64325286D01*
X189967715Y-64490886D01*
X189874781Y-64673276D01*
X189811522Y-64867965D01*
X189783358Y-65045792D01*
X189779500Y-65070148D01*
X185880500Y-65070148D01*
X185876642Y-65045792D01*
X185848477Y-64867965D01*
X185819127Y-64777637D01*
X185785220Y-64673281D01*
X185785218Y-64673278D01*
X185785218Y-64673276D01*
X185725070Y-64555231D01*
X185692287Y-64490890D01*
X185653023Y-64436847D01*
X185571971Y-64325286D01*
X185427213Y-64180528D01*
X185261613Y-64060215D01*
X185261612Y-64060214D01*
X185261610Y-64060213D01*
X185156391Y-64006601D01*
X185079223Y-63967281D01*
X184884534Y-63904022D01*
X184709995Y-63876378D01*
X184682352Y-63872000D01*
X184477648Y-63872000D01*
X184453329Y-63875851D01*
X184275465Y-63904022D01*
X184080776Y-63967281D01*
X183898386Y-64060215D01*
X183732786Y-64180528D01*
X183588028Y-64325286D01*
X183467715Y-64490886D01*
X183374781Y-64673276D01*
X183311522Y-64867965D01*
X183283358Y-65045792D01*
X183279500Y-65070148D01*
X125880500Y-65070148D01*
X125876642Y-65045792D01*
X125848477Y-64867965D01*
X125819127Y-64777637D01*
X125785220Y-64673281D01*
X125785218Y-64673278D01*
X125785218Y-64673276D01*
X125725070Y-64555231D01*
X125692287Y-64490890D01*
X125653023Y-64436847D01*
X125571971Y-64325286D01*
X125427213Y-64180528D01*
X125261613Y-64060215D01*
X125261612Y-64060214D01*
X125261610Y-64060213D01*
X125156391Y-64006601D01*
X125079223Y-63967281D01*
X124884534Y-63904022D01*
X124709995Y-63876378D01*
X124682352Y-63872000D01*
X124477648Y-63872000D01*
X124453329Y-63875851D01*
X124275465Y-63904022D01*
X124080776Y-63967281D01*
X123898386Y-64060215D01*
X123732786Y-64180528D01*
X123588028Y-64325286D01*
X123467715Y-64490886D01*
X123374781Y-64673276D01*
X123311522Y-64867965D01*
X123283358Y-65045792D01*
X123279500Y-65070148D01*
X119380500Y-65070148D01*
X119376642Y-65045792D01*
X119348477Y-64867965D01*
X119319127Y-64777637D01*
X119285220Y-64673281D01*
X119285218Y-64673278D01*
X119285218Y-64673276D01*
X119225070Y-64555231D01*
X119192287Y-64490890D01*
X119153023Y-64436847D01*
X119071971Y-64325286D01*
X118927213Y-64180528D01*
X118761613Y-64060215D01*
X118761612Y-64060214D01*
X118761610Y-64060213D01*
X118656391Y-64006601D01*
X118579223Y-63967281D01*
X118384534Y-63904022D01*
X118209995Y-63876378D01*
X118182352Y-63872000D01*
X117977648Y-63872000D01*
X117953329Y-63875851D01*
X117775465Y-63904022D01*
X117580776Y-63967281D01*
X117398386Y-64060215D01*
X117232786Y-64180528D01*
X117088028Y-64325286D01*
X116967715Y-64490886D01*
X116874781Y-64673276D01*
X116811522Y-64867965D01*
X116783358Y-65045792D01*
X116779500Y-65070148D01*
X61248811Y-65070148D01*
X61202238Y-64926811D01*
X61202237Y-64926808D01*
X61102980Y-64732008D01*
X61058191Y-64670360D01*
X60352647Y-65375904D01*
X60329208Y-65288429D01*
X60270689Y-65187070D01*
X60187930Y-65104311D01*
X60086571Y-65045792D01*
X59999092Y-65022352D01*
X60704638Y-64316807D01*
X60704638Y-64316806D01*
X60642995Y-64272021D01*
X60642993Y-64272020D01*
X60479140Y-64188532D01*
X60428344Y-64140557D01*
X60411549Y-64072736D01*
X60434087Y-64006601D01*
X60479139Y-63967563D01*
X60538434Y-63937351D01*
X60689907Y-63827300D01*
X60822300Y-63694907D01*
X60932351Y-63543434D01*
X61017353Y-63376609D01*
X61075210Y-63198542D01*
X61104500Y-63013616D01*
X61104500Y-62826384D01*
X61075210Y-62641458D01*
X61017353Y-62463391D01*
X61017353Y-62463390D01*
X60956606Y-62344169D01*
X60932351Y-62296566D01*
X60918290Y-62277212D01*
X60822305Y-62145099D01*
X60822301Y-62145094D01*
X60689905Y-62012698D01*
X60689900Y-62012694D01*
X60538437Y-61902651D01*
X60538436Y-61902650D01*
X60538434Y-61902649D01*
X60484988Y-61875416D01*
X60371609Y-61817646D01*
X60371606Y-61817645D01*
X60218598Y-61767931D01*
X60160923Y-61728494D01*
X60133724Y-61664135D01*
X60145638Y-61595289D01*
X60192882Y-61543813D01*
X60218598Y-61532069D01*
X60371606Y-61482354D01*
X60371609Y-61482353D01*
X60538434Y-61397351D01*
X60689907Y-61287300D01*
X60822300Y-61154907D01*
X60932351Y-61003434D01*
X61017353Y-60836609D01*
X61075210Y-60658542D01*
X61104500Y-60473616D01*
X61104500Y-60286384D01*
X61075210Y-60101458D01*
X61017353Y-59923391D01*
X61017353Y-59923390D01*
X60987917Y-59865620D01*
X60932351Y-59756566D01*
X60918290Y-59737212D01*
X60822305Y-59605099D01*
X60822301Y-59605094D01*
X60689905Y-59472698D01*
X60689900Y-59472694D01*
X60538437Y-59362651D01*
X60538436Y-59362650D01*
X60538434Y-59362649D01*
X60484988Y-59335416D01*
X60371609Y-59277646D01*
X60371606Y-59277645D01*
X60193543Y-59219790D01*
X60101079Y-59205145D01*
X60008616Y-59190500D01*
X59821384Y-59190500D01*
X59759742Y-59200263D01*
X59636456Y-59219790D01*
X59458393Y-59277645D01*
X59458390Y-59277646D01*
X59291562Y-59362651D01*
X59140099Y-59472694D01*
X59140094Y-59472698D01*
X59007698Y-59605094D01*
X59007694Y-59605099D01*
X58897651Y-59756562D01*
X58812646Y-59923390D01*
X58812645Y-59923393D01*
X58754790Y-60101456D01*
X58725500Y-60286384D01*
X58725500Y-60473615D01*
X58754790Y-60658543D01*
X58812645Y-60836606D01*
X58812646Y-60836609D01*
X58897651Y-61003437D01*
X59007694Y-61154900D01*
X59007698Y-61154905D01*
X59140094Y-61287301D01*
X59140099Y-61287305D01*
X59272212Y-61383290D01*
X59291566Y-61397351D01*
X59400620Y-61452917D01*
X59458390Y-61482353D01*
X59458393Y-61482354D01*
X59611401Y-61532069D01*
X59669076Y-61571506D01*
X59696275Y-61635865D01*
X59684361Y-61704711D01*
X59637116Y-61756187D01*
X59611401Y-61767931D01*
X59458393Y-61817645D01*
X59458390Y-61817646D01*
X59291562Y-61902651D01*
X59140099Y-62012694D01*
X59140094Y-62012698D01*
X59007698Y-62145094D01*
X59007694Y-62145099D01*
X58897651Y-62296562D01*
X58812646Y-62463390D01*
X58812645Y-62463393D01*
X58754790Y-62641456D01*
X58725500Y-62826384D01*
X58725500Y-63013615D01*
X58754790Y-63198543D01*
X58812645Y-63376606D01*
X58812646Y-63376609D01*
X58862751Y-63474943D01*
X58894716Y-63537678D01*
X58897651Y-63543437D01*
X59007694Y-63694900D01*
X59007698Y-63694905D01*
X59140094Y-63827301D01*
X59140099Y-63827305D01*
X59291561Y-63937348D01*
X59291563Y-63937349D01*
X59291566Y-63937351D01*
X59350860Y-63967562D01*
X59401655Y-64015536D01*
X59418450Y-64083357D01*
X59395913Y-64149492D01*
X59350860Y-64188531D01*
X59187004Y-64272021D01*
X59125360Y-64316806D01*
X59125360Y-64316807D01*
X59830905Y-65022352D01*
X59743429Y-65045792D01*
X59642070Y-65104311D01*
X59559311Y-65187070D01*
X59500792Y-65288429D01*
X59477352Y-65375905D01*
X58771807Y-64670360D01*
X58771806Y-64670360D01*
X58727023Y-64732001D01*
X58627762Y-64926808D01*
X58627761Y-64926811D01*
X58560202Y-65134740D01*
X58526000Y-65350683D01*
X56532503Y-65350683D01*
X56603102Y-65321440D01*
X56709644Y-65250251D01*
X56800251Y-65159644D01*
X56871440Y-65053102D01*
X56920476Y-64934719D01*
X56945475Y-64809044D01*
X56945475Y-64680906D01*
X56945475Y-64680903D01*
X56920477Y-64555236D01*
X56920476Y-64555235D01*
X56920476Y-64555231D01*
X56871440Y-64436848D01*
X56871440Y-64436847D01*
X56866371Y-64429261D01*
X56845495Y-64362583D01*
X56845475Y-64360373D01*
X56845475Y-63101792D01*
X56845475Y-63101790D01*
X56807959Y-62961780D01*
X56807955Y-62961773D01*
X56732905Y-62831780D01*
X56718675Y-62793974D01*
X56715881Y-62779926D01*
X56696266Y-62732572D01*
X56666848Y-62661549D01*
X56666841Y-62661536D01*
X56595656Y-62555001D01*
X56595653Y-62554997D01*
X56505052Y-62464396D01*
X56505048Y-62464393D01*
X56398513Y-62393208D01*
X56398504Y-62393203D01*
X56280124Y-62344169D01*
X56280118Y-62344167D01*
X56154451Y-62319170D01*
X56154449Y-62319170D01*
X56026311Y-62319170D01*
X56026309Y-62319170D01*
X55900641Y-62344167D01*
X55900635Y-62344169D01*
X55782255Y-62393203D01*
X55782246Y-62393208D01*
X55675711Y-62464393D01*
X55675707Y-62464396D01*
X55585106Y-62554997D01*
X55585103Y-62555001D01*
X55513918Y-62661536D01*
X55513913Y-62661545D01*
X55464879Y-62779925D01*
X55464877Y-62779931D01*
X55439880Y-62905598D01*
X55439880Y-62905601D01*
X55439880Y-63033739D01*
X55439880Y-63033741D01*
X55439879Y-63033741D01*
X44800500Y-63033741D01*
X44800500Y-56123193D01*
X60812000Y-56123193D01*
X60812000Y-56381806D01*
X60852456Y-56637233D01*
X60852456Y-56637234D01*
X60932374Y-56883195D01*
X61049783Y-57113622D01*
X61129963Y-57223981D01*
X61129964Y-57223982D01*
X61816837Y-56537109D01*
X61835997Y-56583364D01*
X61912439Y-56697768D01*
X62009732Y-56795061D01*
X62124136Y-56871503D01*
X62170390Y-56890661D01*
X61483516Y-57577534D01*
X61483517Y-57577536D01*
X61593877Y-57657716D01*
X61824304Y-57775125D01*
X62070266Y-57855043D01*
X62325694Y-57895500D01*
X62584306Y-57895500D01*
X62839733Y-57855043D01*
X62839734Y-57855043D01*
X63085695Y-57775125D01*
X63316119Y-57657718D01*
X63426481Y-57577534D01*
X63426482Y-57577534D01*
X62739609Y-56890662D01*
X62785864Y-56871503D01*
X62900268Y-56795061D01*
X62997561Y-56697768D01*
X63074003Y-56583364D01*
X63093161Y-56537109D01*
X63780034Y-57223982D01*
X63780034Y-57223981D01*
X63860218Y-57113619D01*
X63977625Y-56883195D01*
X64057543Y-56637234D01*
X64057543Y-56637233D01*
X64097999Y-56381809D01*
X64098000Y-56381802D01*
X64098000Y-56123193D01*
X64057543Y-55867766D01*
X64057543Y-55867765D01*
X63977625Y-55621804D01*
X63860216Y-55391377D01*
X63780036Y-55281017D01*
X63780034Y-55281016D01*
X63093161Y-55967889D01*
X63074003Y-55921636D01*
X62997561Y-55807232D01*
X62900268Y-55709939D01*
X62785864Y-55633497D01*
X62739608Y-55614337D01*
X63163263Y-55190683D01*
X65511000Y-55190683D01*
X65511000Y-55409316D01*
X65545202Y-55625259D01*
X65612761Y-55833188D01*
X65612762Y-55833191D01*
X65712020Y-56027993D01*
X65712021Y-56027995D01*
X65756806Y-56089638D01*
X65756807Y-56089638D01*
X66457861Y-55388584D01*
X66480667Y-55473694D01*
X66539910Y-55576306D01*
X66623694Y-55660090D01*
X66726306Y-55719333D01*
X66811414Y-55742137D01*
X66110360Y-56443191D01*
X66172008Y-56487980D01*
X66366808Y-56587237D01*
X66366811Y-56587238D01*
X66574740Y-56654797D01*
X66790684Y-56689000D01*
X67009316Y-56689000D01*
X67225259Y-56654797D01*
X67433188Y-56587238D01*
X67433191Y-56587237D01*
X67627995Y-56487978D01*
X67689638Y-56443191D01*
X67689639Y-56443191D01*
X66988585Y-55742138D01*
X67073694Y-55719333D01*
X67176306Y-55660090D01*
X67260090Y-55576306D01*
X67319333Y-55473694D01*
X67342137Y-55388585D01*
X68043191Y-56089639D01*
X68043191Y-56089638D01*
X68087978Y-56027995D01*
X68187237Y-55833191D01*
X68187238Y-55833188D01*
X68254797Y-55625259D01*
X68289000Y-55409316D01*
X68289000Y-55206384D01*
X72060500Y-55206384D01*
X72060500Y-55393615D01*
X72089790Y-55578543D01*
X72147645Y-55756606D01*
X72147646Y-55756609D01*
X72232651Y-55923437D01*
X72342694Y-56074900D01*
X72342698Y-56074905D01*
X72475094Y-56207301D01*
X72475099Y-56207305D01*
X72537304Y-56252499D01*
X72626566Y-56317351D01*
X72735620Y-56372917D01*
X72793390Y-56402353D01*
X72793393Y-56402354D01*
X72882424Y-56431281D01*
X72971458Y-56460210D01*
X73156384Y-56489500D01*
X73156385Y-56489500D01*
X73343615Y-56489500D01*
X73343616Y-56489500D01*
X73528542Y-56460210D01*
X73706609Y-56402353D01*
X73873434Y-56317351D01*
X74024907Y-56207300D01*
X74109014Y-56123193D01*
X76052000Y-56123193D01*
X76052000Y-56381806D01*
X76092456Y-56637233D01*
X76092456Y-56637234D01*
X76172374Y-56883195D01*
X76289783Y-57113622D01*
X76369963Y-57223981D01*
X76369964Y-57223982D01*
X77056837Y-56537109D01*
X77075997Y-56583364D01*
X77152439Y-56697768D01*
X77249732Y-56795061D01*
X77364136Y-56871503D01*
X77410390Y-56890661D01*
X76723516Y-57577534D01*
X76723517Y-57577536D01*
X76833877Y-57657716D01*
X77064304Y-57775125D01*
X77310266Y-57855043D01*
X77565694Y-57895500D01*
X77824306Y-57895500D01*
X78079733Y-57855043D01*
X78079734Y-57855043D01*
X78325695Y-57775125D01*
X78556119Y-57657718D01*
X78666481Y-57577534D01*
X78666482Y-57577534D01*
X77979609Y-56890662D01*
X78025864Y-56871503D01*
X78140268Y-56795061D01*
X78237561Y-56697768D01*
X78314003Y-56583364D01*
X78333161Y-56537109D01*
X79020034Y-57223982D01*
X79020034Y-57223981D01*
X79100218Y-57113619D01*
X79217625Y-56883195D01*
X79230145Y-56844665D01*
X79297543Y-56637233D01*
X79328368Y-56442619D01*
X79331555Y-56422499D01*
X215097811Y-56422499D01*
X215097812Y-56422500D01*
X216531518Y-56422500D01*
X216520889Y-56440909D01*
X216480000Y-56593509D01*
X216480000Y-56751491D01*
X216520889Y-56904091D01*
X216531518Y-56922500D01*
X215097812Y-56922500D01*
X215109942Y-57014637D01*
X215169318Y-57236230D01*
X215257102Y-57448159D01*
X215257106Y-57448168D01*
X215371809Y-57646838D01*
X215511455Y-57828829D01*
X215511461Y-57828836D01*
X215673663Y-57991038D01*
X215673670Y-57991044D01*
X215855661Y-58130690D01*
X216054331Y-58245393D01*
X216054340Y-58245397D01*
X216266269Y-58333181D01*
X216487862Y-58392557D01*
X216715289Y-58422498D01*
X216715306Y-58422500D01*
X216830000Y-58422500D01*
X216830000Y-57220982D01*
X216848409Y-57231611D01*
X217001009Y-57272500D01*
X217158991Y-57272500D01*
X217311591Y-57231611D01*
X217330000Y-57220982D01*
X217330000Y-58422500D01*
X217444694Y-58422500D01*
X217444710Y-58422498D01*
X217672137Y-58392557D01*
X217893730Y-58333181D01*
X218105659Y-58245397D01*
X218105668Y-58245393D01*
X218304338Y-58130690D01*
X218486329Y-57991044D01*
X218486336Y-57991038D01*
X218648538Y-57828836D01*
X218648544Y-57828829D01*
X218788190Y-57646838D01*
X218902893Y-57448168D01*
X218902897Y-57448159D01*
X218990681Y-57236230D01*
X219050057Y-57014637D01*
X219062188Y-56922500D01*
X217628482Y-56922500D01*
X217639111Y-56904091D01*
X217680000Y-56751491D01*
X217680000Y-56593509D01*
X217639111Y-56440909D01*
X217628482Y-56422500D01*
X219062188Y-56422500D01*
X219062188Y-56422499D01*
X227597811Y-56422499D01*
X227597812Y-56422500D01*
X229031518Y-56422500D01*
X229020889Y-56440909D01*
X228980000Y-56593509D01*
X228980000Y-56751491D01*
X229020889Y-56904091D01*
X229031518Y-56922500D01*
X227597812Y-56922500D01*
X227609942Y-57014637D01*
X227669318Y-57236230D01*
X227757102Y-57448159D01*
X227757106Y-57448168D01*
X227871809Y-57646838D01*
X228011455Y-57828829D01*
X228011461Y-57828836D01*
X228173663Y-57991038D01*
X228173670Y-57991044D01*
X228355661Y-58130690D01*
X228554331Y-58245393D01*
X228554340Y-58245397D01*
X228766269Y-58333181D01*
X228987862Y-58392557D01*
X229215289Y-58422498D01*
X229215306Y-58422500D01*
X229330000Y-58422500D01*
X229330000Y-57220982D01*
X229348409Y-57231611D01*
X229501009Y-57272500D01*
X229658991Y-57272500D01*
X229811591Y-57231611D01*
X229830000Y-57220982D01*
X229830000Y-58422500D01*
X229944694Y-58422500D01*
X229944710Y-58422498D01*
X230172137Y-58392557D01*
X230393730Y-58333181D01*
X230605659Y-58245397D01*
X230605668Y-58245393D01*
X230804338Y-58130690D01*
X230986329Y-57991044D01*
X230986336Y-57991038D01*
X231148538Y-57828836D01*
X231148544Y-57828829D01*
X231288190Y-57646838D01*
X231402893Y-57448168D01*
X231402897Y-57448159D01*
X231490681Y-57236230D01*
X231550057Y-57014637D01*
X231562188Y-56922500D01*
X230128482Y-56922500D01*
X230139111Y-56904091D01*
X230180000Y-56751491D01*
X230180000Y-56593509D01*
X230139111Y-56440909D01*
X230128482Y-56422500D01*
X231562188Y-56422500D01*
X231562188Y-56422499D01*
X260597811Y-56422499D01*
X260597812Y-56422500D01*
X262031518Y-56422500D01*
X262020889Y-56440909D01*
X261980000Y-56593509D01*
X261980000Y-56751491D01*
X262020889Y-56904091D01*
X262031518Y-56922500D01*
X260597812Y-56922500D01*
X260609942Y-57014637D01*
X260669318Y-57236230D01*
X260757102Y-57448159D01*
X260757106Y-57448168D01*
X260871809Y-57646838D01*
X261011455Y-57828829D01*
X261011461Y-57828836D01*
X261173663Y-57991038D01*
X261173670Y-57991044D01*
X261355661Y-58130690D01*
X261554331Y-58245393D01*
X261554340Y-58245397D01*
X261766269Y-58333181D01*
X261987862Y-58392557D01*
X262215289Y-58422498D01*
X262215306Y-58422500D01*
X262330000Y-58422500D01*
X262330000Y-57220982D01*
X262348409Y-57231611D01*
X262501009Y-57272500D01*
X262658991Y-57272500D01*
X262811591Y-57231611D01*
X262830000Y-57220982D01*
X262830000Y-58422500D01*
X262944694Y-58422500D01*
X262944710Y-58422498D01*
X263172137Y-58392557D01*
X263393730Y-58333181D01*
X263605659Y-58245397D01*
X263605668Y-58245393D01*
X263804338Y-58130690D01*
X263986329Y-57991044D01*
X263986336Y-57991038D01*
X264148538Y-57828836D01*
X264148544Y-57828829D01*
X264288190Y-57646838D01*
X264402893Y-57448168D01*
X264402897Y-57448159D01*
X264490681Y-57236230D01*
X264550057Y-57014637D01*
X264562188Y-56922500D01*
X263128482Y-56922500D01*
X263139111Y-56904091D01*
X263180000Y-56751491D01*
X263180000Y-56593509D01*
X263139111Y-56440909D01*
X263128482Y-56422500D01*
X264562188Y-56422500D01*
X264562188Y-56422499D01*
X273097811Y-56422499D01*
X273097812Y-56422500D01*
X274531518Y-56422500D01*
X274520889Y-56440909D01*
X274480000Y-56593509D01*
X274480000Y-56751491D01*
X274520889Y-56904091D01*
X274531518Y-56922500D01*
X273097812Y-56922500D01*
X273109942Y-57014637D01*
X273169318Y-57236230D01*
X273257102Y-57448159D01*
X273257106Y-57448168D01*
X273371809Y-57646838D01*
X273511455Y-57828829D01*
X273511461Y-57828836D01*
X273673663Y-57991038D01*
X273673670Y-57991044D01*
X273855661Y-58130690D01*
X274054331Y-58245393D01*
X274054340Y-58245397D01*
X274266269Y-58333181D01*
X274487862Y-58392557D01*
X274715289Y-58422498D01*
X274715306Y-58422500D01*
X274830000Y-58422500D01*
X274830000Y-57220982D01*
X274848409Y-57231611D01*
X275001009Y-57272500D01*
X275158991Y-57272500D01*
X275311591Y-57231611D01*
X275330000Y-57220982D01*
X275330000Y-58422500D01*
X275444694Y-58422500D01*
X275444710Y-58422498D01*
X275672137Y-58392557D01*
X275893730Y-58333181D01*
X276105659Y-58245397D01*
X276105668Y-58245393D01*
X276304338Y-58130690D01*
X276486329Y-57991044D01*
X276486336Y-57991038D01*
X276648538Y-57828836D01*
X276648544Y-57828829D01*
X276788190Y-57646838D01*
X276902893Y-57448168D01*
X276902897Y-57448159D01*
X276990681Y-57236230D01*
X277050057Y-57014637D01*
X277062188Y-56922500D01*
X275628482Y-56922500D01*
X275639111Y-56904091D01*
X275680000Y-56751491D01*
X275680000Y-56593509D01*
X275639111Y-56440909D01*
X275628482Y-56422500D01*
X277062188Y-56422500D01*
X277062188Y-56422499D01*
X277050057Y-56330362D01*
X276990681Y-56108769D01*
X276902897Y-55896840D01*
X276902893Y-55896831D01*
X276788190Y-55698161D01*
X276648544Y-55516170D01*
X276648538Y-55516163D01*
X276486336Y-55353961D01*
X276486329Y-55353955D01*
X276304338Y-55214309D01*
X276105668Y-55099606D01*
X276105659Y-55099602D01*
X275893730Y-55011818D01*
X275672137Y-54952442D01*
X275444710Y-54922501D01*
X275444694Y-54922500D01*
X275330000Y-54922500D01*
X275330000Y-56124017D01*
X275311591Y-56113389D01*
X275158991Y-56072500D01*
X275001009Y-56072500D01*
X274848409Y-56113389D01*
X274830000Y-56124017D01*
X274830000Y-54922500D01*
X274715306Y-54922500D01*
X274715289Y-54922501D01*
X274487862Y-54952442D01*
X274266269Y-55011818D01*
X274054340Y-55099602D01*
X274054331Y-55099606D01*
X273855661Y-55214309D01*
X273673670Y-55353955D01*
X273673663Y-55353961D01*
X273511461Y-55516163D01*
X273511455Y-55516170D01*
X273371809Y-55698161D01*
X273257106Y-55896831D01*
X273257102Y-55896840D01*
X273169318Y-56108769D01*
X273109942Y-56330362D01*
X273097811Y-56422499D01*
X264562188Y-56422499D01*
X264550057Y-56330362D01*
X264490681Y-56108769D01*
X264402897Y-55896840D01*
X264402893Y-55896831D01*
X264288190Y-55698161D01*
X264148544Y-55516170D01*
X264148538Y-55516163D01*
X263986336Y-55353961D01*
X263986329Y-55353955D01*
X263804338Y-55214309D01*
X263605668Y-55099606D01*
X263605659Y-55099602D01*
X263393730Y-55011818D01*
X263172137Y-54952442D01*
X262944710Y-54922501D01*
X262944694Y-54922500D01*
X262830000Y-54922500D01*
X262830000Y-56124017D01*
X262811591Y-56113389D01*
X262658991Y-56072500D01*
X262501009Y-56072500D01*
X262348409Y-56113389D01*
X262330000Y-56124017D01*
X262330000Y-54922500D01*
X262215306Y-54922500D01*
X262215289Y-54922501D01*
X261987862Y-54952442D01*
X261766269Y-55011818D01*
X261554340Y-55099602D01*
X261554331Y-55099606D01*
X261355661Y-55214309D01*
X261173670Y-55353955D01*
X261173663Y-55353961D01*
X261011461Y-55516163D01*
X261011455Y-55516170D01*
X260871809Y-55698161D01*
X260757106Y-55896831D01*
X260757102Y-55896840D01*
X260669318Y-56108769D01*
X260609942Y-56330362D01*
X260597811Y-56422499D01*
X231562188Y-56422499D01*
X231550057Y-56330362D01*
X231490681Y-56108769D01*
X231402897Y-55896840D01*
X231402893Y-55896831D01*
X231288190Y-55698161D01*
X231148544Y-55516170D01*
X231148538Y-55516163D01*
X230986336Y-55353961D01*
X230986329Y-55353955D01*
X230804338Y-55214309D01*
X230605668Y-55099606D01*
X230605659Y-55099602D01*
X230393730Y-55011818D01*
X230172137Y-54952442D01*
X229944710Y-54922501D01*
X229944694Y-54922500D01*
X229830000Y-54922500D01*
X229830000Y-56124017D01*
X229811591Y-56113389D01*
X229658991Y-56072500D01*
X229501009Y-56072500D01*
X229348409Y-56113389D01*
X229330000Y-56124017D01*
X229330000Y-54922500D01*
X229215306Y-54922500D01*
X229215289Y-54922501D01*
X228987862Y-54952442D01*
X228766269Y-55011818D01*
X228554340Y-55099602D01*
X228554331Y-55099606D01*
X228355661Y-55214309D01*
X228173670Y-55353955D01*
X228173663Y-55353961D01*
X228011461Y-55516163D01*
X228011455Y-55516170D01*
X227871809Y-55698161D01*
X227757106Y-55896831D01*
X227757102Y-55896840D01*
X227669318Y-56108769D01*
X227609942Y-56330362D01*
X227597811Y-56422499D01*
X219062188Y-56422499D01*
X219050057Y-56330362D01*
X218990681Y-56108769D01*
X218902897Y-55896840D01*
X218902893Y-55896831D01*
X218788190Y-55698161D01*
X218648544Y-55516170D01*
X218648538Y-55516163D01*
X218486336Y-55353961D01*
X218486329Y-55353955D01*
X218304338Y-55214309D01*
X218105668Y-55099606D01*
X218105659Y-55099602D01*
X217893730Y-55011818D01*
X217672137Y-54952442D01*
X217444710Y-54922501D01*
X217444694Y-54922500D01*
X217330000Y-54922500D01*
X217330000Y-56124017D01*
X217311591Y-56113389D01*
X217158991Y-56072500D01*
X217001009Y-56072500D01*
X216848409Y-56113389D01*
X216830000Y-56124017D01*
X216830000Y-54922500D01*
X216715306Y-54922500D01*
X216715289Y-54922501D01*
X216487862Y-54952442D01*
X216266269Y-55011818D01*
X216054340Y-55099602D01*
X216054331Y-55099606D01*
X215855661Y-55214309D01*
X215673670Y-55353955D01*
X215673663Y-55353961D01*
X215511461Y-55516163D01*
X215511455Y-55516170D01*
X215371809Y-55698161D01*
X215257106Y-55896831D01*
X215257102Y-55896840D01*
X215169318Y-56108769D01*
X215109942Y-56330362D01*
X215097811Y-56422499D01*
X79331555Y-56422499D01*
X79338000Y-56381805D01*
X79338000Y-56123193D01*
X79297543Y-55867766D01*
X79297543Y-55867765D01*
X79217625Y-55621804D01*
X79100216Y-55391377D01*
X79020036Y-55281017D01*
X79020034Y-55281016D01*
X78333161Y-55967889D01*
X78314003Y-55921636D01*
X78237561Y-55807232D01*
X78140268Y-55709939D01*
X78025864Y-55633497D01*
X77979608Y-55614337D01*
X78666482Y-54927464D01*
X78666481Y-54927463D01*
X78556122Y-54847283D01*
X78325695Y-54729874D01*
X78079733Y-54649956D01*
X77824306Y-54609500D01*
X77565694Y-54609500D01*
X77310266Y-54649956D01*
X77310265Y-54649956D01*
X77064304Y-54729874D01*
X76833884Y-54847279D01*
X76723517Y-54927464D01*
X76723517Y-54927465D01*
X77410390Y-55614337D01*
X77364136Y-55633497D01*
X77249732Y-55709939D01*
X77152439Y-55807232D01*
X77075997Y-55921636D01*
X77056837Y-55967890D01*
X76369965Y-55281017D01*
X76369964Y-55281017D01*
X76289779Y-55391384D01*
X76172374Y-55621804D01*
X76092456Y-55867765D01*
X76092456Y-55867766D01*
X76052000Y-56123193D01*
X74109014Y-56123193D01*
X74157300Y-56074907D01*
X74159049Y-56072500D01*
X74178713Y-56045436D01*
X74230948Y-55973538D01*
X74267351Y-55923434D01*
X74352353Y-55756609D01*
X74410210Y-55578542D01*
X74439500Y-55393616D01*
X74439500Y-55206384D01*
X74410210Y-55021458D01*
X74379670Y-54927464D01*
X74352354Y-54843393D01*
X74352353Y-54843390D01*
X74313332Y-54766808D01*
X74267351Y-54676566D01*
X74191386Y-54572008D01*
X74157305Y-54525099D01*
X74157301Y-54525094D01*
X74024905Y-54392698D01*
X74024900Y-54392694D01*
X73873437Y-54282651D01*
X73873436Y-54282650D01*
X73873434Y-54282649D01*
X73819988Y-54255416D01*
X73706609Y-54197646D01*
X73706606Y-54197645D01*
X73528543Y-54139790D01*
X73436079Y-54125145D01*
X73343616Y-54110500D01*
X73156384Y-54110500D01*
X73094742Y-54120263D01*
X72971456Y-54139790D01*
X72793393Y-54197645D01*
X72793390Y-54197646D01*
X72626562Y-54282651D01*
X72475099Y-54392694D01*
X72475094Y-54392698D01*
X72342698Y-54525094D01*
X72342694Y-54525099D01*
X72232651Y-54676562D01*
X72147646Y-54843390D01*
X72147645Y-54843393D01*
X72089790Y-55021456D01*
X72060500Y-55206384D01*
X68289000Y-55206384D01*
X68289000Y-55190683D01*
X68254797Y-54974740D01*
X68187238Y-54766811D01*
X68187237Y-54766808D01*
X68087980Y-54572008D01*
X68043191Y-54510360D01*
X67342137Y-55211414D01*
X67319333Y-55126306D01*
X67260090Y-55023694D01*
X67176306Y-54939910D01*
X67073694Y-54880667D01*
X66988583Y-54857861D01*
X67689638Y-54156807D01*
X67689638Y-54156806D01*
X67627995Y-54112021D01*
X67627993Y-54112020D01*
X67433191Y-54012762D01*
X67433188Y-54012761D01*
X67225259Y-53945202D01*
X67009316Y-53911000D01*
X66790684Y-53911000D01*
X66574740Y-53945202D01*
X66366811Y-54012761D01*
X66366808Y-54012762D01*
X66172001Y-54112023D01*
X66110360Y-54156806D01*
X66110360Y-54156807D01*
X66811414Y-54857861D01*
X66726306Y-54880667D01*
X66623694Y-54939910D01*
X66539910Y-55023694D01*
X66480667Y-55126306D01*
X66457861Y-55211414D01*
X65756807Y-54510360D01*
X65756806Y-54510360D01*
X65712023Y-54572001D01*
X65612762Y-54766808D01*
X65612761Y-54766811D01*
X65545202Y-54974740D01*
X65511000Y-55190683D01*
X63163263Y-55190683D01*
X63426482Y-54927464D01*
X63426481Y-54927463D01*
X63316122Y-54847283D01*
X63085695Y-54729874D01*
X62839733Y-54649956D01*
X62584306Y-54609500D01*
X62325694Y-54609500D01*
X62070266Y-54649956D01*
X62070265Y-54649956D01*
X61824304Y-54729874D01*
X61593884Y-54847279D01*
X61483517Y-54927464D01*
X61483517Y-54927465D01*
X62170390Y-55614337D01*
X62124136Y-55633497D01*
X62009732Y-55709939D01*
X61912439Y-55807232D01*
X61835997Y-55921636D01*
X61816837Y-55967890D01*
X61129965Y-55281017D01*
X61129964Y-55281017D01*
X61049779Y-55391384D01*
X60932374Y-55621804D01*
X60852456Y-55867765D01*
X60852456Y-55867766D01*
X60812000Y-56123193D01*
X44800500Y-56123193D01*
X44800500Y-51550473D01*
X215279500Y-51550473D01*
X215279500Y-51794526D01*
X215317678Y-52035572D01*
X215393097Y-52267687D01*
X215503896Y-52485142D01*
X215647339Y-52682576D01*
X215647343Y-52682581D01*
X215819918Y-52855156D01*
X215819923Y-52855160D01*
X215992136Y-52980279D01*
X216017361Y-52998606D01*
X216234815Y-53109404D01*
X216466924Y-53184821D01*
X216707973Y-53223000D01*
X216707974Y-53223000D01*
X217452026Y-53223000D01*
X217452027Y-53223000D01*
X217693076Y-53184821D01*
X217925185Y-53109404D01*
X218142639Y-52998606D01*
X218340083Y-52855155D01*
X218512655Y-52682583D01*
X218656106Y-52485139D01*
X218766904Y-52267685D01*
X218842321Y-52035576D01*
X218880500Y-51794527D01*
X218880500Y-51550473D01*
X227779500Y-51550473D01*
X227779500Y-51794526D01*
X227817678Y-52035572D01*
X227893097Y-52267687D01*
X228003896Y-52485142D01*
X228147339Y-52682576D01*
X228147343Y-52682581D01*
X228319918Y-52855156D01*
X228319923Y-52855160D01*
X228492136Y-52980279D01*
X228517361Y-52998606D01*
X228734815Y-53109404D01*
X228966924Y-53184821D01*
X229207973Y-53223000D01*
X229207974Y-53223000D01*
X229952026Y-53223000D01*
X229952027Y-53223000D01*
X230193076Y-53184821D01*
X230425185Y-53109404D01*
X230642639Y-52998606D01*
X230840083Y-52855155D01*
X231012655Y-52682583D01*
X231156106Y-52485139D01*
X231266904Y-52267685D01*
X231342321Y-52035576D01*
X231380500Y-51794527D01*
X231380500Y-51550473D01*
X260779500Y-51550473D01*
X260779500Y-51794526D01*
X260817678Y-52035572D01*
X260893097Y-52267687D01*
X261003896Y-52485142D01*
X261147339Y-52682576D01*
X261147343Y-52682581D01*
X261319918Y-52855156D01*
X261319923Y-52855160D01*
X261492136Y-52980279D01*
X261517361Y-52998606D01*
X261734815Y-53109404D01*
X261966924Y-53184821D01*
X262207973Y-53223000D01*
X262207974Y-53223000D01*
X262952026Y-53223000D01*
X262952027Y-53223000D01*
X263193076Y-53184821D01*
X263425185Y-53109404D01*
X263642639Y-52998606D01*
X263840083Y-52855155D01*
X264012655Y-52682583D01*
X264156106Y-52485139D01*
X264266904Y-52267685D01*
X264342321Y-52035576D01*
X264380500Y-51794527D01*
X264380500Y-51550473D01*
X273279500Y-51550473D01*
X273279500Y-51794526D01*
X273317678Y-52035572D01*
X273393097Y-52267687D01*
X273503896Y-52485142D01*
X273647339Y-52682576D01*
X273647343Y-52682581D01*
X273819918Y-52855156D01*
X273819923Y-52855160D01*
X273992136Y-52980279D01*
X274017361Y-52998606D01*
X274234815Y-53109404D01*
X274466924Y-53184821D01*
X274707973Y-53223000D01*
X274707974Y-53223000D01*
X275452026Y-53223000D01*
X275452027Y-53223000D01*
X275693076Y-53184821D01*
X275925185Y-53109404D01*
X276142639Y-52998606D01*
X276340083Y-52855155D01*
X276512655Y-52682583D01*
X276656106Y-52485139D01*
X276766904Y-52267685D01*
X276842321Y-52035576D01*
X276880500Y-51794527D01*
X276880500Y-51550473D01*
X276842321Y-51309424D01*
X276766904Y-51077315D01*
X276656106Y-50859861D01*
X276637779Y-50834636D01*
X276512660Y-50662423D01*
X276512656Y-50662418D01*
X276340081Y-50489843D01*
X276340076Y-50489839D01*
X276142642Y-50346396D01*
X276142641Y-50346395D01*
X276142639Y-50346394D01*
X275925185Y-50235596D01*
X275693076Y-50160179D01*
X275693074Y-50160178D01*
X275693072Y-50160178D01*
X275524769Y-50133521D01*
X275452027Y-50122000D01*
X274707973Y-50122000D01*
X274680294Y-50126384D01*
X274466927Y-50160178D01*
X274234812Y-50235597D01*
X274017357Y-50346396D01*
X273819923Y-50489839D01*
X273819918Y-50489843D01*
X273647343Y-50662418D01*
X273647339Y-50662423D01*
X273503896Y-50859857D01*
X273393097Y-51077312D01*
X273317678Y-51309427D01*
X273279500Y-51550473D01*
X264380500Y-51550473D01*
X264342321Y-51309424D01*
X264266904Y-51077315D01*
X264156106Y-50859861D01*
X264137779Y-50834636D01*
X264012660Y-50662423D01*
X264012656Y-50662418D01*
X263840081Y-50489843D01*
X263840076Y-50489839D01*
X263642642Y-50346396D01*
X263642641Y-50346395D01*
X263642639Y-50346394D01*
X263425185Y-50235596D01*
X263193076Y-50160179D01*
X263193074Y-50160178D01*
X263193072Y-50160178D01*
X263024769Y-50133521D01*
X262952027Y-50122000D01*
X262207973Y-50122000D01*
X262180294Y-50126384D01*
X261966927Y-50160178D01*
X261734812Y-50235597D01*
X261517357Y-50346396D01*
X261319923Y-50489839D01*
X261319918Y-50489843D01*
X261147343Y-50662418D01*
X261147339Y-50662423D01*
X261003896Y-50859857D01*
X260893097Y-51077312D01*
X260817678Y-51309427D01*
X260779500Y-51550473D01*
X231380500Y-51550473D01*
X231342321Y-51309424D01*
X231266904Y-51077315D01*
X231156106Y-50859861D01*
X231137779Y-50834636D01*
X231012660Y-50662423D01*
X231012656Y-50662418D01*
X230840081Y-50489843D01*
X230840076Y-50489839D01*
X230642642Y-50346396D01*
X230642641Y-50346395D01*
X230642639Y-50346394D01*
X230425185Y-50235596D01*
X230193076Y-50160179D01*
X230193074Y-50160178D01*
X230193072Y-50160178D01*
X230024769Y-50133521D01*
X229952027Y-50122000D01*
X229207973Y-50122000D01*
X229180294Y-50126384D01*
X228966927Y-50160178D01*
X228734812Y-50235597D01*
X228517357Y-50346396D01*
X228319923Y-50489839D01*
X228319918Y-50489843D01*
X228147343Y-50662418D01*
X228147339Y-50662423D01*
X228003896Y-50859857D01*
X227893097Y-51077312D01*
X227817678Y-51309427D01*
X227779500Y-51550473D01*
X218880500Y-51550473D01*
X218842321Y-51309424D01*
X218766904Y-51077315D01*
X218656106Y-50859861D01*
X218637779Y-50834636D01*
X218512660Y-50662423D01*
X218512656Y-50662418D01*
X218340081Y-50489843D01*
X218340076Y-50489839D01*
X218142642Y-50346396D01*
X218142641Y-50346395D01*
X218142639Y-50346394D01*
X217925185Y-50235596D01*
X217693076Y-50160179D01*
X217693074Y-50160178D01*
X217693072Y-50160178D01*
X217524769Y-50133521D01*
X217452027Y-50122000D01*
X216707973Y-50122000D01*
X216680294Y-50126384D01*
X216466927Y-50160178D01*
X216234812Y-50235597D01*
X216017357Y-50346396D01*
X215819923Y-50489839D01*
X215819918Y-50489843D01*
X215647343Y-50662418D01*
X215647339Y-50662423D01*
X215503896Y-50859857D01*
X215393097Y-51077312D01*
X215317678Y-51309427D01*
X215279500Y-51550473D01*
X44800500Y-51550473D01*
X44800500Y-50126384D01*
X65710500Y-50126384D01*
X65710500Y-50313615D01*
X65739790Y-50498543D01*
X65797645Y-50676606D01*
X65797646Y-50676609D01*
X65882651Y-50843437D01*
X65992694Y-50994900D01*
X65992698Y-50994905D01*
X66125094Y-51127301D01*
X66125099Y-51127305D01*
X66257212Y-51223290D01*
X66276566Y-51237351D01*
X66385620Y-51292917D01*
X66443390Y-51322353D01*
X66443393Y-51322354D01*
X66532424Y-51351281D01*
X66621458Y-51380210D01*
X66806384Y-51409500D01*
X66806385Y-51409500D01*
X66993615Y-51409500D01*
X66993616Y-51409500D01*
X67178542Y-51380210D01*
X67356609Y-51322353D01*
X67523434Y-51237351D01*
X67674907Y-51127300D01*
X67807300Y-50994907D01*
X67917351Y-50843434D01*
X68002353Y-50676609D01*
X68060210Y-50498542D01*
X68089500Y-50313616D01*
X68089500Y-50126384D01*
X72060500Y-50126384D01*
X72060500Y-50313615D01*
X72089790Y-50498543D01*
X72147645Y-50676606D01*
X72147646Y-50676609D01*
X72232651Y-50843437D01*
X72342694Y-50994900D01*
X72342698Y-50994905D01*
X72475094Y-51127301D01*
X72475099Y-51127305D01*
X72607212Y-51223290D01*
X72626566Y-51237351D01*
X72735620Y-51292917D01*
X72793390Y-51322353D01*
X72793393Y-51322354D01*
X72882424Y-51351281D01*
X72971458Y-51380210D01*
X73156384Y-51409500D01*
X73156385Y-51409500D01*
X73343615Y-51409500D01*
X73343616Y-51409500D01*
X73528542Y-51380210D01*
X73706609Y-51322353D01*
X73873434Y-51237351D01*
X74024907Y-51127300D01*
X74157300Y-50994907D01*
X74267351Y-50843434D01*
X74352353Y-50676609D01*
X74410210Y-50498542D01*
X74439500Y-50313616D01*
X74439500Y-50126384D01*
X74410210Y-49941458D01*
X74352353Y-49763391D01*
X74352353Y-49763390D01*
X74322917Y-49705620D01*
X74267351Y-49596566D01*
X74253290Y-49577212D01*
X74157305Y-49445099D01*
X74157301Y-49445094D01*
X74024905Y-49312698D01*
X74024900Y-49312694D01*
X73873437Y-49202651D01*
X73873436Y-49202650D01*
X73873434Y-49202649D01*
X73819988Y-49175416D01*
X73706609Y-49117646D01*
X73706606Y-49117645D01*
X73528543Y-49059790D01*
X73436079Y-49045145D01*
X73343616Y-49030500D01*
X73156384Y-49030500D01*
X73094742Y-49040263D01*
X72971456Y-49059790D01*
X72793393Y-49117645D01*
X72793390Y-49117646D01*
X72626562Y-49202651D01*
X72475099Y-49312694D01*
X72475094Y-49312698D01*
X72342698Y-49445094D01*
X72342694Y-49445099D01*
X72232651Y-49596562D01*
X72147646Y-49763390D01*
X72147645Y-49763393D01*
X72089790Y-49941456D01*
X72060500Y-50126384D01*
X68089500Y-50126384D01*
X68060210Y-49941458D01*
X68002353Y-49763391D01*
X68002353Y-49763390D01*
X67972917Y-49705620D01*
X67917351Y-49596566D01*
X67903290Y-49577212D01*
X67807305Y-49445099D01*
X67807301Y-49445094D01*
X67674905Y-49312698D01*
X67674900Y-49312694D01*
X67523437Y-49202651D01*
X67523436Y-49202650D01*
X67523434Y-49202649D01*
X67469988Y-49175416D01*
X67356609Y-49117646D01*
X67356606Y-49117645D01*
X67178543Y-49059790D01*
X67086079Y-49045145D01*
X66993616Y-49030500D01*
X66806384Y-49030500D01*
X66744742Y-49040263D01*
X66621456Y-49059790D01*
X66443393Y-49117645D01*
X66443390Y-49117646D01*
X66276562Y-49202651D01*
X66125099Y-49312694D01*
X66125094Y-49312698D01*
X65992698Y-49445094D01*
X65992694Y-49445099D01*
X65882651Y-49596562D01*
X65797646Y-49763390D01*
X65797645Y-49763393D01*
X65739790Y-49941456D01*
X65710500Y-50126384D01*
X44800500Y-50126384D01*
X44800500Y-46364071D01*
X139949499Y-46364071D01*
X139974497Y-46489738D01*
X139974499Y-46489744D01*
X140023533Y-46608124D01*
X140023538Y-46608133D01*
X140094723Y-46714668D01*
X140094726Y-46714672D01*
X140185327Y-46805273D01*
X140185331Y-46805276D01*
X140291866Y-46876461D01*
X140291872Y-46876464D01*
X140291873Y-46876465D01*
X140410256Y-46925501D01*
X140410260Y-46925501D01*
X140410261Y-46925502D01*
X140535928Y-46950500D01*
X140535931Y-46950500D01*
X140664071Y-46950500D01*
X140748615Y-46933682D01*
X140789744Y-46925501D01*
X140908127Y-46876465D01*
X141014669Y-46805276D01*
X141033635Y-46786309D01*
X141094955Y-46752823D01*
X141105140Y-46751048D01*
X141109300Y-46750500D01*
X141109309Y-46750500D01*
X141199673Y-46726286D01*
X141223887Y-46719799D01*
X141326614Y-46660489D01*
X143660490Y-44326613D01*
X148308269Y-39678834D01*
X148369592Y-39645349D01*
X148395950Y-39642515D01*
X148729191Y-39642515D01*
X148796230Y-39662200D01*
X148816872Y-39678834D01*
X148835326Y-39697288D01*
X148835330Y-39697291D01*
X148941865Y-39768476D01*
X148941871Y-39768479D01*
X148941872Y-39768480D01*
X149060255Y-39817516D01*
X149060259Y-39817516D01*
X149060260Y-39817517D01*
X149185927Y-39842515D01*
X149185930Y-39842515D01*
X149314070Y-39842515D01*
X149398614Y-39825697D01*
X149439743Y-39817516D01*
X149558126Y-39768480D01*
X149664668Y-39697291D01*
X149755275Y-39606684D01*
X149826464Y-39500142D01*
X149875500Y-39381759D01*
X149883681Y-39340630D01*
X149900499Y-39256086D01*
X149900499Y-39127943D01*
X149875501Y-39002276D01*
X149875500Y-39002275D01*
X149875500Y-39002271D01*
X149829392Y-38890956D01*
X149826465Y-38883890D01*
X149826460Y-38883881D01*
X149755275Y-38777346D01*
X149755272Y-38777342D01*
X149664671Y-38686741D01*
X149664667Y-38686738D01*
X149558132Y-38615553D01*
X149558123Y-38615548D01*
X149439743Y-38566514D01*
X149439737Y-38566512D01*
X149314070Y-38541515D01*
X149314068Y-38541515D01*
X149185930Y-38541515D01*
X149185928Y-38541515D01*
X149060260Y-38566512D01*
X149060254Y-38566514D01*
X148941874Y-38615548D01*
X148941865Y-38615553D01*
X148835330Y-38686738D01*
X148835326Y-38686741D01*
X148816872Y-38705196D01*
X148755549Y-38738681D01*
X148729191Y-38741515D01*
X148098676Y-38741515D01*
X148029929Y-38759935D01*
X147984097Y-38772216D01*
X147984092Y-38772219D01*
X147940680Y-38797282D01*
X147940681Y-38797283D01*
X147881374Y-38831523D01*
X147881368Y-38831528D01*
X143023387Y-43689510D01*
X141024155Y-45688740D01*
X140962832Y-45722225D01*
X140893140Y-45717241D01*
X140889022Y-45715620D01*
X140789748Y-45674500D01*
X140789738Y-45674497D01*
X140664071Y-45649500D01*
X140664069Y-45649500D01*
X140535931Y-45649500D01*
X140535929Y-45649500D01*
X140410261Y-45674497D01*
X140410255Y-45674499D01*
X140291875Y-45723533D01*
X140291866Y-45723538D01*
X140185331Y-45794723D01*
X140185327Y-45794726D01*
X140094726Y-45885327D01*
X140094723Y-45885331D01*
X140023538Y-45991866D01*
X140023533Y-45991875D01*
X139974499Y-46110255D01*
X139974497Y-46110261D01*
X139949500Y-46235928D01*
X139949500Y-46235931D01*
X139949500Y-46364069D01*
X139949500Y-46364071D01*
X139949499Y-46364071D01*
X44800500Y-46364071D01*
X44800500Y-44264071D01*
X108349499Y-44264071D01*
X108374497Y-44389738D01*
X108374499Y-44389744D01*
X108423533Y-44508124D01*
X108423538Y-44508133D01*
X108494723Y-44614668D01*
X108494726Y-44614672D01*
X108585327Y-44705273D01*
X108585331Y-44705276D01*
X108691866Y-44776461D01*
X108691872Y-44776464D01*
X108691873Y-44776465D01*
X108810256Y-44825501D01*
X108810260Y-44825501D01*
X108810261Y-44825502D01*
X108935928Y-44850500D01*
X108935931Y-44850500D01*
X109064071Y-44850500D01*
X109148615Y-44833682D01*
X109189744Y-44825501D01*
X109308127Y-44776465D01*
X109414669Y-44705276D01*
X109505276Y-44614669D01*
X109576465Y-44508127D01*
X109625501Y-44389744D01*
X109650500Y-44264069D01*
X109650500Y-44137964D01*
X109670185Y-44070925D01*
X109686819Y-44050283D01*
X110208605Y-43528497D01*
X110860489Y-42876614D01*
X110919798Y-42773887D01*
X110919799Y-42773886D01*
X110950500Y-42659309D01*
X110950500Y-40520807D01*
X110970185Y-40453768D01*
X110986821Y-40433124D01*
X111005274Y-40414671D01*
X111005276Y-40414669D01*
X111076465Y-40308127D01*
X111125501Y-40189744D01*
X111140587Y-40113903D01*
X111150500Y-40064071D01*
X111150500Y-39935928D01*
X111125502Y-39810261D01*
X111125501Y-39810260D01*
X111125501Y-39810256D01*
X111076465Y-39691873D01*
X111076464Y-39691872D01*
X111076461Y-39691866D01*
X111005276Y-39585331D01*
X111005273Y-39585327D01*
X110914672Y-39494726D01*
X110914668Y-39494723D01*
X110808133Y-39423538D01*
X110808124Y-39423533D01*
X110689744Y-39374499D01*
X110689738Y-39374497D01*
X110564071Y-39349500D01*
X110564069Y-39349500D01*
X110435931Y-39349500D01*
X110435929Y-39349500D01*
X110310261Y-39374497D01*
X110310255Y-39374499D01*
X110191875Y-39423533D01*
X110191866Y-39423538D01*
X110085331Y-39494723D01*
X110085327Y-39494726D01*
X109994726Y-39585327D01*
X109994723Y-39585331D01*
X109923538Y-39691866D01*
X109923533Y-39691875D01*
X109874499Y-39810255D01*
X109874497Y-39810261D01*
X109849500Y-39935928D01*
X109849500Y-39935931D01*
X109849500Y-40064069D01*
X109849500Y-40064071D01*
X109849499Y-40064071D01*
X109874497Y-40189738D01*
X109874499Y-40189744D01*
X109923533Y-40308124D01*
X109923538Y-40308133D01*
X109994723Y-40414668D01*
X109994725Y-40414671D01*
X110013179Y-40433124D01*
X110046666Y-40494446D01*
X110049500Y-40520807D01*
X110049500Y-42362034D01*
X110029815Y-42429073D01*
X110013181Y-42449715D01*
X108934398Y-43528497D01*
X108873075Y-43561982D01*
X108870910Y-43562433D01*
X108810259Y-43574497D01*
X108810257Y-43574498D01*
X108691875Y-43623533D01*
X108691866Y-43623538D01*
X108585331Y-43694723D01*
X108585327Y-43694726D01*
X108494726Y-43785327D01*
X108494723Y-43785331D01*
X108423538Y-43891866D01*
X108423533Y-43891875D01*
X108374499Y-44010255D01*
X108374497Y-44010261D01*
X108349500Y-44135928D01*
X108349500Y-44135931D01*
X108349500Y-44264069D01*
X108349500Y-44264071D01*
X108349499Y-44264071D01*
X44800500Y-44264071D01*
X44800500Y-42164071D01*
X83749499Y-42164071D01*
X83774497Y-42289738D01*
X83774499Y-42289744D01*
X83823533Y-42408124D01*
X83823538Y-42408133D01*
X83894723Y-42514668D01*
X83894726Y-42514672D01*
X83985327Y-42605273D01*
X83985331Y-42605276D01*
X84091866Y-42676461D01*
X84091872Y-42676464D01*
X84091873Y-42676465D01*
X84210256Y-42725501D01*
X84210260Y-42725501D01*
X84210261Y-42725502D01*
X84335928Y-42750500D01*
X84335931Y-42750500D01*
X84464071Y-42750500D01*
X84548615Y-42733682D01*
X84589744Y-42725501D01*
X84708127Y-42676465D01*
X84814669Y-42605276D01*
X84905276Y-42514669D01*
X84976465Y-42408127D01*
X85025501Y-42289744D01*
X85027279Y-42280800D01*
X85059659Y-42218891D01*
X85061158Y-42217365D01*
X85917309Y-41361214D01*
X85978630Y-41327731D01*
X85980684Y-41327302D01*
X85989744Y-41325501D01*
X86108127Y-41276465D01*
X86214669Y-41205276D01*
X86305276Y-41114669D01*
X86376465Y-41008127D01*
X86425501Y-40889744D01*
X86450500Y-40764069D01*
X86450500Y-40635931D01*
X86450500Y-40635928D01*
X86425502Y-40510261D01*
X86425501Y-40510260D01*
X86425501Y-40510256D01*
X86376465Y-40391873D01*
X86376464Y-40391872D01*
X86376461Y-40391866D01*
X86305276Y-40285331D01*
X86305273Y-40285327D01*
X86214672Y-40194726D01*
X86214668Y-40194723D01*
X86108133Y-40123538D01*
X86108124Y-40123533D01*
X85989744Y-40074499D01*
X85989738Y-40074497D01*
X85864071Y-40049500D01*
X85864069Y-40049500D01*
X85735931Y-40049500D01*
X85735929Y-40049500D01*
X85610261Y-40074497D01*
X85610255Y-40074499D01*
X85491875Y-40123533D01*
X85491866Y-40123538D01*
X85385331Y-40194723D01*
X85385327Y-40194726D01*
X85294726Y-40285327D01*
X85294723Y-40285331D01*
X85223538Y-40391866D01*
X85223533Y-40391875D01*
X85174498Y-40510257D01*
X85174497Y-40510259D01*
X85172719Y-40519202D01*
X85140333Y-40581113D01*
X85138783Y-40582690D01*
X84282690Y-41438783D01*
X84221367Y-41472268D01*
X84219202Y-41472719D01*
X84210259Y-41474497D01*
X84210257Y-41474498D01*
X84091875Y-41523533D01*
X84091866Y-41523538D01*
X83985331Y-41594723D01*
X83985327Y-41594726D01*
X83894726Y-41685327D01*
X83894723Y-41685331D01*
X83823538Y-41791866D01*
X83823533Y-41791875D01*
X83774499Y-41910255D01*
X83774497Y-41910261D01*
X83749500Y-42035928D01*
X83749500Y-42035931D01*
X83749500Y-42164069D01*
X83749500Y-42164071D01*
X83749499Y-42164071D01*
X44800500Y-42164071D01*
X44800500Y-39019096D01*
X139154524Y-39019096D01*
X139179522Y-39144763D01*
X139179524Y-39144769D01*
X139228558Y-39263149D01*
X139228563Y-39263158D01*
X139299748Y-39369693D01*
X139299751Y-39369697D01*
X139390352Y-39460298D01*
X139390356Y-39460301D01*
X139496891Y-39531486D01*
X139496897Y-39531489D01*
X139496898Y-39531490D01*
X139615281Y-39580526D01*
X139615285Y-39580526D01*
X139615286Y-39580527D01*
X139740953Y-39605525D01*
X139740956Y-39605525D01*
X139869096Y-39605525D01*
X139970633Y-39585327D01*
X139994769Y-39580526D01*
X140113152Y-39531490D01*
X140120737Y-39526421D01*
X140187414Y-39505545D01*
X140189626Y-39505525D01*
X140725638Y-39505525D01*
X140792677Y-39525210D01*
X140813319Y-39541844D01*
X141088018Y-39816543D01*
X141121503Y-39877866D01*
X141121954Y-39880033D01*
X141123732Y-39888971D01*
X141123734Y-39888979D01*
X141172768Y-40007359D01*
X141172773Y-40007368D01*
X141243958Y-40113903D01*
X141243961Y-40113907D01*
X141334562Y-40204508D01*
X141334566Y-40204511D01*
X141441101Y-40275696D01*
X141441107Y-40275699D01*
X141441108Y-40275700D01*
X141559491Y-40324736D01*
X141559495Y-40324736D01*
X141559496Y-40324737D01*
X141685163Y-40349735D01*
X141685166Y-40349735D01*
X141813306Y-40349735D01*
X141897850Y-40332917D01*
X141938979Y-40324736D01*
X142057362Y-40275700D01*
X142163904Y-40204511D01*
X142254511Y-40113904D01*
X142325700Y-40007362D01*
X142374736Y-39888979D01*
X142388951Y-39817516D01*
X142399735Y-39763306D01*
X142399735Y-39635163D01*
X142374737Y-39509496D01*
X142374736Y-39509495D01*
X142374736Y-39509491D01*
X142325700Y-39391108D01*
X142325699Y-39391107D01*
X142325696Y-39391101D01*
X142254511Y-39284566D01*
X142254508Y-39284562D01*
X142163907Y-39193961D01*
X142163903Y-39193958D01*
X142057368Y-39122773D01*
X142057359Y-39122768D01*
X141938979Y-39073734D01*
X141938971Y-39073732D01*
X141930033Y-39071954D01*
X141868122Y-39039569D01*
X141866543Y-39038018D01*
X141343041Y-38514516D01*
X141343040Y-38514515D01*
X141217510Y-38442041D01*
X141217511Y-38442041D01*
X141182507Y-38432662D01*
X141077500Y-38404525D01*
X141077497Y-38404525D01*
X140189626Y-38404525D01*
X140122587Y-38384840D01*
X140120772Y-38383651D01*
X140113152Y-38378560D01*
X140113149Y-38378558D01*
X140113148Y-38378558D01*
X139994769Y-38329524D01*
X139994763Y-38329522D01*
X139869096Y-38304525D01*
X139869094Y-38304525D01*
X139740956Y-38304525D01*
X139740954Y-38304525D01*
X139615286Y-38329522D01*
X139615280Y-38329524D01*
X139496900Y-38378558D01*
X139496891Y-38378563D01*
X139390356Y-38449748D01*
X139390352Y-38449751D01*
X139299751Y-38540352D01*
X139299748Y-38540356D01*
X139228563Y-38646891D01*
X139228558Y-38646900D01*
X139179524Y-38765280D01*
X139179522Y-38765286D01*
X139154525Y-38890953D01*
X139154525Y-38890956D01*
X139154525Y-39019094D01*
X139154525Y-39019096D01*
X139154524Y-39019096D01*
X44800500Y-39019096D01*
X44800500Y-38218995D01*
X133394499Y-38218995D01*
X133421418Y-38354322D01*
X133421421Y-38354332D01*
X133474221Y-38481804D01*
X133474228Y-38481817D01*
X133550885Y-38596541D01*
X133550888Y-38596545D01*
X133648454Y-38694111D01*
X133648458Y-38694114D01*
X133763182Y-38770771D01*
X133763195Y-38770778D01*
X133890667Y-38823578D01*
X133890672Y-38823580D01*
X133890676Y-38823580D01*
X133890677Y-38823581D01*
X134026004Y-38850500D01*
X134026007Y-38850500D01*
X134163995Y-38850500D01*
X134259396Y-38831523D01*
X134299328Y-38823580D01*
X134426811Y-38770775D01*
X134541542Y-38694114D01*
X134639114Y-38596542D01*
X134715775Y-38481811D01*
X134768580Y-38354328D01*
X134795500Y-38218993D01*
X134795500Y-38081007D01*
X134795500Y-38081004D01*
X134768581Y-37945677D01*
X134768580Y-37945676D01*
X134768580Y-37945672D01*
X134768578Y-37945667D01*
X134715778Y-37818195D01*
X134715771Y-37818182D01*
X134639114Y-37703458D01*
X134639111Y-37703454D01*
X134541545Y-37605888D01*
X134541541Y-37605885D01*
X134426817Y-37529228D01*
X134426804Y-37529221D01*
X134299332Y-37476421D01*
X134299322Y-37476418D01*
X134163995Y-37449500D01*
X134163993Y-37449500D01*
X134026007Y-37449500D01*
X134026005Y-37449500D01*
X133890677Y-37476418D01*
X133890667Y-37476421D01*
X133763195Y-37529221D01*
X133763182Y-37529228D01*
X133648458Y-37605885D01*
X133648454Y-37605888D01*
X133550888Y-37703454D01*
X133550885Y-37703458D01*
X133474228Y-37818182D01*
X133474221Y-37818195D01*
X133421421Y-37945667D01*
X133421418Y-37945677D01*
X133394500Y-38081004D01*
X133394500Y-38081007D01*
X133394500Y-38218993D01*
X133394500Y-38218995D01*
X133394499Y-38218995D01*
X44800500Y-38218995D01*
X44800500Y-36709046D01*
X143804524Y-36709046D01*
X143829522Y-36834713D01*
X143829524Y-36834719D01*
X143878558Y-36953099D01*
X143878563Y-36953108D01*
X143949748Y-37059643D01*
X143949751Y-37059647D01*
X144040352Y-37150248D01*
X144040356Y-37150251D01*
X144146891Y-37221436D01*
X144146897Y-37221439D01*
X144146898Y-37221440D01*
X144265281Y-37270476D01*
X144265285Y-37270476D01*
X144265286Y-37270477D01*
X144390953Y-37295475D01*
X144390956Y-37295475D01*
X144519096Y-37295475D01*
X144603640Y-37278657D01*
X144644769Y-37270476D01*
X144763152Y-37221440D01*
X144869694Y-37150251D01*
X144960301Y-37059644D01*
X145031490Y-36953102D01*
X145080526Y-36834719D01*
X145105525Y-36709044D01*
X145105525Y-36682940D01*
X145125210Y-36615901D01*
X145141844Y-36595259D01*
X145599700Y-36137404D01*
X145661023Y-36103919D01*
X145687381Y-36101085D01*
X148564893Y-36101085D01*
X148631932Y-36120770D01*
X148652574Y-36137404D01*
X148671028Y-36155858D01*
X148671032Y-36155861D01*
X148777567Y-36227046D01*
X148777576Y-36227051D01*
X148804393Y-36238159D01*
X148895957Y-36276086D01*
X148895961Y-36276086D01*
X148895962Y-36276087D01*
X149021629Y-36301085D01*
X149021632Y-36301085D01*
X149149772Y-36301085D01*
X149234316Y-36284267D01*
X149275445Y-36276086D01*
X149393828Y-36227050D01*
X149500370Y-36155861D01*
X149590977Y-36065254D01*
X149662166Y-35958712D01*
X149711202Y-35840329D01*
X149736201Y-35714654D01*
X149736201Y-35586516D01*
X149736201Y-35586513D01*
X149711203Y-35460846D01*
X149711202Y-35460845D01*
X149711202Y-35460841D01*
X149662166Y-35342458D01*
X149662165Y-35342457D01*
X149662162Y-35342451D01*
X149590977Y-35235916D01*
X149590974Y-35235912D01*
X149500373Y-35145311D01*
X149500369Y-35145308D01*
X149393834Y-35074123D01*
X149393825Y-35074118D01*
X149275445Y-35025084D01*
X149275439Y-35025082D01*
X149149772Y-35000085D01*
X149149770Y-35000085D01*
X149021632Y-35000085D01*
X149021630Y-35000085D01*
X148895962Y-35025082D01*
X148895956Y-35025084D01*
X148777576Y-35074118D01*
X148777567Y-35074123D01*
X148671032Y-35145308D01*
X148671028Y-35145311D01*
X148652574Y-35163766D01*
X148591251Y-35197251D01*
X148564893Y-35200085D01*
X145390106Y-35200085D01*
X145299740Y-35224298D01*
X145299739Y-35224297D01*
X145275530Y-35230785D01*
X145275521Y-35230789D01*
X145172807Y-35290090D01*
X145172799Y-35290096D01*
X144504741Y-35958156D01*
X144443418Y-35991641D01*
X144417060Y-35994475D01*
X144390954Y-35994475D01*
X144265286Y-36019472D01*
X144265280Y-36019474D01*
X144146900Y-36068508D01*
X144146891Y-36068513D01*
X144040356Y-36139698D01*
X144040352Y-36139701D01*
X143949751Y-36230302D01*
X143949748Y-36230306D01*
X143878563Y-36336841D01*
X143878558Y-36336850D01*
X143829524Y-36455230D01*
X143829522Y-36455236D01*
X143804525Y-36580903D01*
X143804525Y-36580906D01*
X143804525Y-36709044D01*
X143804525Y-36709046D01*
X143804524Y-36709046D01*
X44800500Y-36709046D01*
X44800500Y-35218995D01*
X133394499Y-35218995D01*
X133421418Y-35354322D01*
X133421421Y-35354332D01*
X133474221Y-35481804D01*
X133474228Y-35481817D01*
X133550885Y-35596541D01*
X133550888Y-35596545D01*
X133648454Y-35694111D01*
X133648458Y-35694114D01*
X133763182Y-35770771D01*
X133763195Y-35770778D01*
X133890667Y-35823578D01*
X133890672Y-35823580D01*
X133890676Y-35823580D01*
X133890677Y-35823581D01*
X134026004Y-35850500D01*
X134026007Y-35850500D01*
X134163995Y-35850500D01*
X134255041Y-35832389D01*
X134299328Y-35823580D01*
X134426811Y-35770775D01*
X134541542Y-35694114D01*
X134639114Y-35596542D01*
X134715775Y-35481811D01*
X134768580Y-35354328D01*
X134793154Y-35230789D01*
X134795500Y-35218995D01*
X134795500Y-35081004D01*
X134768581Y-34945677D01*
X134768580Y-34945676D01*
X134768580Y-34945672D01*
X134758982Y-34922500D01*
X134715778Y-34818195D01*
X134715771Y-34818182D01*
X134639114Y-34703458D01*
X134639111Y-34703454D01*
X134541545Y-34605888D01*
X134541541Y-34605885D01*
X134426817Y-34529228D01*
X134426804Y-34529221D01*
X134299332Y-34476421D01*
X134299322Y-34476418D01*
X134163995Y-34449500D01*
X134163993Y-34449500D01*
X134026007Y-34449500D01*
X134026005Y-34449500D01*
X133890677Y-34476418D01*
X133890667Y-34476421D01*
X133763195Y-34529221D01*
X133763182Y-34529228D01*
X133648458Y-34605885D01*
X133648454Y-34605888D01*
X133550888Y-34703454D01*
X133550885Y-34703458D01*
X133474228Y-34818182D01*
X133474221Y-34818195D01*
X133421421Y-34945667D01*
X133421418Y-34945677D01*
X133394500Y-35081004D01*
X133394500Y-35081007D01*
X133394500Y-35218993D01*
X133394500Y-35218995D01*
X133394499Y-35218995D01*
X44800500Y-35218995D01*
X44800500Y-33464071D01*
X149449499Y-33464071D01*
X149474497Y-33589738D01*
X149474499Y-33589744D01*
X149523533Y-33708124D01*
X149523538Y-33708133D01*
X149594723Y-33814668D01*
X149594726Y-33814672D01*
X149685327Y-33905273D01*
X149685331Y-33905276D01*
X149791866Y-33976461D01*
X149791872Y-33976464D01*
X149791873Y-33976465D01*
X149910256Y-34025501D01*
X149910260Y-34025501D01*
X149910261Y-34025502D01*
X150035928Y-34050500D01*
X150035931Y-34050500D01*
X150164071Y-34050500D01*
X150255147Y-34032383D01*
X150289744Y-34025501D01*
X150408127Y-33976465D01*
X150415712Y-33971396D01*
X150482389Y-33950520D01*
X150484601Y-33950500D01*
X151090568Y-33950500D01*
X151157607Y-33970185D01*
X151159459Y-33971398D01*
X151241866Y-34026461D01*
X151241875Y-34026466D01*
X151268692Y-34037574D01*
X151360256Y-34075501D01*
X151360260Y-34075501D01*
X151360261Y-34075502D01*
X151485928Y-34100500D01*
X151485931Y-34100500D01*
X151614071Y-34100500D01*
X151698615Y-34083682D01*
X151739744Y-34075501D01*
X151858127Y-34026465D01*
X151964669Y-33955276D01*
X152055276Y-33864669D01*
X152126465Y-33758127D01*
X152144714Y-33714071D01*
X180199499Y-33714071D01*
X180224497Y-33839738D01*
X180224499Y-33839744D01*
X180273533Y-33958124D01*
X180273534Y-33958126D01*
X180273535Y-33958127D01*
X180278600Y-33965708D01*
X180299480Y-34032383D01*
X180299500Y-34034600D01*
X180299500Y-36476233D01*
X180290061Y-36523685D01*
X180274500Y-36561251D01*
X180274497Y-36561261D01*
X180249500Y-36686928D01*
X180249500Y-36686931D01*
X180249500Y-36815069D01*
X180249500Y-36815071D01*
X180249499Y-36815071D01*
X180274497Y-36940738D01*
X180274499Y-36940744D01*
X180323533Y-37059124D01*
X180323538Y-37059133D01*
X180394723Y-37165668D01*
X180394726Y-37165672D01*
X180485327Y-37256273D01*
X180485331Y-37256276D01*
X180591866Y-37327461D01*
X180591872Y-37327464D01*
X180591873Y-37327465D01*
X180710256Y-37376501D01*
X180710260Y-37376501D01*
X180710261Y-37376502D01*
X180835928Y-37401500D01*
X180835931Y-37401500D01*
X180964071Y-37401500D01*
X181048615Y-37384682D01*
X181089744Y-37376501D01*
X181208127Y-37327465D01*
X181314669Y-37256276D01*
X181405276Y-37165669D01*
X181476465Y-37059127D01*
X181525501Y-36940744D01*
X181546591Y-36834719D01*
X181550500Y-36815070D01*
X181550500Y-36686928D01*
X181525502Y-36561261D01*
X181525501Y-36561260D01*
X181525501Y-36561256D01*
X181476465Y-36442873D01*
X181462851Y-36422499D01*
X238097811Y-36422499D01*
X238097812Y-36422500D01*
X239531518Y-36422500D01*
X239520889Y-36440909D01*
X239480000Y-36593509D01*
X239480000Y-36751491D01*
X239520889Y-36904091D01*
X239531518Y-36922500D01*
X238097812Y-36922500D01*
X238109942Y-37014637D01*
X238169318Y-37236230D01*
X238257102Y-37448159D01*
X238257106Y-37448168D01*
X238371809Y-37646838D01*
X238511455Y-37828829D01*
X238511461Y-37828836D01*
X238673663Y-37991038D01*
X238673670Y-37991044D01*
X238855661Y-38130690D01*
X239054331Y-38245393D01*
X239054340Y-38245397D01*
X239266269Y-38333181D01*
X239487862Y-38392557D01*
X239715289Y-38422498D01*
X239715306Y-38422500D01*
X239830000Y-38422500D01*
X239830000Y-37220982D01*
X239848409Y-37231611D01*
X240001009Y-37272500D01*
X240158991Y-37272500D01*
X240311591Y-37231611D01*
X240330000Y-37220982D01*
X240330000Y-38422500D01*
X240444694Y-38422500D01*
X240444710Y-38422498D01*
X240672137Y-38392557D01*
X240893730Y-38333181D01*
X241105659Y-38245397D01*
X241105668Y-38245393D01*
X241304338Y-38130690D01*
X241486329Y-37991044D01*
X241486336Y-37991038D01*
X241648538Y-37828836D01*
X241648544Y-37828829D01*
X241788190Y-37646838D01*
X241902893Y-37448168D01*
X241902897Y-37448159D01*
X241990681Y-37236230D01*
X242050057Y-37014637D01*
X242062188Y-36922500D01*
X240628482Y-36922500D01*
X240639111Y-36904091D01*
X240680000Y-36751491D01*
X240680000Y-36593509D01*
X240639111Y-36440909D01*
X240628482Y-36422500D01*
X242062188Y-36422500D01*
X242062188Y-36422499D01*
X250597811Y-36422499D01*
X250597812Y-36422500D01*
X252031518Y-36422500D01*
X252020889Y-36440909D01*
X251980000Y-36593509D01*
X251980000Y-36751491D01*
X252020889Y-36904091D01*
X252031518Y-36922500D01*
X250597812Y-36922500D01*
X250609942Y-37014637D01*
X250669318Y-37236230D01*
X250757102Y-37448159D01*
X250757106Y-37448168D01*
X250871809Y-37646838D01*
X251011455Y-37828829D01*
X251011461Y-37828836D01*
X251173663Y-37991038D01*
X251173670Y-37991044D01*
X251355661Y-38130690D01*
X251554331Y-38245393D01*
X251554340Y-38245397D01*
X251766269Y-38333181D01*
X251987862Y-38392557D01*
X252215289Y-38422498D01*
X252215306Y-38422500D01*
X252330000Y-38422500D01*
X252330000Y-37220982D01*
X252348409Y-37231611D01*
X252501009Y-37272500D01*
X252658991Y-37272500D01*
X252811591Y-37231611D01*
X252830000Y-37220982D01*
X252830000Y-38422500D01*
X252944694Y-38422500D01*
X252944710Y-38422498D01*
X253172137Y-38392557D01*
X253393730Y-38333181D01*
X253605659Y-38245397D01*
X253605668Y-38245393D01*
X253804338Y-38130690D01*
X253986329Y-37991044D01*
X253986336Y-37991038D01*
X254148538Y-37828836D01*
X254148544Y-37828829D01*
X254288190Y-37646838D01*
X254402893Y-37448168D01*
X254402897Y-37448159D01*
X254490681Y-37236230D01*
X254550057Y-37014637D01*
X254562188Y-36922500D01*
X253128482Y-36922500D01*
X253139111Y-36904091D01*
X253180000Y-36751491D01*
X253180000Y-36593509D01*
X253139111Y-36440909D01*
X253128482Y-36422500D01*
X254562188Y-36422500D01*
X254562188Y-36422499D01*
X254550057Y-36330362D01*
X254490681Y-36108769D01*
X254402897Y-35896840D01*
X254402893Y-35896831D01*
X254288190Y-35698161D01*
X254148544Y-35516170D01*
X254148538Y-35516163D01*
X253986336Y-35353961D01*
X253986329Y-35353955D01*
X253804338Y-35214309D01*
X253605668Y-35099606D01*
X253605659Y-35099602D01*
X253393730Y-35011818D01*
X253172137Y-34952442D01*
X252944710Y-34922501D01*
X252944694Y-34922500D01*
X252830000Y-34922500D01*
X252830000Y-36124017D01*
X252811591Y-36113389D01*
X252658991Y-36072500D01*
X252501009Y-36072500D01*
X252348409Y-36113389D01*
X252330000Y-36124017D01*
X252330000Y-34922500D01*
X252215306Y-34922500D01*
X252215289Y-34922501D01*
X251987862Y-34952442D01*
X251766269Y-35011818D01*
X251554340Y-35099602D01*
X251554331Y-35099606D01*
X251355661Y-35214309D01*
X251173670Y-35353955D01*
X251173663Y-35353961D01*
X251011461Y-35516163D01*
X251011455Y-35516170D01*
X250871809Y-35698161D01*
X250757106Y-35896831D01*
X250757102Y-35896840D01*
X250669318Y-36108769D01*
X250609942Y-36330362D01*
X250597811Y-36422499D01*
X242062188Y-36422499D01*
X242050057Y-36330362D01*
X241990681Y-36108769D01*
X241902897Y-35896840D01*
X241902893Y-35896831D01*
X241788190Y-35698161D01*
X241648544Y-35516170D01*
X241648538Y-35516163D01*
X241486336Y-35353961D01*
X241486329Y-35353955D01*
X241304338Y-35214309D01*
X241105668Y-35099606D01*
X241105659Y-35099602D01*
X240893730Y-35011818D01*
X240672137Y-34952442D01*
X240444710Y-34922501D01*
X240444694Y-34922500D01*
X240330000Y-34922500D01*
X240330000Y-36124017D01*
X240311591Y-36113389D01*
X240158991Y-36072500D01*
X240001009Y-36072500D01*
X239848409Y-36113389D01*
X239830000Y-36124017D01*
X239830000Y-34922500D01*
X239715306Y-34922500D01*
X239715289Y-34922501D01*
X239487862Y-34952442D01*
X239266269Y-35011818D01*
X239054340Y-35099602D01*
X239054331Y-35099606D01*
X238855661Y-35214309D01*
X238673670Y-35353955D01*
X238673663Y-35353961D01*
X238511461Y-35516163D01*
X238511455Y-35516170D01*
X238371809Y-35698161D01*
X238257106Y-35896831D01*
X238257102Y-35896840D01*
X238169318Y-36108769D01*
X238109942Y-36330362D01*
X238097811Y-36422499D01*
X181462851Y-36422499D01*
X181418484Y-36356099D01*
X181415947Y-36351503D01*
X181409453Y-36322309D01*
X181400520Y-36293780D01*
X181400500Y-36291567D01*
X181400500Y-34034600D01*
X181420185Y-33967561D01*
X181421359Y-33965768D01*
X181426465Y-33958127D01*
X181475501Y-33839744D01*
X181500500Y-33714069D01*
X181500500Y-33585931D01*
X181500500Y-33585928D01*
X181475502Y-33460261D01*
X181475501Y-33460260D01*
X181475501Y-33460256D01*
X181426465Y-33341873D01*
X181426464Y-33341872D01*
X181426461Y-33341866D01*
X181355276Y-33235331D01*
X181355273Y-33235327D01*
X181264672Y-33144726D01*
X181264668Y-33144723D01*
X181158133Y-33073538D01*
X181158124Y-33073533D01*
X181039744Y-33024499D01*
X181039738Y-33024497D01*
X180914071Y-32999500D01*
X180914069Y-32999500D01*
X180785931Y-32999500D01*
X180785929Y-32999500D01*
X180660261Y-33024497D01*
X180660255Y-33024499D01*
X180541875Y-33073533D01*
X180541866Y-33073538D01*
X180435331Y-33144723D01*
X180435327Y-33144726D01*
X180344726Y-33235327D01*
X180344723Y-33235331D01*
X180273538Y-33341866D01*
X180273533Y-33341875D01*
X180224499Y-33460255D01*
X180224497Y-33460261D01*
X180199500Y-33585928D01*
X180199500Y-33585931D01*
X180199500Y-33714069D01*
X180199500Y-33714071D01*
X180199499Y-33714071D01*
X152144714Y-33714071D01*
X152175501Y-33639744D01*
X152185448Y-33589738D01*
X152192230Y-33555647D01*
X152192230Y-33555646D01*
X152200499Y-33514073D01*
X152200500Y-33514071D01*
X152200500Y-33385928D01*
X152175502Y-33260261D01*
X152175501Y-33260260D01*
X152175501Y-33260256D01*
X152126465Y-33141873D01*
X152126464Y-33141872D01*
X152126461Y-33141866D01*
X152055276Y-33035331D01*
X152055273Y-33035327D01*
X151964672Y-32944726D01*
X151964668Y-32944723D01*
X151858133Y-32873538D01*
X151858124Y-32873533D01*
X151739744Y-32824499D01*
X151739738Y-32824497D01*
X151614071Y-32799500D01*
X151614069Y-32799500D01*
X151485931Y-32799500D01*
X151485929Y-32799500D01*
X151360261Y-32824497D01*
X151360255Y-32824499D01*
X151241875Y-32873533D01*
X151241866Y-32873538D01*
X151135332Y-32944722D01*
X151101103Y-32978951D01*
X151066872Y-33013182D01*
X151005552Y-33046666D01*
X150979193Y-33049500D01*
X150714432Y-33049500D01*
X150647393Y-33029815D01*
X150611330Y-32994391D01*
X150605276Y-32985330D01*
X150514672Y-32894726D01*
X150514668Y-32894723D01*
X150408133Y-32823538D01*
X150408124Y-32823533D01*
X150289744Y-32774499D01*
X150289738Y-32774497D01*
X150164071Y-32749500D01*
X150164069Y-32749500D01*
X150035931Y-32749500D01*
X150035929Y-32749500D01*
X149910261Y-32774497D01*
X149910255Y-32774499D01*
X149791875Y-32823533D01*
X149791866Y-32823538D01*
X149685331Y-32894723D01*
X149685327Y-32894726D01*
X149594726Y-32985327D01*
X149594723Y-32985331D01*
X149523538Y-33091866D01*
X149523533Y-33091875D01*
X149474499Y-33210255D01*
X149474497Y-33210261D01*
X149449500Y-33335928D01*
X149449500Y-33335931D01*
X149449500Y-33464069D01*
X149449500Y-33464071D01*
X149449499Y-33464071D01*
X44800500Y-33464071D01*
X44800500Y-31550473D01*
X238279500Y-31550473D01*
X238279500Y-31794526D01*
X238317678Y-32035572D01*
X238393097Y-32267687D01*
X238503896Y-32485142D01*
X238647339Y-32682576D01*
X238647343Y-32682581D01*
X238819918Y-32855156D01*
X238819923Y-32855160D01*
X238943201Y-32944726D01*
X239017361Y-32998606D01*
X239234815Y-33109404D01*
X239466924Y-33184821D01*
X239707973Y-33223000D01*
X239707974Y-33223000D01*
X240452026Y-33223000D01*
X240452027Y-33223000D01*
X240693076Y-33184821D01*
X240925185Y-33109404D01*
X241142639Y-32998606D01*
X241340083Y-32855155D01*
X241512655Y-32682583D01*
X241656106Y-32485139D01*
X241766904Y-32267685D01*
X241842321Y-32035576D01*
X241880500Y-31794527D01*
X241880500Y-31550473D01*
X250779500Y-31550473D01*
X250779500Y-31794526D01*
X250817678Y-32035572D01*
X250893097Y-32267687D01*
X251003896Y-32485142D01*
X251147339Y-32682576D01*
X251147343Y-32682581D01*
X251319918Y-32855156D01*
X251319923Y-32855160D01*
X251443201Y-32944726D01*
X251517361Y-32998606D01*
X251734815Y-33109404D01*
X251966924Y-33184821D01*
X252207973Y-33223000D01*
X252207974Y-33223000D01*
X252952026Y-33223000D01*
X252952027Y-33223000D01*
X253193076Y-33184821D01*
X253425185Y-33109404D01*
X253642639Y-32998606D01*
X253840083Y-32855155D01*
X254012655Y-32682583D01*
X254156106Y-32485139D01*
X254266904Y-32267685D01*
X254342321Y-32035576D01*
X254380500Y-31794527D01*
X254380500Y-31550473D01*
X254342321Y-31309424D01*
X254266904Y-31077315D01*
X254156106Y-30859861D01*
X254137779Y-30834636D01*
X254012660Y-30662423D01*
X254012656Y-30662418D01*
X253840081Y-30489843D01*
X253840076Y-30489839D01*
X253642642Y-30346396D01*
X253642641Y-30346395D01*
X253642639Y-30346394D01*
X253425185Y-30235596D01*
X253193076Y-30160179D01*
X253193074Y-30160178D01*
X253193072Y-30160178D01*
X253024769Y-30133521D01*
X252952027Y-30122000D01*
X252207973Y-30122000D01*
X252152093Y-30130850D01*
X251966927Y-30160178D01*
X251734812Y-30235597D01*
X251517357Y-30346396D01*
X251319923Y-30489839D01*
X251319918Y-30489843D01*
X251147343Y-30662418D01*
X251147339Y-30662423D01*
X251003896Y-30859857D01*
X250893097Y-31077312D01*
X250817678Y-31309427D01*
X250779500Y-31550473D01*
X241880500Y-31550473D01*
X241842321Y-31309424D01*
X241766904Y-31077315D01*
X241656106Y-30859861D01*
X241637779Y-30834636D01*
X241512660Y-30662423D01*
X241512656Y-30662418D01*
X241340081Y-30489843D01*
X241340076Y-30489839D01*
X241142642Y-30346396D01*
X241142641Y-30346395D01*
X241142639Y-30346394D01*
X240925185Y-30235596D01*
X240693076Y-30160179D01*
X240693074Y-30160178D01*
X240693072Y-30160178D01*
X240524769Y-30133521D01*
X240452027Y-30122000D01*
X239707973Y-30122000D01*
X239652093Y-30130850D01*
X239466927Y-30160178D01*
X239234812Y-30235597D01*
X239017357Y-30346396D01*
X238819923Y-30489839D01*
X238819918Y-30489843D01*
X238647343Y-30662418D01*
X238647339Y-30662423D01*
X238503896Y-30859857D01*
X238393097Y-31077312D01*
X238317678Y-31309427D01*
X238279500Y-31550473D01*
X44800500Y-31550473D01*
X44800500Y-25231898D01*
X71929500Y-25231898D01*
X71929500Y-26768102D01*
X71935126Y-26814954D01*
X71940122Y-26856561D01*
X71940122Y-26856563D01*
X71940123Y-26856564D01*
X71957722Y-26901192D01*
X71995639Y-26997343D01*
X72087077Y-27117922D01*
X72207656Y-27209360D01*
X72207657Y-27209360D01*
X72207658Y-27209361D01*
X72348436Y-27264877D01*
X72436898Y-27275500D01*
X72436903Y-27275500D01*
X73723097Y-27275500D01*
X73723102Y-27275500D01*
X73811564Y-27264877D01*
X73952342Y-27209361D01*
X74072922Y-27117922D01*
X74164361Y-26997342D01*
X74219877Y-26856564D01*
X74230500Y-26768102D01*
X74230500Y-26477669D01*
X74250185Y-26410630D01*
X74302989Y-26364875D01*
X74372147Y-26354931D01*
X74435703Y-26383956D01*
X74472431Y-26439351D01*
X74513787Y-26566636D01*
X74513788Y-26566639D01*
X74596006Y-26727997D01*
X74702441Y-26874494D01*
X74702445Y-26874499D01*
X74830500Y-27002554D01*
X74830505Y-27002558D01*
X74958287Y-27095396D01*
X74977006Y-27108996D01*
X75066750Y-27154723D01*
X75138360Y-27191211D01*
X75138363Y-27191212D01*
X75224476Y-27219191D01*
X75310591Y-27247171D01*
X75393429Y-27260291D01*
X75489449Y-27275500D01*
X75489454Y-27275500D01*
X75670551Y-27275500D01*
X75757259Y-27261765D01*
X75849409Y-27247171D01*
X76021639Y-27191211D01*
X76182994Y-27108996D01*
X76329501Y-27002553D01*
X76457553Y-26874501D01*
X76563996Y-26727994D01*
X76607563Y-26642488D01*
X76655537Y-26591692D01*
X76723358Y-26574897D01*
X76789493Y-26597434D01*
X76828533Y-26642488D01*
X76925379Y-26832557D01*
X77050272Y-27004459D01*
X77050276Y-27004464D01*
X77200535Y-27154723D01*
X77200540Y-27154727D01*
X77372442Y-27279620D01*
X77561782Y-27376095D01*
X77763871Y-27441757D01*
X77830000Y-27452231D01*
X77830000Y-26404145D01*
X77896657Y-26442630D01*
X78017465Y-26475000D01*
X78142535Y-26475000D01*
X78263343Y-26442630D01*
X78330000Y-26404145D01*
X78330000Y-27452230D01*
X78396126Y-27441757D01*
X78396129Y-27441757D01*
X78598217Y-27376095D01*
X78787557Y-27279620D01*
X78959459Y-27154727D01*
X78959464Y-27154723D01*
X79109723Y-27004464D01*
X79109727Y-27004459D01*
X79234620Y-26832557D01*
X79331095Y-26643217D01*
X79396757Y-26441130D01*
X79396757Y-26441127D01*
X79427030Y-26250000D01*
X78484146Y-26250000D01*
X78522630Y-26183343D01*
X78555000Y-26062535D01*
X78555000Y-25937465D01*
X78522630Y-25816657D01*
X78484146Y-25750000D01*
X79427030Y-25750000D01*
X79396757Y-25558872D01*
X79396757Y-25558869D01*
X79331095Y-25356782D01*
X79294259Y-25284487D01*
X79267463Y-25231898D01*
X219849500Y-25231898D01*
X219849500Y-26768102D01*
X219855126Y-26814954D01*
X219860122Y-26856561D01*
X219860122Y-26856563D01*
X219860123Y-26856564D01*
X219877722Y-26901192D01*
X219915639Y-26997343D01*
X220007077Y-27117922D01*
X220127656Y-27209360D01*
X220127657Y-27209360D01*
X220127658Y-27209361D01*
X220268436Y-27264877D01*
X220356898Y-27275500D01*
X220356903Y-27275500D01*
X221643097Y-27275500D01*
X221643102Y-27275500D01*
X221731564Y-27264877D01*
X221872342Y-27209361D01*
X221992922Y-27117922D01*
X222084361Y-26997342D01*
X222139877Y-26856564D01*
X222150500Y-26768102D01*
X222150500Y-26477669D01*
X222170185Y-26410630D01*
X222222989Y-26364875D01*
X222292147Y-26354931D01*
X222355703Y-26383956D01*
X222392431Y-26439351D01*
X222433787Y-26566636D01*
X222433788Y-26566639D01*
X222516006Y-26727997D01*
X222622441Y-26874494D01*
X222622445Y-26874499D01*
X222750500Y-27002554D01*
X222750505Y-27002558D01*
X222878287Y-27095396D01*
X222897006Y-27108996D01*
X222986750Y-27154723D01*
X223058360Y-27191211D01*
X223058363Y-27191212D01*
X223144476Y-27219191D01*
X223230591Y-27247171D01*
X223313429Y-27260291D01*
X223409449Y-27275500D01*
X223409454Y-27275500D01*
X223590551Y-27275500D01*
X223677259Y-27261765D01*
X223769409Y-27247171D01*
X223941639Y-27191211D01*
X224102994Y-27108996D01*
X224249501Y-27002553D01*
X224377553Y-26874501D01*
X224483996Y-26727994D01*
X224527563Y-26642488D01*
X224575537Y-26591692D01*
X224643358Y-26574897D01*
X224709493Y-26597434D01*
X224748533Y-26642488D01*
X224845379Y-26832557D01*
X224970272Y-27004459D01*
X224970276Y-27004464D01*
X225120535Y-27154723D01*
X225120540Y-27154727D01*
X225292442Y-27279620D01*
X225481782Y-27376095D01*
X225683871Y-27441757D01*
X225750000Y-27452231D01*
X225750000Y-26404145D01*
X225816657Y-26442630D01*
X225937465Y-26475000D01*
X226062535Y-26475000D01*
X226183343Y-26442630D01*
X226250000Y-26404145D01*
X226250000Y-27452230D01*
X226316126Y-27441757D01*
X226316129Y-27441757D01*
X226518217Y-27376095D01*
X226707557Y-27279620D01*
X226879459Y-27154727D01*
X226879464Y-27154723D01*
X227029723Y-27004464D01*
X227029727Y-27004459D01*
X227154620Y-26832557D01*
X227251095Y-26643217D01*
X227316757Y-26441130D01*
X227316757Y-26441127D01*
X227347030Y-26250000D01*
X226404146Y-26250000D01*
X226442630Y-26183343D01*
X226475000Y-26062535D01*
X226475000Y-25937465D01*
X226442630Y-25816657D01*
X226404146Y-25750000D01*
X227347030Y-25750000D01*
X227316757Y-25558872D01*
X227316757Y-25558869D01*
X227251095Y-25356782D01*
X227154620Y-25167442D01*
X227029727Y-24995540D01*
X227029723Y-24995535D01*
X226879464Y-24845276D01*
X226879459Y-24845272D01*
X226707557Y-24720379D01*
X226518215Y-24623903D01*
X226316124Y-24558241D01*
X226250000Y-24547768D01*
X226250000Y-25595854D01*
X226183343Y-25557370D01*
X226062535Y-25525000D01*
X225937465Y-25525000D01*
X225816657Y-25557370D01*
X225750000Y-25595854D01*
X225750000Y-24547768D01*
X225749999Y-24547768D01*
X225683875Y-24558241D01*
X225481784Y-24623903D01*
X225292442Y-24720379D01*
X225120540Y-24845272D01*
X225120535Y-24845276D01*
X224970276Y-24995535D01*
X224970272Y-24995540D01*
X224845379Y-25167442D01*
X224748533Y-25357511D01*
X224700558Y-25408307D01*
X224632737Y-25425102D01*
X224566602Y-25402564D01*
X224527563Y-25357511D01*
X224490355Y-25284487D01*
X224483996Y-25272006D01*
X224454856Y-25231898D01*
X224377558Y-25125505D01*
X224377554Y-25125500D01*
X224249499Y-24997445D01*
X224249494Y-24997441D01*
X224102997Y-24891006D01*
X224102996Y-24891005D01*
X224102994Y-24891004D01*
X224051300Y-24864664D01*
X223941639Y-24808788D01*
X223941636Y-24808787D01*
X223769410Y-24752829D01*
X223590551Y-24724500D01*
X223590546Y-24724500D01*
X223409454Y-24724500D01*
X223409449Y-24724500D01*
X223230589Y-24752829D01*
X223058363Y-24808787D01*
X223058360Y-24808788D01*
X222897002Y-24891006D01*
X222750505Y-24997441D01*
X222750500Y-24997445D01*
X222622445Y-25125500D01*
X222622441Y-25125505D01*
X222516006Y-25272002D01*
X222433788Y-25433360D01*
X222433787Y-25433363D01*
X222392431Y-25560648D01*
X222352994Y-25618323D01*
X222288635Y-25645522D01*
X222219789Y-25633608D01*
X222168313Y-25586364D01*
X222150500Y-25522330D01*
X222150500Y-25231903D01*
X222150500Y-25231898D01*
X222139877Y-25143436D01*
X222084361Y-25002658D01*
X222084360Y-25002657D01*
X222084360Y-25002656D01*
X221992922Y-24882077D01*
X221872343Y-24790639D01*
X221731561Y-24735122D01*
X221685926Y-24729642D01*
X221643102Y-24724500D01*
X220356898Y-24724500D01*
X220317853Y-24729188D01*
X220268438Y-24735122D01*
X220127656Y-24790639D01*
X220007077Y-24882077D01*
X219915639Y-25002656D01*
X219860122Y-25143438D01*
X219857240Y-25167442D01*
X219849500Y-25231898D01*
X79267463Y-25231898D01*
X79234620Y-25167442D01*
X79109727Y-24995540D01*
X79109723Y-24995535D01*
X78959464Y-24845276D01*
X78959459Y-24845272D01*
X78787557Y-24720379D01*
X78598215Y-24623903D01*
X78396124Y-24558241D01*
X78330000Y-24547768D01*
X78330000Y-25595854D01*
X78263343Y-25557370D01*
X78142535Y-25525000D01*
X78017465Y-25525000D01*
X77896657Y-25557370D01*
X77830000Y-25595854D01*
X77830000Y-24547768D01*
X77829999Y-24547768D01*
X77763875Y-24558241D01*
X77561784Y-24623903D01*
X77372442Y-24720379D01*
X77200540Y-24845272D01*
X77200535Y-24845276D01*
X77050276Y-24995535D01*
X77050272Y-24995540D01*
X76925379Y-25167442D01*
X76828533Y-25357511D01*
X76780558Y-25408307D01*
X76712737Y-25425102D01*
X76646602Y-25402564D01*
X76607563Y-25357511D01*
X76570355Y-25284487D01*
X76563996Y-25272006D01*
X76534856Y-25231898D01*
X76457558Y-25125505D01*
X76457554Y-25125500D01*
X76329499Y-24997445D01*
X76329494Y-24997441D01*
X76182997Y-24891006D01*
X76182996Y-24891005D01*
X76182994Y-24891004D01*
X76131300Y-24864664D01*
X76021639Y-24808788D01*
X76021636Y-24808787D01*
X75849410Y-24752829D01*
X75670551Y-24724500D01*
X75670546Y-24724500D01*
X75489454Y-24724500D01*
X75489449Y-24724500D01*
X75310589Y-24752829D01*
X75138363Y-24808787D01*
X75138360Y-24808788D01*
X74977002Y-24891006D01*
X74830505Y-24997441D01*
X74830500Y-24997445D01*
X74702445Y-25125500D01*
X74702441Y-25125505D01*
X74596006Y-25272002D01*
X74513788Y-25433360D01*
X74513787Y-25433363D01*
X74472431Y-25560648D01*
X74432994Y-25618323D01*
X74368635Y-25645522D01*
X74299789Y-25633608D01*
X74248313Y-25586364D01*
X74230500Y-25522330D01*
X74230500Y-25231903D01*
X74230500Y-25231898D01*
X74219877Y-25143436D01*
X74164361Y-25002658D01*
X74164360Y-25002657D01*
X74164360Y-25002656D01*
X74072922Y-24882077D01*
X73952343Y-24790639D01*
X73811561Y-24735122D01*
X73765926Y-24729642D01*
X73723102Y-24724500D01*
X72436898Y-24724500D01*
X72397853Y-24729188D01*
X72348438Y-24735122D01*
X72207656Y-24790639D01*
X72087077Y-24882077D01*
X71995639Y-25002656D01*
X71940122Y-25143438D01*
X71937240Y-25167442D01*
X71929500Y-25231898D01*
X44800500Y-25231898D01*
X44800500Y-21978711D01*
X49249500Y-21978711D01*
X49249500Y-22221288D01*
X49281161Y-22461785D01*
X49343947Y-22696104D01*
X49436773Y-22920205D01*
X49436776Y-22920212D01*
X49558064Y-23130289D01*
X49558066Y-23130292D01*
X49558067Y-23130293D01*
X49705733Y-23322736D01*
X49705739Y-23322743D01*
X49877256Y-23494260D01*
X49877263Y-23494266D01*
X49990321Y-23581018D01*
X50069711Y-23641936D01*
X50279788Y-23763224D01*
X50503900Y-23856054D01*
X50738211Y-23918838D01*
X50918586Y-23942584D01*
X50978711Y-23950500D01*
X50978712Y-23950500D01*
X51221289Y-23950500D01*
X51269388Y-23944167D01*
X51461789Y-23918838D01*
X51696100Y-23856054D01*
X51920212Y-23763224D01*
X52130289Y-23641936D01*
X52322738Y-23494265D01*
X52322743Y-23494260D01*
X52401047Y-23415957D01*
X52494260Y-23322743D01*
X52494265Y-23322738D01*
X52641936Y-23130289D01*
X52763224Y-22920212D01*
X52856054Y-22696100D01*
X52918838Y-22461789D01*
X52950500Y-22221288D01*
X52950500Y-21978712D01*
X52939310Y-21893713D01*
X87649500Y-21893713D01*
X87649500Y-22106287D01*
X87682754Y-22316243D01*
X87729245Y-22459328D01*
X87748444Y-22518414D01*
X87844951Y-22707820D01*
X87969890Y-22879786D01*
X88120213Y-23030109D01*
X88292179Y-23155048D01*
X88292181Y-23155049D01*
X88292184Y-23155051D01*
X88481588Y-23251557D01*
X88683757Y-23317246D01*
X88893713Y-23350500D01*
X88893714Y-23350500D01*
X89106286Y-23350500D01*
X89106287Y-23350500D01*
X89316243Y-23317246D01*
X89518412Y-23251557D01*
X89707816Y-23155051D01*
X89741898Y-23130289D01*
X89879786Y-23030109D01*
X89879788Y-23030106D01*
X89879792Y-23030104D01*
X90030104Y-22879792D01*
X90030106Y-22879788D01*
X90030109Y-22879786D01*
X90155048Y-22707820D01*
X90155049Y-22707819D01*
X90155051Y-22707816D01*
X90251557Y-22518412D01*
X90317246Y-22316243D01*
X90350500Y-22106287D01*
X90350500Y-21893713D01*
X106649500Y-21893713D01*
X106649500Y-22106287D01*
X106682754Y-22316243D01*
X106729245Y-22459328D01*
X106748444Y-22518414D01*
X106844951Y-22707820D01*
X106969890Y-22879786D01*
X107120213Y-23030109D01*
X107292179Y-23155048D01*
X107292181Y-23155049D01*
X107292184Y-23155051D01*
X107481588Y-23251557D01*
X107683757Y-23317246D01*
X107893713Y-23350500D01*
X107893714Y-23350500D01*
X108106286Y-23350500D01*
X108106287Y-23350500D01*
X108316243Y-23317246D01*
X108518412Y-23251557D01*
X108707816Y-23155051D01*
X108741898Y-23130289D01*
X108879786Y-23030109D01*
X108879788Y-23030106D01*
X108879792Y-23030104D01*
X108976306Y-22933590D01*
X149105000Y-22933590D01*
X149105000Y-23055000D01*
X149905000Y-23055000D01*
X149905000Y-23555000D01*
X149105000Y-23555000D01*
X149105000Y-23676409D01*
X149135164Y-23866856D01*
X149194746Y-24050234D01*
X149194747Y-24050237D01*
X149282288Y-24222043D01*
X149395616Y-24378027D01*
X149395620Y-24378032D01*
X149531967Y-24514379D01*
X149531972Y-24514383D01*
X149687956Y-24627711D01*
X149859762Y-24715252D01*
X149859765Y-24715253D01*
X150043142Y-24774835D01*
X150080000Y-24780673D01*
X150080000Y-23926409D01*
X150165956Y-23976037D01*
X150274048Y-24005000D01*
X150385952Y-24005000D01*
X150494044Y-23976037D01*
X150580000Y-23926409D01*
X150580000Y-24780672D01*
X150616855Y-24774835D01*
X150616858Y-24774835D01*
X150800234Y-24715253D01*
X150800237Y-24715252D01*
X150972043Y-24627711D01*
X151128027Y-24514383D01*
X151128032Y-24514379D01*
X151264379Y-24378032D01*
X151264383Y-24378027D01*
X151377711Y-24222043D01*
X151465252Y-24050237D01*
X151465253Y-24050234D01*
X151524835Y-23866856D01*
X151555000Y-23676409D01*
X151555000Y-23555000D01*
X150755000Y-23555000D01*
X150755000Y-23055000D01*
X151555000Y-23055000D01*
X151561645Y-23048354D01*
X151574685Y-23003948D01*
X151627489Y-22958193D01*
X151654798Y-22949372D01*
X151759328Y-22928580D01*
X151886811Y-22875775D01*
X152001542Y-22799114D01*
X152099114Y-22701542D01*
X152175775Y-22586811D01*
X152228580Y-22459328D01*
X152255500Y-22323995D01*
X155854499Y-22323995D01*
X155881418Y-22459322D01*
X155881421Y-22459332D01*
X155934221Y-22586804D01*
X155934228Y-22586817D01*
X156010885Y-22701541D01*
X156010888Y-22701545D01*
X156108454Y-22799111D01*
X156108458Y-22799114D01*
X156223182Y-22875771D01*
X156223195Y-22875778D01*
X156299678Y-22907458D01*
X156350672Y-22928580D01*
X156455194Y-22949371D01*
X156517102Y-22981754D01*
X156551676Y-23042470D01*
X156552890Y-23052890D01*
X156555000Y-23055000D01*
X157355000Y-23055000D01*
X157355000Y-23555000D01*
X156555000Y-23555000D01*
X156555000Y-23676409D01*
X156585164Y-23866856D01*
X156644746Y-24050234D01*
X156644747Y-24050237D01*
X156732288Y-24222043D01*
X156845616Y-24378027D01*
X156845620Y-24378032D01*
X156981967Y-24514379D01*
X156981972Y-24514383D01*
X157137956Y-24627711D01*
X157309762Y-24715252D01*
X157309765Y-24715253D01*
X157493142Y-24774835D01*
X157530000Y-24780673D01*
X157530000Y-23926409D01*
X157615956Y-23976037D01*
X157724048Y-24005000D01*
X157835952Y-24005000D01*
X157944044Y-23976037D01*
X158030000Y-23926409D01*
X158030000Y-24780672D01*
X158066855Y-24774835D01*
X158066858Y-24774835D01*
X158250234Y-24715253D01*
X158250237Y-24715252D01*
X158422043Y-24627711D01*
X158578027Y-24514383D01*
X158578032Y-24514379D01*
X158714379Y-24378032D01*
X158714383Y-24378027D01*
X158827711Y-24222043D01*
X158915252Y-24050237D01*
X158915253Y-24050234D01*
X158974835Y-23866856D01*
X159005000Y-23676409D01*
X159005000Y-23555000D01*
X158205000Y-23555000D01*
X158205000Y-23055000D01*
X159005000Y-23055000D01*
X159005000Y-22933590D01*
X158974835Y-22743143D01*
X158915253Y-22559765D01*
X158915252Y-22559762D01*
X158827711Y-22387956D01*
X158714383Y-22231972D01*
X158714379Y-22231967D01*
X158578032Y-22095620D01*
X158578027Y-22095616D01*
X158431524Y-21989175D01*
X158431501Y-21989160D01*
X158422039Y-21982285D01*
X158250237Y-21894747D01*
X158250231Y-21894745D01*
X158247055Y-21893713D01*
X189649500Y-21893713D01*
X189649500Y-22106287D01*
X189682754Y-22316243D01*
X189729245Y-22459328D01*
X189748444Y-22518414D01*
X189844951Y-22707820D01*
X189969890Y-22879786D01*
X190120213Y-23030109D01*
X190292179Y-23155048D01*
X190292181Y-23155049D01*
X190292184Y-23155051D01*
X190481588Y-23251557D01*
X190683757Y-23317246D01*
X190893713Y-23350500D01*
X190893714Y-23350500D01*
X191106286Y-23350500D01*
X191106287Y-23350500D01*
X191316243Y-23317246D01*
X191518412Y-23251557D01*
X191707816Y-23155051D01*
X191741898Y-23130289D01*
X191879786Y-23030109D01*
X191879788Y-23030106D01*
X191879792Y-23030104D01*
X192030104Y-22879792D01*
X192030106Y-22879788D01*
X192030109Y-22879786D01*
X192155048Y-22707820D01*
X192155049Y-22707819D01*
X192155051Y-22707816D01*
X192251557Y-22518412D01*
X192317246Y-22316243D01*
X192350500Y-22106287D01*
X192350500Y-21893713D01*
X208649500Y-21893713D01*
X208649500Y-22106287D01*
X208682754Y-22316243D01*
X208729245Y-22459328D01*
X208748444Y-22518414D01*
X208844951Y-22707820D01*
X208969890Y-22879786D01*
X209120213Y-23030109D01*
X209292179Y-23155048D01*
X209292181Y-23155049D01*
X209292184Y-23155051D01*
X209481588Y-23251557D01*
X209683757Y-23317246D01*
X209893713Y-23350500D01*
X209893714Y-23350500D01*
X210106286Y-23350500D01*
X210106287Y-23350500D01*
X210316243Y-23317246D01*
X210518412Y-23251557D01*
X210707816Y-23155051D01*
X210741898Y-23130289D01*
X210879786Y-23030109D01*
X210879788Y-23030106D01*
X210879792Y-23030104D01*
X211030104Y-22879792D01*
X211030106Y-22879788D01*
X211030109Y-22879786D01*
X211155048Y-22707820D01*
X211155049Y-22707819D01*
X211155051Y-22707816D01*
X211251557Y-22518412D01*
X211317246Y-22316243D01*
X211350500Y-22106287D01*
X211350500Y-21978711D01*
X275249500Y-21978711D01*
X275249500Y-22221288D01*
X275281161Y-22461785D01*
X275343947Y-22696104D01*
X275436773Y-22920205D01*
X275436776Y-22920212D01*
X275558064Y-23130289D01*
X275558066Y-23130292D01*
X275558067Y-23130293D01*
X275705733Y-23322736D01*
X275705739Y-23322743D01*
X275877256Y-23494260D01*
X275877263Y-23494266D01*
X275990321Y-23581018D01*
X276069711Y-23641936D01*
X276279788Y-23763224D01*
X276503900Y-23856054D01*
X276738211Y-23918838D01*
X276918586Y-23942584D01*
X276978711Y-23950500D01*
X276978712Y-23950500D01*
X277221289Y-23950500D01*
X277269388Y-23944167D01*
X277461789Y-23918838D01*
X277696100Y-23856054D01*
X277920212Y-23763224D01*
X278130289Y-23641936D01*
X278322738Y-23494265D01*
X278494265Y-23322738D01*
X278641936Y-23130289D01*
X278763224Y-22920212D01*
X278856054Y-22696100D01*
X278918838Y-22461789D01*
X278950500Y-22221288D01*
X278950500Y-21978712D01*
X278918838Y-21738211D01*
X278856054Y-21503900D01*
X278763224Y-21279788D01*
X278641936Y-21069711D01*
X278495448Y-20878804D01*
X278494266Y-20877263D01*
X278494260Y-20877256D01*
X278322743Y-20705739D01*
X278322736Y-20705733D01*
X278130293Y-20558067D01*
X278130292Y-20558066D01*
X278130289Y-20558064D01*
X277920212Y-20436776D01*
X277848633Y-20407127D01*
X277696104Y-20343947D01*
X277461785Y-20281161D01*
X277221289Y-20249500D01*
X277221288Y-20249500D01*
X276978712Y-20249500D01*
X276978711Y-20249500D01*
X276738214Y-20281161D01*
X276503895Y-20343947D01*
X276279794Y-20436773D01*
X276279785Y-20436777D01*
X276069706Y-20558067D01*
X275877263Y-20705733D01*
X275877256Y-20705739D01*
X275705739Y-20877256D01*
X275705733Y-20877263D01*
X275558067Y-21069706D01*
X275436777Y-21279785D01*
X275436773Y-21279794D01*
X275343947Y-21503895D01*
X275281161Y-21738214D01*
X275249500Y-21978711D01*
X211350500Y-21978711D01*
X211350500Y-21893713D01*
X211317246Y-21683757D01*
X211251557Y-21481588D01*
X211155051Y-21292184D01*
X211155049Y-21292181D01*
X211155048Y-21292179D01*
X211030109Y-21120213D01*
X210879786Y-20969890D01*
X210707820Y-20844951D01*
X210518414Y-20748444D01*
X210518413Y-20748443D01*
X210518412Y-20748443D01*
X210316243Y-20682754D01*
X210316241Y-20682753D01*
X210316240Y-20682753D01*
X210137344Y-20654419D01*
X210106287Y-20649500D01*
X209893713Y-20649500D01*
X209862656Y-20654419D01*
X209683760Y-20682753D01*
X209481585Y-20748444D01*
X209292179Y-20844951D01*
X209120213Y-20969890D01*
X208969890Y-21120213D01*
X208844951Y-21292179D01*
X208748444Y-21481585D01*
X208682753Y-21683760D01*
X208658773Y-21835165D01*
X208649500Y-21893713D01*
X192350500Y-21893713D01*
X192317246Y-21683757D01*
X192251557Y-21481588D01*
X192155051Y-21292184D01*
X192155049Y-21292181D01*
X192155048Y-21292179D01*
X192030109Y-21120213D01*
X191879786Y-20969890D01*
X191707820Y-20844951D01*
X191518414Y-20748444D01*
X191518413Y-20748443D01*
X191518412Y-20748443D01*
X191316243Y-20682754D01*
X191316241Y-20682753D01*
X191316240Y-20682753D01*
X191137344Y-20654419D01*
X191106287Y-20649500D01*
X190893713Y-20649500D01*
X190862656Y-20654419D01*
X190683760Y-20682753D01*
X190481585Y-20748444D01*
X190292179Y-20844951D01*
X190120213Y-20969890D01*
X189969890Y-21120213D01*
X189844951Y-21292179D01*
X189748444Y-21481585D01*
X189682753Y-21683760D01*
X189658773Y-21835165D01*
X189649500Y-21893713D01*
X158247055Y-21893713D01*
X158066858Y-21835165D01*
X158066848Y-21835162D01*
X158030000Y-21829325D01*
X158030000Y-22683590D01*
X157944044Y-22633963D01*
X157835952Y-22605000D01*
X157724048Y-22605000D01*
X157615956Y-22633963D01*
X157530000Y-22683590D01*
X157530000Y-21829325D01*
X157493151Y-21835162D01*
X157493141Y-21835165D01*
X157309768Y-21894745D01*
X157309761Y-21894748D01*
X157293806Y-21902878D01*
X157225137Y-21915773D01*
X157160397Y-21889496D01*
X157134411Y-21861283D01*
X157099114Y-21808458D01*
X157099111Y-21808454D01*
X157001545Y-21710888D01*
X157001541Y-21710885D01*
X156886817Y-21634228D01*
X156886804Y-21634221D01*
X156759332Y-21581421D01*
X156759322Y-21581418D01*
X156623995Y-21554500D01*
X156623993Y-21554500D01*
X156486007Y-21554500D01*
X156486005Y-21554500D01*
X156350677Y-21581418D01*
X156350667Y-21581421D01*
X156223195Y-21634221D01*
X156223182Y-21634228D01*
X156108458Y-21710885D01*
X156108454Y-21710888D01*
X156010888Y-21808454D01*
X156010885Y-21808458D01*
X155934228Y-21923182D01*
X155934221Y-21923195D01*
X155881421Y-22050667D01*
X155881418Y-22050677D01*
X155854500Y-22186004D01*
X155854500Y-22186007D01*
X155854500Y-22323993D01*
X155854500Y-22323995D01*
X155854499Y-22323995D01*
X152255500Y-22323995D01*
X152255500Y-22323993D01*
X152255500Y-22186007D01*
X152255500Y-22186004D01*
X152228581Y-22050677D01*
X152228580Y-22050676D01*
X152228580Y-22050672D01*
X152200255Y-21982288D01*
X152175778Y-21923195D01*
X152175771Y-21923182D01*
X152099114Y-21808458D01*
X152099111Y-21808454D01*
X152001545Y-21710888D01*
X152001541Y-21710885D01*
X151886817Y-21634228D01*
X151886804Y-21634221D01*
X151759332Y-21581421D01*
X151759322Y-21581418D01*
X151623995Y-21554500D01*
X151623993Y-21554500D01*
X151486007Y-21554500D01*
X151486005Y-21554500D01*
X151350677Y-21581418D01*
X151350667Y-21581421D01*
X151223195Y-21634221D01*
X151223182Y-21634228D01*
X151108458Y-21710885D01*
X151108454Y-21710888D01*
X151010888Y-21808454D01*
X151010885Y-21808458D01*
X150975589Y-21861283D01*
X150921977Y-21906088D01*
X150852652Y-21914795D01*
X150816194Y-21902878D01*
X150800238Y-21894748D01*
X150800231Y-21894745D01*
X150616858Y-21835165D01*
X150616848Y-21835162D01*
X150580000Y-21829325D01*
X150580000Y-22683590D01*
X150494044Y-22633963D01*
X150385952Y-22605000D01*
X150274048Y-22605000D01*
X150165956Y-22633963D01*
X150080000Y-22683590D01*
X150080000Y-21829325D01*
X150043151Y-21835162D01*
X150043141Y-21835165D01*
X149859768Y-21894745D01*
X149859762Y-21894747D01*
X149687956Y-21982288D01*
X149531972Y-22095616D01*
X149531967Y-22095620D01*
X149395620Y-22231967D01*
X149395616Y-22231972D01*
X149282288Y-22387956D01*
X149194747Y-22559762D01*
X149194746Y-22559765D01*
X149135164Y-22743143D01*
X149105000Y-22933590D01*
X108976306Y-22933590D01*
X109030104Y-22879792D01*
X109155051Y-22707816D01*
X109251557Y-22518412D01*
X109317246Y-22316243D01*
X109350500Y-22106287D01*
X109350500Y-21893713D01*
X109317246Y-21683757D01*
X109251557Y-21481588D01*
X109155051Y-21292184D01*
X109155049Y-21292181D01*
X109155048Y-21292179D01*
X109030109Y-21120213D01*
X108879786Y-20969890D01*
X108707820Y-20844951D01*
X108518414Y-20748444D01*
X108518413Y-20748443D01*
X108518412Y-20748443D01*
X108316243Y-20682754D01*
X108316241Y-20682753D01*
X108316240Y-20682753D01*
X108137344Y-20654419D01*
X108106287Y-20649500D01*
X107893713Y-20649500D01*
X107862656Y-20654419D01*
X107683760Y-20682753D01*
X107481585Y-20748444D01*
X107292179Y-20844951D01*
X107120213Y-20969890D01*
X106969890Y-21120213D01*
X106844951Y-21292179D01*
X106748444Y-21481585D01*
X106682753Y-21683760D01*
X106658773Y-21835165D01*
X106649500Y-21893713D01*
X90350500Y-21893713D01*
X90317246Y-21683757D01*
X90251557Y-21481588D01*
X90155051Y-21292184D01*
X90155049Y-21292181D01*
X90155048Y-21292179D01*
X90030109Y-21120213D01*
X89879786Y-20969890D01*
X89707820Y-20844951D01*
X89518414Y-20748444D01*
X89518413Y-20748443D01*
X89518412Y-20748443D01*
X89316243Y-20682754D01*
X89316241Y-20682753D01*
X89316240Y-20682753D01*
X89137344Y-20654419D01*
X89106287Y-20649500D01*
X88893713Y-20649500D01*
X88862656Y-20654419D01*
X88683760Y-20682753D01*
X88481585Y-20748444D01*
X88292179Y-20844951D01*
X88120213Y-20969890D01*
X87969890Y-21120213D01*
X87844951Y-21292179D01*
X87748444Y-21481585D01*
X87682753Y-21683760D01*
X87658773Y-21835165D01*
X87649500Y-21893713D01*
X52939310Y-21893713D01*
X52918838Y-21738211D01*
X52856054Y-21503900D01*
X52763224Y-21279788D01*
X52641936Y-21069711D01*
X52495448Y-20878804D01*
X52494266Y-20877263D01*
X52494260Y-20877256D01*
X52322743Y-20705739D01*
X52322736Y-20705733D01*
X52130293Y-20558067D01*
X52130292Y-20558066D01*
X52130289Y-20558064D01*
X51920212Y-20436776D01*
X51848633Y-20407127D01*
X51696104Y-20343947D01*
X51461785Y-20281161D01*
X51314870Y-20261820D01*
X51221289Y-20249500D01*
X51221288Y-20249500D01*
X50978712Y-20249500D01*
X50978711Y-20249500D01*
X50738214Y-20281161D01*
X50503895Y-20343947D01*
X50279794Y-20436773D01*
X50279785Y-20436777D01*
X50069706Y-20558067D01*
X49877263Y-20705733D01*
X49877256Y-20705739D01*
X49705739Y-20877256D01*
X49705733Y-20877263D01*
X49558067Y-21069706D01*
X49436777Y-21279785D01*
X49436773Y-21279794D01*
X49343947Y-21503895D01*
X49281161Y-21738214D01*
X49249500Y-21978711D01*
X44800500Y-21978711D01*
X44800500Y-20143753D01*
X136090000Y-20143753D01*
X136090000Y-20356246D01*
X136123242Y-20566127D01*
X136123242Y-20566130D01*
X136188904Y-20768217D01*
X136285375Y-20957550D01*
X136324728Y-21011716D01*
X136957037Y-20379408D01*
X136974075Y-20442993D01*
X137039901Y-20557007D01*
X137132993Y-20650099D01*
X137247007Y-20715925D01*
X137310590Y-20732962D01*
X136678282Y-21365269D01*
X136678282Y-21365270D01*
X136732449Y-21404624D01*
X136921782Y-21501095D01*
X137123870Y-21566757D01*
X137333754Y-21600000D01*
X137546246Y-21600000D01*
X137756127Y-21566757D01*
X137756130Y-21566757D01*
X137958217Y-21501095D01*
X138147554Y-21404622D01*
X138201716Y-21365270D01*
X138201717Y-21365270D01*
X137569408Y-20732962D01*
X137632993Y-20715925D01*
X137747007Y-20650099D01*
X137840099Y-20557007D01*
X137905925Y-20442993D01*
X137922962Y-20379408D01*
X138555270Y-21011717D01*
X138555270Y-21011716D01*
X138594622Y-20957554D01*
X138691095Y-20768217D01*
X138700492Y-20739295D01*
X138739928Y-20681618D01*
X138804286Y-20654419D01*
X138873133Y-20666331D01*
X138924610Y-20713574D01*
X138928908Y-20721314D01*
X138996004Y-20852995D01*
X139102441Y-20999494D01*
X139102445Y-20999499D01*
X139230500Y-21127554D01*
X139230505Y-21127558D01*
X139358287Y-21220396D01*
X139377006Y-21233996D01*
X139466889Y-21279794D01*
X139538360Y-21316211D01*
X139538363Y-21316212D01*
X139624476Y-21344191D01*
X139710591Y-21372171D01*
X139793429Y-21385291D01*
X139889449Y-21400500D01*
X139889454Y-21400500D01*
X140070551Y-21400500D01*
X140157259Y-21386765D01*
X140249409Y-21372171D01*
X140421639Y-21316211D01*
X140582994Y-21233996D01*
X140729501Y-21127553D01*
X140857553Y-20999501D01*
X140963996Y-20852994D01*
X141046211Y-20691639D01*
X141102171Y-20519409D01*
X141123027Y-20387729D01*
X141127527Y-20359321D01*
X141157456Y-20296186D01*
X141216768Y-20259255D01*
X141286630Y-20260253D01*
X141344863Y-20298863D01*
X141372473Y-20359321D01*
X141397829Y-20519410D01*
X141453787Y-20691636D01*
X141453788Y-20691639D01*
X141536006Y-20852997D01*
X141642441Y-20999494D01*
X141642445Y-20999499D01*
X141770500Y-21127554D01*
X141770505Y-21127558D01*
X141898287Y-21220396D01*
X141917006Y-21233996D01*
X142006889Y-21279794D01*
X142078360Y-21316211D01*
X142078363Y-21316212D01*
X142164476Y-21344191D01*
X142250591Y-21372171D01*
X142333429Y-21385291D01*
X142429449Y-21400500D01*
X142429454Y-21400500D01*
X142610551Y-21400500D01*
X142697259Y-21386765D01*
X142789409Y-21372171D01*
X142961639Y-21316211D01*
X143122994Y-21233996D01*
X143269501Y-21127553D01*
X143397553Y-20999501D01*
X143503996Y-20852994D01*
X143586211Y-20691639D01*
X143642171Y-20519409D01*
X143663027Y-20387729D01*
X143692956Y-20324595D01*
X143752267Y-20287663D01*
X143822130Y-20288661D01*
X143880363Y-20327271D01*
X143908477Y-20391234D01*
X143909500Y-20407127D01*
X143909500Y-21144856D01*
X143909502Y-21144882D01*
X143912413Y-21169987D01*
X143912415Y-21169991D01*
X143957793Y-21272764D01*
X143957794Y-21272765D01*
X144037235Y-21352206D01*
X144140009Y-21397585D01*
X144165135Y-21400500D01*
X145954864Y-21400499D01*
X145954879Y-21400497D01*
X145954882Y-21400497D01*
X145979987Y-21397586D01*
X145979988Y-21397585D01*
X145979991Y-21397585D01*
X146082765Y-21352206D01*
X146162206Y-21272765D01*
X146207585Y-21169991D01*
X146210500Y-21144865D01*
X146210499Y-19355136D01*
X146210497Y-19355117D01*
X146207586Y-19330012D01*
X146207585Y-19330010D01*
X146207585Y-19330009D01*
X146162206Y-19227235D01*
X146082765Y-19147794D01*
X146082763Y-19147793D01*
X145979992Y-19102415D01*
X145954865Y-19099500D01*
X144165143Y-19099500D01*
X144165117Y-19099502D01*
X144140012Y-19102413D01*
X144140008Y-19102415D01*
X144037235Y-19147793D01*
X143957794Y-19227234D01*
X143912415Y-19330006D01*
X143912415Y-19330008D01*
X143909500Y-19355131D01*
X143909500Y-20092871D01*
X143889815Y-20159910D01*
X143837011Y-20205665D01*
X143767853Y-20215609D01*
X143704297Y-20186584D01*
X143666523Y-20127806D01*
X143663027Y-20112269D01*
X143654274Y-20057007D01*
X143642171Y-19980591D01*
X143586211Y-19808361D01*
X143586211Y-19808360D01*
X143547191Y-19731780D01*
X143503996Y-19647006D01*
X143490396Y-19628287D01*
X143397558Y-19500505D01*
X143397554Y-19500500D01*
X143269499Y-19372445D01*
X143269494Y-19372441D01*
X143122997Y-19266006D01*
X143122996Y-19266005D01*
X143122994Y-19266004D01*
X143046906Y-19227235D01*
X142961639Y-19183788D01*
X142961636Y-19183787D01*
X142789410Y-19127829D01*
X142610551Y-19099500D01*
X142610546Y-19099500D01*
X142429454Y-19099500D01*
X142429449Y-19099500D01*
X142250589Y-19127829D01*
X142078363Y-19183787D01*
X142078360Y-19183788D01*
X141917002Y-19266006D01*
X141770505Y-19372441D01*
X141770500Y-19372445D01*
X141642445Y-19500500D01*
X141642441Y-19500505D01*
X141536006Y-19647002D01*
X141453788Y-19808360D01*
X141453787Y-19808363D01*
X141397829Y-19980589D01*
X141372473Y-20140678D01*
X141342544Y-20203813D01*
X141283232Y-20240744D01*
X141213369Y-20239746D01*
X141155137Y-20201136D01*
X141127527Y-20140678D01*
X141113740Y-20053639D01*
X141102171Y-19980591D01*
X141046211Y-19808361D01*
X141046211Y-19808360D01*
X141007191Y-19731780D01*
X140963996Y-19647006D01*
X140950396Y-19628287D01*
X140857558Y-19500505D01*
X140857554Y-19500500D01*
X140729499Y-19372445D01*
X140729494Y-19372441D01*
X140582997Y-19266006D01*
X140582996Y-19266005D01*
X140582994Y-19266004D01*
X140506906Y-19227235D01*
X140421639Y-19183788D01*
X140421636Y-19183787D01*
X140249410Y-19127829D01*
X140070551Y-19099500D01*
X140070546Y-19099500D01*
X139889454Y-19099500D01*
X139889449Y-19099500D01*
X139710589Y-19127829D01*
X139538363Y-19183787D01*
X139538360Y-19183788D01*
X139377002Y-19266006D01*
X139230505Y-19372441D01*
X139230500Y-19372445D01*
X139102445Y-19500500D01*
X139102441Y-19500505D01*
X138996004Y-19647004D01*
X138928908Y-19778685D01*
X138880933Y-19829480D01*
X138813112Y-19846275D01*
X138746977Y-19823737D01*
X138703527Y-19769021D01*
X138700492Y-19760705D01*
X138691094Y-19731780D01*
X138594624Y-19542449D01*
X138555270Y-19488282D01*
X138555269Y-19488282D01*
X137922962Y-20120590D01*
X137905925Y-20057007D01*
X137840099Y-19942993D01*
X137747007Y-19849901D01*
X137632993Y-19784075D01*
X137569409Y-19767037D01*
X138201716Y-19134728D01*
X138147571Y-19095390D01*
X149105000Y-19095390D01*
X149105000Y-19255000D01*
X149905000Y-19255000D01*
X149905000Y-19755000D01*
X149105000Y-19755000D01*
X149105000Y-19914609D01*
X149131469Y-20081726D01*
X149183760Y-20242659D01*
X149260578Y-20393423D01*
X149360038Y-20530316D01*
X149360038Y-20530317D01*
X149479682Y-20649961D01*
X149616576Y-20749421D01*
X149767340Y-20826239D01*
X149928273Y-20878530D01*
X149930000Y-20878804D01*
X149930000Y-19945056D01*
X149946866Y-19985775D01*
X150024225Y-20063134D01*
X150125299Y-20105000D01*
X150234701Y-20105000D01*
X150335775Y-20063134D01*
X150413134Y-19985775D01*
X150430000Y-19945056D01*
X150430000Y-20878803D01*
X150431726Y-20878530D01*
X150592659Y-20826239D01*
X150743423Y-20749421D01*
X150880316Y-20649961D01*
X150880317Y-20649961D01*
X150999961Y-20530317D01*
X150999961Y-20530316D01*
X151099421Y-20393423D01*
X151176239Y-20242659D01*
X151228530Y-20081726D01*
X151255000Y-19914609D01*
X151255000Y-19755000D01*
X150455000Y-19755000D01*
X150455000Y-19255000D01*
X151255000Y-19255000D01*
X151255000Y-19095390D01*
X156855000Y-19095390D01*
X156855000Y-19255000D01*
X157655000Y-19255000D01*
X157655000Y-19755000D01*
X156855000Y-19755000D01*
X156855000Y-19914609D01*
X156881469Y-20081726D01*
X156933760Y-20242659D01*
X157010578Y-20393423D01*
X157110038Y-20530316D01*
X157110038Y-20530317D01*
X157229682Y-20649961D01*
X157366576Y-20749421D01*
X157517340Y-20826239D01*
X157678273Y-20878530D01*
X157680000Y-20878804D01*
X157680000Y-19945056D01*
X157696866Y-19985775D01*
X157774225Y-20063134D01*
X157875299Y-20105000D01*
X157984701Y-20105000D01*
X158085775Y-20063134D01*
X158163134Y-19985775D01*
X158180000Y-19945056D01*
X158180000Y-20878803D01*
X158181726Y-20878530D01*
X158342659Y-20826239D01*
X158493423Y-20749421D01*
X158630316Y-20649961D01*
X158630317Y-20649961D01*
X158749961Y-20530317D01*
X158749961Y-20530316D01*
X158849421Y-20393423D01*
X158926239Y-20242659D01*
X158978530Y-20081726D01*
X159005000Y-19914609D01*
X159005000Y-19755000D01*
X158205000Y-19755000D01*
X158205000Y-19255000D01*
X159005000Y-19255000D01*
X159005000Y-19095390D01*
X158978530Y-18928273D01*
X158926239Y-18767340D01*
X158849421Y-18616576D01*
X158749961Y-18479683D01*
X158749961Y-18479682D01*
X158630317Y-18360038D01*
X158493423Y-18260578D01*
X158342661Y-18183760D01*
X158181726Y-18131469D01*
X158180000Y-18131194D01*
X158180000Y-19064943D01*
X158163134Y-19024225D01*
X158085775Y-18946866D01*
X157984701Y-18905000D01*
X157875299Y-18905000D01*
X157774225Y-18946866D01*
X157696866Y-19024225D01*
X157680000Y-19064943D01*
X157680000Y-18131195D01*
X157679999Y-18131194D01*
X157678273Y-18131469D01*
X157517338Y-18183760D01*
X157366576Y-18260578D01*
X157229683Y-18360038D01*
X157229682Y-18360038D01*
X157110038Y-18479682D01*
X157110038Y-18479683D01*
X157010578Y-18616576D01*
X156933760Y-18767340D01*
X156881469Y-18928273D01*
X156855000Y-19095390D01*
X151255000Y-19095390D01*
X151228530Y-18928273D01*
X151176239Y-18767340D01*
X151099421Y-18616576D01*
X150999961Y-18479683D01*
X150999961Y-18479682D01*
X150880317Y-18360038D01*
X150743423Y-18260578D01*
X150592661Y-18183760D01*
X150431726Y-18131469D01*
X150430000Y-18131194D01*
X150430000Y-19064943D01*
X150413134Y-19024225D01*
X150335775Y-18946866D01*
X150234701Y-18905000D01*
X150125299Y-18905000D01*
X150024225Y-18946866D01*
X149946866Y-19024225D01*
X149930000Y-19064943D01*
X149930000Y-18131195D01*
X149929999Y-18131194D01*
X149928273Y-18131469D01*
X149767338Y-18183760D01*
X149616576Y-18260578D01*
X149479683Y-18360038D01*
X149479682Y-18360038D01*
X149360038Y-18479682D01*
X149360038Y-18479683D01*
X149260578Y-18616576D01*
X149183760Y-18767340D01*
X149131469Y-18928273D01*
X149105000Y-19095390D01*
X138147571Y-19095390D01*
X138147550Y-19095375D01*
X137958217Y-18998904D01*
X137756129Y-18933242D01*
X137546246Y-18900000D01*
X137333754Y-18900000D01*
X137123872Y-18933242D01*
X137123869Y-18933242D01*
X136921782Y-18998904D01*
X136732439Y-19095380D01*
X136678282Y-19134727D01*
X136678282Y-19134728D01*
X137310591Y-19767037D01*
X137247007Y-19784075D01*
X137132993Y-19849901D01*
X137039901Y-19942993D01*
X136974075Y-20057007D01*
X136957037Y-20120591D01*
X136324728Y-19488282D01*
X136324727Y-19488282D01*
X136285380Y-19542439D01*
X136188904Y-19731782D01*
X136123242Y-19933869D01*
X136123242Y-19933872D01*
X136090000Y-20143753D01*
X44800500Y-20143753D01*
X44800500Y-17474420D01*
X44820185Y-17407381D01*
X44872989Y-17361626D01*
X44924418Y-17350420D01*
X281975423Y-17200578D01*
X282042474Y-17220220D01*
G37*
%TD.AperFunction*%
%TD*%
M02*
