%TF.GenerationSoftware,KiCad,Pcbnew,9.0.7*%
%TF.CreationDate,2026-01-18T23:42:21-08:00*%
%TF.ProjectId,STM32_HID_controller,53544d33-325f-4484-9944-5f636f6e7472,rev?*%
%TF.SameCoordinates,Original*%
%TF.FileFunction,Drillmap*%
%TF.FilePolarity,Positive*%
%FSLAX45Y45*%
G04 Gerber Fmt 4.5, Leading zero omitted, Abs format (unit mm)*
G04 Created by KiCad (PCBNEW 9.0.7) date 2026-01-18 23:42:21*
%MOMM*%
%LPD*%
G01*
G04 APERTURE LIST*
%ADD10C,0.050000*%
%ADD11C,0.200000*%
%ADD12C,0.100000*%
%ADD13C,0.220000*%
%ADD14C,0.320000*%
G04 APERTURE END LIST*
D10*
X4480000Y-12090000D02*
X4480000Y-1735000D01*
X28210000Y-12075000D02*
X4480000Y-12090000D01*
X4480000Y-1735000D02*
X28210000Y-1720000D01*
X28210000Y-1720000D02*
X28210000Y-12075000D01*
D11*
D12*
X15115500Y-2185500D02*
X15195500Y-2265500D01*
X15195500Y-2185500D02*
X15115500Y-2265500D01*
X15615500Y-2185500D02*
X15695500Y-2265500D01*
X15695500Y-2185500D02*
X15615500Y-2265500D01*
X13454500Y-3515000D02*
G75*
G02*
X13364500Y-3515000I-45000J0D01*
G01*
X13364500Y-3515000D02*
G75*
G02*
X13454500Y-3515000I45000J0D01*
G01*
X13454500Y-3815000D02*
G75*
G02*
X13364500Y-3815000I-45000J0D01*
G01*
X13364500Y-3815000D02*
G75*
G02*
X13454500Y-3815000I45000J0D01*
G01*
D13*
X8900000Y-2090000D02*
X8900000Y-2310000D01*
X8790000Y-2200000D02*
X9010000Y-2200000D01*
X10800000Y-2090000D02*
X10800000Y-2310000D01*
X10690000Y-2200000D02*
X10910000Y-2200000D01*
X19100000Y-2090000D02*
X19100000Y-2310000D01*
X18990000Y-2200000D02*
X19210000Y-2200000D01*
X21000000Y-2090000D02*
X21000000Y-2310000D01*
X20890000Y-2200000D02*
X21110000Y-2200000D01*
D14*
X5223138Y-2323138D02*
X5223138Y-2096862D01*
X4996862Y-2096862D01*
X4996862Y-2323138D01*
X5223138Y-2323138D01*
X5223138Y-11623138D02*
X5223138Y-11396862D01*
X4996862Y-11396862D01*
X4996862Y-11623138D01*
X5223138Y-11623138D01*
X27823138Y-2323138D02*
X27823138Y-2096862D01*
X27596862Y-2096862D01*
X27596862Y-2323138D01*
X27823138Y-2323138D01*
X27823138Y-11623138D02*
X27823138Y-11396862D01*
X27596862Y-11396862D01*
X27596862Y-11623138D01*
X27823138Y-11623138D01*
D11*
X4738277Y-12403984D02*
X4738277Y-12203984D01*
X4738277Y-12203984D02*
X4785896Y-12203984D01*
X4785896Y-12203984D02*
X4814467Y-12213508D01*
X4814467Y-12213508D02*
X4833515Y-12232555D01*
X4833515Y-12232555D02*
X4843039Y-12251603D01*
X4843039Y-12251603D02*
X4852563Y-12289698D01*
X4852563Y-12289698D02*
X4852563Y-12318269D01*
X4852563Y-12318269D02*
X4843039Y-12356365D01*
X4843039Y-12356365D02*
X4833515Y-12375412D01*
X4833515Y-12375412D02*
X4814467Y-12394460D01*
X4814467Y-12394460D02*
X4785896Y-12403984D01*
X4785896Y-12403984D02*
X4738277Y-12403984D01*
X4938277Y-12403984D02*
X4938277Y-12270650D01*
X4938277Y-12308746D02*
X4947801Y-12289698D01*
X4947801Y-12289698D02*
X4957324Y-12280174D01*
X4957324Y-12280174D02*
X4976372Y-12270650D01*
X4976372Y-12270650D02*
X4995420Y-12270650D01*
X5062086Y-12403984D02*
X5062086Y-12270650D01*
X5062086Y-12203984D02*
X5052563Y-12213508D01*
X5052563Y-12213508D02*
X5062086Y-12223031D01*
X5062086Y-12223031D02*
X5071610Y-12213508D01*
X5071610Y-12213508D02*
X5062086Y-12203984D01*
X5062086Y-12203984D02*
X5062086Y-12223031D01*
X5185896Y-12403984D02*
X5166848Y-12394460D01*
X5166848Y-12394460D02*
X5157324Y-12375412D01*
X5157324Y-12375412D02*
X5157324Y-12203984D01*
X5290658Y-12403984D02*
X5271610Y-12394460D01*
X5271610Y-12394460D02*
X5262086Y-12375412D01*
X5262086Y-12375412D02*
X5262086Y-12203984D01*
X5519229Y-12403984D02*
X5519229Y-12203984D01*
X5519229Y-12203984D02*
X5585896Y-12346841D01*
X5585896Y-12346841D02*
X5652562Y-12203984D01*
X5652562Y-12203984D02*
X5652562Y-12403984D01*
X5833515Y-12403984D02*
X5833515Y-12299222D01*
X5833515Y-12299222D02*
X5823991Y-12280174D01*
X5823991Y-12280174D02*
X5804943Y-12270650D01*
X5804943Y-12270650D02*
X5766848Y-12270650D01*
X5766848Y-12270650D02*
X5747801Y-12280174D01*
X5833515Y-12394460D02*
X5814467Y-12403984D01*
X5814467Y-12403984D02*
X5766848Y-12403984D01*
X5766848Y-12403984D02*
X5747801Y-12394460D01*
X5747801Y-12394460D02*
X5738277Y-12375412D01*
X5738277Y-12375412D02*
X5738277Y-12356365D01*
X5738277Y-12356365D02*
X5747801Y-12337317D01*
X5747801Y-12337317D02*
X5766848Y-12327793D01*
X5766848Y-12327793D02*
X5814467Y-12327793D01*
X5814467Y-12327793D02*
X5833515Y-12318269D01*
X5928753Y-12270650D02*
X5928753Y-12470650D01*
X5928753Y-12280174D02*
X5947801Y-12270650D01*
X5947801Y-12270650D02*
X5985896Y-12270650D01*
X5985896Y-12270650D02*
X6004943Y-12280174D01*
X6004943Y-12280174D02*
X6014467Y-12289698D01*
X6014467Y-12289698D02*
X6023991Y-12308746D01*
X6023991Y-12308746D02*
X6023991Y-12365888D01*
X6023991Y-12365888D02*
X6014467Y-12384936D01*
X6014467Y-12384936D02*
X6004943Y-12394460D01*
X6004943Y-12394460D02*
X5985896Y-12403984D01*
X5985896Y-12403984D02*
X5947801Y-12403984D01*
X5947801Y-12403984D02*
X5928753Y-12394460D01*
X6109705Y-12384936D02*
X6119229Y-12394460D01*
X6119229Y-12394460D02*
X6109705Y-12403984D01*
X6109705Y-12403984D02*
X6100182Y-12394460D01*
X6100182Y-12394460D02*
X6109705Y-12384936D01*
X6109705Y-12384936D02*
X6109705Y-12403984D01*
X6109705Y-12280174D02*
X6119229Y-12289698D01*
X6119229Y-12289698D02*
X6109705Y-12299222D01*
X6109705Y-12299222D02*
X6100182Y-12289698D01*
X6100182Y-12289698D02*
X6109705Y-12280174D01*
X6109705Y-12280174D02*
X6109705Y-12299222D01*
D12*
X4397500Y-12692500D02*
X4477500Y-12772500D01*
X4477500Y-12692500D02*
X4397500Y-12772500D01*
D11*
X4776372Y-12623984D02*
X4795420Y-12623984D01*
X4795420Y-12623984D02*
X4814467Y-12633508D01*
X4814467Y-12633508D02*
X4823991Y-12643031D01*
X4823991Y-12643031D02*
X4833515Y-12662079D01*
X4833515Y-12662079D02*
X4843039Y-12700174D01*
X4843039Y-12700174D02*
X4843039Y-12747793D01*
X4843039Y-12747793D02*
X4833515Y-12785888D01*
X4833515Y-12785888D02*
X4823991Y-12804936D01*
X4823991Y-12804936D02*
X4814467Y-12814460D01*
X4814467Y-12814460D02*
X4795420Y-12823984D01*
X4795420Y-12823984D02*
X4776372Y-12823984D01*
X4776372Y-12823984D02*
X4757324Y-12814460D01*
X4757324Y-12814460D02*
X4747801Y-12804936D01*
X4747801Y-12804936D02*
X4738277Y-12785888D01*
X4738277Y-12785888D02*
X4728753Y-12747793D01*
X4728753Y-12747793D02*
X4728753Y-12700174D01*
X4728753Y-12700174D02*
X4738277Y-12662079D01*
X4738277Y-12662079D02*
X4747801Y-12643031D01*
X4747801Y-12643031D02*
X4757324Y-12633508D01*
X4757324Y-12633508D02*
X4776372Y-12623984D01*
X4928753Y-12804936D02*
X4938277Y-12814460D01*
X4938277Y-12814460D02*
X4928753Y-12823984D01*
X4928753Y-12823984D02*
X4919229Y-12814460D01*
X4919229Y-12814460D02*
X4928753Y-12804936D01*
X4928753Y-12804936D02*
X4928753Y-12823984D01*
X5052563Y-12709698D02*
X5033515Y-12700174D01*
X5033515Y-12700174D02*
X5023991Y-12690650D01*
X5023991Y-12690650D02*
X5014467Y-12671603D01*
X5014467Y-12671603D02*
X5014467Y-12662079D01*
X5014467Y-12662079D02*
X5023991Y-12643031D01*
X5023991Y-12643031D02*
X5033515Y-12633508D01*
X5033515Y-12633508D02*
X5052563Y-12623984D01*
X5052563Y-12623984D02*
X5090658Y-12623984D01*
X5090658Y-12623984D02*
X5109705Y-12633508D01*
X5109705Y-12633508D02*
X5119229Y-12643031D01*
X5119229Y-12643031D02*
X5128753Y-12662079D01*
X5128753Y-12662079D02*
X5128753Y-12671603D01*
X5128753Y-12671603D02*
X5119229Y-12690650D01*
X5119229Y-12690650D02*
X5109705Y-12700174D01*
X5109705Y-12700174D02*
X5090658Y-12709698D01*
X5090658Y-12709698D02*
X5052563Y-12709698D01*
X5052563Y-12709698D02*
X5033515Y-12719222D01*
X5033515Y-12719222D02*
X5023991Y-12728746D01*
X5023991Y-12728746D02*
X5014467Y-12747793D01*
X5014467Y-12747793D02*
X5014467Y-12785888D01*
X5014467Y-12785888D02*
X5023991Y-12804936D01*
X5023991Y-12804936D02*
X5033515Y-12814460D01*
X5033515Y-12814460D02*
X5052563Y-12823984D01*
X5052563Y-12823984D02*
X5090658Y-12823984D01*
X5090658Y-12823984D02*
X5109705Y-12814460D01*
X5109705Y-12814460D02*
X5119229Y-12804936D01*
X5119229Y-12804936D02*
X5128753Y-12785888D01*
X5128753Y-12785888D02*
X5128753Y-12747793D01*
X5128753Y-12747793D02*
X5119229Y-12728746D01*
X5119229Y-12728746D02*
X5109705Y-12719222D01*
X5109705Y-12719222D02*
X5090658Y-12709698D01*
X5252563Y-12623984D02*
X5271610Y-12623984D01*
X5271610Y-12623984D02*
X5290658Y-12633508D01*
X5290658Y-12633508D02*
X5300182Y-12643031D01*
X5300182Y-12643031D02*
X5309705Y-12662079D01*
X5309705Y-12662079D02*
X5319229Y-12700174D01*
X5319229Y-12700174D02*
X5319229Y-12747793D01*
X5319229Y-12747793D02*
X5309705Y-12785888D01*
X5309705Y-12785888D02*
X5300182Y-12804936D01*
X5300182Y-12804936D02*
X5290658Y-12814460D01*
X5290658Y-12814460D02*
X5271610Y-12823984D01*
X5271610Y-12823984D02*
X5252563Y-12823984D01*
X5252563Y-12823984D02*
X5233515Y-12814460D01*
X5233515Y-12814460D02*
X5223991Y-12804936D01*
X5223991Y-12804936D02*
X5214467Y-12785888D01*
X5214467Y-12785888D02*
X5204944Y-12747793D01*
X5204944Y-12747793D02*
X5204944Y-12700174D01*
X5204944Y-12700174D02*
X5214467Y-12662079D01*
X5214467Y-12662079D02*
X5223991Y-12643031D01*
X5223991Y-12643031D02*
X5233515Y-12633508D01*
X5233515Y-12633508D02*
X5252563Y-12623984D01*
X5443039Y-12623984D02*
X5462086Y-12623984D01*
X5462086Y-12623984D02*
X5481134Y-12633508D01*
X5481134Y-12633508D02*
X5490658Y-12643031D01*
X5490658Y-12643031D02*
X5500182Y-12662079D01*
X5500182Y-12662079D02*
X5509705Y-12700174D01*
X5509705Y-12700174D02*
X5509705Y-12747793D01*
X5509705Y-12747793D02*
X5500182Y-12785888D01*
X5500182Y-12785888D02*
X5490658Y-12804936D01*
X5490658Y-12804936D02*
X5481134Y-12814460D01*
X5481134Y-12814460D02*
X5462086Y-12823984D01*
X5462086Y-12823984D02*
X5443039Y-12823984D01*
X5443039Y-12823984D02*
X5423991Y-12814460D01*
X5423991Y-12814460D02*
X5414467Y-12804936D01*
X5414467Y-12804936D02*
X5404944Y-12785888D01*
X5404944Y-12785888D02*
X5395420Y-12747793D01*
X5395420Y-12747793D02*
X5395420Y-12700174D01*
X5395420Y-12700174D02*
X5404944Y-12662079D01*
X5404944Y-12662079D02*
X5414467Y-12643031D01*
X5414467Y-12643031D02*
X5423991Y-12633508D01*
X5423991Y-12633508D02*
X5443039Y-12623984D01*
X5595420Y-12823984D02*
X5595420Y-12690650D01*
X5595420Y-12709698D02*
X5604943Y-12700174D01*
X5604943Y-12700174D02*
X5623991Y-12690650D01*
X5623991Y-12690650D02*
X5652563Y-12690650D01*
X5652563Y-12690650D02*
X5671610Y-12700174D01*
X5671610Y-12700174D02*
X5681134Y-12719222D01*
X5681134Y-12719222D02*
X5681134Y-12823984D01*
X5681134Y-12719222D02*
X5690658Y-12700174D01*
X5690658Y-12700174D02*
X5709705Y-12690650D01*
X5709705Y-12690650D02*
X5738277Y-12690650D01*
X5738277Y-12690650D02*
X5757324Y-12700174D01*
X5757324Y-12700174D02*
X5766848Y-12719222D01*
X5766848Y-12719222D02*
X5766848Y-12823984D01*
X5862086Y-12823984D02*
X5862086Y-12690650D01*
X5862086Y-12709698D02*
X5871610Y-12700174D01*
X5871610Y-12700174D02*
X5890658Y-12690650D01*
X5890658Y-12690650D02*
X5919229Y-12690650D01*
X5919229Y-12690650D02*
X5938277Y-12700174D01*
X5938277Y-12700174D02*
X5947801Y-12719222D01*
X5947801Y-12719222D02*
X5947801Y-12823984D01*
X5947801Y-12719222D02*
X5957324Y-12700174D01*
X5957324Y-12700174D02*
X5976372Y-12690650D01*
X5976372Y-12690650D02*
X6004943Y-12690650D01*
X6004943Y-12690650D02*
X6023991Y-12700174D01*
X6023991Y-12700174D02*
X6033515Y-12719222D01*
X6033515Y-12719222D02*
X6033515Y-12823984D01*
X6423991Y-12614460D02*
X6252563Y-12871603D01*
X6681134Y-12623984D02*
X6700182Y-12623984D01*
X6700182Y-12623984D02*
X6719229Y-12633508D01*
X6719229Y-12633508D02*
X6728753Y-12643031D01*
X6728753Y-12643031D02*
X6738277Y-12662079D01*
X6738277Y-12662079D02*
X6747801Y-12700174D01*
X6747801Y-12700174D02*
X6747801Y-12747793D01*
X6747801Y-12747793D02*
X6738277Y-12785888D01*
X6738277Y-12785888D02*
X6728753Y-12804936D01*
X6728753Y-12804936D02*
X6719229Y-12814460D01*
X6719229Y-12814460D02*
X6700182Y-12823984D01*
X6700182Y-12823984D02*
X6681134Y-12823984D01*
X6681134Y-12823984D02*
X6662086Y-12814460D01*
X6662086Y-12814460D02*
X6652563Y-12804936D01*
X6652563Y-12804936D02*
X6643039Y-12785888D01*
X6643039Y-12785888D02*
X6633515Y-12747793D01*
X6633515Y-12747793D02*
X6633515Y-12700174D01*
X6633515Y-12700174D02*
X6643039Y-12662079D01*
X6643039Y-12662079D02*
X6652563Y-12643031D01*
X6652563Y-12643031D02*
X6662086Y-12633508D01*
X6662086Y-12633508D02*
X6681134Y-12623984D01*
X6833515Y-12804936D02*
X6843039Y-12814460D01*
X6843039Y-12814460D02*
X6833515Y-12823984D01*
X6833515Y-12823984D02*
X6823991Y-12814460D01*
X6823991Y-12814460D02*
X6833515Y-12804936D01*
X6833515Y-12804936D02*
X6833515Y-12823984D01*
X6966848Y-12623984D02*
X6985896Y-12623984D01*
X6985896Y-12623984D02*
X7004944Y-12633508D01*
X7004944Y-12633508D02*
X7014467Y-12643031D01*
X7014467Y-12643031D02*
X7023991Y-12662079D01*
X7023991Y-12662079D02*
X7033515Y-12700174D01*
X7033515Y-12700174D02*
X7033515Y-12747793D01*
X7033515Y-12747793D02*
X7023991Y-12785888D01*
X7023991Y-12785888D02*
X7014467Y-12804936D01*
X7014467Y-12804936D02*
X7004944Y-12814460D01*
X7004944Y-12814460D02*
X6985896Y-12823984D01*
X6985896Y-12823984D02*
X6966848Y-12823984D01*
X6966848Y-12823984D02*
X6947801Y-12814460D01*
X6947801Y-12814460D02*
X6938277Y-12804936D01*
X6938277Y-12804936D02*
X6928753Y-12785888D01*
X6928753Y-12785888D02*
X6919229Y-12747793D01*
X6919229Y-12747793D02*
X6919229Y-12700174D01*
X6919229Y-12700174D02*
X6928753Y-12662079D01*
X6928753Y-12662079D02*
X6938277Y-12643031D01*
X6938277Y-12643031D02*
X6947801Y-12633508D01*
X6947801Y-12633508D02*
X6966848Y-12623984D01*
X7100182Y-12623984D02*
X7223991Y-12623984D01*
X7223991Y-12623984D02*
X7157325Y-12700174D01*
X7157325Y-12700174D02*
X7185896Y-12700174D01*
X7185896Y-12700174D02*
X7204944Y-12709698D01*
X7204944Y-12709698D02*
X7214467Y-12719222D01*
X7214467Y-12719222D02*
X7223991Y-12738269D01*
X7223991Y-12738269D02*
X7223991Y-12785888D01*
X7223991Y-12785888D02*
X7214467Y-12804936D01*
X7214467Y-12804936D02*
X7204944Y-12814460D01*
X7204944Y-12814460D02*
X7185896Y-12823984D01*
X7185896Y-12823984D02*
X7128753Y-12823984D01*
X7128753Y-12823984D02*
X7109706Y-12814460D01*
X7109706Y-12814460D02*
X7100182Y-12804936D01*
X7414467Y-12823984D02*
X7300182Y-12823984D01*
X7357325Y-12823984D02*
X7357325Y-12623984D01*
X7357325Y-12623984D02*
X7338277Y-12652555D01*
X7338277Y-12652555D02*
X7319229Y-12671603D01*
X7319229Y-12671603D02*
X7300182Y-12681127D01*
X7595420Y-12623984D02*
X7500182Y-12623984D01*
X7500182Y-12623984D02*
X7490658Y-12719222D01*
X7490658Y-12719222D02*
X7500182Y-12709698D01*
X7500182Y-12709698D02*
X7519229Y-12700174D01*
X7519229Y-12700174D02*
X7566848Y-12700174D01*
X7566848Y-12700174D02*
X7585896Y-12709698D01*
X7585896Y-12709698D02*
X7595420Y-12719222D01*
X7595420Y-12719222D02*
X7604944Y-12738269D01*
X7604944Y-12738269D02*
X7604944Y-12785888D01*
X7604944Y-12785888D02*
X7595420Y-12804936D01*
X7595420Y-12804936D02*
X7585896Y-12814460D01*
X7585896Y-12814460D02*
X7566848Y-12823984D01*
X7566848Y-12823984D02*
X7519229Y-12823984D01*
X7519229Y-12823984D02*
X7500182Y-12814460D01*
X7500182Y-12814460D02*
X7490658Y-12804936D01*
X7681134Y-12623984D02*
X7681134Y-12662079D01*
X7757325Y-12623984D02*
X7757325Y-12662079D01*
X8052563Y-12900174D02*
X8043039Y-12890650D01*
X8043039Y-12890650D02*
X8023991Y-12862079D01*
X8023991Y-12862079D02*
X8014468Y-12843031D01*
X8014468Y-12843031D02*
X8004944Y-12814460D01*
X8004944Y-12814460D02*
X7995420Y-12766841D01*
X7995420Y-12766841D02*
X7995420Y-12728746D01*
X7995420Y-12728746D02*
X8004944Y-12681127D01*
X8004944Y-12681127D02*
X8014468Y-12652555D01*
X8014468Y-12652555D02*
X8023991Y-12633508D01*
X8023991Y-12633508D02*
X8043039Y-12604936D01*
X8043039Y-12604936D02*
X8052563Y-12595412D01*
X8119229Y-12643031D02*
X8128753Y-12633508D01*
X8128753Y-12633508D02*
X8147801Y-12623984D01*
X8147801Y-12623984D02*
X8195420Y-12623984D01*
X8195420Y-12623984D02*
X8214468Y-12633508D01*
X8214468Y-12633508D02*
X8223991Y-12643031D01*
X8223991Y-12643031D02*
X8233515Y-12662079D01*
X8233515Y-12662079D02*
X8233515Y-12681127D01*
X8233515Y-12681127D02*
X8223991Y-12709698D01*
X8223991Y-12709698D02*
X8109706Y-12823984D01*
X8109706Y-12823984D02*
X8233515Y-12823984D01*
X8471611Y-12823984D02*
X8471611Y-12623984D01*
X8557325Y-12823984D02*
X8557325Y-12719222D01*
X8557325Y-12719222D02*
X8547801Y-12700174D01*
X8547801Y-12700174D02*
X8528753Y-12690650D01*
X8528753Y-12690650D02*
X8500182Y-12690650D01*
X8500182Y-12690650D02*
X8481134Y-12700174D01*
X8481134Y-12700174D02*
X8471611Y-12709698D01*
X8681134Y-12823984D02*
X8662087Y-12814460D01*
X8662087Y-12814460D02*
X8652563Y-12804936D01*
X8652563Y-12804936D02*
X8643039Y-12785888D01*
X8643039Y-12785888D02*
X8643039Y-12728746D01*
X8643039Y-12728746D02*
X8652563Y-12709698D01*
X8652563Y-12709698D02*
X8662087Y-12700174D01*
X8662087Y-12700174D02*
X8681134Y-12690650D01*
X8681134Y-12690650D02*
X8709706Y-12690650D01*
X8709706Y-12690650D02*
X8728753Y-12700174D01*
X8728753Y-12700174D02*
X8738277Y-12709698D01*
X8738277Y-12709698D02*
X8747801Y-12728746D01*
X8747801Y-12728746D02*
X8747801Y-12785888D01*
X8747801Y-12785888D02*
X8738277Y-12804936D01*
X8738277Y-12804936D02*
X8728753Y-12814460D01*
X8728753Y-12814460D02*
X8709706Y-12823984D01*
X8709706Y-12823984D02*
X8681134Y-12823984D01*
X8862087Y-12823984D02*
X8843039Y-12814460D01*
X8843039Y-12814460D02*
X8833515Y-12795412D01*
X8833515Y-12795412D02*
X8833515Y-12623984D01*
X9014468Y-12814460D02*
X8995420Y-12823984D01*
X8995420Y-12823984D02*
X8957325Y-12823984D01*
X8957325Y-12823984D02*
X8938277Y-12814460D01*
X8938277Y-12814460D02*
X8928753Y-12795412D01*
X8928753Y-12795412D02*
X8928753Y-12719222D01*
X8928753Y-12719222D02*
X8938277Y-12700174D01*
X8938277Y-12700174D02*
X8957325Y-12690650D01*
X8957325Y-12690650D02*
X8995420Y-12690650D01*
X8995420Y-12690650D02*
X9014468Y-12700174D01*
X9014468Y-12700174D02*
X9023992Y-12719222D01*
X9023992Y-12719222D02*
X9023992Y-12738269D01*
X9023992Y-12738269D02*
X8928753Y-12757317D01*
X9100182Y-12814460D02*
X9119230Y-12823984D01*
X9119230Y-12823984D02*
X9157325Y-12823984D01*
X9157325Y-12823984D02*
X9176373Y-12814460D01*
X9176373Y-12814460D02*
X9185896Y-12795412D01*
X9185896Y-12795412D02*
X9185896Y-12785888D01*
X9185896Y-12785888D02*
X9176373Y-12766841D01*
X9176373Y-12766841D02*
X9157325Y-12757317D01*
X9157325Y-12757317D02*
X9128753Y-12757317D01*
X9128753Y-12757317D02*
X9109706Y-12747793D01*
X9109706Y-12747793D02*
X9100182Y-12728746D01*
X9100182Y-12728746D02*
X9100182Y-12719222D01*
X9100182Y-12719222D02*
X9109706Y-12700174D01*
X9109706Y-12700174D02*
X9128753Y-12690650D01*
X9128753Y-12690650D02*
X9157325Y-12690650D01*
X9157325Y-12690650D02*
X9176373Y-12700174D01*
X9252563Y-12900174D02*
X9262087Y-12890650D01*
X9262087Y-12890650D02*
X9281134Y-12862079D01*
X9281134Y-12862079D02*
X9290658Y-12843031D01*
X9290658Y-12843031D02*
X9300182Y-12814460D01*
X9300182Y-12814460D02*
X9309706Y-12766841D01*
X9309706Y-12766841D02*
X9309706Y-12728746D01*
X9309706Y-12728746D02*
X9300182Y-12681127D01*
X9300182Y-12681127D02*
X9290658Y-12652555D01*
X9290658Y-12652555D02*
X9281134Y-12633508D01*
X9281134Y-12633508D02*
X9262087Y-12604936D01*
X9262087Y-12604936D02*
X9252563Y-12595412D01*
X9614468Y-12900174D02*
X9604944Y-12890650D01*
X9604944Y-12890650D02*
X9585896Y-12862079D01*
X9585896Y-12862079D02*
X9576373Y-12843031D01*
X9576373Y-12843031D02*
X9566849Y-12814460D01*
X9566849Y-12814460D02*
X9557325Y-12766841D01*
X9557325Y-12766841D02*
X9557325Y-12728746D01*
X9557325Y-12728746D02*
X9566849Y-12681127D01*
X9566849Y-12681127D02*
X9576373Y-12652555D01*
X9576373Y-12652555D02*
X9585896Y-12633508D01*
X9585896Y-12633508D02*
X9604944Y-12604936D01*
X9604944Y-12604936D02*
X9614468Y-12595412D01*
X9690658Y-12690650D02*
X9690658Y-12823984D01*
X9690658Y-12709698D02*
X9700182Y-12700174D01*
X9700182Y-12700174D02*
X9719230Y-12690650D01*
X9719230Y-12690650D02*
X9747801Y-12690650D01*
X9747801Y-12690650D02*
X9766849Y-12700174D01*
X9766849Y-12700174D02*
X9776373Y-12719222D01*
X9776373Y-12719222D02*
X9776373Y-12823984D01*
X9900182Y-12823984D02*
X9881134Y-12814460D01*
X9881134Y-12814460D02*
X9871611Y-12804936D01*
X9871611Y-12804936D02*
X9862087Y-12785888D01*
X9862087Y-12785888D02*
X9862087Y-12728746D01*
X9862087Y-12728746D02*
X9871611Y-12709698D01*
X9871611Y-12709698D02*
X9881134Y-12700174D01*
X9881134Y-12700174D02*
X9900182Y-12690650D01*
X9900182Y-12690650D02*
X9928754Y-12690650D01*
X9928754Y-12690650D02*
X9947801Y-12700174D01*
X9947801Y-12700174D02*
X9957325Y-12709698D01*
X9957325Y-12709698D02*
X9966849Y-12728746D01*
X9966849Y-12728746D02*
X9966849Y-12785888D01*
X9966849Y-12785888D02*
X9957325Y-12804936D01*
X9957325Y-12804936D02*
X9947801Y-12814460D01*
X9947801Y-12814460D02*
X9928754Y-12823984D01*
X9928754Y-12823984D02*
X9900182Y-12823984D01*
X10023992Y-12690650D02*
X10100182Y-12690650D01*
X10052563Y-12623984D02*
X10052563Y-12795412D01*
X10052563Y-12795412D02*
X10062087Y-12814460D01*
X10062087Y-12814460D02*
X10081134Y-12823984D01*
X10081134Y-12823984D02*
X10100182Y-12823984D01*
X10319230Y-12690650D02*
X10319230Y-12890650D01*
X10319230Y-12700174D02*
X10338277Y-12690650D01*
X10338277Y-12690650D02*
X10376373Y-12690650D01*
X10376373Y-12690650D02*
X10395420Y-12700174D01*
X10395420Y-12700174D02*
X10404944Y-12709698D01*
X10404944Y-12709698D02*
X10414468Y-12728746D01*
X10414468Y-12728746D02*
X10414468Y-12785888D01*
X10414468Y-12785888D02*
X10404944Y-12804936D01*
X10404944Y-12804936D02*
X10395420Y-12814460D01*
X10395420Y-12814460D02*
X10376373Y-12823984D01*
X10376373Y-12823984D02*
X10338277Y-12823984D01*
X10338277Y-12823984D02*
X10319230Y-12814460D01*
X10528754Y-12823984D02*
X10509706Y-12814460D01*
X10509706Y-12814460D02*
X10500182Y-12795412D01*
X10500182Y-12795412D02*
X10500182Y-12623984D01*
X10690658Y-12823984D02*
X10690658Y-12719222D01*
X10690658Y-12719222D02*
X10681135Y-12700174D01*
X10681135Y-12700174D02*
X10662087Y-12690650D01*
X10662087Y-12690650D02*
X10623992Y-12690650D01*
X10623992Y-12690650D02*
X10604944Y-12700174D01*
X10690658Y-12814460D02*
X10671611Y-12823984D01*
X10671611Y-12823984D02*
X10623992Y-12823984D01*
X10623992Y-12823984D02*
X10604944Y-12814460D01*
X10604944Y-12814460D02*
X10595420Y-12795412D01*
X10595420Y-12795412D02*
X10595420Y-12776365D01*
X10595420Y-12776365D02*
X10604944Y-12757317D01*
X10604944Y-12757317D02*
X10623992Y-12747793D01*
X10623992Y-12747793D02*
X10671611Y-12747793D01*
X10671611Y-12747793D02*
X10690658Y-12738269D01*
X10757325Y-12690650D02*
X10833515Y-12690650D01*
X10785896Y-12623984D02*
X10785896Y-12795412D01*
X10785896Y-12795412D02*
X10795420Y-12814460D01*
X10795420Y-12814460D02*
X10814468Y-12823984D01*
X10814468Y-12823984D02*
X10833515Y-12823984D01*
X10976373Y-12814460D02*
X10957325Y-12823984D01*
X10957325Y-12823984D02*
X10919230Y-12823984D01*
X10919230Y-12823984D02*
X10900182Y-12814460D01*
X10900182Y-12814460D02*
X10890658Y-12795412D01*
X10890658Y-12795412D02*
X10890658Y-12719222D01*
X10890658Y-12719222D02*
X10900182Y-12700174D01*
X10900182Y-12700174D02*
X10919230Y-12690650D01*
X10919230Y-12690650D02*
X10957325Y-12690650D01*
X10957325Y-12690650D02*
X10976373Y-12700174D01*
X10976373Y-12700174D02*
X10985896Y-12719222D01*
X10985896Y-12719222D02*
X10985896Y-12738269D01*
X10985896Y-12738269D02*
X10890658Y-12757317D01*
X11157325Y-12823984D02*
X11157325Y-12623984D01*
X11157325Y-12814460D02*
X11138277Y-12823984D01*
X11138277Y-12823984D02*
X11100182Y-12823984D01*
X11100182Y-12823984D02*
X11081135Y-12814460D01*
X11081135Y-12814460D02*
X11071611Y-12804936D01*
X11071611Y-12804936D02*
X11062087Y-12785888D01*
X11062087Y-12785888D02*
X11062087Y-12728746D01*
X11062087Y-12728746D02*
X11071611Y-12709698D01*
X11071611Y-12709698D02*
X11081135Y-12700174D01*
X11081135Y-12700174D02*
X11100182Y-12690650D01*
X11100182Y-12690650D02*
X11138277Y-12690650D01*
X11138277Y-12690650D02*
X11157325Y-12700174D01*
X11233515Y-12900174D02*
X11243039Y-12890650D01*
X11243039Y-12890650D02*
X11262087Y-12862079D01*
X11262087Y-12862079D02*
X11271611Y-12843031D01*
X11271611Y-12843031D02*
X11281134Y-12814460D01*
X11281134Y-12814460D02*
X11290658Y-12766841D01*
X11290658Y-12766841D02*
X11290658Y-12728746D01*
X11290658Y-12728746D02*
X11281134Y-12681127D01*
X11281134Y-12681127D02*
X11271611Y-12652555D01*
X11271611Y-12652555D02*
X11262087Y-12633508D01*
X11262087Y-12633508D02*
X11243039Y-12604936D01*
X11243039Y-12604936D02*
X11233515Y-12595412D01*
D12*
X4477500Y-12996500D02*
G75*
G02*
X4387500Y-12996500I-45000J0D01*
G01*
X4387500Y-12996500D02*
G75*
G02*
X4477500Y-12996500I45000J0D01*
G01*
D11*
X4776372Y-12887984D02*
X4795420Y-12887984D01*
X4795420Y-12887984D02*
X4814467Y-12897508D01*
X4814467Y-12897508D02*
X4823991Y-12907031D01*
X4823991Y-12907031D02*
X4833515Y-12926079D01*
X4833515Y-12926079D02*
X4843039Y-12964174D01*
X4843039Y-12964174D02*
X4843039Y-13011793D01*
X4843039Y-13011793D02*
X4833515Y-13049888D01*
X4833515Y-13049888D02*
X4823991Y-13068936D01*
X4823991Y-13068936D02*
X4814467Y-13078460D01*
X4814467Y-13078460D02*
X4795420Y-13087984D01*
X4795420Y-13087984D02*
X4776372Y-13087984D01*
X4776372Y-13087984D02*
X4757324Y-13078460D01*
X4757324Y-13078460D02*
X4747801Y-13068936D01*
X4747801Y-13068936D02*
X4738277Y-13049888D01*
X4738277Y-13049888D02*
X4728753Y-13011793D01*
X4728753Y-13011793D02*
X4728753Y-12964174D01*
X4728753Y-12964174D02*
X4738277Y-12926079D01*
X4738277Y-12926079D02*
X4747801Y-12907031D01*
X4747801Y-12907031D02*
X4757324Y-12897508D01*
X4757324Y-12897508D02*
X4776372Y-12887984D01*
X4928753Y-13068936D02*
X4938277Y-13078460D01*
X4938277Y-13078460D02*
X4928753Y-13087984D01*
X4928753Y-13087984D02*
X4919229Y-13078460D01*
X4919229Y-13078460D02*
X4928753Y-13068936D01*
X4928753Y-13068936D02*
X4928753Y-13087984D01*
X5033515Y-13087984D02*
X5071610Y-13087984D01*
X5071610Y-13087984D02*
X5090658Y-13078460D01*
X5090658Y-13078460D02*
X5100182Y-13068936D01*
X5100182Y-13068936D02*
X5119229Y-13040365D01*
X5119229Y-13040365D02*
X5128753Y-13002269D01*
X5128753Y-13002269D02*
X5128753Y-12926079D01*
X5128753Y-12926079D02*
X5119229Y-12907031D01*
X5119229Y-12907031D02*
X5109705Y-12897508D01*
X5109705Y-12897508D02*
X5090658Y-12887984D01*
X5090658Y-12887984D02*
X5052563Y-12887984D01*
X5052563Y-12887984D02*
X5033515Y-12897508D01*
X5033515Y-12897508D02*
X5023991Y-12907031D01*
X5023991Y-12907031D02*
X5014467Y-12926079D01*
X5014467Y-12926079D02*
X5014467Y-12973698D01*
X5014467Y-12973698D02*
X5023991Y-12992746D01*
X5023991Y-12992746D02*
X5033515Y-13002269D01*
X5033515Y-13002269D02*
X5052563Y-13011793D01*
X5052563Y-13011793D02*
X5090658Y-13011793D01*
X5090658Y-13011793D02*
X5109705Y-13002269D01*
X5109705Y-13002269D02*
X5119229Y-12992746D01*
X5119229Y-12992746D02*
X5128753Y-12973698D01*
X5252563Y-12887984D02*
X5271610Y-12887984D01*
X5271610Y-12887984D02*
X5290658Y-12897508D01*
X5290658Y-12897508D02*
X5300182Y-12907031D01*
X5300182Y-12907031D02*
X5309705Y-12926079D01*
X5309705Y-12926079D02*
X5319229Y-12964174D01*
X5319229Y-12964174D02*
X5319229Y-13011793D01*
X5319229Y-13011793D02*
X5309705Y-13049888D01*
X5309705Y-13049888D02*
X5300182Y-13068936D01*
X5300182Y-13068936D02*
X5290658Y-13078460D01*
X5290658Y-13078460D02*
X5271610Y-13087984D01*
X5271610Y-13087984D02*
X5252563Y-13087984D01*
X5252563Y-13087984D02*
X5233515Y-13078460D01*
X5233515Y-13078460D02*
X5223991Y-13068936D01*
X5223991Y-13068936D02*
X5214467Y-13049888D01*
X5214467Y-13049888D02*
X5204944Y-13011793D01*
X5204944Y-13011793D02*
X5204944Y-12964174D01*
X5204944Y-12964174D02*
X5214467Y-12926079D01*
X5214467Y-12926079D02*
X5223991Y-12907031D01*
X5223991Y-12907031D02*
X5233515Y-12897508D01*
X5233515Y-12897508D02*
X5252563Y-12887984D01*
X5443039Y-12887984D02*
X5462086Y-12887984D01*
X5462086Y-12887984D02*
X5481134Y-12897508D01*
X5481134Y-12897508D02*
X5490658Y-12907031D01*
X5490658Y-12907031D02*
X5500182Y-12926079D01*
X5500182Y-12926079D02*
X5509705Y-12964174D01*
X5509705Y-12964174D02*
X5509705Y-13011793D01*
X5509705Y-13011793D02*
X5500182Y-13049888D01*
X5500182Y-13049888D02*
X5490658Y-13068936D01*
X5490658Y-13068936D02*
X5481134Y-13078460D01*
X5481134Y-13078460D02*
X5462086Y-13087984D01*
X5462086Y-13087984D02*
X5443039Y-13087984D01*
X5443039Y-13087984D02*
X5423991Y-13078460D01*
X5423991Y-13078460D02*
X5414467Y-13068936D01*
X5414467Y-13068936D02*
X5404944Y-13049888D01*
X5404944Y-13049888D02*
X5395420Y-13011793D01*
X5395420Y-13011793D02*
X5395420Y-12964174D01*
X5395420Y-12964174D02*
X5404944Y-12926079D01*
X5404944Y-12926079D02*
X5414467Y-12907031D01*
X5414467Y-12907031D02*
X5423991Y-12897508D01*
X5423991Y-12897508D02*
X5443039Y-12887984D01*
X5595420Y-13087984D02*
X5595420Y-12954650D01*
X5595420Y-12973698D02*
X5604943Y-12964174D01*
X5604943Y-12964174D02*
X5623991Y-12954650D01*
X5623991Y-12954650D02*
X5652563Y-12954650D01*
X5652563Y-12954650D02*
X5671610Y-12964174D01*
X5671610Y-12964174D02*
X5681134Y-12983222D01*
X5681134Y-12983222D02*
X5681134Y-13087984D01*
X5681134Y-12983222D02*
X5690658Y-12964174D01*
X5690658Y-12964174D02*
X5709705Y-12954650D01*
X5709705Y-12954650D02*
X5738277Y-12954650D01*
X5738277Y-12954650D02*
X5757324Y-12964174D01*
X5757324Y-12964174D02*
X5766848Y-12983222D01*
X5766848Y-12983222D02*
X5766848Y-13087984D01*
X5862086Y-13087984D02*
X5862086Y-12954650D01*
X5862086Y-12973698D02*
X5871610Y-12964174D01*
X5871610Y-12964174D02*
X5890658Y-12954650D01*
X5890658Y-12954650D02*
X5919229Y-12954650D01*
X5919229Y-12954650D02*
X5938277Y-12964174D01*
X5938277Y-12964174D02*
X5947801Y-12983222D01*
X5947801Y-12983222D02*
X5947801Y-13087984D01*
X5947801Y-12983222D02*
X5957324Y-12964174D01*
X5957324Y-12964174D02*
X5976372Y-12954650D01*
X5976372Y-12954650D02*
X6004943Y-12954650D01*
X6004943Y-12954650D02*
X6023991Y-12964174D01*
X6023991Y-12964174D02*
X6033515Y-12983222D01*
X6033515Y-12983222D02*
X6033515Y-13087984D01*
X6423991Y-12878460D02*
X6252563Y-13135603D01*
X6681134Y-12887984D02*
X6700182Y-12887984D01*
X6700182Y-12887984D02*
X6719229Y-12897508D01*
X6719229Y-12897508D02*
X6728753Y-12907031D01*
X6728753Y-12907031D02*
X6738277Y-12926079D01*
X6738277Y-12926079D02*
X6747801Y-12964174D01*
X6747801Y-12964174D02*
X6747801Y-13011793D01*
X6747801Y-13011793D02*
X6738277Y-13049888D01*
X6738277Y-13049888D02*
X6728753Y-13068936D01*
X6728753Y-13068936D02*
X6719229Y-13078460D01*
X6719229Y-13078460D02*
X6700182Y-13087984D01*
X6700182Y-13087984D02*
X6681134Y-13087984D01*
X6681134Y-13087984D02*
X6662086Y-13078460D01*
X6662086Y-13078460D02*
X6652563Y-13068936D01*
X6652563Y-13068936D02*
X6643039Y-13049888D01*
X6643039Y-13049888D02*
X6633515Y-13011793D01*
X6633515Y-13011793D02*
X6633515Y-12964174D01*
X6633515Y-12964174D02*
X6643039Y-12926079D01*
X6643039Y-12926079D02*
X6652563Y-12907031D01*
X6652563Y-12907031D02*
X6662086Y-12897508D01*
X6662086Y-12897508D02*
X6681134Y-12887984D01*
X6833515Y-13068936D02*
X6843039Y-13078460D01*
X6843039Y-13078460D02*
X6833515Y-13087984D01*
X6833515Y-13087984D02*
X6823991Y-13078460D01*
X6823991Y-13078460D02*
X6833515Y-13068936D01*
X6833515Y-13068936D02*
X6833515Y-13087984D01*
X6966848Y-12887984D02*
X6985896Y-12887984D01*
X6985896Y-12887984D02*
X7004944Y-12897508D01*
X7004944Y-12897508D02*
X7014467Y-12907031D01*
X7014467Y-12907031D02*
X7023991Y-12926079D01*
X7023991Y-12926079D02*
X7033515Y-12964174D01*
X7033515Y-12964174D02*
X7033515Y-13011793D01*
X7033515Y-13011793D02*
X7023991Y-13049888D01*
X7023991Y-13049888D02*
X7014467Y-13068936D01*
X7014467Y-13068936D02*
X7004944Y-13078460D01*
X7004944Y-13078460D02*
X6985896Y-13087984D01*
X6985896Y-13087984D02*
X6966848Y-13087984D01*
X6966848Y-13087984D02*
X6947801Y-13078460D01*
X6947801Y-13078460D02*
X6938277Y-13068936D01*
X6938277Y-13068936D02*
X6928753Y-13049888D01*
X6928753Y-13049888D02*
X6919229Y-13011793D01*
X6919229Y-13011793D02*
X6919229Y-12964174D01*
X6919229Y-12964174D02*
X6928753Y-12926079D01*
X6928753Y-12926079D02*
X6938277Y-12907031D01*
X6938277Y-12907031D02*
X6947801Y-12897508D01*
X6947801Y-12897508D02*
X6966848Y-12887984D01*
X7100182Y-12887984D02*
X7223991Y-12887984D01*
X7223991Y-12887984D02*
X7157325Y-12964174D01*
X7157325Y-12964174D02*
X7185896Y-12964174D01*
X7185896Y-12964174D02*
X7204944Y-12973698D01*
X7204944Y-12973698D02*
X7214467Y-12983222D01*
X7214467Y-12983222D02*
X7223991Y-13002269D01*
X7223991Y-13002269D02*
X7223991Y-13049888D01*
X7223991Y-13049888D02*
X7214467Y-13068936D01*
X7214467Y-13068936D02*
X7204944Y-13078460D01*
X7204944Y-13078460D02*
X7185896Y-13087984D01*
X7185896Y-13087984D02*
X7128753Y-13087984D01*
X7128753Y-13087984D02*
X7109706Y-13078460D01*
X7109706Y-13078460D02*
X7100182Y-13068936D01*
X7404944Y-12887984D02*
X7309706Y-12887984D01*
X7309706Y-12887984D02*
X7300182Y-12983222D01*
X7300182Y-12983222D02*
X7309706Y-12973698D01*
X7309706Y-12973698D02*
X7328753Y-12964174D01*
X7328753Y-12964174D02*
X7376372Y-12964174D01*
X7376372Y-12964174D02*
X7395420Y-12973698D01*
X7395420Y-12973698D02*
X7404944Y-12983222D01*
X7404944Y-12983222D02*
X7414467Y-13002269D01*
X7414467Y-13002269D02*
X7414467Y-13049888D01*
X7414467Y-13049888D02*
X7404944Y-13068936D01*
X7404944Y-13068936D02*
X7395420Y-13078460D01*
X7395420Y-13078460D02*
X7376372Y-13087984D01*
X7376372Y-13087984D02*
X7328753Y-13087984D01*
X7328753Y-13087984D02*
X7309706Y-13078460D01*
X7309706Y-13078460D02*
X7300182Y-13068936D01*
X7585896Y-12954650D02*
X7585896Y-13087984D01*
X7538277Y-12878460D02*
X7490658Y-13021317D01*
X7490658Y-13021317D02*
X7614467Y-13021317D01*
X7681134Y-12887984D02*
X7681134Y-12926079D01*
X7757325Y-12887984D02*
X7757325Y-12926079D01*
X8052563Y-13164174D02*
X8043039Y-13154650D01*
X8043039Y-13154650D02*
X8023991Y-13126079D01*
X8023991Y-13126079D02*
X8014468Y-13107031D01*
X8014468Y-13107031D02*
X8004944Y-13078460D01*
X8004944Y-13078460D02*
X7995420Y-13030841D01*
X7995420Y-13030841D02*
X7995420Y-12992746D01*
X7995420Y-12992746D02*
X8004944Y-12945127D01*
X8004944Y-12945127D02*
X8014468Y-12916555D01*
X8014468Y-12916555D02*
X8023991Y-12897508D01*
X8023991Y-12897508D02*
X8043039Y-12868936D01*
X8043039Y-12868936D02*
X8052563Y-12859412D01*
X8119229Y-12907031D02*
X8128753Y-12897508D01*
X8128753Y-12897508D02*
X8147801Y-12887984D01*
X8147801Y-12887984D02*
X8195420Y-12887984D01*
X8195420Y-12887984D02*
X8214468Y-12897508D01*
X8214468Y-12897508D02*
X8223991Y-12907031D01*
X8223991Y-12907031D02*
X8233515Y-12926079D01*
X8233515Y-12926079D02*
X8233515Y-12945127D01*
X8233515Y-12945127D02*
X8223991Y-12973698D01*
X8223991Y-12973698D02*
X8109706Y-13087984D01*
X8109706Y-13087984D02*
X8233515Y-13087984D01*
X8471611Y-13087984D02*
X8471611Y-12887984D01*
X8557325Y-13087984D02*
X8557325Y-12983222D01*
X8557325Y-12983222D02*
X8547801Y-12964174D01*
X8547801Y-12964174D02*
X8528753Y-12954650D01*
X8528753Y-12954650D02*
X8500182Y-12954650D01*
X8500182Y-12954650D02*
X8481134Y-12964174D01*
X8481134Y-12964174D02*
X8471611Y-12973698D01*
X8681134Y-13087984D02*
X8662087Y-13078460D01*
X8662087Y-13078460D02*
X8652563Y-13068936D01*
X8652563Y-13068936D02*
X8643039Y-13049888D01*
X8643039Y-13049888D02*
X8643039Y-12992746D01*
X8643039Y-12992746D02*
X8652563Y-12973698D01*
X8652563Y-12973698D02*
X8662087Y-12964174D01*
X8662087Y-12964174D02*
X8681134Y-12954650D01*
X8681134Y-12954650D02*
X8709706Y-12954650D01*
X8709706Y-12954650D02*
X8728753Y-12964174D01*
X8728753Y-12964174D02*
X8738277Y-12973698D01*
X8738277Y-12973698D02*
X8747801Y-12992746D01*
X8747801Y-12992746D02*
X8747801Y-13049888D01*
X8747801Y-13049888D02*
X8738277Y-13068936D01*
X8738277Y-13068936D02*
X8728753Y-13078460D01*
X8728753Y-13078460D02*
X8709706Y-13087984D01*
X8709706Y-13087984D02*
X8681134Y-13087984D01*
X8862087Y-13087984D02*
X8843039Y-13078460D01*
X8843039Y-13078460D02*
X8833515Y-13059412D01*
X8833515Y-13059412D02*
X8833515Y-12887984D01*
X9014468Y-13078460D02*
X8995420Y-13087984D01*
X8995420Y-13087984D02*
X8957325Y-13087984D01*
X8957325Y-13087984D02*
X8938277Y-13078460D01*
X8938277Y-13078460D02*
X8928753Y-13059412D01*
X8928753Y-13059412D02*
X8928753Y-12983222D01*
X8928753Y-12983222D02*
X8938277Y-12964174D01*
X8938277Y-12964174D02*
X8957325Y-12954650D01*
X8957325Y-12954650D02*
X8995420Y-12954650D01*
X8995420Y-12954650D02*
X9014468Y-12964174D01*
X9014468Y-12964174D02*
X9023992Y-12983222D01*
X9023992Y-12983222D02*
X9023992Y-13002269D01*
X9023992Y-13002269D02*
X8928753Y-13021317D01*
X9100182Y-13078460D02*
X9119230Y-13087984D01*
X9119230Y-13087984D02*
X9157325Y-13087984D01*
X9157325Y-13087984D02*
X9176373Y-13078460D01*
X9176373Y-13078460D02*
X9185896Y-13059412D01*
X9185896Y-13059412D02*
X9185896Y-13049888D01*
X9185896Y-13049888D02*
X9176373Y-13030841D01*
X9176373Y-13030841D02*
X9157325Y-13021317D01*
X9157325Y-13021317D02*
X9128753Y-13021317D01*
X9128753Y-13021317D02*
X9109706Y-13011793D01*
X9109706Y-13011793D02*
X9100182Y-12992746D01*
X9100182Y-12992746D02*
X9100182Y-12983222D01*
X9100182Y-12983222D02*
X9109706Y-12964174D01*
X9109706Y-12964174D02*
X9128753Y-12954650D01*
X9128753Y-12954650D02*
X9157325Y-12954650D01*
X9157325Y-12954650D02*
X9176373Y-12964174D01*
X9252563Y-13164174D02*
X9262087Y-13154650D01*
X9262087Y-13154650D02*
X9281134Y-13126079D01*
X9281134Y-13126079D02*
X9290658Y-13107031D01*
X9290658Y-13107031D02*
X9300182Y-13078460D01*
X9300182Y-13078460D02*
X9309706Y-13030841D01*
X9309706Y-13030841D02*
X9309706Y-12992746D01*
X9309706Y-12992746D02*
X9300182Y-12945127D01*
X9300182Y-12945127D02*
X9290658Y-12916555D01*
X9290658Y-12916555D02*
X9281134Y-12897508D01*
X9281134Y-12897508D02*
X9262087Y-12868936D01*
X9262087Y-12868936D02*
X9252563Y-12859412D01*
X9614468Y-13164174D02*
X9604944Y-13154650D01*
X9604944Y-13154650D02*
X9585896Y-13126079D01*
X9585896Y-13126079D02*
X9576373Y-13107031D01*
X9576373Y-13107031D02*
X9566849Y-13078460D01*
X9566849Y-13078460D02*
X9557325Y-13030841D01*
X9557325Y-13030841D02*
X9557325Y-12992746D01*
X9557325Y-12992746D02*
X9566849Y-12945127D01*
X9566849Y-12945127D02*
X9576373Y-12916555D01*
X9576373Y-12916555D02*
X9585896Y-12897508D01*
X9585896Y-12897508D02*
X9604944Y-12868936D01*
X9604944Y-12868936D02*
X9614468Y-12859412D01*
X9690658Y-12954650D02*
X9690658Y-13087984D01*
X9690658Y-12973698D02*
X9700182Y-12964174D01*
X9700182Y-12964174D02*
X9719230Y-12954650D01*
X9719230Y-12954650D02*
X9747801Y-12954650D01*
X9747801Y-12954650D02*
X9766849Y-12964174D01*
X9766849Y-12964174D02*
X9776373Y-12983222D01*
X9776373Y-12983222D02*
X9776373Y-13087984D01*
X9900182Y-13087984D02*
X9881134Y-13078460D01*
X9881134Y-13078460D02*
X9871611Y-13068936D01*
X9871611Y-13068936D02*
X9862087Y-13049888D01*
X9862087Y-13049888D02*
X9862087Y-12992746D01*
X9862087Y-12992746D02*
X9871611Y-12973698D01*
X9871611Y-12973698D02*
X9881134Y-12964174D01*
X9881134Y-12964174D02*
X9900182Y-12954650D01*
X9900182Y-12954650D02*
X9928754Y-12954650D01*
X9928754Y-12954650D02*
X9947801Y-12964174D01*
X9947801Y-12964174D02*
X9957325Y-12973698D01*
X9957325Y-12973698D02*
X9966849Y-12992746D01*
X9966849Y-12992746D02*
X9966849Y-13049888D01*
X9966849Y-13049888D02*
X9957325Y-13068936D01*
X9957325Y-13068936D02*
X9947801Y-13078460D01*
X9947801Y-13078460D02*
X9928754Y-13087984D01*
X9928754Y-13087984D02*
X9900182Y-13087984D01*
X10023992Y-12954650D02*
X10100182Y-12954650D01*
X10052563Y-12887984D02*
X10052563Y-13059412D01*
X10052563Y-13059412D02*
X10062087Y-13078460D01*
X10062087Y-13078460D02*
X10081134Y-13087984D01*
X10081134Y-13087984D02*
X10100182Y-13087984D01*
X10319230Y-12954650D02*
X10319230Y-13154650D01*
X10319230Y-12964174D02*
X10338277Y-12954650D01*
X10338277Y-12954650D02*
X10376373Y-12954650D01*
X10376373Y-12954650D02*
X10395420Y-12964174D01*
X10395420Y-12964174D02*
X10404944Y-12973698D01*
X10404944Y-12973698D02*
X10414468Y-12992746D01*
X10414468Y-12992746D02*
X10414468Y-13049888D01*
X10414468Y-13049888D02*
X10404944Y-13068936D01*
X10404944Y-13068936D02*
X10395420Y-13078460D01*
X10395420Y-13078460D02*
X10376373Y-13087984D01*
X10376373Y-13087984D02*
X10338277Y-13087984D01*
X10338277Y-13087984D02*
X10319230Y-13078460D01*
X10528754Y-13087984D02*
X10509706Y-13078460D01*
X10509706Y-13078460D02*
X10500182Y-13059412D01*
X10500182Y-13059412D02*
X10500182Y-12887984D01*
X10690658Y-13087984D02*
X10690658Y-12983222D01*
X10690658Y-12983222D02*
X10681135Y-12964174D01*
X10681135Y-12964174D02*
X10662087Y-12954650D01*
X10662087Y-12954650D02*
X10623992Y-12954650D01*
X10623992Y-12954650D02*
X10604944Y-12964174D01*
X10690658Y-13078460D02*
X10671611Y-13087984D01*
X10671611Y-13087984D02*
X10623992Y-13087984D01*
X10623992Y-13087984D02*
X10604944Y-13078460D01*
X10604944Y-13078460D02*
X10595420Y-13059412D01*
X10595420Y-13059412D02*
X10595420Y-13040365D01*
X10595420Y-13040365D02*
X10604944Y-13021317D01*
X10604944Y-13021317D02*
X10623992Y-13011793D01*
X10623992Y-13011793D02*
X10671611Y-13011793D01*
X10671611Y-13011793D02*
X10690658Y-13002269D01*
X10757325Y-12954650D02*
X10833515Y-12954650D01*
X10785896Y-12887984D02*
X10785896Y-13059412D01*
X10785896Y-13059412D02*
X10795420Y-13078460D01*
X10795420Y-13078460D02*
X10814468Y-13087984D01*
X10814468Y-13087984D02*
X10833515Y-13087984D01*
X10976373Y-13078460D02*
X10957325Y-13087984D01*
X10957325Y-13087984D02*
X10919230Y-13087984D01*
X10919230Y-13087984D02*
X10900182Y-13078460D01*
X10900182Y-13078460D02*
X10890658Y-13059412D01*
X10890658Y-13059412D02*
X10890658Y-12983222D01*
X10890658Y-12983222D02*
X10900182Y-12964174D01*
X10900182Y-12964174D02*
X10919230Y-12954650D01*
X10919230Y-12954650D02*
X10957325Y-12954650D01*
X10957325Y-12954650D02*
X10976373Y-12964174D01*
X10976373Y-12964174D02*
X10985896Y-12983222D01*
X10985896Y-12983222D02*
X10985896Y-13002269D01*
X10985896Y-13002269D02*
X10890658Y-13021317D01*
X11157325Y-13087984D02*
X11157325Y-12887984D01*
X11157325Y-13078460D02*
X11138277Y-13087984D01*
X11138277Y-13087984D02*
X11100182Y-13087984D01*
X11100182Y-13087984D02*
X11081135Y-13078460D01*
X11081135Y-13078460D02*
X11071611Y-13068936D01*
X11071611Y-13068936D02*
X11062087Y-13049888D01*
X11062087Y-13049888D02*
X11062087Y-12992746D01*
X11062087Y-12992746D02*
X11071611Y-12973698D01*
X11071611Y-12973698D02*
X11081135Y-12964174D01*
X11081135Y-12964174D02*
X11100182Y-12954650D01*
X11100182Y-12954650D02*
X11138277Y-12954650D01*
X11138277Y-12954650D02*
X11157325Y-12964174D01*
X11233515Y-13164174D02*
X11243039Y-13154650D01*
X11243039Y-13154650D02*
X11262087Y-13126079D01*
X11262087Y-13126079D02*
X11271611Y-13107031D01*
X11271611Y-13107031D02*
X11281134Y-13078460D01*
X11281134Y-13078460D02*
X11290658Y-13030841D01*
X11290658Y-13030841D02*
X11290658Y-12992746D01*
X11290658Y-12992746D02*
X11281134Y-12945127D01*
X11281134Y-12945127D02*
X11271611Y-12916555D01*
X11271611Y-12916555D02*
X11262087Y-12897508D01*
X11262087Y-12897508D02*
X11243039Y-12868936D01*
X11243039Y-12868936D02*
X11233515Y-12859412D01*
X4377500Y-13160500D02*
X4377500Y-13360500D01*
X4277500Y-13260500D02*
X4477500Y-13260500D01*
X4728753Y-13171031D02*
X4738277Y-13161508D01*
X4738277Y-13161508D02*
X4757324Y-13151984D01*
X4757324Y-13151984D02*
X4804944Y-13151984D01*
X4804944Y-13151984D02*
X4823991Y-13161508D01*
X4823991Y-13161508D02*
X4833515Y-13171031D01*
X4833515Y-13171031D02*
X4843039Y-13190079D01*
X4843039Y-13190079D02*
X4843039Y-13209127D01*
X4843039Y-13209127D02*
X4833515Y-13237698D01*
X4833515Y-13237698D02*
X4719229Y-13351984D01*
X4719229Y-13351984D02*
X4843039Y-13351984D01*
X4928753Y-13332936D02*
X4938277Y-13342460D01*
X4938277Y-13342460D02*
X4928753Y-13351984D01*
X4928753Y-13351984D02*
X4919229Y-13342460D01*
X4919229Y-13342460D02*
X4928753Y-13332936D01*
X4928753Y-13332936D02*
X4928753Y-13351984D01*
X5014467Y-13171031D02*
X5023991Y-13161508D01*
X5023991Y-13161508D02*
X5043039Y-13151984D01*
X5043039Y-13151984D02*
X5090658Y-13151984D01*
X5090658Y-13151984D02*
X5109705Y-13161508D01*
X5109705Y-13161508D02*
X5119229Y-13171031D01*
X5119229Y-13171031D02*
X5128753Y-13190079D01*
X5128753Y-13190079D02*
X5128753Y-13209127D01*
X5128753Y-13209127D02*
X5119229Y-13237698D01*
X5119229Y-13237698D02*
X5004944Y-13351984D01*
X5004944Y-13351984D02*
X5128753Y-13351984D01*
X5252563Y-13151984D02*
X5271610Y-13151984D01*
X5271610Y-13151984D02*
X5290658Y-13161508D01*
X5290658Y-13161508D02*
X5300182Y-13171031D01*
X5300182Y-13171031D02*
X5309705Y-13190079D01*
X5309705Y-13190079D02*
X5319229Y-13228174D01*
X5319229Y-13228174D02*
X5319229Y-13275793D01*
X5319229Y-13275793D02*
X5309705Y-13313888D01*
X5309705Y-13313888D02*
X5300182Y-13332936D01*
X5300182Y-13332936D02*
X5290658Y-13342460D01*
X5290658Y-13342460D02*
X5271610Y-13351984D01*
X5271610Y-13351984D02*
X5252563Y-13351984D01*
X5252563Y-13351984D02*
X5233515Y-13342460D01*
X5233515Y-13342460D02*
X5223991Y-13332936D01*
X5223991Y-13332936D02*
X5214467Y-13313888D01*
X5214467Y-13313888D02*
X5204944Y-13275793D01*
X5204944Y-13275793D02*
X5204944Y-13228174D01*
X5204944Y-13228174D02*
X5214467Y-13190079D01*
X5214467Y-13190079D02*
X5223991Y-13171031D01*
X5223991Y-13171031D02*
X5233515Y-13161508D01*
X5233515Y-13161508D02*
X5252563Y-13151984D01*
X5443039Y-13151984D02*
X5462086Y-13151984D01*
X5462086Y-13151984D02*
X5481134Y-13161508D01*
X5481134Y-13161508D02*
X5490658Y-13171031D01*
X5490658Y-13171031D02*
X5500182Y-13190079D01*
X5500182Y-13190079D02*
X5509705Y-13228174D01*
X5509705Y-13228174D02*
X5509705Y-13275793D01*
X5509705Y-13275793D02*
X5500182Y-13313888D01*
X5500182Y-13313888D02*
X5490658Y-13332936D01*
X5490658Y-13332936D02*
X5481134Y-13342460D01*
X5481134Y-13342460D02*
X5462086Y-13351984D01*
X5462086Y-13351984D02*
X5443039Y-13351984D01*
X5443039Y-13351984D02*
X5423991Y-13342460D01*
X5423991Y-13342460D02*
X5414467Y-13332936D01*
X5414467Y-13332936D02*
X5404944Y-13313888D01*
X5404944Y-13313888D02*
X5395420Y-13275793D01*
X5395420Y-13275793D02*
X5395420Y-13228174D01*
X5395420Y-13228174D02*
X5404944Y-13190079D01*
X5404944Y-13190079D02*
X5414467Y-13171031D01*
X5414467Y-13171031D02*
X5423991Y-13161508D01*
X5423991Y-13161508D02*
X5443039Y-13151984D01*
X5595420Y-13351984D02*
X5595420Y-13218650D01*
X5595420Y-13237698D02*
X5604943Y-13228174D01*
X5604943Y-13228174D02*
X5623991Y-13218650D01*
X5623991Y-13218650D02*
X5652563Y-13218650D01*
X5652563Y-13218650D02*
X5671610Y-13228174D01*
X5671610Y-13228174D02*
X5681134Y-13247222D01*
X5681134Y-13247222D02*
X5681134Y-13351984D01*
X5681134Y-13247222D02*
X5690658Y-13228174D01*
X5690658Y-13228174D02*
X5709705Y-13218650D01*
X5709705Y-13218650D02*
X5738277Y-13218650D01*
X5738277Y-13218650D02*
X5757324Y-13228174D01*
X5757324Y-13228174D02*
X5766848Y-13247222D01*
X5766848Y-13247222D02*
X5766848Y-13351984D01*
X5862086Y-13351984D02*
X5862086Y-13218650D01*
X5862086Y-13237698D02*
X5871610Y-13228174D01*
X5871610Y-13228174D02*
X5890658Y-13218650D01*
X5890658Y-13218650D02*
X5919229Y-13218650D01*
X5919229Y-13218650D02*
X5938277Y-13228174D01*
X5938277Y-13228174D02*
X5947801Y-13247222D01*
X5947801Y-13247222D02*
X5947801Y-13351984D01*
X5947801Y-13247222D02*
X5957324Y-13228174D01*
X5957324Y-13228174D02*
X5976372Y-13218650D01*
X5976372Y-13218650D02*
X6004943Y-13218650D01*
X6004943Y-13218650D02*
X6023991Y-13228174D01*
X6023991Y-13228174D02*
X6033515Y-13247222D01*
X6033515Y-13247222D02*
X6033515Y-13351984D01*
X6423991Y-13142460D02*
X6252563Y-13399603D01*
X6681134Y-13151984D02*
X6700182Y-13151984D01*
X6700182Y-13151984D02*
X6719229Y-13161508D01*
X6719229Y-13161508D02*
X6728753Y-13171031D01*
X6728753Y-13171031D02*
X6738277Y-13190079D01*
X6738277Y-13190079D02*
X6747801Y-13228174D01*
X6747801Y-13228174D02*
X6747801Y-13275793D01*
X6747801Y-13275793D02*
X6738277Y-13313888D01*
X6738277Y-13313888D02*
X6728753Y-13332936D01*
X6728753Y-13332936D02*
X6719229Y-13342460D01*
X6719229Y-13342460D02*
X6700182Y-13351984D01*
X6700182Y-13351984D02*
X6681134Y-13351984D01*
X6681134Y-13351984D02*
X6662086Y-13342460D01*
X6662086Y-13342460D02*
X6652563Y-13332936D01*
X6652563Y-13332936D02*
X6643039Y-13313888D01*
X6643039Y-13313888D02*
X6633515Y-13275793D01*
X6633515Y-13275793D02*
X6633515Y-13228174D01*
X6633515Y-13228174D02*
X6643039Y-13190079D01*
X6643039Y-13190079D02*
X6652563Y-13171031D01*
X6652563Y-13171031D02*
X6662086Y-13161508D01*
X6662086Y-13161508D02*
X6681134Y-13151984D01*
X6833515Y-13332936D02*
X6843039Y-13342460D01*
X6843039Y-13342460D02*
X6833515Y-13351984D01*
X6833515Y-13351984D02*
X6823991Y-13342460D01*
X6823991Y-13342460D02*
X6833515Y-13332936D01*
X6833515Y-13332936D02*
X6833515Y-13351984D01*
X6966848Y-13151984D02*
X6985896Y-13151984D01*
X6985896Y-13151984D02*
X7004944Y-13161508D01*
X7004944Y-13161508D02*
X7014467Y-13171031D01*
X7014467Y-13171031D02*
X7023991Y-13190079D01*
X7023991Y-13190079D02*
X7033515Y-13228174D01*
X7033515Y-13228174D02*
X7033515Y-13275793D01*
X7033515Y-13275793D02*
X7023991Y-13313888D01*
X7023991Y-13313888D02*
X7014467Y-13332936D01*
X7014467Y-13332936D02*
X7004944Y-13342460D01*
X7004944Y-13342460D02*
X6985896Y-13351984D01*
X6985896Y-13351984D02*
X6966848Y-13351984D01*
X6966848Y-13351984D02*
X6947801Y-13342460D01*
X6947801Y-13342460D02*
X6938277Y-13332936D01*
X6938277Y-13332936D02*
X6928753Y-13313888D01*
X6928753Y-13313888D02*
X6919229Y-13275793D01*
X6919229Y-13275793D02*
X6919229Y-13228174D01*
X6919229Y-13228174D02*
X6928753Y-13190079D01*
X6928753Y-13190079D02*
X6938277Y-13171031D01*
X6938277Y-13171031D02*
X6947801Y-13161508D01*
X6947801Y-13161508D02*
X6966848Y-13151984D01*
X7147801Y-13237698D02*
X7128753Y-13228174D01*
X7128753Y-13228174D02*
X7119229Y-13218650D01*
X7119229Y-13218650D02*
X7109706Y-13199603D01*
X7109706Y-13199603D02*
X7109706Y-13190079D01*
X7109706Y-13190079D02*
X7119229Y-13171031D01*
X7119229Y-13171031D02*
X7128753Y-13161508D01*
X7128753Y-13161508D02*
X7147801Y-13151984D01*
X7147801Y-13151984D02*
X7185896Y-13151984D01*
X7185896Y-13151984D02*
X7204944Y-13161508D01*
X7204944Y-13161508D02*
X7214467Y-13171031D01*
X7214467Y-13171031D02*
X7223991Y-13190079D01*
X7223991Y-13190079D02*
X7223991Y-13199603D01*
X7223991Y-13199603D02*
X7214467Y-13218650D01*
X7214467Y-13218650D02*
X7204944Y-13228174D01*
X7204944Y-13228174D02*
X7185896Y-13237698D01*
X7185896Y-13237698D02*
X7147801Y-13237698D01*
X7147801Y-13237698D02*
X7128753Y-13247222D01*
X7128753Y-13247222D02*
X7119229Y-13256746D01*
X7119229Y-13256746D02*
X7109706Y-13275793D01*
X7109706Y-13275793D02*
X7109706Y-13313888D01*
X7109706Y-13313888D02*
X7119229Y-13332936D01*
X7119229Y-13332936D02*
X7128753Y-13342460D01*
X7128753Y-13342460D02*
X7147801Y-13351984D01*
X7147801Y-13351984D02*
X7185896Y-13351984D01*
X7185896Y-13351984D02*
X7204944Y-13342460D01*
X7204944Y-13342460D02*
X7214467Y-13332936D01*
X7214467Y-13332936D02*
X7223991Y-13313888D01*
X7223991Y-13313888D02*
X7223991Y-13275793D01*
X7223991Y-13275793D02*
X7214467Y-13256746D01*
X7214467Y-13256746D02*
X7204944Y-13247222D01*
X7204944Y-13247222D02*
X7185896Y-13237698D01*
X7395420Y-13151984D02*
X7357325Y-13151984D01*
X7357325Y-13151984D02*
X7338277Y-13161508D01*
X7338277Y-13161508D02*
X7328753Y-13171031D01*
X7328753Y-13171031D02*
X7309706Y-13199603D01*
X7309706Y-13199603D02*
X7300182Y-13237698D01*
X7300182Y-13237698D02*
X7300182Y-13313888D01*
X7300182Y-13313888D02*
X7309706Y-13332936D01*
X7309706Y-13332936D02*
X7319229Y-13342460D01*
X7319229Y-13342460D02*
X7338277Y-13351984D01*
X7338277Y-13351984D02*
X7376372Y-13351984D01*
X7376372Y-13351984D02*
X7395420Y-13342460D01*
X7395420Y-13342460D02*
X7404944Y-13332936D01*
X7404944Y-13332936D02*
X7414467Y-13313888D01*
X7414467Y-13313888D02*
X7414467Y-13266269D01*
X7414467Y-13266269D02*
X7404944Y-13247222D01*
X7404944Y-13247222D02*
X7395420Y-13237698D01*
X7395420Y-13237698D02*
X7376372Y-13228174D01*
X7376372Y-13228174D02*
X7338277Y-13228174D01*
X7338277Y-13228174D02*
X7319229Y-13237698D01*
X7319229Y-13237698D02*
X7309706Y-13247222D01*
X7309706Y-13247222D02*
X7300182Y-13266269D01*
X7585896Y-13151984D02*
X7547801Y-13151984D01*
X7547801Y-13151984D02*
X7528753Y-13161508D01*
X7528753Y-13161508D02*
X7519229Y-13171031D01*
X7519229Y-13171031D02*
X7500182Y-13199603D01*
X7500182Y-13199603D02*
X7490658Y-13237698D01*
X7490658Y-13237698D02*
X7490658Y-13313888D01*
X7490658Y-13313888D02*
X7500182Y-13332936D01*
X7500182Y-13332936D02*
X7509706Y-13342460D01*
X7509706Y-13342460D02*
X7528753Y-13351984D01*
X7528753Y-13351984D02*
X7566848Y-13351984D01*
X7566848Y-13351984D02*
X7585896Y-13342460D01*
X7585896Y-13342460D02*
X7595420Y-13332936D01*
X7595420Y-13332936D02*
X7604944Y-13313888D01*
X7604944Y-13313888D02*
X7604944Y-13266269D01*
X7604944Y-13266269D02*
X7595420Y-13247222D01*
X7595420Y-13247222D02*
X7585896Y-13237698D01*
X7585896Y-13237698D02*
X7566848Y-13228174D01*
X7566848Y-13228174D02*
X7528753Y-13228174D01*
X7528753Y-13228174D02*
X7509706Y-13237698D01*
X7509706Y-13237698D02*
X7500182Y-13247222D01*
X7500182Y-13247222D02*
X7490658Y-13266269D01*
X7681134Y-13151984D02*
X7681134Y-13190079D01*
X7757325Y-13151984D02*
X7757325Y-13190079D01*
X8052563Y-13428174D02*
X8043039Y-13418650D01*
X8043039Y-13418650D02*
X8023991Y-13390079D01*
X8023991Y-13390079D02*
X8014468Y-13371031D01*
X8014468Y-13371031D02*
X8004944Y-13342460D01*
X8004944Y-13342460D02*
X7995420Y-13294841D01*
X7995420Y-13294841D02*
X7995420Y-13256746D01*
X7995420Y-13256746D02*
X8004944Y-13209127D01*
X8004944Y-13209127D02*
X8014468Y-13180555D01*
X8014468Y-13180555D02*
X8023991Y-13161508D01*
X8023991Y-13161508D02*
X8043039Y-13132936D01*
X8043039Y-13132936D02*
X8052563Y-13123412D01*
X8214468Y-13218650D02*
X8214468Y-13351984D01*
X8166848Y-13142460D02*
X8119229Y-13285317D01*
X8119229Y-13285317D02*
X8243039Y-13285317D01*
X8471611Y-13351984D02*
X8471611Y-13151984D01*
X8557325Y-13351984D02*
X8557325Y-13247222D01*
X8557325Y-13247222D02*
X8547801Y-13228174D01*
X8547801Y-13228174D02*
X8528753Y-13218650D01*
X8528753Y-13218650D02*
X8500182Y-13218650D01*
X8500182Y-13218650D02*
X8481134Y-13228174D01*
X8481134Y-13228174D02*
X8471611Y-13237698D01*
X8681134Y-13351984D02*
X8662087Y-13342460D01*
X8662087Y-13342460D02*
X8652563Y-13332936D01*
X8652563Y-13332936D02*
X8643039Y-13313888D01*
X8643039Y-13313888D02*
X8643039Y-13256746D01*
X8643039Y-13256746D02*
X8652563Y-13237698D01*
X8652563Y-13237698D02*
X8662087Y-13228174D01*
X8662087Y-13228174D02*
X8681134Y-13218650D01*
X8681134Y-13218650D02*
X8709706Y-13218650D01*
X8709706Y-13218650D02*
X8728753Y-13228174D01*
X8728753Y-13228174D02*
X8738277Y-13237698D01*
X8738277Y-13237698D02*
X8747801Y-13256746D01*
X8747801Y-13256746D02*
X8747801Y-13313888D01*
X8747801Y-13313888D02*
X8738277Y-13332936D01*
X8738277Y-13332936D02*
X8728753Y-13342460D01*
X8728753Y-13342460D02*
X8709706Y-13351984D01*
X8709706Y-13351984D02*
X8681134Y-13351984D01*
X8862087Y-13351984D02*
X8843039Y-13342460D01*
X8843039Y-13342460D02*
X8833515Y-13323412D01*
X8833515Y-13323412D02*
X8833515Y-13151984D01*
X9014468Y-13342460D02*
X8995420Y-13351984D01*
X8995420Y-13351984D02*
X8957325Y-13351984D01*
X8957325Y-13351984D02*
X8938277Y-13342460D01*
X8938277Y-13342460D02*
X8928753Y-13323412D01*
X8928753Y-13323412D02*
X8928753Y-13247222D01*
X8928753Y-13247222D02*
X8938277Y-13228174D01*
X8938277Y-13228174D02*
X8957325Y-13218650D01*
X8957325Y-13218650D02*
X8995420Y-13218650D01*
X8995420Y-13218650D02*
X9014468Y-13228174D01*
X9014468Y-13228174D02*
X9023992Y-13247222D01*
X9023992Y-13247222D02*
X9023992Y-13266269D01*
X9023992Y-13266269D02*
X8928753Y-13285317D01*
X9100182Y-13342460D02*
X9119230Y-13351984D01*
X9119230Y-13351984D02*
X9157325Y-13351984D01*
X9157325Y-13351984D02*
X9176373Y-13342460D01*
X9176373Y-13342460D02*
X9185896Y-13323412D01*
X9185896Y-13323412D02*
X9185896Y-13313888D01*
X9185896Y-13313888D02*
X9176373Y-13294841D01*
X9176373Y-13294841D02*
X9157325Y-13285317D01*
X9157325Y-13285317D02*
X9128753Y-13285317D01*
X9128753Y-13285317D02*
X9109706Y-13275793D01*
X9109706Y-13275793D02*
X9100182Y-13256746D01*
X9100182Y-13256746D02*
X9100182Y-13247222D01*
X9100182Y-13247222D02*
X9109706Y-13228174D01*
X9109706Y-13228174D02*
X9128753Y-13218650D01*
X9128753Y-13218650D02*
X9157325Y-13218650D01*
X9157325Y-13218650D02*
X9176373Y-13228174D01*
X9252563Y-13428174D02*
X9262087Y-13418650D01*
X9262087Y-13418650D02*
X9281134Y-13390079D01*
X9281134Y-13390079D02*
X9290658Y-13371031D01*
X9290658Y-13371031D02*
X9300182Y-13342460D01*
X9300182Y-13342460D02*
X9309706Y-13294841D01*
X9309706Y-13294841D02*
X9309706Y-13256746D01*
X9309706Y-13256746D02*
X9300182Y-13209127D01*
X9300182Y-13209127D02*
X9290658Y-13180555D01*
X9290658Y-13180555D02*
X9281134Y-13161508D01*
X9281134Y-13161508D02*
X9262087Y-13132936D01*
X9262087Y-13132936D02*
X9252563Y-13123412D01*
X9614468Y-13428174D02*
X9604944Y-13418650D01*
X9604944Y-13418650D02*
X9585896Y-13390079D01*
X9585896Y-13390079D02*
X9576373Y-13371031D01*
X9576373Y-13371031D02*
X9566849Y-13342460D01*
X9566849Y-13342460D02*
X9557325Y-13294841D01*
X9557325Y-13294841D02*
X9557325Y-13256746D01*
X9557325Y-13256746D02*
X9566849Y-13209127D01*
X9566849Y-13209127D02*
X9576373Y-13180555D01*
X9576373Y-13180555D02*
X9585896Y-13161508D01*
X9585896Y-13161508D02*
X9604944Y-13132936D01*
X9604944Y-13132936D02*
X9614468Y-13123412D01*
X9690658Y-13218650D02*
X9690658Y-13351984D01*
X9690658Y-13237698D02*
X9700182Y-13228174D01*
X9700182Y-13228174D02*
X9719230Y-13218650D01*
X9719230Y-13218650D02*
X9747801Y-13218650D01*
X9747801Y-13218650D02*
X9766849Y-13228174D01*
X9766849Y-13228174D02*
X9776373Y-13247222D01*
X9776373Y-13247222D02*
X9776373Y-13351984D01*
X9900182Y-13351984D02*
X9881134Y-13342460D01*
X9881134Y-13342460D02*
X9871611Y-13332936D01*
X9871611Y-13332936D02*
X9862087Y-13313888D01*
X9862087Y-13313888D02*
X9862087Y-13256746D01*
X9862087Y-13256746D02*
X9871611Y-13237698D01*
X9871611Y-13237698D02*
X9881134Y-13228174D01*
X9881134Y-13228174D02*
X9900182Y-13218650D01*
X9900182Y-13218650D02*
X9928754Y-13218650D01*
X9928754Y-13218650D02*
X9947801Y-13228174D01*
X9947801Y-13228174D02*
X9957325Y-13237698D01*
X9957325Y-13237698D02*
X9966849Y-13256746D01*
X9966849Y-13256746D02*
X9966849Y-13313888D01*
X9966849Y-13313888D02*
X9957325Y-13332936D01*
X9957325Y-13332936D02*
X9947801Y-13342460D01*
X9947801Y-13342460D02*
X9928754Y-13351984D01*
X9928754Y-13351984D02*
X9900182Y-13351984D01*
X10023992Y-13218650D02*
X10100182Y-13218650D01*
X10052563Y-13151984D02*
X10052563Y-13323412D01*
X10052563Y-13323412D02*
X10062087Y-13342460D01*
X10062087Y-13342460D02*
X10081134Y-13351984D01*
X10081134Y-13351984D02*
X10100182Y-13351984D01*
X10319230Y-13218650D02*
X10319230Y-13418650D01*
X10319230Y-13228174D02*
X10338277Y-13218650D01*
X10338277Y-13218650D02*
X10376373Y-13218650D01*
X10376373Y-13218650D02*
X10395420Y-13228174D01*
X10395420Y-13228174D02*
X10404944Y-13237698D01*
X10404944Y-13237698D02*
X10414468Y-13256746D01*
X10414468Y-13256746D02*
X10414468Y-13313888D01*
X10414468Y-13313888D02*
X10404944Y-13332936D01*
X10404944Y-13332936D02*
X10395420Y-13342460D01*
X10395420Y-13342460D02*
X10376373Y-13351984D01*
X10376373Y-13351984D02*
X10338277Y-13351984D01*
X10338277Y-13351984D02*
X10319230Y-13342460D01*
X10528754Y-13351984D02*
X10509706Y-13342460D01*
X10509706Y-13342460D02*
X10500182Y-13323412D01*
X10500182Y-13323412D02*
X10500182Y-13151984D01*
X10690658Y-13351984D02*
X10690658Y-13247222D01*
X10690658Y-13247222D02*
X10681135Y-13228174D01*
X10681135Y-13228174D02*
X10662087Y-13218650D01*
X10662087Y-13218650D02*
X10623992Y-13218650D01*
X10623992Y-13218650D02*
X10604944Y-13228174D01*
X10690658Y-13342460D02*
X10671611Y-13351984D01*
X10671611Y-13351984D02*
X10623992Y-13351984D01*
X10623992Y-13351984D02*
X10604944Y-13342460D01*
X10604944Y-13342460D02*
X10595420Y-13323412D01*
X10595420Y-13323412D02*
X10595420Y-13304365D01*
X10595420Y-13304365D02*
X10604944Y-13285317D01*
X10604944Y-13285317D02*
X10623992Y-13275793D01*
X10623992Y-13275793D02*
X10671611Y-13275793D01*
X10671611Y-13275793D02*
X10690658Y-13266269D01*
X10757325Y-13218650D02*
X10833515Y-13218650D01*
X10785896Y-13151984D02*
X10785896Y-13323412D01*
X10785896Y-13323412D02*
X10795420Y-13342460D01*
X10795420Y-13342460D02*
X10814468Y-13351984D01*
X10814468Y-13351984D02*
X10833515Y-13351984D01*
X10976373Y-13342460D02*
X10957325Y-13351984D01*
X10957325Y-13351984D02*
X10919230Y-13351984D01*
X10919230Y-13351984D02*
X10900182Y-13342460D01*
X10900182Y-13342460D02*
X10890658Y-13323412D01*
X10890658Y-13323412D02*
X10890658Y-13247222D01*
X10890658Y-13247222D02*
X10900182Y-13228174D01*
X10900182Y-13228174D02*
X10919230Y-13218650D01*
X10919230Y-13218650D02*
X10957325Y-13218650D01*
X10957325Y-13218650D02*
X10976373Y-13228174D01*
X10976373Y-13228174D02*
X10985896Y-13247222D01*
X10985896Y-13247222D02*
X10985896Y-13266269D01*
X10985896Y-13266269D02*
X10890658Y-13285317D01*
X11157325Y-13351984D02*
X11157325Y-13151984D01*
X11157325Y-13342460D02*
X11138277Y-13351984D01*
X11138277Y-13351984D02*
X11100182Y-13351984D01*
X11100182Y-13351984D02*
X11081135Y-13342460D01*
X11081135Y-13342460D02*
X11071611Y-13332936D01*
X11071611Y-13332936D02*
X11062087Y-13313888D01*
X11062087Y-13313888D02*
X11062087Y-13256746D01*
X11062087Y-13256746D02*
X11071611Y-13237698D01*
X11071611Y-13237698D02*
X11081135Y-13228174D01*
X11081135Y-13228174D02*
X11100182Y-13218650D01*
X11100182Y-13218650D02*
X11138277Y-13218650D01*
X11138277Y-13218650D02*
X11157325Y-13228174D01*
X11233515Y-13428174D02*
X11243039Y-13418650D01*
X11243039Y-13418650D02*
X11262087Y-13390079D01*
X11262087Y-13390079D02*
X11271611Y-13371031D01*
X11271611Y-13371031D02*
X11281134Y-13342460D01*
X11281134Y-13342460D02*
X11290658Y-13294841D01*
X11290658Y-13294841D02*
X11290658Y-13256746D01*
X11290658Y-13256746D02*
X11281134Y-13209127D01*
X11281134Y-13209127D02*
X11271611Y-13180555D01*
X11271611Y-13180555D02*
X11262087Y-13161508D01*
X11262087Y-13161508D02*
X11243039Y-13132936D01*
X11243039Y-13132936D02*
X11233515Y-13123412D01*
X4448211Y-13651211D02*
X4448211Y-13509789D01*
X4306789Y-13509789D01*
X4306789Y-13651211D01*
X4448211Y-13651211D01*
X4719229Y-13471984D02*
X4843039Y-13471984D01*
X4843039Y-13471984D02*
X4776372Y-13548174D01*
X4776372Y-13548174D02*
X4804944Y-13548174D01*
X4804944Y-13548174D02*
X4823991Y-13557698D01*
X4823991Y-13557698D02*
X4833515Y-13567222D01*
X4833515Y-13567222D02*
X4843039Y-13586269D01*
X4843039Y-13586269D02*
X4843039Y-13633888D01*
X4843039Y-13633888D02*
X4833515Y-13652936D01*
X4833515Y-13652936D02*
X4823991Y-13662460D01*
X4823991Y-13662460D02*
X4804944Y-13671984D01*
X4804944Y-13671984D02*
X4747801Y-13671984D01*
X4747801Y-13671984D02*
X4728753Y-13662460D01*
X4728753Y-13662460D02*
X4719229Y-13652936D01*
X4928753Y-13652936D02*
X4938277Y-13662460D01*
X4938277Y-13662460D02*
X4928753Y-13671984D01*
X4928753Y-13671984D02*
X4919229Y-13662460D01*
X4919229Y-13662460D02*
X4928753Y-13652936D01*
X4928753Y-13652936D02*
X4928753Y-13671984D01*
X5014467Y-13491031D02*
X5023991Y-13481508D01*
X5023991Y-13481508D02*
X5043039Y-13471984D01*
X5043039Y-13471984D02*
X5090658Y-13471984D01*
X5090658Y-13471984D02*
X5109705Y-13481508D01*
X5109705Y-13481508D02*
X5119229Y-13491031D01*
X5119229Y-13491031D02*
X5128753Y-13510079D01*
X5128753Y-13510079D02*
X5128753Y-13529127D01*
X5128753Y-13529127D02*
X5119229Y-13557698D01*
X5119229Y-13557698D02*
X5004944Y-13671984D01*
X5004944Y-13671984D02*
X5128753Y-13671984D01*
X5252563Y-13471984D02*
X5271610Y-13471984D01*
X5271610Y-13471984D02*
X5290658Y-13481508D01*
X5290658Y-13481508D02*
X5300182Y-13491031D01*
X5300182Y-13491031D02*
X5309705Y-13510079D01*
X5309705Y-13510079D02*
X5319229Y-13548174D01*
X5319229Y-13548174D02*
X5319229Y-13595793D01*
X5319229Y-13595793D02*
X5309705Y-13633888D01*
X5309705Y-13633888D02*
X5300182Y-13652936D01*
X5300182Y-13652936D02*
X5290658Y-13662460D01*
X5290658Y-13662460D02*
X5271610Y-13671984D01*
X5271610Y-13671984D02*
X5252563Y-13671984D01*
X5252563Y-13671984D02*
X5233515Y-13662460D01*
X5233515Y-13662460D02*
X5223991Y-13652936D01*
X5223991Y-13652936D02*
X5214467Y-13633888D01*
X5214467Y-13633888D02*
X5204944Y-13595793D01*
X5204944Y-13595793D02*
X5204944Y-13548174D01*
X5204944Y-13548174D02*
X5214467Y-13510079D01*
X5214467Y-13510079D02*
X5223991Y-13491031D01*
X5223991Y-13491031D02*
X5233515Y-13481508D01*
X5233515Y-13481508D02*
X5252563Y-13471984D01*
X5443039Y-13471984D02*
X5462086Y-13471984D01*
X5462086Y-13471984D02*
X5481134Y-13481508D01*
X5481134Y-13481508D02*
X5490658Y-13491031D01*
X5490658Y-13491031D02*
X5500182Y-13510079D01*
X5500182Y-13510079D02*
X5509705Y-13548174D01*
X5509705Y-13548174D02*
X5509705Y-13595793D01*
X5509705Y-13595793D02*
X5500182Y-13633888D01*
X5500182Y-13633888D02*
X5490658Y-13652936D01*
X5490658Y-13652936D02*
X5481134Y-13662460D01*
X5481134Y-13662460D02*
X5462086Y-13671984D01*
X5462086Y-13671984D02*
X5443039Y-13671984D01*
X5443039Y-13671984D02*
X5423991Y-13662460D01*
X5423991Y-13662460D02*
X5414467Y-13652936D01*
X5414467Y-13652936D02*
X5404944Y-13633888D01*
X5404944Y-13633888D02*
X5395420Y-13595793D01*
X5395420Y-13595793D02*
X5395420Y-13548174D01*
X5395420Y-13548174D02*
X5404944Y-13510079D01*
X5404944Y-13510079D02*
X5414467Y-13491031D01*
X5414467Y-13491031D02*
X5423991Y-13481508D01*
X5423991Y-13481508D02*
X5443039Y-13471984D01*
X5595420Y-13671984D02*
X5595420Y-13538650D01*
X5595420Y-13557698D02*
X5604943Y-13548174D01*
X5604943Y-13548174D02*
X5623991Y-13538650D01*
X5623991Y-13538650D02*
X5652563Y-13538650D01*
X5652563Y-13538650D02*
X5671610Y-13548174D01*
X5671610Y-13548174D02*
X5681134Y-13567222D01*
X5681134Y-13567222D02*
X5681134Y-13671984D01*
X5681134Y-13567222D02*
X5690658Y-13548174D01*
X5690658Y-13548174D02*
X5709705Y-13538650D01*
X5709705Y-13538650D02*
X5738277Y-13538650D01*
X5738277Y-13538650D02*
X5757324Y-13548174D01*
X5757324Y-13548174D02*
X5766848Y-13567222D01*
X5766848Y-13567222D02*
X5766848Y-13671984D01*
X5862086Y-13671984D02*
X5862086Y-13538650D01*
X5862086Y-13557698D02*
X5871610Y-13548174D01*
X5871610Y-13548174D02*
X5890658Y-13538650D01*
X5890658Y-13538650D02*
X5919229Y-13538650D01*
X5919229Y-13538650D02*
X5938277Y-13548174D01*
X5938277Y-13548174D02*
X5947801Y-13567222D01*
X5947801Y-13567222D02*
X5947801Y-13671984D01*
X5947801Y-13567222D02*
X5957324Y-13548174D01*
X5957324Y-13548174D02*
X5976372Y-13538650D01*
X5976372Y-13538650D02*
X6004943Y-13538650D01*
X6004943Y-13538650D02*
X6023991Y-13548174D01*
X6023991Y-13548174D02*
X6033515Y-13567222D01*
X6033515Y-13567222D02*
X6033515Y-13671984D01*
X6423991Y-13462460D02*
X6252563Y-13719603D01*
X6681134Y-13471984D02*
X6700182Y-13471984D01*
X6700182Y-13471984D02*
X6719229Y-13481508D01*
X6719229Y-13481508D02*
X6728753Y-13491031D01*
X6728753Y-13491031D02*
X6738277Y-13510079D01*
X6738277Y-13510079D02*
X6747801Y-13548174D01*
X6747801Y-13548174D02*
X6747801Y-13595793D01*
X6747801Y-13595793D02*
X6738277Y-13633888D01*
X6738277Y-13633888D02*
X6728753Y-13652936D01*
X6728753Y-13652936D02*
X6719229Y-13662460D01*
X6719229Y-13662460D02*
X6700182Y-13671984D01*
X6700182Y-13671984D02*
X6681134Y-13671984D01*
X6681134Y-13671984D02*
X6662086Y-13662460D01*
X6662086Y-13662460D02*
X6652563Y-13652936D01*
X6652563Y-13652936D02*
X6643039Y-13633888D01*
X6643039Y-13633888D02*
X6633515Y-13595793D01*
X6633515Y-13595793D02*
X6633515Y-13548174D01*
X6633515Y-13548174D02*
X6643039Y-13510079D01*
X6643039Y-13510079D02*
X6652563Y-13491031D01*
X6652563Y-13491031D02*
X6662086Y-13481508D01*
X6662086Y-13481508D02*
X6681134Y-13471984D01*
X6833515Y-13652936D02*
X6843039Y-13662460D01*
X6843039Y-13662460D02*
X6833515Y-13671984D01*
X6833515Y-13671984D02*
X6823991Y-13662460D01*
X6823991Y-13662460D02*
X6833515Y-13652936D01*
X6833515Y-13652936D02*
X6833515Y-13671984D01*
X7033515Y-13671984D02*
X6919229Y-13671984D01*
X6976372Y-13671984D02*
X6976372Y-13471984D01*
X6976372Y-13471984D02*
X6957325Y-13500555D01*
X6957325Y-13500555D02*
X6938277Y-13519603D01*
X6938277Y-13519603D02*
X6919229Y-13529127D01*
X7109706Y-13491031D02*
X7119229Y-13481508D01*
X7119229Y-13481508D02*
X7138277Y-13471984D01*
X7138277Y-13471984D02*
X7185896Y-13471984D01*
X7185896Y-13471984D02*
X7204944Y-13481508D01*
X7204944Y-13481508D02*
X7214467Y-13491031D01*
X7214467Y-13491031D02*
X7223991Y-13510079D01*
X7223991Y-13510079D02*
X7223991Y-13529127D01*
X7223991Y-13529127D02*
X7214467Y-13557698D01*
X7214467Y-13557698D02*
X7100182Y-13671984D01*
X7100182Y-13671984D02*
X7223991Y-13671984D01*
X7395420Y-13471984D02*
X7357325Y-13471984D01*
X7357325Y-13471984D02*
X7338277Y-13481508D01*
X7338277Y-13481508D02*
X7328753Y-13491031D01*
X7328753Y-13491031D02*
X7309706Y-13519603D01*
X7309706Y-13519603D02*
X7300182Y-13557698D01*
X7300182Y-13557698D02*
X7300182Y-13633888D01*
X7300182Y-13633888D02*
X7309706Y-13652936D01*
X7309706Y-13652936D02*
X7319229Y-13662460D01*
X7319229Y-13662460D02*
X7338277Y-13671984D01*
X7338277Y-13671984D02*
X7376372Y-13671984D01*
X7376372Y-13671984D02*
X7395420Y-13662460D01*
X7395420Y-13662460D02*
X7404944Y-13652936D01*
X7404944Y-13652936D02*
X7414467Y-13633888D01*
X7414467Y-13633888D02*
X7414467Y-13586269D01*
X7414467Y-13586269D02*
X7404944Y-13567222D01*
X7404944Y-13567222D02*
X7395420Y-13557698D01*
X7395420Y-13557698D02*
X7376372Y-13548174D01*
X7376372Y-13548174D02*
X7338277Y-13548174D01*
X7338277Y-13548174D02*
X7319229Y-13557698D01*
X7319229Y-13557698D02*
X7309706Y-13567222D01*
X7309706Y-13567222D02*
X7300182Y-13586269D01*
X7538277Y-13471984D02*
X7557325Y-13471984D01*
X7557325Y-13471984D02*
X7576372Y-13481508D01*
X7576372Y-13481508D02*
X7585896Y-13491031D01*
X7585896Y-13491031D02*
X7595420Y-13510079D01*
X7595420Y-13510079D02*
X7604944Y-13548174D01*
X7604944Y-13548174D02*
X7604944Y-13595793D01*
X7604944Y-13595793D02*
X7595420Y-13633888D01*
X7595420Y-13633888D02*
X7585896Y-13652936D01*
X7585896Y-13652936D02*
X7576372Y-13662460D01*
X7576372Y-13662460D02*
X7557325Y-13671984D01*
X7557325Y-13671984D02*
X7538277Y-13671984D01*
X7538277Y-13671984D02*
X7519229Y-13662460D01*
X7519229Y-13662460D02*
X7509706Y-13652936D01*
X7509706Y-13652936D02*
X7500182Y-13633888D01*
X7500182Y-13633888D02*
X7490658Y-13595793D01*
X7490658Y-13595793D02*
X7490658Y-13548174D01*
X7490658Y-13548174D02*
X7500182Y-13510079D01*
X7500182Y-13510079D02*
X7509706Y-13491031D01*
X7509706Y-13491031D02*
X7519229Y-13481508D01*
X7519229Y-13481508D02*
X7538277Y-13471984D01*
X7681134Y-13471984D02*
X7681134Y-13510079D01*
X7757325Y-13471984D02*
X7757325Y-13510079D01*
X8052563Y-13748174D02*
X8043039Y-13738650D01*
X8043039Y-13738650D02*
X8023991Y-13710079D01*
X8023991Y-13710079D02*
X8014468Y-13691031D01*
X8014468Y-13691031D02*
X8004944Y-13662460D01*
X8004944Y-13662460D02*
X7995420Y-13614841D01*
X7995420Y-13614841D02*
X7995420Y-13576746D01*
X7995420Y-13576746D02*
X8004944Y-13529127D01*
X8004944Y-13529127D02*
X8014468Y-13500555D01*
X8014468Y-13500555D02*
X8023991Y-13481508D01*
X8023991Y-13481508D02*
X8043039Y-13452936D01*
X8043039Y-13452936D02*
X8052563Y-13443412D01*
X8214468Y-13538650D02*
X8214468Y-13671984D01*
X8166848Y-13462460D02*
X8119229Y-13605317D01*
X8119229Y-13605317D02*
X8243039Y-13605317D01*
X8471611Y-13671984D02*
X8471611Y-13471984D01*
X8557325Y-13671984D02*
X8557325Y-13567222D01*
X8557325Y-13567222D02*
X8547801Y-13548174D01*
X8547801Y-13548174D02*
X8528753Y-13538650D01*
X8528753Y-13538650D02*
X8500182Y-13538650D01*
X8500182Y-13538650D02*
X8481134Y-13548174D01*
X8481134Y-13548174D02*
X8471611Y-13557698D01*
X8681134Y-13671984D02*
X8662087Y-13662460D01*
X8662087Y-13662460D02*
X8652563Y-13652936D01*
X8652563Y-13652936D02*
X8643039Y-13633888D01*
X8643039Y-13633888D02*
X8643039Y-13576746D01*
X8643039Y-13576746D02*
X8652563Y-13557698D01*
X8652563Y-13557698D02*
X8662087Y-13548174D01*
X8662087Y-13548174D02*
X8681134Y-13538650D01*
X8681134Y-13538650D02*
X8709706Y-13538650D01*
X8709706Y-13538650D02*
X8728753Y-13548174D01*
X8728753Y-13548174D02*
X8738277Y-13557698D01*
X8738277Y-13557698D02*
X8747801Y-13576746D01*
X8747801Y-13576746D02*
X8747801Y-13633888D01*
X8747801Y-13633888D02*
X8738277Y-13652936D01*
X8738277Y-13652936D02*
X8728753Y-13662460D01*
X8728753Y-13662460D02*
X8709706Y-13671984D01*
X8709706Y-13671984D02*
X8681134Y-13671984D01*
X8862087Y-13671984D02*
X8843039Y-13662460D01*
X8843039Y-13662460D02*
X8833515Y-13643412D01*
X8833515Y-13643412D02*
X8833515Y-13471984D01*
X9014468Y-13662460D02*
X8995420Y-13671984D01*
X8995420Y-13671984D02*
X8957325Y-13671984D01*
X8957325Y-13671984D02*
X8938277Y-13662460D01*
X8938277Y-13662460D02*
X8928753Y-13643412D01*
X8928753Y-13643412D02*
X8928753Y-13567222D01*
X8928753Y-13567222D02*
X8938277Y-13548174D01*
X8938277Y-13548174D02*
X8957325Y-13538650D01*
X8957325Y-13538650D02*
X8995420Y-13538650D01*
X8995420Y-13538650D02*
X9014468Y-13548174D01*
X9014468Y-13548174D02*
X9023992Y-13567222D01*
X9023992Y-13567222D02*
X9023992Y-13586269D01*
X9023992Y-13586269D02*
X8928753Y-13605317D01*
X9100182Y-13662460D02*
X9119230Y-13671984D01*
X9119230Y-13671984D02*
X9157325Y-13671984D01*
X9157325Y-13671984D02*
X9176373Y-13662460D01*
X9176373Y-13662460D02*
X9185896Y-13643412D01*
X9185896Y-13643412D02*
X9185896Y-13633888D01*
X9185896Y-13633888D02*
X9176373Y-13614841D01*
X9176373Y-13614841D02*
X9157325Y-13605317D01*
X9157325Y-13605317D02*
X9128753Y-13605317D01*
X9128753Y-13605317D02*
X9109706Y-13595793D01*
X9109706Y-13595793D02*
X9100182Y-13576746D01*
X9100182Y-13576746D02*
X9100182Y-13567222D01*
X9100182Y-13567222D02*
X9109706Y-13548174D01*
X9109706Y-13548174D02*
X9128753Y-13538650D01*
X9128753Y-13538650D02*
X9157325Y-13538650D01*
X9157325Y-13538650D02*
X9176373Y-13548174D01*
X9252563Y-13748174D02*
X9262087Y-13738650D01*
X9262087Y-13738650D02*
X9281134Y-13710079D01*
X9281134Y-13710079D02*
X9290658Y-13691031D01*
X9290658Y-13691031D02*
X9300182Y-13662460D01*
X9300182Y-13662460D02*
X9309706Y-13614841D01*
X9309706Y-13614841D02*
X9309706Y-13576746D01*
X9309706Y-13576746D02*
X9300182Y-13529127D01*
X9300182Y-13529127D02*
X9290658Y-13500555D01*
X9290658Y-13500555D02*
X9281134Y-13481508D01*
X9281134Y-13481508D02*
X9262087Y-13452936D01*
X9262087Y-13452936D02*
X9252563Y-13443412D01*
X9614468Y-13748174D02*
X9604944Y-13738650D01*
X9604944Y-13738650D02*
X9585896Y-13710079D01*
X9585896Y-13710079D02*
X9576373Y-13691031D01*
X9576373Y-13691031D02*
X9566849Y-13662460D01*
X9566849Y-13662460D02*
X9557325Y-13614841D01*
X9557325Y-13614841D02*
X9557325Y-13576746D01*
X9557325Y-13576746D02*
X9566849Y-13529127D01*
X9566849Y-13529127D02*
X9576373Y-13500555D01*
X9576373Y-13500555D02*
X9585896Y-13481508D01*
X9585896Y-13481508D02*
X9604944Y-13452936D01*
X9604944Y-13452936D02*
X9614468Y-13443412D01*
X9690658Y-13538650D02*
X9690658Y-13671984D01*
X9690658Y-13557698D02*
X9700182Y-13548174D01*
X9700182Y-13548174D02*
X9719230Y-13538650D01*
X9719230Y-13538650D02*
X9747801Y-13538650D01*
X9747801Y-13538650D02*
X9766849Y-13548174D01*
X9766849Y-13548174D02*
X9776373Y-13567222D01*
X9776373Y-13567222D02*
X9776373Y-13671984D01*
X9900182Y-13671984D02*
X9881134Y-13662460D01*
X9881134Y-13662460D02*
X9871611Y-13652936D01*
X9871611Y-13652936D02*
X9862087Y-13633888D01*
X9862087Y-13633888D02*
X9862087Y-13576746D01*
X9862087Y-13576746D02*
X9871611Y-13557698D01*
X9871611Y-13557698D02*
X9881134Y-13548174D01*
X9881134Y-13548174D02*
X9900182Y-13538650D01*
X9900182Y-13538650D02*
X9928754Y-13538650D01*
X9928754Y-13538650D02*
X9947801Y-13548174D01*
X9947801Y-13548174D02*
X9957325Y-13557698D01*
X9957325Y-13557698D02*
X9966849Y-13576746D01*
X9966849Y-13576746D02*
X9966849Y-13633888D01*
X9966849Y-13633888D02*
X9957325Y-13652936D01*
X9957325Y-13652936D02*
X9947801Y-13662460D01*
X9947801Y-13662460D02*
X9928754Y-13671984D01*
X9928754Y-13671984D02*
X9900182Y-13671984D01*
X10023992Y-13538650D02*
X10100182Y-13538650D01*
X10052563Y-13471984D02*
X10052563Y-13643412D01*
X10052563Y-13643412D02*
X10062087Y-13662460D01*
X10062087Y-13662460D02*
X10081134Y-13671984D01*
X10081134Y-13671984D02*
X10100182Y-13671984D01*
X10319230Y-13538650D02*
X10319230Y-13738650D01*
X10319230Y-13548174D02*
X10338277Y-13538650D01*
X10338277Y-13538650D02*
X10376373Y-13538650D01*
X10376373Y-13538650D02*
X10395420Y-13548174D01*
X10395420Y-13548174D02*
X10404944Y-13557698D01*
X10404944Y-13557698D02*
X10414468Y-13576746D01*
X10414468Y-13576746D02*
X10414468Y-13633888D01*
X10414468Y-13633888D02*
X10404944Y-13652936D01*
X10404944Y-13652936D02*
X10395420Y-13662460D01*
X10395420Y-13662460D02*
X10376373Y-13671984D01*
X10376373Y-13671984D02*
X10338277Y-13671984D01*
X10338277Y-13671984D02*
X10319230Y-13662460D01*
X10528754Y-13671984D02*
X10509706Y-13662460D01*
X10509706Y-13662460D02*
X10500182Y-13643412D01*
X10500182Y-13643412D02*
X10500182Y-13471984D01*
X10690658Y-13671984D02*
X10690658Y-13567222D01*
X10690658Y-13567222D02*
X10681135Y-13548174D01*
X10681135Y-13548174D02*
X10662087Y-13538650D01*
X10662087Y-13538650D02*
X10623992Y-13538650D01*
X10623992Y-13538650D02*
X10604944Y-13548174D01*
X10690658Y-13662460D02*
X10671611Y-13671984D01*
X10671611Y-13671984D02*
X10623992Y-13671984D01*
X10623992Y-13671984D02*
X10604944Y-13662460D01*
X10604944Y-13662460D02*
X10595420Y-13643412D01*
X10595420Y-13643412D02*
X10595420Y-13624365D01*
X10595420Y-13624365D02*
X10604944Y-13605317D01*
X10604944Y-13605317D02*
X10623992Y-13595793D01*
X10623992Y-13595793D02*
X10671611Y-13595793D01*
X10671611Y-13595793D02*
X10690658Y-13586269D01*
X10757325Y-13538650D02*
X10833515Y-13538650D01*
X10785896Y-13471984D02*
X10785896Y-13643412D01*
X10785896Y-13643412D02*
X10795420Y-13662460D01*
X10795420Y-13662460D02*
X10814468Y-13671984D01*
X10814468Y-13671984D02*
X10833515Y-13671984D01*
X10976373Y-13662460D02*
X10957325Y-13671984D01*
X10957325Y-13671984D02*
X10919230Y-13671984D01*
X10919230Y-13671984D02*
X10900182Y-13662460D01*
X10900182Y-13662460D02*
X10890658Y-13643412D01*
X10890658Y-13643412D02*
X10890658Y-13567222D01*
X10890658Y-13567222D02*
X10900182Y-13548174D01*
X10900182Y-13548174D02*
X10919230Y-13538650D01*
X10919230Y-13538650D02*
X10957325Y-13538650D01*
X10957325Y-13538650D02*
X10976373Y-13548174D01*
X10976373Y-13548174D02*
X10985896Y-13567222D01*
X10985896Y-13567222D02*
X10985896Y-13586269D01*
X10985896Y-13586269D02*
X10890658Y-13605317D01*
X11157325Y-13671984D02*
X11157325Y-13471984D01*
X11157325Y-13662460D02*
X11138277Y-13671984D01*
X11138277Y-13671984D02*
X11100182Y-13671984D01*
X11100182Y-13671984D02*
X11081135Y-13662460D01*
X11081135Y-13662460D02*
X11071611Y-13652936D01*
X11071611Y-13652936D02*
X11062087Y-13633888D01*
X11062087Y-13633888D02*
X11062087Y-13576746D01*
X11062087Y-13576746D02*
X11071611Y-13557698D01*
X11071611Y-13557698D02*
X11081135Y-13548174D01*
X11081135Y-13548174D02*
X11100182Y-13538650D01*
X11100182Y-13538650D02*
X11138277Y-13538650D01*
X11138277Y-13538650D02*
X11157325Y-13548174D01*
X11233515Y-13748174D02*
X11243039Y-13738650D01*
X11243039Y-13738650D02*
X11262087Y-13710079D01*
X11262087Y-13710079D02*
X11271611Y-13691031D01*
X11271611Y-13691031D02*
X11281134Y-13662460D01*
X11281134Y-13662460D02*
X11290658Y-13614841D01*
X11290658Y-13614841D02*
X11290658Y-13576746D01*
X11290658Y-13576746D02*
X11281134Y-13529127D01*
X11281134Y-13529127D02*
X11271611Y-13500555D01*
X11271611Y-13500555D02*
X11262087Y-13481508D01*
X11262087Y-13481508D02*
X11243039Y-13452936D01*
X11243039Y-13452936D02*
X11233515Y-13443412D01*
M02*
