M48
; DRILL file {KiCad 9.0.7} date 2026-01-18T23:42:21-0800
; FORMAT={-:-/ absolute / metric / decimal}
; #@! TF.CreationDate,2026-01-18T23:42:21-08:00
; #@! TF.GenerationSoftware,Kicad,Pcbnew,9.0.7
; #@! TF.FileFunction,Plated,1,2,PTH
FMAT,2
METRIC
; #@! TA.AperFunction,Plated,PTH,ViaDrill
T1C0.300
; #@! TA.AperFunction,Plated,PTH,ComponentDrill
T2C0.550
; #@! TA.AperFunction,Plated,PTH,ComponentDrill
T3C0.850
; #@! TA.AperFunction,Plated,PTH,ComponentDrill
T4C0.889
; #@! TA.AperFunction,Plated,PTH,ComponentDrill
T5C0.900
; #@! TA.AperFunction,Plated,PTH,ComponentDrill
T6C0.950
; #@! TA.AperFunction,Plated,PTH,ComponentDrill
T7C1.000
; #@! TA.AperFunction,Plated,PTH,ComponentDrill
T8C1.100
; #@! TA.AperFunction,Plated,PTH,ComponentDrill
T9C1.200
; #@! TA.AperFunction,Plated,PTH,ComponentDrill
T10C1.397
%
G90
G05
T1
X56.09Y-62.97
X56.295Y-64.745
X58.0Y-66.45
X60.65Y-71.05
X61.0Y-54.65
X65.9Y-53.6
X73.45Y-75.4
X80.05Y-26.05
X80.25Y-56.2
X80.35Y-68.75
X84.4Y-42.1
X85.8Y-40.7
X93.15Y-55.1
X95.75Y-60.3
X99.0Y-60.4
X99.1Y-55.15
X100.25Y-52.45
X106.8Y-46.3
X108.18Y-61.82
X109.349Y-60.8
X111.0Y-58.3
X112.55Y-58.25
X113.35Y-58.25
X114.2Y-38.549
X118.05Y-72.0
X122.555Y-58.055
X123.57Y-59.02
X124.55Y-72.2
X129.1Y-89.4
X135.6Y-89.4
X137.44Y-22.56
X137.6Y-34.35
X139.805Y-38.955
X140.6Y-46.3
X141.65Y-40.85
X141.7Y-47.55
X141.749Y-39.699
X143.95Y-40.95
X144.455Y-36.645
X145.062Y-47.438
X146.85Y-49.9
X148.05Y-52.2
X149.086Y-35.651
X149.25Y-39.192
X149.384Y-40.082
X150.1Y-33.25
X150.6Y-76.4
X151.359Y-25.959
X151.5Y-24.9
X152.52Y-70.65
X152.971Y-26.821
X153.25Y-53.9
X153.622Y-49.928
X154.5Y-48.4
X154.95Y-41.6
X154.95Y-70.65
X156.15Y-35.15
X157.1Y-76.4
X157.65Y-34.15
X157.85Y-39.3
X157.95Y-35.15
X158.678Y-50.5
X160.1Y-47.15
X161.2Y-25.4
X161.45Y-43.7
X161.55Y-46.9
X162.3Y-51.1
X162.55Y-25.4
X163.0Y-46.8
X163.7Y-51.1
X164.35Y-41.1
X164.9Y-24.05
X164.9Y-47.05
X166.05Y-24.0
X167.8Y-22.35
X167.8Y-23.35
X170.25Y-18.05
X173.05Y-89.2
X174.381Y-74.381
X175.346Y-75.396
X179.6Y-89.5
X180.85Y-33.65
X180.9Y-36.751
X184.5Y-71.9
X191.05Y-71.7
X207.35Y-104.95
X209.95Y-90.5
X210.5Y-109.6
X215.6Y-90.2
X217.1Y-59.9
X223.25Y-112.2
X228.3Y-26.0
X228.4Y-91.8
X228.8Y-108.65
X229.7Y-59.6
X238.55Y-76.25
X240.3Y-40.8
X253.0Y-40.6
X256.05Y-76.2
X260.15Y-56.7
X277.55Y-56.65
T4
X59.915Y-60.38
X59.915Y-62.92
X59.915Y-65.46
X67.535Y-73.08
X70.075Y-73.08
X72.615Y-73.08
X208.665Y-97.58
X208.665Y-100.12
X208.665Y-102.66
X216.285Y-110.28
X218.825Y-110.28
X221.365Y-110.28
T5
X66.9Y-50.22
X66.9Y-55.3
X73.25Y-50.22
X73.25Y-55.3
X215.65Y-87.42
X215.65Y-92.5
X222.0Y-87.42
X222.0Y-92.5
T6
X73.08Y-26.0
X75.58Y-26.0
X78.08Y-26.0
X221.0Y-26.0
X223.5Y-26.0
X226.0Y-26.0
T7
X137.44Y-20.25
X139.98Y-20.25
X142.52Y-20.25
X145.06Y-20.25
T8
X118.08Y-65.172
X118.08Y-69.672
X124.58Y-65.172
X124.58Y-69.672
X129.08Y-91.672
X129.08Y-96.172
X135.58Y-91.672
X135.58Y-96.172
X150.6Y-69.8
X150.6Y-74.3
X157.1Y-69.8
X157.1Y-74.3
X173.08Y-91.672
X173.08Y-96.172
X179.58Y-91.672
X179.58Y-96.172
X184.58Y-65.172
X184.58Y-69.672
X191.08Y-65.172
X191.08Y-69.672
T9
X217.08Y-51.672
X217.08Y-56.672
X229.58Y-51.672
X229.58Y-56.672
X240.08Y-31.672
X240.08Y-36.672
X241.08Y-71.172
X241.08Y-76.172
X252.58Y-31.672
X252.58Y-36.672
X253.58Y-71.172
X253.58Y-76.172
X262.58Y-51.672
X262.58Y-56.672
X275.08Y-51.672
X275.08Y-56.672
T10
X62.455Y-56.252
X62.455Y-69.587
X77.695Y-56.252
X77.695Y-69.587
X211.205Y-93.453
X211.205Y-106.787
X226.445Y-93.453
X226.445Y-106.787
T2
X150.18Y-19.83G85X150.18Y-19.18
G05
X157.93Y-19.83G85X157.93Y-19.18
G05
T3
X150.33Y-23.58G85X150.33Y-23.03
G05
X157.78Y-23.58G85X157.78Y-23.03
G05
M30
