%TF.GenerationSoftware,KiCad,Pcbnew,10.0.5*%
%TF.CreationDate,2026-09-27T21:25:40-07:00*%
%TF.ProjectId,STM32_HID_controller,53544d33-325f-4484-9944-5f636f6e7472,rev?*%
%TF.SameCoordinates,Original*%
%TF.FileFunction,Paste,Top*%
%TF.FilePolarity,Positive*%
%FSLAX46Y46*%
G04 Gerber Fmt 4.6, Leading zero omitted, Abs format (unit mm)*
G04 Created by KiCad (PCBNEW 10.0.5) date 2026-09-27 21:25:40*
%MOMM*%
%LPD*%
G01*
G04 APERTURE LIST*
G04 Aperture macros list*
%AMRoundRect*
0 Rectangle with rounded corners*
0 $1 Rounding radius*
0 $2 $3 $4 $5 $6 $7 $8 $9 X,Y pos of 4 corners*
0 Add a 4 corners polygon primitive as box body*
4,1,4,$2,$3,$4,$5,$6,$7,$8,$9,$2,$3,0*
0 Add four circle primitives for the rounded corners*
1,1,$1+$1,$2,$3*
1,1,$1+$1,$4,$5*
1,1,$1+$1,$6,$7*
1,1,$1+$1,$8,$9*
0 Add four rect primitives between the rounded corners*
20,1,$1+$1,$2,$3,$4,$5,0*
20,1,$1+$1,$4,$5,$6,$7,0*
20,1,$1+$1,$6,$7,$8,$9,0*
20,1,$1+$1,$8,$9,$2,$3,0*%
G04 Aperture macros list end*
%ADD10RoundRect,0.375000X-0.625000X-0.375000X0.625000X-0.375000X0.625000X0.375000X-0.625000X0.375000X0*%
%ADD11RoundRect,0.500000X-0.500000X-1.400000X0.500000X-1.400000X0.500000X1.400000X-0.500000X1.400000X0*%
%ADD12R,0.635000X0.355600*%
%ADD13R,0.355600X0.635000*%
%ADD14RoundRect,0.135000X0.135000X0.185000X-0.135000X0.185000X-0.135000X-0.185000X0.135000X-0.185000X0*%
%ADD15RoundRect,0.135000X-0.135000X-0.185000X0.135000X-0.185000X0.135000X0.185000X-0.135000X0.185000X0*%
%ADD16RoundRect,0.140000X0.170000X-0.140000X0.170000X0.140000X-0.170000X0.140000X-0.170000X-0.140000X0*%
%ADD17RoundRect,0.079500X-0.100500X0.079500X-0.100500X-0.079500X0.100500X-0.079500X0.100500X0.079500X0*%
%ADD18RoundRect,0.225000X0.225000X0.250000X-0.225000X0.250000X-0.225000X-0.250000X0.225000X-0.250000X0*%
%ADD19RoundRect,0.140000X0.140000X0.170000X-0.140000X0.170000X-0.140000X-0.170000X0.140000X-0.170000X0*%
%ADD20RoundRect,0.140000X-0.170000X0.140000X-0.170000X-0.140000X0.170000X-0.140000X0.170000X0.140000X0*%
%ADD21RoundRect,0.140000X-0.140000X-0.170000X0.140000X-0.170000X0.140000X0.170000X-0.140000X0.170000X0*%
%ADD22RoundRect,0.250000X0.475000X-0.250000X0.475000X0.250000X-0.475000X0.250000X-0.475000X-0.250000X0*%
%ADD23RoundRect,0.218750X-0.218750X-0.256250X0.218750X-0.256250X0.218750X0.256250X-0.218750X0.256250X0*%
%ADD24R,0.450000X1.300000*%
%ADD25RoundRect,0.250000X-0.450000X-0.350000X0.450000X-0.350000X0.450000X0.350000X-0.450000X0.350000X0*%
%ADD26RoundRect,0.075000X0.075000X-0.700000X0.075000X0.700000X-0.075000X0.700000X-0.075000X-0.700000X0*%
%ADD27RoundRect,0.075000X0.700000X-0.075000X0.700000X0.075000X-0.700000X0.075000X-0.700000X-0.075000X0*%
%ADD28RoundRect,0.250000X0.250000X0.475000X-0.250000X0.475000X-0.250000X-0.475000X0.250000X-0.475000X0*%
%ADD29R,0.800000X1.000000*%
%ADD30R,1.500000X0.700000*%
%ADD31RoundRect,0.150000X0.150000X-0.512500X0.150000X0.512500X-0.150000X0.512500X-0.150000X-0.512500X0*%
G04 APERTURE END LIST*
D10*
%TO.C,U2*%
X165850000Y-25850000D03*
X165850000Y-28150000D03*
D11*
X172150000Y-28150000D03*
D10*
X165850000Y-30450000D03*
%TD*%
D12*
%TO.C,U7*%
X94293500Y-53749999D03*
X94293500Y-54250000D03*
X94293500Y-54750000D03*
X94293500Y-55250001D03*
D13*
X95000001Y-55452500D03*
X95500000Y-55452500D03*
X95999999Y-55452500D03*
D12*
X96706500Y-55250001D03*
X96706500Y-54750000D03*
X96706500Y-54250000D03*
X96706500Y-53749999D03*
D13*
X95999999Y-53547500D03*
X95500000Y-53547500D03*
X95000001Y-53547500D03*
%TD*%
D14*
%TO.C,R4*%
X96510000Y-51500000D03*
X95490000Y-51500000D03*
%TD*%
D15*
%TO.C,R3*%
X93490000Y-51500000D03*
X94510000Y-51500000D03*
%TD*%
D16*
%TO.C,C22*%
X99500000Y-55980000D03*
X99500000Y-55020000D03*
%TD*%
D17*
%TO.C,C24*%
X98500000Y-55155000D03*
X98500000Y-55845000D03*
%TD*%
D18*
%TO.C,C21*%
X163275000Y-34500000D03*
X161725000Y-34500000D03*
%TD*%
D16*
%TO.C,C1*%
X145000000Y-42130000D03*
X145000000Y-41170000D03*
%TD*%
D19*
%TO.C,C9*%
X160480000Y-50500000D03*
X159520000Y-50500000D03*
%TD*%
D20*
%TO.C,C15*%
X141700000Y-45600000D03*
X141700000Y-46560000D03*
%TD*%
D21*
%TO.C,C12*%
X151349000Y-49928435D03*
X152309000Y-49928435D03*
%TD*%
%TO.C,C3*%
X159520000Y-32500000D03*
X160480000Y-32500000D03*
%TD*%
%TO.C,C2*%
X149585000Y-29487500D03*
X150545000Y-29487500D03*
%TD*%
D22*
%TO.C,C14*%
X161850000Y-28550000D03*
X161850000Y-26650000D03*
%TD*%
D19*
%TO.C,C11*%
X148930000Y-49900000D03*
X147970000Y-49900000D03*
%TD*%
D15*
%TO.C,R2*%
X168340000Y-18050000D03*
X169360000Y-18050000D03*
%TD*%
D21*
%TO.C,C10*%
X152470000Y-48400000D03*
X153430000Y-48400000D03*
%TD*%
D23*
%TO.C,D1*%
X168212500Y-20400000D03*
X169787500Y-20400000D03*
%TD*%
D18*
%TO.C,C6*%
X147800000Y-47437500D03*
X146250000Y-47437500D03*
%TD*%
D24*
%TO.C,J1*%
X155355000Y-23355000D03*
X154705000Y-23355000D03*
X154055000Y-23355000D03*
X153405000Y-23355000D03*
X152755000Y-23355000D03*
%TD*%
D19*
%TO.C,C5*%
X147530000Y-44750000D03*
X146570000Y-44750000D03*
%TD*%
D25*
%TO.C,Y1*%
X149599000Y-53878435D03*
X151799000Y-53878435D03*
X151799000Y-52178435D03*
X149599000Y-52178435D03*
%TD*%
D26*
%TO.C,U1*%
X149850000Y-43075000D03*
X150350000Y-43075000D03*
X150850000Y-43075000D03*
X151350000Y-43075000D03*
X151850000Y-43075000D03*
X152350000Y-43075000D03*
X152850000Y-43075000D03*
X153350000Y-43075000D03*
X153850000Y-43075000D03*
X154350000Y-43075000D03*
X154850000Y-43075000D03*
X155350000Y-43075000D03*
X155850000Y-43075000D03*
X156350000Y-43075000D03*
X156850000Y-43075000D03*
X157350000Y-43075000D03*
D27*
X159275000Y-41150000D03*
X159275000Y-40650000D03*
X159275000Y-40150000D03*
X159275000Y-39650000D03*
X159275000Y-39150000D03*
X159275000Y-38650000D03*
X159275000Y-38150000D03*
X159275000Y-37650000D03*
X159275000Y-37150000D03*
X159275000Y-36650000D03*
X159275000Y-36150000D03*
X159275000Y-35650000D03*
X159275000Y-35150000D03*
X159275000Y-34650000D03*
X159275000Y-34150000D03*
X159275000Y-33650000D03*
D26*
X157350000Y-31725000D03*
X156850000Y-31725000D03*
X156350000Y-31725000D03*
X155850000Y-31725000D03*
X155350000Y-31725000D03*
X154850000Y-31725000D03*
X154350000Y-31725000D03*
X153850000Y-31725000D03*
X153350000Y-31725000D03*
X152850000Y-31725000D03*
X152350000Y-31725000D03*
X151850000Y-31725000D03*
X151350000Y-31725000D03*
X150850000Y-31725000D03*
X150350000Y-31725000D03*
X149850000Y-31725000D03*
D27*
X147925000Y-33650000D03*
X147925000Y-34150000D03*
X147925000Y-34650000D03*
X147925000Y-35150000D03*
X147925000Y-35650000D03*
X147925000Y-36150000D03*
X147925000Y-36650000D03*
X147925000Y-37150000D03*
X147925000Y-37650000D03*
X147925000Y-38150000D03*
X147925000Y-38650000D03*
X147925000Y-39150000D03*
X147925000Y-39650000D03*
X147925000Y-40150000D03*
X147925000Y-40650000D03*
X147925000Y-41150000D03*
%TD*%
D19*
%TO.C,C7*%
X159150000Y-45650000D03*
X158190000Y-45650000D03*
%TD*%
D16*
%TO.C,C16*%
X141650000Y-42980000D03*
X141650000Y-42020000D03*
%TD*%
%TO.C,C18*%
X164350000Y-43110000D03*
X164350000Y-42150000D03*
%TD*%
D28*
%TO.C,C13*%
X171150000Y-22750000D03*
X169250000Y-22750000D03*
%TD*%
D29*
%TO.C,SW1*%
X135205000Y-33000000D03*
X132995000Y-33000000D03*
X135205000Y-40300000D03*
X132995000Y-40300000D03*
D30*
X135855000Y-34400000D03*
X135855000Y-37400000D03*
X135855000Y-38900000D03*
%TD*%
D20*
%TO.C,C4*%
X161450000Y-41740000D03*
X161450000Y-42700000D03*
%TD*%
D21*
%TO.C,C8*%
X158348260Y-47150000D03*
X159308260Y-47150000D03*
%TD*%
D23*
%TO.C,FB1*%
X158940760Y-48900000D03*
X160515760Y-48900000D03*
%TD*%
D20*
%TO.C,C17*%
X164150000Y-45220000D03*
X164150000Y-46180000D03*
%TD*%
D15*
%TO.C,R1*%
X139415000Y-37700000D03*
X140435000Y-37700000D03*
%TD*%
D31*
%TO.C,U3*%
X152550000Y-28637500D03*
X153500000Y-28637500D03*
X154450000Y-28637500D03*
X154450000Y-26362500D03*
X153500000Y-26362500D03*
X152550000Y-26362500D03*
%TD*%
D21*
%TO.C,C23*%
X93520000Y-57500000D03*
X94480000Y-57500000D03*
%TD*%
M02*
