%TF.GenerationSoftware,KiCad,Pcbnew,9.0.7*%
%TF.CreationDate,2026-01-18T23:39:19-08:00*%
%TF.ProjectId,STM32_HID_controller,53544d33-325f-4484-9944-5f636f6e7472,rev?*%
%TF.SameCoordinates,Original*%
%TF.FileFunction,Soldermask,Top*%
%TF.FilePolarity,Negative*%
%FSLAX46Y46*%
G04 Gerber Fmt 4.6, Leading zero omitted, Abs format (unit mm)*
G04 Created by KiCad (PCBNEW 9.0.7) date 2026-01-18 23:39:19*
%MOMM*%
%LPD*%
G01*
G04 APERTURE LIST*
G04 Aperture macros list*
%AMRoundRect*
0 Rectangle with rounded corners*
0 $1 Rounding radius*
0 $2 $3 $4 $5 $6 $7 $8 $9 X,Y pos of 4 corners*
0 Add a 4 corners polygon primitive as box body*
4,1,4,$2,$3,$4,$5,$6,$7,$8,$9,$2,$3,0*
0 Add four circle primitives for the rounded corners*
1,1,$1+$1,$2,$3*
1,1,$1+$1,$4,$5*
1,1,$1+$1,$6,$7*
1,1,$1+$1,$8,$9*
0 Add four rect primitives between the rounded corners*
20,1,$1+$1,$2,$3,$4,$5,0*
20,1,$1+$1,$4,$5,$6,$7,0*
20,1,$1+$1,$6,$7,$8,$9,0*
20,1,$1+$1,$8,$9,$2,$3,0*%
G04 Aperture macros list end*
%ADD10RoundRect,0.075000X-0.350000X-0.075000X0.350000X-0.075000X0.350000X0.075000X-0.350000X0.075000X0*%
%ADD11RoundRect,0.075000X0.075000X-0.350000X0.075000X0.350000X-0.075000X0.350000X-0.075000X-0.350000X0*%
%ADD12RoundRect,0.135000X0.135000X0.185000X-0.135000X0.185000X-0.135000X-0.185000X0.135000X-0.185000X0*%
%ADD13RoundRect,0.135000X-0.135000X-0.185000X0.135000X-0.185000X0.135000X0.185000X-0.135000X0.185000X0*%
%ADD14RoundRect,0.140000X-0.140000X-0.170000X0.140000X-0.170000X0.140000X0.170000X-0.140000X0.170000X0*%
%ADD15C,2.200000*%
%ADD16C,3.200000*%
%ADD17O,1.150000X1.800000*%
%ADD18O,1.450000X2.000000*%
%ADD19R,0.450000X1.300000*%
%ADD20O,0.800000X0.800000*%
%ADD21R,1.500000X0.700000*%
%ADD22R,0.800000X1.000000*%
%ADD23C,0.900000*%
%ADD24RoundRect,0.075000X0.700000X-0.075000X0.700000X0.075000X-0.700000X0.075000X-0.700000X-0.075000X0*%
%ADD25RoundRect,0.075000X0.075000X-0.700000X0.075000X0.700000X-0.075000X0.700000X-0.075000X-0.700000X0*%
%ADD26C,1.982000*%
%ADD27C,2.490000*%
%ADD28RoundRect,0.140000X0.170000X-0.140000X0.170000X0.140000X-0.170000X0.140000X-0.170000X-0.140000X0*%
%ADD29RoundRect,0.140000X0.140000X0.170000X-0.140000X0.170000X-0.140000X-0.170000X0.140000X-0.170000X0*%
%ADD30RoundRect,0.140000X-0.170000X0.140000X-0.170000X-0.140000X0.170000X-0.140000X0.170000X0.140000X0*%
%ADD31RoundRect,0.250000X-0.600000X-0.725000X0.600000X-0.725000X0.600000X0.725000X-0.600000X0.725000X0*%
%ADD32O,1.700000X1.950000*%
%ADD33RoundRect,0.375000X-0.625000X-0.375000X0.625000X-0.375000X0.625000X0.375000X-0.625000X0.375000X0*%
%ADD34RoundRect,0.500000X-0.500000X-1.400000X0.500000X-1.400000X0.500000X1.400000X-0.500000X1.400000X0*%
%ADD35C,2.000000*%
%ADD36RoundRect,0.250000X0.475000X-0.250000X0.475000X0.250000X-0.475000X0.250000X-0.475000X-0.250000X0*%
%ADD37RoundRect,0.150000X0.150000X-0.325000X0.150000X0.325000X-0.150000X0.325000X-0.150000X-0.325000X0*%
%ADD38RoundRect,0.150000X0.325000X-0.150000X0.325000X0.150000X-0.325000X0.150000X-0.325000X-0.150000X0*%
%ADD39O,3.000000X2.500000*%
%ADD40RoundRect,0.218750X-0.218750X-0.256250X0.218750X-0.256250X0.218750X0.256250X-0.218750X0.256250X0*%
%ADD41RoundRect,0.225000X0.225000X0.250000X-0.225000X0.250000X-0.225000X-0.250000X0.225000X-0.250000X0*%
%ADD42RoundRect,0.250000X-0.450000X-0.350000X0.450000X-0.350000X0.450000X0.350000X-0.450000X0.350000X0*%
%ADD43R,1.700000X1.700000*%
%ADD44C,1.700000*%
%ADD45RoundRect,0.250000X0.250000X0.475000X-0.250000X0.475000X-0.250000X-0.475000X0.250000X-0.475000X0*%
G04 APERTURE END LIST*
D10*
%TO.C,U7*%
X94100000Y-55100000D03*
X94100000Y-55600000D03*
X94100000Y-56100000D03*
X94100000Y-56600000D03*
X94100000Y-57100000D03*
X94100000Y-57600000D03*
D11*
X94800000Y-58300000D03*
X95300000Y-58300000D03*
X95800000Y-58300000D03*
X96300000Y-58300000D03*
X96800000Y-58300000D03*
X97300000Y-58300000D03*
D10*
X98000000Y-57600000D03*
X98000000Y-57100000D03*
X98000000Y-56600000D03*
X98000000Y-56100000D03*
X98000000Y-55600000D03*
X98000000Y-55100000D03*
D11*
X97300000Y-54400000D03*
X96800000Y-54400000D03*
X96300000Y-54400000D03*
X95800000Y-54400000D03*
X95300000Y-54400000D03*
X94800000Y-54400000D03*
%TD*%
D12*
%TO.C,R4*%
X97000000Y-52450000D03*
X95980000Y-52450000D03*
%TD*%
D13*
%TO.C,R3*%
X93590000Y-52450000D03*
X94610000Y-52450000D03*
%TD*%
D14*
%TO.C,C19*%
X98440000Y-52450000D03*
X99400000Y-52450000D03*
%TD*%
D15*
%TO.C,H1*%
X210000000Y-22000000D03*
%TD*%
D16*
%TO.C,H2*%
X51100000Y-115100000D03*
%TD*%
D15*
%TO.C,H3*%
X89000000Y-22000000D03*
%TD*%
D16*
%TO.C,H4*%
X51100000Y-22100000D03*
%TD*%
%TO.C,H5*%
X277100000Y-22100000D03*
%TD*%
%TO.C,H6*%
X277100000Y-115100000D03*
%TD*%
D15*
%TO.C,H7*%
X108000000Y-22000000D03*
%TD*%
%TO.C,H8*%
X191000000Y-22000000D03*
%TD*%
D17*
%TO.C,J1*%
X150180000Y-19505000D03*
D18*
X150330000Y-23305000D03*
X157780000Y-23305000D03*
D17*
X157930000Y-19505000D03*
D19*
X152755000Y-23355000D03*
X153405000Y-23355000D03*
X154055000Y-23355000D03*
X154705000Y-23355000D03*
X155355000Y-23355000D03*
D20*
X151555000Y-22255000D03*
X156555000Y-22255000D03*
%TD*%
D21*
%TO.C,SW1*%
X135855000Y-38900000D03*
X135855000Y-37400000D03*
X135855000Y-34400000D03*
D22*
X132995000Y-40300000D03*
X135205000Y-40300000D03*
D23*
X134095000Y-38150000D03*
X134095000Y-35150000D03*
D22*
X132995000Y-33000000D03*
X135205000Y-33000000D03*
%TD*%
D24*
%TO.C,U1*%
X147925000Y-41150000D03*
X147925000Y-40650000D03*
X147925000Y-40150000D03*
X147925000Y-39650000D03*
X147925000Y-39150000D03*
X147925000Y-38650000D03*
X147925000Y-38150000D03*
X147925000Y-37650000D03*
X147925000Y-37150000D03*
X147925000Y-36650000D03*
X147925000Y-36150000D03*
X147925000Y-35650000D03*
X147925000Y-35150000D03*
X147925000Y-34650000D03*
X147925000Y-34150000D03*
X147925000Y-33650000D03*
D25*
X149850000Y-31725000D03*
X150350000Y-31725000D03*
X150850000Y-31725000D03*
X151350000Y-31725000D03*
X151850000Y-31725000D03*
X152350000Y-31725000D03*
X152850000Y-31725000D03*
X153350000Y-31725000D03*
X153850000Y-31725000D03*
X154350000Y-31725000D03*
X154850000Y-31725000D03*
X155350000Y-31725000D03*
X155850000Y-31725000D03*
X156350000Y-31725000D03*
X156850000Y-31725000D03*
X157350000Y-31725000D03*
D24*
X159275000Y-33650000D03*
X159275000Y-34150000D03*
X159275000Y-34650000D03*
X159275000Y-35150000D03*
X159275000Y-35650000D03*
X159275000Y-36150000D03*
X159275000Y-36650000D03*
X159275000Y-37150000D03*
X159275000Y-37650000D03*
X159275000Y-38150000D03*
X159275000Y-38650000D03*
X159275000Y-39150000D03*
X159275000Y-39650000D03*
X159275000Y-40150000D03*
X159275000Y-40650000D03*
X159275000Y-41150000D03*
D25*
X157350000Y-43075000D03*
X156850000Y-43075000D03*
X156350000Y-43075000D03*
X155850000Y-43075000D03*
X155350000Y-43075000D03*
X154850000Y-43075000D03*
X154350000Y-43075000D03*
X153850000Y-43075000D03*
X153350000Y-43075000D03*
X152850000Y-43075000D03*
X152350000Y-43075000D03*
X151850000Y-43075000D03*
X151350000Y-43075000D03*
X150850000Y-43075000D03*
X150350000Y-43075000D03*
X149850000Y-43075000D03*
%TD*%
D26*
%TO.C,U4*%
X208665000Y-102660000D03*
X208665000Y-100120000D03*
X208665000Y-97580000D03*
D27*
X226445000Y-93452500D03*
X226445000Y-106787500D03*
X211205000Y-106787500D03*
X211205000Y-93452500D03*
D26*
X221365000Y-110280000D03*
X218825000Y-110280000D03*
X216285000Y-110280000D03*
X222000000Y-92500000D03*
X215650000Y-92500000D03*
X222000000Y-87420000D03*
X215650000Y-87420000D03*
%TD*%
%TO.C,U5*%
X59915000Y-65460000D03*
X59915000Y-62920000D03*
X59915000Y-60380000D03*
D27*
X77695000Y-56252500D03*
X77695000Y-69587500D03*
X62455000Y-69587500D03*
X62455000Y-56252500D03*
D26*
X72615000Y-73080000D03*
X70075000Y-73080000D03*
X67535000Y-73080000D03*
X73250000Y-55300000D03*
X66900000Y-55300000D03*
X73250000Y-50220000D03*
X66900000Y-50220000D03*
%TD*%
D28*
%TO.C,C1*%
X145000000Y-42130000D03*
X145000000Y-41170000D03*
%TD*%
D29*
%TO.C,C9*%
X160480000Y-50500000D03*
X159520000Y-50500000D03*
%TD*%
D30*
%TO.C,C15*%
X141700000Y-45600000D03*
X141700000Y-46560000D03*
%TD*%
D31*
%TO.C,J3*%
X221000000Y-26000000D03*
D32*
X223500000Y-26000000D03*
X226000000Y-26000000D03*
%TD*%
D33*
%TO.C,U2*%
X165500000Y-25850000D03*
X165500000Y-28150000D03*
D34*
X171800000Y-28150000D03*
D33*
X165500000Y-30450000D03*
%TD*%
D35*
%TO.C,SW10*%
X184580000Y-65172500D03*
X191080000Y-65172500D03*
X184580000Y-69672500D03*
X191080000Y-69672500D03*
%TD*%
D14*
%TO.C,C12*%
X151349000Y-49928435D03*
X152309000Y-49928435D03*
%TD*%
D30*
%TO.C,C3*%
X161350000Y-33670000D03*
X161350000Y-34630000D03*
%TD*%
D35*
%TO.C,SW14*%
X150600000Y-69800000D03*
X157100000Y-69800000D03*
X150600000Y-74300000D03*
X157100000Y-74300000D03*
%TD*%
D14*
%TO.C,C2*%
X149585000Y-29487500D03*
X150545000Y-29487500D03*
%TD*%
D36*
%TO.C,C14*%
X161850000Y-28550000D03*
X161850000Y-26650000D03*
%TD*%
D31*
%TO.C,J5*%
X73080000Y-26000000D03*
D32*
X75580000Y-26000000D03*
X78080000Y-26000000D03*
%TD*%
D37*
%TO.C,U6*%
X110150000Y-57072500D03*
X110950000Y-57072500D03*
X111750000Y-57072500D03*
X112550000Y-57072500D03*
X113350000Y-57072500D03*
X114150000Y-57072500D03*
D38*
X114150000Y-56072500D03*
D37*
X114150000Y-55072500D03*
X113350000Y-55072500D03*
X112550000Y-55072500D03*
X111750000Y-55072500D03*
X110950000Y-55072500D03*
X110150000Y-55072500D03*
D38*
X110150000Y-56072500D03*
%TD*%
D39*
%TO.C,SW9*%
X217080000Y-51672500D03*
X229580000Y-51672500D03*
X217080000Y-56672500D03*
X229580000Y-56672500D03*
%TD*%
D29*
%TO.C,C11*%
X148930000Y-49900000D03*
X147970000Y-49900000D03*
%TD*%
D13*
%TO.C,R2*%
X168340000Y-18050000D03*
X169360000Y-18050000D03*
%TD*%
D14*
%TO.C,C10*%
X152470000Y-48400000D03*
X153430000Y-48400000D03*
%TD*%
D40*
%TO.C,D1*%
X168212500Y-20400000D03*
X169787500Y-20400000D03*
%TD*%
D41*
%TO.C,C6*%
X147800000Y-47437500D03*
X146250000Y-47437500D03*
%TD*%
D29*
%TO.C,C5*%
X147530000Y-44750000D03*
X146570000Y-44750000D03*
%TD*%
D42*
%TO.C,Y1*%
X149599000Y-53878435D03*
X151799000Y-53878435D03*
X151799000Y-52178435D03*
X149599000Y-52178435D03*
%TD*%
D39*
%TO.C,SW6*%
X262580000Y-51672500D03*
X275080000Y-51672500D03*
X262580000Y-56672500D03*
X275080000Y-56672500D03*
%TD*%
D35*
%TO.C,SW3*%
X129080000Y-91672500D03*
X135580000Y-91672500D03*
X129080000Y-96172500D03*
X135580000Y-96172500D03*
%TD*%
D29*
%TO.C,C7*%
X159150000Y-45650000D03*
X158190000Y-45650000D03*
%TD*%
D28*
%TO.C,C16*%
X141650000Y-42980000D03*
X141650000Y-42020000D03*
%TD*%
D39*
%TO.C,SW8*%
X240080000Y-31672500D03*
X252580000Y-31672500D03*
X240080000Y-36672500D03*
X252580000Y-36672500D03*
%TD*%
D43*
%TO.C,J2*%
X145060000Y-20250000D03*
D44*
X142520000Y-20250000D03*
X139980000Y-20250000D03*
X137440000Y-20250000D03*
%TD*%
D28*
%TO.C,C18*%
X164350000Y-43110000D03*
X164350000Y-42150000D03*
%TD*%
D45*
%TO.C,C13*%
X171150000Y-22750000D03*
X169250000Y-22750000D03*
%TD*%
D35*
%TO.C,SW11*%
X118080000Y-65172500D03*
X124580000Y-65172500D03*
X118080000Y-69672500D03*
X124580000Y-69672500D03*
%TD*%
%TO.C,SW2*%
X173080000Y-91672500D03*
X179580000Y-91672500D03*
X173080000Y-96172500D03*
X179580000Y-96172500D03*
%TD*%
D30*
%TO.C,C4*%
X161450000Y-41740000D03*
X161450000Y-42700000D03*
%TD*%
D14*
%TO.C,C8*%
X158348260Y-47150000D03*
X159308260Y-47150000D03*
%TD*%
D39*
%TO.C,SW7*%
X241080000Y-71172500D03*
X253580000Y-71172500D03*
X241080000Y-76172500D03*
X253580000Y-76172500D03*
%TD*%
D40*
%TO.C,FB1*%
X158940760Y-48900000D03*
X160515760Y-48900000D03*
%TD*%
D30*
%TO.C,C17*%
X164150000Y-45220000D03*
X164150000Y-46180000D03*
%TD*%
D13*
%TO.C,R1*%
X139415000Y-37700000D03*
X140435000Y-37700000D03*
%TD*%
D14*
%TO.C,C20*%
X97090000Y-60350000D03*
X98050000Y-60350000D03*
%TD*%
M02*
