%TF.GenerationSoftware,KiCad,Pcbnew,9.0.7*%
%TF.CreationDate,2026-01-18T23:39:18-08:00*%
%TF.ProjectId,STM32_HID_controller,53544d33-325f-4484-9944-5f636f6e7472,rev?*%
%TF.SameCoordinates,Original*%
%TF.FileFunction,Legend,Top*%
%TF.FilePolarity,Positive*%
%FSLAX46Y46*%
G04 Gerber Fmt 4.6, Leading zero omitted, Abs format (unit mm)*
G04 Created by KiCad (PCBNEW 9.0.7) date 2026-01-18 23:39:18*
%MOMM*%
%LPD*%
G01*
G04 APERTURE LIST*
%ADD10C,0.150000*%
%ADD11C,0.120000*%
%ADD12C,0.200000*%
%ADD13C,0.127000*%
G04 APERTURE END LIST*
D10*
X91438095Y-56154819D02*
X91438095Y-56964342D01*
X91438095Y-56964342D02*
X91485714Y-57059580D01*
X91485714Y-57059580D02*
X91533333Y-57107200D01*
X91533333Y-57107200D02*
X91628571Y-57154819D01*
X91628571Y-57154819D02*
X91819047Y-57154819D01*
X91819047Y-57154819D02*
X91914285Y-57107200D01*
X91914285Y-57107200D02*
X91961904Y-57059580D01*
X91961904Y-57059580D02*
X92009523Y-56964342D01*
X92009523Y-56964342D02*
X92009523Y-56154819D01*
X92390476Y-56154819D02*
X93057142Y-56154819D01*
X93057142Y-56154819D02*
X92628571Y-57154819D01*
X95033333Y-50854819D02*
X94700000Y-50378628D01*
X94461905Y-50854819D02*
X94461905Y-49854819D01*
X94461905Y-49854819D02*
X94842857Y-49854819D01*
X94842857Y-49854819D02*
X94938095Y-49902438D01*
X94938095Y-49902438D02*
X94985714Y-49950057D01*
X94985714Y-49950057D02*
X95033333Y-50045295D01*
X95033333Y-50045295D02*
X95033333Y-50188152D01*
X95033333Y-50188152D02*
X94985714Y-50283390D01*
X94985714Y-50283390D02*
X94938095Y-50331009D01*
X94938095Y-50331009D02*
X94842857Y-50378628D01*
X94842857Y-50378628D02*
X94461905Y-50378628D01*
X95890476Y-50188152D02*
X95890476Y-50854819D01*
X95652381Y-49807200D02*
X95414286Y-50521485D01*
X95414286Y-50521485D02*
X96033333Y-50521485D01*
X91783333Y-53304819D02*
X91450000Y-52828628D01*
X91211905Y-53304819D02*
X91211905Y-52304819D01*
X91211905Y-52304819D02*
X91592857Y-52304819D01*
X91592857Y-52304819D02*
X91688095Y-52352438D01*
X91688095Y-52352438D02*
X91735714Y-52400057D01*
X91735714Y-52400057D02*
X91783333Y-52495295D01*
X91783333Y-52495295D02*
X91783333Y-52638152D01*
X91783333Y-52638152D02*
X91735714Y-52733390D01*
X91735714Y-52733390D02*
X91688095Y-52781009D01*
X91688095Y-52781009D02*
X91592857Y-52828628D01*
X91592857Y-52828628D02*
X91211905Y-52828628D01*
X92116667Y-52304819D02*
X92735714Y-52304819D01*
X92735714Y-52304819D02*
X92402381Y-52685771D01*
X92402381Y-52685771D02*
X92545238Y-52685771D01*
X92545238Y-52685771D02*
X92640476Y-52733390D01*
X92640476Y-52733390D02*
X92688095Y-52781009D01*
X92688095Y-52781009D02*
X92735714Y-52876247D01*
X92735714Y-52876247D02*
X92735714Y-53114342D01*
X92735714Y-53114342D02*
X92688095Y-53209580D01*
X92688095Y-53209580D02*
X92640476Y-53257200D01*
X92640476Y-53257200D02*
X92545238Y-53304819D01*
X92545238Y-53304819D02*
X92259524Y-53304819D01*
X92259524Y-53304819D02*
X92164286Y-53257200D01*
X92164286Y-53257200D02*
X92116667Y-53209580D01*
X99807142Y-54159580D02*
X99759523Y-54207200D01*
X99759523Y-54207200D02*
X99616666Y-54254819D01*
X99616666Y-54254819D02*
X99521428Y-54254819D01*
X99521428Y-54254819D02*
X99378571Y-54207200D01*
X99378571Y-54207200D02*
X99283333Y-54111961D01*
X99283333Y-54111961D02*
X99235714Y-54016723D01*
X99235714Y-54016723D02*
X99188095Y-53826247D01*
X99188095Y-53826247D02*
X99188095Y-53683390D01*
X99188095Y-53683390D02*
X99235714Y-53492914D01*
X99235714Y-53492914D02*
X99283333Y-53397676D01*
X99283333Y-53397676D02*
X99378571Y-53302438D01*
X99378571Y-53302438D02*
X99521428Y-53254819D01*
X99521428Y-53254819D02*
X99616666Y-53254819D01*
X99616666Y-53254819D02*
X99759523Y-53302438D01*
X99759523Y-53302438D02*
X99807142Y-53350057D01*
X100759523Y-54254819D02*
X100188095Y-54254819D01*
X100473809Y-54254819D02*
X100473809Y-53254819D01*
X100473809Y-53254819D02*
X100378571Y-53397676D01*
X100378571Y-53397676D02*
X100283333Y-53492914D01*
X100283333Y-53492914D02*
X100188095Y-53540533D01*
X101235714Y-54254819D02*
X101426190Y-54254819D01*
X101426190Y-54254819D02*
X101521428Y-54207200D01*
X101521428Y-54207200D02*
X101569047Y-54159580D01*
X101569047Y-54159580D02*
X101664285Y-54016723D01*
X101664285Y-54016723D02*
X101711904Y-53826247D01*
X101711904Y-53826247D02*
X101711904Y-53445295D01*
X101711904Y-53445295D02*
X101664285Y-53350057D01*
X101664285Y-53350057D02*
X101616666Y-53302438D01*
X101616666Y-53302438D02*
X101521428Y-53254819D01*
X101521428Y-53254819D02*
X101330952Y-53254819D01*
X101330952Y-53254819D02*
X101235714Y-53302438D01*
X101235714Y-53302438D02*
X101188095Y-53350057D01*
X101188095Y-53350057D02*
X101140476Y-53445295D01*
X101140476Y-53445295D02*
X101140476Y-53683390D01*
X101140476Y-53683390D02*
X101188095Y-53778628D01*
X101188095Y-53778628D02*
X101235714Y-53826247D01*
X101235714Y-53826247D02*
X101330952Y-53873866D01*
X101330952Y-53873866D02*
X101521428Y-53873866D01*
X101521428Y-53873866D02*
X101616666Y-53826247D01*
X101616666Y-53826247D02*
X101664285Y-53778628D01*
X101664285Y-53778628D02*
X101711904Y-53683390D01*
X209238095Y-19304819D02*
X209238095Y-18304819D01*
X209238095Y-18781009D02*
X209809523Y-18781009D01*
X209809523Y-19304819D02*
X209809523Y-18304819D01*
X210809523Y-19304819D02*
X210238095Y-19304819D01*
X210523809Y-19304819D02*
X210523809Y-18304819D01*
X210523809Y-18304819D02*
X210428571Y-18447676D01*
X210428571Y-18447676D02*
X210333333Y-18542914D01*
X210333333Y-18542914D02*
X210238095Y-18590533D01*
X50338095Y-111404819D02*
X50338095Y-110404819D01*
X50338095Y-110881009D02*
X50909523Y-110881009D01*
X50909523Y-111404819D02*
X50909523Y-110404819D01*
X51338095Y-110500057D02*
X51385714Y-110452438D01*
X51385714Y-110452438D02*
X51480952Y-110404819D01*
X51480952Y-110404819D02*
X51719047Y-110404819D01*
X51719047Y-110404819D02*
X51814285Y-110452438D01*
X51814285Y-110452438D02*
X51861904Y-110500057D01*
X51861904Y-110500057D02*
X51909523Y-110595295D01*
X51909523Y-110595295D02*
X51909523Y-110690533D01*
X51909523Y-110690533D02*
X51861904Y-110833390D01*
X51861904Y-110833390D02*
X51290476Y-111404819D01*
X51290476Y-111404819D02*
X51909523Y-111404819D01*
X88238095Y-19304819D02*
X88238095Y-18304819D01*
X88238095Y-18781009D02*
X88809523Y-18781009D01*
X88809523Y-19304819D02*
X88809523Y-18304819D01*
X89190476Y-18304819D02*
X89809523Y-18304819D01*
X89809523Y-18304819D02*
X89476190Y-18685771D01*
X89476190Y-18685771D02*
X89619047Y-18685771D01*
X89619047Y-18685771D02*
X89714285Y-18733390D01*
X89714285Y-18733390D02*
X89761904Y-18781009D01*
X89761904Y-18781009D02*
X89809523Y-18876247D01*
X89809523Y-18876247D02*
X89809523Y-19114342D01*
X89809523Y-19114342D02*
X89761904Y-19209580D01*
X89761904Y-19209580D02*
X89714285Y-19257200D01*
X89714285Y-19257200D02*
X89619047Y-19304819D01*
X89619047Y-19304819D02*
X89333333Y-19304819D01*
X89333333Y-19304819D02*
X89238095Y-19257200D01*
X89238095Y-19257200D02*
X89190476Y-19209580D01*
X56588095Y-22554819D02*
X56588095Y-21554819D01*
X56588095Y-22031009D02*
X57159523Y-22031009D01*
X57159523Y-22554819D02*
X57159523Y-21554819D01*
X58064285Y-21888152D02*
X58064285Y-22554819D01*
X57826190Y-21507200D02*
X57588095Y-22221485D01*
X57588095Y-22221485D02*
X58207142Y-22221485D01*
X276338095Y-18404819D02*
X276338095Y-17404819D01*
X276338095Y-17881009D02*
X276909523Y-17881009D01*
X276909523Y-18404819D02*
X276909523Y-17404819D01*
X277861904Y-17404819D02*
X277385714Y-17404819D01*
X277385714Y-17404819D02*
X277338095Y-17881009D01*
X277338095Y-17881009D02*
X277385714Y-17833390D01*
X277385714Y-17833390D02*
X277480952Y-17785771D01*
X277480952Y-17785771D02*
X277719047Y-17785771D01*
X277719047Y-17785771D02*
X277814285Y-17833390D01*
X277814285Y-17833390D02*
X277861904Y-17881009D01*
X277861904Y-17881009D02*
X277909523Y-17976247D01*
X277909523Y-17976247D02*
X277909523Y-18214342D01*
X277909523Y-18214342D02*
X277861904Y-18309580D01*
X277861904Y-18309580D02*
X277814285Y-18357200D01*
X277814285Y-18357200D02*
X277719047Y-18404819D01*
X277719047Y-18404819D02*
X277480952Y-18404819D01*
X277480952Y-18404819D02*
X277385714Y-18357200D01*
X277385714Y-18357200D02*
X277338095Y-18309580D01*
X276338095Y-111404819D02*
X276338095Y-110404819D01*
X276338095Y-110881009D02*
X276909523Y-110881009D01*
X276909523Y-111404819D02*
X276909523Y-110404819D01*
X277814285Y-110404819D02*
X277623809Y-110404819D01*
X277623809Y-110404819D02*
X277528571Y-110452438D01*
X277528571Y-110452438D02*
X277480952Y-110500057D01*
X277480952Y-110500057D02*
X277385714Y-110642914D01*
X277385714Y-110642914D02*
X277338095Y-110833390D01*
X277338095Y-110833390D02*
X277338095Y-111214342D01*
X277338095Y-111214342D02*
X277385714Y-111309580D01*
X277385714Y-111309580D02*
X277433333Y-111357200D01*
X277433333Y-111357200D02*
X277528571Y-111404819D01*
X277528571Y-111404819D02*
X277719047Y-111404819D01*
X277719047Y-111404819D02*
X277814285Y-111357200D01*
X277814285Y-111357200D02*
X277861904Y-111309580D01*
X277861904Y-111309580D02*
X277909523Y-111214342D01*
X277909523Y-111214342D02*
X277909523Y-110976247D01*
X277909523Y-110976247D02*
X277861904Y-110881009D01*
X277861904Y-110881009D02*
X277814285Y-110833390D01*
X277814285Y-110833390D02*
X277719047Y-110785771D01*
X277719047Y-110785771D02*
X277528571Y-110785771D01*
X277528571Y-110785771D02*
X277433333Y-110833390D01*
X277433333Y-110833390D02*
X277385714Y-110881009D01*
X277385714Y-110881009D02*
X277338095Y-110976247D01*
X107238095Y-19304819D02*
X107238095Y-18304819D01*
X107238095Y-18781009D02*
X107809523Y-18781009D01*
X107809523Y-19304819D02*
X107809523Y-18304819D01*
X108190476Y-18304819D02*
X108857142Y-18304819D01*
X108857142Y-18304819D02*
X108428571Y-19304819D01*
X190238095Y-19304819D02*
X190238095Y-18304819D01*
X190238095Y-18781009D02*
X190809523Y-18781009D01*
X190809523Y-19304819D02*
X190809523Y-18304819D01*
X191428571Y-18733390D02*
X191333333Y-18685771D01*
X191333333Y-18685771D02*
X191285714Y-18638152D01*
X191285714Y-18638152D02*
X191238095Y-18542914D01*
X191238095Y-18542914D02*
X191238095Y-18495295D01*
X191238095Y-18495295D02*
X191285714Y-18400057D01*
X191285714Y-18400057D02*
X191333333Y-18352438D01*
X191333333Y-18352438D02*
X191428571Y-18304819D01*
X191428571Y-18304819D02*
X191619047Y-18304819D01*
X191619047Y-18304819D02*
X191714285Y-18352438D01*
X191714285Y-18352438D02*
X191761904Y-18400057D01*
X191761904Y-18400057D02*
X191809523Y-18495295D01*
X191809523Y-18495295D02*
X191809523Y-18542914D01*
X191809523Y-18542914D02*
X191761904Y-18638152D01*
X191761904Y-18638152D02*
X191714285Y-18685771D01*
X191714285Y-18685771D02*
X191619047Y-18733390D01*
X191619047Y-18733390D02*
X191428571Y-18733390D01*
X191428571Y-18733390D02*
X191333333Y-18781009D01*
X191333333Y-18781009D02*
X191285714Y-18828628D01*
X191285714Y-18828628D02*
X191238095Y-18923866D01*
X191238095Y-18923866D02*
X191238095Y-19114342D01*
X191238095Y-19114342D02*
X191285714Y-19209580D01*
X191285714Y-19209580D02*
X191333333Y-19257200D01*
X191333333Y-19257200D02*
X191428571Y-19304819D01*
X191428571Y-19304819D02*
X191619047Y-19304819D01*
X191619047Y-19304819D02*
X191714285Y-19257200D01*
X191714285Y-19257200D02*
X191761904Y-19209580D01*
X191761904Y-19209580D02*
X191809523Y-19114342D01*
X191809523Y-19114342D02*
X191809523Y-18923866D01*
X191809523Y-18923866D02*
X191761904Y-18828628D01*
X191761904Y-18828628D02*
X191714285Y-18781009D01*
X191714285Y-18781009D02*
X191619047Y-18733390D01*
X159616666Y-19504819D02*
X159616666Y-20219104D01*
X159616666Y-20219104D02*
X159569047Y-20361961D01*
X159569047Y-20361961D02*
X159473809Y-20457200D01*
X159473809Y-20457200D02*
X159330952Y-20504819D01*
X159330952Y-20504819D02*
X159235714Y-20504819D01*
X160616666Y-20504819D02*
X160045238Y-20504819D01*
X160330952Y-20504819D02*
X160330952Y-19504819D01*
X160330952Y-19504819D02*
X160235714Y-19647676D01*
X160235714Y-19647676D02*
X160140476Y-19742914D01*
X160140476Y-19742914D02*
X160045238Y-19790533D01*
X138032200Y-37983332D02*
X138079819Y-37840475D01*
X138079819Y-37840475D02*
X138079819Y-37602380D01*
X138079819Y-37602380D02*
X138032200Y-37507142D01*
X138032200Y-37507142D02*
X137984580Y-37459523D01*
X137984580Y-37459523D02*
X137889342Y-37411904D01*
X137889342Y-37411904D02*
X137794104Y-37411904D01*
X137794104Y-37411904D02*
X137698866Y-37459523D01*
X137698866Y-37459523D02*
X137651247Y-37507142D01*
X137651247Y-37507142D02*
X137603628Y-37602380D01*
X137603628Y-37602380D02*
X137556009Y-37792856D01*
X137556009Y-37792856D02*
X137508390Y-37888094D01*
X137508390Y-37888094D02*
X137460771Y-37935713D01*
X137460771Y-37935713D02*
X137365533Y-37983332D01*
X137365533Y-37983332D02*
X137270295Y-37983332D01*
X137270295Y-37983332D02*
X137175057Y-37935713D01*
X137175057Y-37935713D02*
X137127438Y-37888094D01*
X137127438Y-37888094D02*
X137079819Y-37792856D01*
X137079819Y-37792856D02*
X137079819Y-37554761D01*
X137079819Y-37554761D02*
X137127438Y-37411904D01*
X137079819Y-37078570D02*
X138079819Y-36840475D01*
X138079819Y-36840475D02*
X137365533Y-36649999D01*
X137365533Y-36649999D02*
X138079819Y-36459523D01*
X138079819Y-36459523D02*
X137079819Y-36221428D01*
X138079819Y-35316666D02*
X138079819Y-35888094D01*
X138079819Y-35602380D02*
X137079819Y-35602380D01*
X137079819Y-35602380D02*
X137222676Y-35697618D01*
X137222676Y-35697618D02*
X137317914Y-35792856D01*
X137317914Y-35792856D02*
X137365533Y-35888094D01*
X158488095Y-30954819D02*
X158488095Y-31764342D01*
X158488095Y-31764342D02*
X158535714Y-31859580D01*
X158535714Y-31859580D02*
X158583333Y-31907200D01*
X158583333Y-31907200D02*
X158678571Y-31954819D01*
X158678571Y-31954819D02*
X158869047Y-31954819D01*
X158869047Y-31954819D02*
X158964285Y-31907200D01*
X158964285Y-31907200D02*
X159011904Y-31859580D01*
X159011904Y-31859580D02*
X159059523Y-31764342D01*
X159059523Y-31764342D02*
X159059523Y-30954819D01*
X160059523Y-31954819D02*
X159488095Y-31954819D01*
X159773809Y-31954819D02*
X159773809Y-30954819D01*
X159773809Y-30954819D02*
X159678571Y-31097676D01*
X159678571Y-31097676D02*
X159583333Y-31192914D01*
X159583333Y-31192914D02*
X159488095Y-31240533D01*
X218188095Y-84254819D02*
X218188095Y-85064342D01*
X218188095Y-85064342D02*
X218235714Y-85159580D01*
X218235714Y-85159580D02*
X218283333Y-85207200D01*
X218283333Y-85207200D02*
X218378571Y-85254819D01*
X218378571Y-85254819D02*
X218569047Y-85254819D01*
X218569047Y-85254819D02*
X218664285Y-85207200D01*
X218664285Y-85207200D02*
X218711904Y-85159580D01*
X218711904Y-85159580D02*
X218759523Y-85064342D01*
X218759523Y-85064342D02*
X218759523Y-84254819D01*
X219664285Y-84588152D02*
X219664285Y-85254819D01*
X219426190Y-84207200D02*
X219188095Y-84921485D01*
X219188095Y-84921485D02*
X219807142Y-84921485D01*
X67638095Y-47054819D02*
X67638095Y-47864342D01*
X67638095Y-47864342D02*
X67685714Y-47959580D01*
X67685714Y-47959580D02*
X67733333Y-48007200D01*
X67733333Y-48007200D02*
X67828571Y-48054819D01*
X67828571Y-48054819D02*
X68019047Y-48054819D01*
X68019047Y-48054819D02*
X68114285Y-48007200D01*
X68114285Y-48007200D02*
X68161904Y-47959580D01*
X68161904Y-47959580D02*
X68209523Y-47864342D01*
X68209523Y-47864342D02*
X68209523Y-47054819D01*
X69161904Y-47054819D02*
X68685714Y-47054819D01*
X68685714Y-47054819D02*
X68638095Y-47531009D01*
X68638095Y-47531009D02*
X68685714Y-47483390D01*
X68685714Y-47483390D02*
X68780952Y-47435771D01*
X68780952Y-47435771D02*
X69019047Y-47435771D01*
X69019047Y-47435771D02*
X69114285Y-47483390D01*
X69114285Y-47483390D02*
X69161904Y-47531009D01*
X69161904Y-47531009D02*
X69209523Y-47626247D01*
X69209523Y-47626247D02*
X69209523Y-47864342D01*
X69209523Y-47864342D02*
X69161904Y-47959580D01*
X69161904Y-47959580D02*
X69114285Y-48007200D01*
X69114285Y-48007200D02*
X69019047Y-48054819D01*
X69019047Y-48054819D02*
X68780952Y-48054819D01*
X68780952Y-48054819D02*
X68685714Y-48007200D01*
X68685714Y-48007200D02*
X68638095Y-47959580D01*
X143933333Y-40459580D02*
X143885714Y-40507200D01*
X143885714Y-40507200D02*
X143742857Y-40554819D01*
X143742857Y-40554819D02*
X143647619Y-40554819D01*
X143647619Y-40554819D02*
X143504762Y-40507200D01*
X143504762Y-40507200D02*
X143409524Y-40411961D01*
X143409524Y-40411961D02*
X143361905Y-40316723D01*
X143361905Y-40316723D02*
X143314286Y-40126247D01*
X143314286Y-40126247D02*
X143314286Y-39983390D01*
X143314286Y-39983390D02*
X143361905Y-39792914D01*
X143361905Y-39792914D02*
X143409524Y-39697676D01*
X143409524Y-39697676D02*
X143504762Y-39602438D01*
X143504762Y-39602438D02*
X143647619Y-39554819D01*
X143647619Y-39554819D02*
X143742857Y-39554819D01*
X143742857Y-39554819D02*
X143885714Y-39602438D01*
X143885714Y-39602438D02*
X143933333Y-39650057D01*
X144885714Y-40554819D02*
X144314286Y-40554819D01*
X144600000Y-40554819D02*
X144600000Y-39554819D01*
X144600000Y-39554819D02*
X144504762Y-39697676D01*
X144504762Y-39697676D02*
X144409524Y-39792914D01*
X144409524Y-39792914D02*
X144314286Y-39840533D01*
X159333333Y-52309580D02*
X159285714Y-52357200D01*
X159285714Y-52357200D02*
X159142857Y-52404819D01*
X159142857Y-52404819D02*
X159047619Y-52404819D01*
X159047619Y-52404819D02*
X158904762Y-52357200D01*
X158904762Y-52357200D02*
X158809524Y-52261961D01*
X158809524Y-52261961D02*
X158761905Y-52166723D01*
X158761905Y-52166723D02*
X158714286Y-51976247D01*
X158714286Y-51976247D02*
X158714286Y-51833390D01*
X158714286Y-51833390D02*
X158761905Y-51642914D01*
X158761905Y-51642914D02*
X158809524Y-51547676D01*
X158809524Y-51547676D02*
X158904762Y-51452438D01*
X158904762Y-51452438D02*
X159047619Y-51404819D01*
X159047619Y-51404819D02*
X159142857Y-51404819D01*
X159142857Y-51404819D02*
X159285714Y-51452438D01*
X159285714Y-51452438D02*
X159333333Y-51500057D01*
X159809524Y-52404819D02*
X160000000Y-52404819D01*
X160000000Y-52404819D02*
X160095238Y-52357200D01*
X160095238Y-52357200D02*
X160142857Y-52309580D01*
X160142857Y-52309580D02*
X160238095Y-52166723D01*
X160238095Y-52166723D02*
X160285714Y-51976247D01*
X160285714Y-51976247D02*
X160285714Y-51595295D01*
X160285714Y-51595295D02*
X160238095Y-51500057D01*
X160238095Y-51500057D02*
X160190476Y-51452438D01*
X160190476Y-51452438D02*
X160095238Y-51404819D01*
X160095238Y-51404819D02*
X159904762Y-51404819D01*
X159904762Y-51404819D02*
X159809524Y-51452438D01*
X159809524Y-51452438D02*
X159761905Y-51500057D01*
X159761905Y-51500057D02*
X159714286Y-51595295D01*
X159714286Y-51595295D02*
X159714286Y-51833390D01*
X159714286Y-51833390D02*
X159761905Y-51928628D01*
X159761905Y-51928628D02*
X159809524Y-51976247D01*
X159809524Y-51976247D02*
X159904762Y-52023866D01*
X159904762Y-52023866D02*
X160095238Y-52023866D01*
X160095238Y-52023866D02*
X160190476Y-51976247D01*
X160190476Y-51976247D02*
X160238095Y-51928628D01*
X160238095Y-51928628D02*
X160285714Y-51833390D01*
X140359580Y-48522857D02*
X140407200Y-48570476D01*
X140407200Y-48570476D02*
X140454819Y-48713333D01*
X140454819Y-48713333D02*
X140454819Y-48808571D01*
X140454819Y-48808571D02*
X140407200Y-48951428D01*
X140407200Y-48951428D02*
X140311961Y-49046666D01*
X140311961Y-49046666D02*
X140216723Y-49094285D01*
X140216723Y-49094285D02*
X140026247Y-49141904D01*
X140026247Y-49141904D02*
X139883390Y-49141904D01*
X139883390Y-49141904D02*
X139692914Y-49094285D01*
X139692914Y-49094285D02*
X139597676Y-49046666D01*
X139597676Y-49046666D02*
X139502438Y-48951428D01*
X139502438Y-48951428D02*
X139454819Y-48808571D01*
X139454819Y-48808571D02*
X139454819Y-48713333D01*
X139454819Y-48713333D02*
X139502438Y-48570476D01*
X139502438Y-48570476D02*
X139550057Y-48522857D01*
X140454819Y-47570476D02*
X140454819Y-48141904D01*
X140454819Y-47856190D02*
X139454819Y-47856190D01*
X139454819Y-47856190D02*
X139597676Y-47951428D01*
X139597676Y-47951428D02*
X139692914Y-48046666D01*
X139692914Y-48046666D02*
X139740533Y-48141904D01*
X139454819Y-46665714D02*
X139454819Y-47141904D01*
X139454819Y-47141904D02*
X139931009Y-47189523D01*
X139931009Y-47189523D02*
X139883390Y-47141904D01*
X139883390Y-47141904D02*
X139835771Y-47046666D01*
X139835771Y-47046666D02*
X139835771Y-46808571D01*
X139835771Y-46808571D02*
X139883390Y-46713333D01*
X139883390Y-46713333D02*
X139931009Y-46665714D01*
X139931009Y-46665714D02*
X140026247Y-46618095D01*
X140026247Y-46618095D02*
X140264342Y-46618095D01*
X140264342Y-46618095D02*
X140359580Y-46665714D01*
X140359580Y-46665714D02*
X140407200Y-46713333D01*
X140407200Y-46713333D02*
X140454819Y-46808571D01*
X140454819Y-46808571D02*
X140454819Y-47046666D01*
X140454819Y-47046666D02*
X140407200Y-47141904D01*
X140407200Y-47141904D02*
X140359580Y-47189523D01*
X223166666Y-17554819D02*
X223166666Y-18269104D01*
X223166666Y-18269104D02*
X223119047Y-18411961D01*
X223119047Y-18411961D02*
X223023809Y-18507200D01*
X223023809Y-18507200D02*
X222880952Y-18554819D01*
X222880952Y-18554819D02*
X222785714Y-18554819D01*
X223547619Y-17554819D02*
X224166666Y-17554819D01*
X224166666Y-17554819D02*
X223833333Y-17935771D01*
X223833333Y-17935771D02*
X223976190Y-17935771D01*
X223976190Y-17935771D02*
X224071428Y-17983390D01*
X224071428Y-17983390D02*
X224119047Y-18031009D01*
X224119047Y-18031009D02*
X224166666Y-18126247D01*
X224166666Y-18126247D02*
X224166666Y-18364342D01*
X224166666Y-18364342D02*
X224119047Y-18459580D01*
X224119047Y-18459580D02*
X224071428Y-18507200D01*
X224071428Y-18507200D02*
X223976190Y-18554819D01*
X223976190Y-18554819D02*
X223690476Y-18554819D01*
X223690476Y-18554819D02*
X223595238Y-18507200D01*
X223595238Y-18507200D02*
X223547619Y-18459580D01*
X171954819Y-33711904D02*
X172764342Y-33711904D01*
X172764342Y-33711904D02*
X172859580Y-33664285D01*
X172859580Y-33664285D02*
X172907200Y-33616666D01*
X172907200Y-33616666D02*
X172954819Y-33521428D01*
X172954819Y-33521428D02*
X172954819Y-33330952D01*
X172954819Y-33330952D02*
X172907200Y-33235714D01*
X172907200Y-33235714D02*
X172859580Y-33188095D01*
X172859580Y-33188095D02*
X172764342Y-33140476D01*
X172764342Y-33140476D02*
X171954819Y-33140476D01*
X172050057Y-32711904D02*
X172002438Y-32664285D01*
X172002438Y-32664285D02*
X171954819Y-32569047D01*
X171954819Y-32569047D02*
X171954819Y-32330952D01*
X171954819Y-32330952D02*
X172002438Y-32235714D01*
X172002438Y-32235714D02*
X172050057Y-32188095D01*
X172050057Y-32188095D02*
X172145295Y-32140476D01*
X172145295Y-32140476D02*
X172240533Y-32140476D01*
X172240533Y-32140476D02*
X172383390Y-32188095D01*
X172383390Y-32188095D02*
X172954819Y-32759523D01*
X172954819Y-32759523D02*
X172954819Y-32140476D01*
X186020476Y-63579700D02*
X186163333Y-63627319D01*
X186163333Y-63627319D02*
X186401428Y-63627319D01*
X186401428Y-63627319D02*
X186496666Y-63579700D01*
X186496666Y-63579700D02*
X186544285Y-63532080D01*
X186544285Y-63532080D02*
X186591904Y-63436842D01*
X186591904Y-63436842D02*
X186591904Y-63341604D01*
X186591904Y-63341604D02*
X186544285Y-63246366D01*
X186544285Y-63246366D02*
X186496666Y-63198747D01*
X186496666Y-63198747D02*
X186401428Y-63151128D01*
X186401428Y-63151128D02*
X186210952Y-63103509D01*
X186210952Y-63103509D02*
X186115714Y-63055890D01*
X186115714Y-63055890D02*
X186068095Y-63008271D01*
X186068095Y-63008271D02*
X186020476Y-62913033D01*
X186020476Y-62913033D02*
X186020476Y-62817795D01*
X186020476Y-62817795D02*
X186068095Y-62722557D01*
X186068095Y-62722557D02*
X186115714Y-62674938D01*
X186115714Y-62674938D02*
X186210952Y-62627319D01*
X186210952Y-62627319D02*
X186449047Y-62627319D01*
X186449047Y-62627319D02*
X186591904Y-62674938D01*
X186925238Y-62627319D02*
X187163333Y-63627319D01*
X187163333Y-63627319D02*
X187353809Y-62913033D01*
X187353809Y-62913033D02*
X187544285Y-63627319D01*
X187544285Y-63627319D02*
X187782381Y-62627319D01*
X188687142Y-63627319D02*
X188115714Y-63627319D01*
X188401428Y-63627319D02*
X188401428Y-62627319D01*
X188401428Y-62627319D02*
X188306190Y-62770176D01*
X188306190Y-62770176D02*
X188210952Y-62865414D01*
X188210952Y-62865414D02*
X188115714Y-62913033D01*
X189306190Y-62627319D02*
X189401428Y-62627319D01*
X189401428Y-62627319D02*
X189496666Y-62674938D01*
X189496666Y-62674938D02*
X189544285Y-62722557D01*
X189544285Y-62722557D02*
X189591904Y-62817795D01*
X189591904Y-62817795D02*
X189639523Y-63008271D01*
X189639523Y-63008271D02*
X189639523Y-63246366D01*
X189639523Y-63246366D02*
X189591904Y-63436842D01*
X189591904Y-63436842D02*
X189544285Y-63532080D01*
X189544285Y-63532080D02*
X189496666Y-63579700D01*
X189496666Y-63579700D02*
X189401428Y-63627319D01*
X189401428Y-63627319D02*
X189306190Y-63627319D01*
X189306190Y-63627319D02*
X189210952Y-63579700D01*
X189210952Y-63579700D02*
X189163333Y-63532080D01*
X189163333Y-63532080D02*
X189115714Y-63436842D01*
X189115714Y-63436842D02*
X189068095Y-63246366D01*
X189068095Y-63246366D02*
X189068095Y-63008271D01*
X189068095Y-63008271D02*
X189115714Y-62817795D01*
X189115714Y-62817795D02*
X189163333Y-62722557D01*
X189163333Y-62722557D02*
X189210952Y-62674938D01*
X189210952Y-62674938D02*
X189306190Y-62627319D01*
X153357142Y-51259580D02*
X153309523Y-51307200D01*
X153309523Y-51307200D02*
X153166666Y-51354819D01*
X153166666Y-51354819D02*
X153071428Y-51354819D01*
X153071428Y-51354819D02*
X152928571Y-51307200D01*
X152928571Y-51307200D02*
X152833333Y-51211961D01*
X152833333Y-51211961D02*
X152785714Y-51116723D01*
X152785714Y-51116723D02*
X152738095Y-50926247D01*
X152738095Y-50926247D02*
X152738095Y-50783390D01*
X152738095Y-50783390D02*
X152785714Y-50592914D01*
X152785714Y-50592914D02*
X152833333Y-50497676D01*
X152833333Y-50497676D02*
X152928571Y-50402438D01*
X152928571Y-50402438D02*
X153071428Y-50354819D01*
X153071428Y-50354819D02*
X153166666Y-50354819D01*
X153166666Y-50354819D02*
X153309523Y-50402438D01*
X153309523Y-50402438D02*
X153357142Y-50450057D01*
X154309523Y-51354819D02*
X153738095Y-51354819D01*
X154023809Y-51354819D02*
X154023809Y-50354819D01*
X154023809Y-50354819D02*
X153928571Y-50497676D01*
X153928571Y-50497676D02*
X153833333Y-50592914D01*
X153833333Y-50592914D02*
X153738095Y-50640533D01*
X154690476Y-50450057D02*
X154738095Y-50402438D01*
X154738095Y-50402438D02*
X154833333Y-50354819D01*
X154833333Y-50354819D02*
X155071428Y-50354819D01*
X155071428Y-50354819D02*
X155166666Y-50402438D01*
X155166666Y-50402438D02*
X155214285Y-50450057D01*
X155214285Y-50450057D02*
X155261904Y-50545295D01*
X155261904Y-50545295D02*
X155261904Y-50640533D01*
X155261904Y-50640533D02*
X155214285Y-50783390D01*
X155214285Y-50783390D02*
X154642857Y-51354819D01*
X154642857Y-51354819D02*
X155261904Y-51354819D01*
X162483333Y-33009580D02*
X162435714Y-33057200D01*
X162435714Y-33057200D02*
X162292857Y-33104819D01*
X162292857Y-33104819D02*
X162197619Y-33104819D01*
X162197619Y-33104819D02*
X162054762Y-33057200D01*
X162054762Y-33057200D02*
X161959524Y-32961961D01*
X161959524Y-32961961D02*
X161911905Y-32866723D01*
X161911905Y-32866723D02*
X161864286Y-32676247D01*
X161864286Y-32676247D02*
X161864286Y-32533390D01*
X161864286Y-32533390D02*
X161911905Y-32342914D01*
X161911905Y-32342914D02*
X161959524Y-32247676D01*
X161959524Y-32247676D02*
X162054762Y-32152438D01*
X162054762Y-32152438D02*
X162197619Y-32104819D01*
X162197619Y-32104819D02*
X162292857Y-32104819D01*
X162292857Y-32104819D02*
X162435714Y-32152438D01*
X162435714Y-32152438D02*
X162483333Y-32200057D01*
X162816667Y-32104819D02*
X163435714Y-32104819D01*
X163435714Y-32104819D02*
X163102381Y-32485771D01*
X163102381Y-32485771D02*
X163245238Y-32485771D01*
X163245238Y-32485771D02*
X163340476Y-32533390D01*
X163340476Y-32533390D02*
X163388095Y-32581009D01*
X163388095Y-32581009D02*
X163435714Y-32676247D01*
X163435714Y-32676247D02*
X163435714Y-32914342D01*
X163435714Y-32914342D02*
X163388095Y-33009580D01*
X163388095Y-33009580D02*
X163340476Y-33057200D01*
X163340476Y-33057200D02*
X163245238Y-33104819D01*
X163245238Y-33104819D02*
X162959524Y-33104819D01*
X162959524Y-33104819D02*
X162864286Y-33057200D01*
X162864286Y-33057200D02*
X162816667Y-33009580D01*
X152040476Y-68207200D02*
X152183333Y-68254819D01*
X152183333Y-68254819D02*
X152421428Y-68254819D01*
X152421428Y-68254819D02*
X152516666Y-68207200D01*
X152516666Y-68207200D02*
X152564285Y-68159580D01*
X152564285Y-68159580D02*
X152611904Y-68064342D01*
X152611904Y-68064342D02*
X152611904Y-67969104D01*
X152611904Y-67969104D02*
X152564285Y-67873866D01*
X152564285Y-67873866D02*
X152516666Y-67826247D01*
X152516666Y-67826247D02*
X152421428Y-67778628D01*
X152421428Y-67778628D02*
X152230952Y-67731009D01*
X152230952Y-67731009D02*
X152135714Y-67683390D01*
X152135714Y-67683390D02*
X152088095Y-67635771D01*
X152088095Y-67635771D02*
X152040476Y-67540533D01*
X152040476Y-67540533D02*
X152040476Y-67445295D01*
X152040476Y-67445295D02*
X152088095Y-67350057D01*
X152088095Y-67350057D02*
X152135714Y-67302438D01*
X152135714Y-67302438D02*
X152230952Y-67254819D01*
X152230952Y-67254819D02*
X152469047Y-67254819D01*
X152469047Y-67254819D02*
X152611904Y-67302438D01*
X152945238Y-67254819D02*
X153183333Y-68254819D01*
X153183333Y-68254819D02*
X153373809Y-67540533D01*
X153373809Y-67540533D02*
X153564285Y-68254819D01*
X153564285Y-68254819D02*
X153802381Y-67254819D01*
X154707142Y-68254819D02*
X154135714Y-68254819D01*
X154421428Y-68254819D02*
X154421428Y-67254819D01*
X154421428Y-67254819D02*
X154326190Y-67397676D01*
X154326190Y-67397676D02*
X154230952Y-67492914D01*
X154230952Y-67492914D02*
X154135714Y-67540533D01*
X155564285Y-67588152D02*
X155564285Y-68254819D01*
X155326190Y-67207200D02*
X155088095Y-67921485D01*
X155088095Y-67921485D02*
X155707142Y-67921485D01*
X147833333Y-29809580D02*
X147785714Y-29857200D01*
X147785714Y-29857200D02*
X147642857Y-29904819D01*
X147642857Y-29904819D02*
X147547619Y-29904819D01*
X147547619Y-29904819D02*
X147404762Y-29857200D01*
X147404762Y-29857200D02*
X147309524Y-29761961D01*
X147309524Y-29761961D02*
X147261905Y-29666723D01*
X147261905Y-29666723D02*
X147214286Y-29476247D01*
X147214286Y-29476247D02*
X147214286Y-29333390D01*
X147214286Y-29333390D02*
X147261905Y-29142914D01*
X147261905Y-29142914D02*
X147309524Y-29047676D01*
X147309524Y-29047676D02*
X147404762Y-28952438D01*
X147404762Y-28952438D02*
X147547619Y-28904819D01*
X147547619Y-28904819D02*
X147642857Y-28904819D01*
X147642857Y-28904819D02*
X147785714Y-28952438D01*
X147785714Y-28952438D02*
X147833333Y-29000057D01*
X148214286Y-29000057D02*
X148261905Y-28952438D01*
X148261905Y-28952438D02*
X148357143Y-28904819D01*
X148357143Y-28904819D02*
X148595238Y-28904819D01*
X148595238Y-28904819D02*
X148690476Y-28952438D01*
X148690476Y-28952438D02*
X148738095Y-29000057D01*
X148738095Y-29000057D02*
X148785714Y-29095295D01*
X148785714Y-29095295D02*
X148785714Y-29190533D01*
X148785714Y-29190533D02*
X148738095Y-29333390D01*
X148738095Y-29333390D02*
X148166667Y-29904819D01*
X148166667Y-29904819D02*
X148785714Y-29904819D01*
X158557142Y-26359580D02*
X158509523Y-26407200D01*
X158509523Y-26407200D02*
X158366666Y-26454819D01*
X158366666Y-26454819D02*
X158271428Y-26454819D01*
X158271428Y-26454819D02*
X158128571Y-26407200D01*
X158128571Y-26407200D02*
X158033333Y-26311961D01*
X158033333Y-26311961D02*
X157985714Y-26216723D01*
X157985714Y-26216723D02*
X157938095Y-26026247D01*
X157938095Y-26026247D02*
X157938095Y-25883390D01*
X157938095Y-25883390D02*
X157985714Y-25692914D01*
X157985714Y-25692914D02*
X158033333Y-25597676D01*
X158033333Y-25597676D02*
X158128571Y-25502438D01*
X158128571Y-25502438D02*
X158271428Y-25454819D01*
X158271428Y-25454819D02*
X158366666Y-25454819D01*
X158366666Y-25454819D02*
X158509523Y-25502438D01*
X158509523Y-25502438D02*
X158557142Y-25550057D01*
X159509523Y-26454819D02*
X158938095Y-26454819D01*
X159223809Y-26454819D02*
X159223809Y-25454819D01*
X159223809Y-25454819D02*
X159128571Y-25597676D01*
X159128571Y-25597676D02*
X159033333Y-25692914D01*
X159033333Y-25692914D02*
X158938095Y-25740533D01*
X160366666Y-25788152D02*
X160366666Y-26454819D01*
X160128571Y-25407200D02*
X159890476Y-26121485D01*
X159890476Y-26121485D02*
X160509523Y-26121485D01*
X75246666Y-17554819D02*
X75246666Y-18269104D01*
X75246666Y-18269104D02*
X75199047Y-18411961D01*
X75199047Y-18411961D02*
X75103809Y-18507200D01*
X75103809Y-18507200D02*
X74960952Y-18554819D01*
X74960952Y-18554819D02*
X74865714Y-18554819D01*
X76199047Y-17554819D02*
X75722857Y-17554819D01*
X75722857Y-17554819D02*
X75675238Y-18031009D01*
X75675238Y-18031009D02*
X75722857Y-17983390D01*
X75722857Y-17983390D02*
X75818095Y-17935771D01*
X75818095Y-17935771D02*
X76056190Y-17935771D01*
X76056190Y-17935771D02*
X76151428Y-17983390D01*
X76151428Y-17983390D02*
X76199047Y-18031009D01*
X76199047Y-18031009D02*
X76246666Y-18126247D01*
X76246666Y-18126247D02*
X76246666Y-18364342D01*
X76246666Y-18364342D02*
X76199047Y-18459580D01*
X76199047Y-18459580D02*
X76151428Y-18507200D01*
X76151428Y-18507200D02*
X76056190Y-18554819D01*
X76056190Y-18554819D02*
X75818095Y-18554819D01*
X75818095Y-18554819D02*
X75722857Y-18507200D01*
X75722857Y-18507200D02*
X75675238Y-18459580D01*
X115488095Y-57004819D02*
X115488095Y-57814342D01*
X115488095Y-57814342D02*
X115535714Y-57909580D01*
X115535714Y-57909580D02*
X115583333Y-57957200D01*
X115583333Y-57957200D02*
X115678571Y-58004819D01*
X115678571Y-58004819D02*
X115869047Y-58004819D01*
X115869047Y-58004819D02*
X115964285Y-57957200D01*
X115964285Y-57957200D02*
X116011904Y-57909580D01*
X116011904Y-57909580D02*
X116059523Y-57814342D01*
X116059523Y-57814342D02*
X116059523Y-57004819D01*
X116964285Y-57004819D02*
X116773809Y-57004819D01*
X116773809Y-57004819D02*
X116678571Y-57052438D01*
X116678571Y-57052438D02*
X116630952Y-57100057D01*
X116630952Y-57100057D02*
X116535714Y-57242914D01*
X116535714Y-57242914D02*
X116488095Y-57433390D01*
X116488095Y-57433390D02*
X116488095Y-57814342D01*
X116488095Y-57814342D02*
X116535714Y-57909580D01*
X116535714Y-57909580D02*
X116583333Y-57957200D01*
X116583333Y-57957200D02*
X116678571Y-58004819D01*
X116678571Y-58004819D02*
X116869047Y-58004819D01*
X116869047Y-58004819D02*
X116964285Y-57957200D01*
X116964285Y-57957200D02*
X117011904Y-57909580D01*
X117011904Y-57909580D02*
X117059523Y-57814342D01*
X117059523Y-57814342D02*
X117059523Y-57576247D01*
X117059523Y-57576247D02*
X117011904Y-57481009D01*
X117011904Y-57481009D02*
X116964285Y-57433390D01*
X116964285Y-57433390D02*
X116869047Y-57385771D01*
X116869047Y-57385771D02*
X116678571Y-57385771D01*
X116678571Y-57385771D02*
X116583333Y-57433390D01*
X116583333Y-57433390D02*
X116535714Y-57481009D01*
X116535714Y-57481009D02*
X116488095Y-57576247D01*
X222096667Y-47419700D02*
X222239524Y-47467319D01*
X222239524Y-47467319D02*
X222477619Y-47467319D01*
X222477619Y-47467319D02*
X222572857Y-47419700D01*
X222572857Y-47419700D02*
X222620476Y-47372080D01*
X222620476Y-47372080D02*
X222668095Y-47276842D01*
X222668095Y-47276842D02*
X222668095Y-47181604D01*
X222668095Y-47181604D02*
X222620476Y-47086366D01*
X222620476Y-47086366D02*
X222572857Y-47038747D01*
X222572857Y-47038747D02*
X222477619Y-46991128D01*
X222477619Y-46991128D02*
X222287143Y-46943509D01*
X222287143Y-46943509D02*
X222191905Y-46895890D01*
X222191905Y-46895890D02*
X222144286Y-46848271D01*
X222144286Y-46848271D02*
X222096667Y-46753033D01*
X222096667Y-46753033D02*
X222096667Y-46657795D01*
X222096667Y-46657795D02*
X222144286Y-46562557D01*
X222144286Y-46562557D02*
X222191905Y-46514938D01*
X222191905Y-46514938D02*
X222287143Y-46467319D01*
X222287143Y-46467319D02*
X222525238Y-46467319D01*
X222525238Y-46467319D02*
X222668095Y-46514938D01*
X223001429Y-46467319D02*
X223239524Y-47467319D01*
X223239524Y-47467319D02*
X223430000Y-46753033D01*
X223430000Y-46753033D02*
X223620476Y-47467319D01*
X223620476Y-47467319D02*
X223858572Y-46467319D01*
X224287143Y-47467319D02*
X224477619Y-47467319D01*
X224477619Y-47467319D02*
X224572857Y-47419700D01*
X224572857Y-47419700D02*
X224620476Y-47372080D01*
X224620476Y-47372080D02*
X224715714Y-47229223D01*
X224715714Y-47229223D02*
X224763333Y-47038747D01*
X224763333Y-47038747D02*
X224763333Y-46657795D01*
X224763333Y-46657795D02*
X224715714Y-46562557D01*
X224715714Y-46562557D02*
X224668095Y-46514938D01*
X224668095Y-46514938D02*
X224572857Y-46467319D01*
X224572857Y-46467319D02*
X224382381Y-46467319D01*
X224382381Y-46467319D02*
X224287143Y-46514938D01*
X224287143Y-46514938D02*
X224239524Y-46562557D01*
X224239524Y-46562557D02*
X224191905Y-46657795D01*
X224191905Y-46657795D02*
X224191905Y-46895890D01*
X224191905Y-46895890D02*
X224239524Y-46991128D01*
X224239524Y-46991128D02*
X224287143Y-47038747D01*
X224287143Y-47038747D02*
X224382381Y-47086366D01*
X224382381Y-47086366D02*
X224572857Y-47086366D01*
X224572857Y-47086366D02*
X224668095Y-47038747D01*
X224668095Y-47038747D02*
X224715714Y-46991128D01*
X224715714Y-46991128D02*
X224763333Y-46895890D01*
X143957142Y-50009580D02*
X143909523Y-50057200D01*
X143909523Y-50057200D02*
X143766666Y-50104819D01*
X143766666Y-50104819D02*
X143671428Y-50104819D01*
X143671428Y-50104819D02*
X143528571Y-50057200D01*
X143528571Y-50057200D02*
X143433333Y-49961961D01*
X143433333Y-49961961D02*
X143385714Y-49866723D01*
X143385714Y-49866723D02*
X143338095Y-49676247D01*
X143338095Y-49676247D02*
X143338095Y-49533390D01*
X143338095Y-49533390D02*
X143385714Y-49342914D01*
X143385714Y-49342914D02*
X143433333Y-49247676D01*
X143433333Y-49247676D02*
X143528571Y-49152438D01*
X143528571Y-49152438D02*
X143671428Y-49104819D01*
X143671428Y-49104819D02*
X143766666Y-49104819D01*
X143766666Y-49104819D02*
X143909523Y-49152438D01*
X143909523Y-49152438D02*
X143957142Y-49200057D01*
X144909523Y-50104819D02*
X144338095Y-50104819D01*
X144623809Y-50104819D02*
X144623809Y-49104819D01*
X144623809Y-49104819D02*
X144528571Y-49247676D01*
X144528571Y-49247676D02*
X144433333Y-49342914D01*
X144433333Y-49342914D02*
X144338095Y-49390533D01*
X145861904Y-50104819D02*
X145290476Y-50104819D01*
X145576190Y-50104819D02*
X145576190Y-49104819D01*
X145576190Y-49104819D02*
X145480952Y-49247676D01*
X145480952Y-49247676D02*
X145385714Y-49342914D01*
X145385714Y-49342914D02*
X145290476Y-49390533D01*
X172648333Y-18504819D02*
X172315000Y-18028628D01*
X172076905Y-18504819D02*
X172076905Y-17504819D01*
X172076905Y-17504819D02*
X172457857Y-17504819D01*
X172457857Y-17504819D02*
X172553095Y-17552438D01*
X172553095Y-17552438D02*
X172600714Y-17600057D01*
X172600714Y-17600057D02*
X172648333Y-17695295D01*
X172648333Y-17695295D02*
X172648333Y-17838152D01*
X172648333Y-17838152D02*
X172600714Y-17933390D01*
X172600714Y-17933390D02*
X172553095Y-17981009D01*
X172553095Y-17981009D02*
X172457857Y-18028628D01*
X172457857Y-18028628D02*
X172076905Y-18028628D01*
X173029286Y-17600057D02*
X173076905Y-17552438D01*
X173076905Y-17552438D02*
X173172143Y-17504819D01*
X173172143Y-17504819D02*
X173410238Y-17504819D01*
X173410238Y-17504819D02*
X173505476Y-17552438D01*
X173505476Y-17552438D02*
X173553095Y-17600057D01*
X173553095Y-17600057D02*
X173600714Y-17695295D01*
X173600714Y-17695295D02*
X173600714Y-17790533D01*
X173600714Y-17790533D02*
X173553095Y-17933390D01*
X173553095Y-17933390D02*
X172981667Y-18504819D01*
X172981667Y-18504819D02*
X173600714Y-18504819D01*
X153257142Y-47659580D02*
X153209523Y-47707200D01*
X153209523Y-47707200D02*
X153066666Y-47754819D01*
X153066666Y-47754819D02*
X152971428Y-47754819D01*
X152971428Y-47754819D02*
X152828571Y-47707200D01*
X152828571Y-47707200D02*
X152733333Y-47611961D01*
X152733333Y-47611961D02*
X152685714Y-47516723D01*
X152685714Y-47516723D02*
X152638095Y-47326247D01*
X152638095Y-47326247D02*
X152638095Y-47183390D01*
X152638095Y-47183390D02*
X152685714Y-46992914D01*
X152685714Y-46992914D02*
X152733333Y-46897676D01*
X152733333Y-46897676D02*
X152828571Y-46802438D01*
X152828571Y-46802438D02*
X152971428Y-46754819D01*
X152971428Y-46754819D02*
X153066666Y-46754819D01*
X153066666Y-46754819D02*
X153209523Y-46802438D01*
X153209523Y-46802438D02*
X153257142Y-46850057D01*
X154209523Y-47754819D02*
X153638095Y-47754819D01*
X153923809Y-47754819D02*
X153923809Y-46754819D01*
X153923809Y-46754819D02*
X153828571Y-46897676D01*
X153828571Y-46897676D02*
X153733333Y-46992914D01*
X153733333Y-46992914D02*
X153638095Y-47040533D01*
X154828571Y-46754819D02*
X154923809Y-46754819D01*
X154923809Y-46754819D02*
X155019047Y-46802438D01*
X155019047Y-46802438D02*
X155066666Y-46850057D01*
X155066666Y-46850057D02*
X155114285Y-46945295D01*
X155114285Y-46945295D02*
X155161904Y-47135771D01*
X155161904Y-47135771D02*
X155161904Y-47373866D01*
X155161904Y-47373866D02*
X155114285Y-47564342D01*
X155114285Y-47564342D02*
X155066666Y-47659580D01*
X155066666Y-47659580D02*
X155019047Y-47707200D01*
X155019047Y-47707200D02*
X154923809Y-47754819D01*
X154923809Y-47754819D02*
X154828571Y-47754819D01*
X154828571Y-47754819D02*
X154733333Y-47707200D01*
X154733333Y-47707200D02*
X154685714Y-47659580D01*
X154685714Y-47659580D02*
X154638095Y-47564342D01*
X154638095Y-47564342D02*
X154590476Y-47373866D01*
X154590476Y-47373866D02*
X154590476Y-47135771D01*
X154590476Y-47135771D02*
X154638095Y-46945295D01*
X154638095Y-46945295D02*
X154685714Y-46850057D01*
X154685714Y-46850057D02*
X154733333Y-46802438D01*
X154733333Y-46802438D02*
X154828571Y-46754819D01*
X172226905Y-20854819D02*
X172226905Y-19854819D01*
X172226905Y-19854819D02*
X172465000Y-19854819D01*
X172465000Y-19854819D02*
X172607857Y-19902438D01*
X172607857Y-19902438D02*
X172703095Y-19997676D01*
X172703095Y-19997676D02*
X172750714Y-20092914D01*
X172750714Y-20092914D02*
X172798333Y-20283390D01*
X172798333Y-20283390D02*
X172798333Y-20426247D01*
X172798333Y-20426247D02*
X172750714Y-20616723D01*
X172750714Y-20616723D02*
X172703095Y-20711961D01*
X172703095Y-20711961D02*
X172607857Y-20807200D01*
X172607857Y-20807200D02*
X172465000Y-20854819D01*
X172465000Y-20854819D02*
X172226905Y-20854819D01*
X173750714Y-20854819D02*
X173179286Y-20854819D01*
X173465000Y-20854819D02*
X173465000Y-19854819D01*
X173465000Y-19854819D02*
X173369762Y-19997676D01*
X173369762Y-19997676D02*
X173274524Y-20092914D01*
X173274524Y-20092914D02*
X173179286Y-20140533D01*
X143533333Y-47909580D02*
X143485714Y-47957200D01*
X143485714Y-47957200D02*
X143342857Y-48004819D01*
X143342857Y-48004819D02*
X143247619Y-48004819D01*
X143247619Y-48004819D02*
X143104762Y-47957200D01*
X143104762Y-47957200D02*
X143009524Y-47861961D01*
X143009524Y-47861961D02*
X142961905Y-47766723D01*
X142961905Y-47766723D02*
X142914286Y-47576247D01*
X142914286Y-47576247D02*
X142914286Y-47433390D01*
X142914286Y-47433390D02*
X142961905Y-47242914D01*
X142961905Y-47242914D02*
X143009524Y-47147676D01*
X143009524Y-47147676D02*
X143104762Y-47052438D01*
X143104762Y-47052438D02*
X143247619Y-47004819D01*
X143247619Y-47004819D02*
X143342857Y-47004819D01*
X143342857Y-47004819D02*
X143485714Y-47052438D01*
X143485714Y-47052438D02*
X143533333Y-47100057D01*
X144390476Y-47004819D02*
X144200000Y-47004819D01*
X144200000Y-47004819D02*
X144104762Y-47052438D01*
X144104762Y-47052438D02*
X144057143Y-47100057D01*
X144057143Y-47100057D02*
X143961905Y-47242914D01*
X143961905Y-47242914D02*
X143914286Y-47433390D01*
X143914286Y-47433390D02*
X143914286Y-47814342D01*
X143914286Y-47814342D02*
X143961905Y-47909580D01*
X143961905Y-47909580D02*
X144009524Y-47957200D01*
X144009524Y-47957200D02*
X144104762Y-48004819D01*
X144104762Y-48004819D02*
X144295238Y-48004819D01*
X144295238Y-48004819D02*
X144390476Y-47957200D01*
X144390476Y-47957200D02*
X144438095Y-47909580D01*
X144438095Y-47909580D02*
X144485714Y-47814342D01*
X144485714Y-47814342D02*
X144485714Y-47576247D01*
X144485714Y-47576247D02*
X144438095Y-47481009D01*
X144438095Y-47481009D02*
X144390476Y-47433390D01*
X144390476Y-47433390D02*
X144295238Y-47385771D01*
X144295238Y-47385771D02*
X144104762Y-47385771D01*
X144104762Y-47385771D02*
X144009524Y-47433390D01*
X144009524Y-47433390D02*
X143961905Y-47481009D01*
X143961905Y-47481009D02*
X143914286Y-47576247D01*
X144753333Y-45147080D02*
X144705714Y-45194700D01*
X144705714Y-45194700D02*
X144562857Y-45242319D01*
X144562857Y-45242319D02*
X144467619Y-45242319D01*
X144467619Y-45242319D02*
X144324762Y-45194700D01*
X144324762Y-45194700D02*
X144229524Y-45099461D01*
X144229524Y-45099461D02*
X144181905Y-45004223D01*
X144181905Y-45004223D02*
X144134286Y-44813747D01*
X144134286Y-44813747D02*
X144134286Y-44670890D01*
X144134286Y-44670890D02*
X144181905Y-44480414D01*
X144181905Y-44480414D02*
X144229524Y-44385176D01*
X144229524Y-44385176D02*
X144324762Y-44289938D01*
X144324762Y-44289938D02*
X144467619Y-44242319D01*
X144467619Y-44242319D02*
X144562857Y-44242319D01*
X144562857Y-44242319D02*
X144705714Y-44289938D01*
X144705714Y-44289938D02*
X144753333Y-44337557D01*
X145658095Y-44242319D02*
X145181905Y-44242319D01*
X145181905Y-44242319D02*
X145134286Y-44718509D01*
X145134286Y-44718509D02*
X145181905Y-44670890D01*
X145181905Y-44670890D02*
X145277143Y-44623271D01*
X145277143Y-44623271D02*
X145515238Y-44623271D01*
X145515238Y-44623271D02*
X145610476Y-44670890D01*
X145610476Y-44670890D02*
X145658095Y-44718509D01*
X145658095Y-44718509D02*
X145705714Y-44813747D01*
X145705714Y-44813747D02*
X145705714Y-45051842D01*
X145705714Y-45051842D02*
X145658095Y-45147080D01*
X145658095Y-45147080D02*
X145610476Y-45194700D01*
X145610476Y-45194700D02*
X145515238Y-45242319D01*
X145515238Y-45242319D02*
X145277143Y-45242319D01*
X145277143Y-45242319D02*
X145181905Y-45194700D01*
X145181905Y-45194700D02*
X145134286Y-45147080D01*
X267596667Y-47419700D02*
X267739524Y-47467319D01*
X267739524Y-47467319D02*
X267977619Y-47467319D01*
X267977619Y-47467319D02*
X268072857Y-47419700D01*
X268072857Y-47419700D02*
X268120476Y-47372080D01*
X268120476Y-47372080D02*
X268168095Y-47276842D01*
X268168095Y-47276842D02*
X268168095Y-47181604D01*
X268168095Y-47181604D02*
X268120476Y-47086366D01*
X268120476Y-47086366D02*
X268072857Y-47038747D01*
X268072857Y-47038747D02*
X267977619Y-46991128D01*
X267977619Y-46991128D02*
X267787143Y-46943509D01*
X267787143Y-46943509D02*
X267691905Y-46895890D01*
X267691905Y-46895890D02*
X267644286Y-46848271D01*
X267644286Y-46848271D02*
X267596667Y-46753033D01*
X267596667Y-46753033D02*
X267596667Y-46657795D01*
X267596667Y-46657795D02*
X267644286Y-46562557D01*
X267644286Y-46562557D02*
X267691905Y-46514938D01*
X267691905Y-46514938D02*
X267787143Y-46467319D01*
X267787143Y-46467319D02*
X268025238Y-46467319D01*
X268025238Y-46467319D02*
X268168095Y-46514938D01*
X268501429Y-46467319D02*
X268739524Y-47467319D01*
X268739524Y-47467319D02*
X268930000Y-46753033D01*
X268930000Y-46753033D02*
X269120476Y-47467319D01*
X269120476Y-47467319D02*
X269358572Y-46467319D01*
X270168095Y-46467319D02*
X269977619Y-46467319D01*
X269977619Y-46467319D02*
X269882381Y-46514938D01*
X269882381Y-46514938D02*
X269834762Y-46562557D01*
X269834762Y-46562557D02*
X269739524Y-46705414D01*
X269739524Y-46705414D02*
X269691905Y-46895890D01*
X269691905Y-46895890D02*
X269691905Y-47276842D01*
X269691905Y-47276842D02*
X269739524Y-47372080D01*
X269739524Y-47372080D02*
X269787143Y-47419700D01*
X269787143Y-47419700D02*
X269882381Y-47467319D01*
X269882381Y-47467319D02*
X270072857Y-47467319D01*
X270072857Y-47467319D02*
X270168095Y-47419700D01*
X270168095Y-47419700D02*
X270215714Y-47372080D01*
X270215714Y-47372080D02*
X270263333Y-47276842D01*
X270263333Y-47276842D02*
X270263333Y-47038747D01*
X270263333Y-47038747D02*
X270215714Y-46943509D01*
X270215714Y-46943509D02*
X270168095Y-46895890D01*
X270168095Y-46895890D02*
X270072857Y-46848271D01*
X270072857Y-46848271D02*
X269882381Y-46848271D01*
X269882381Y-46848271D02*
X269787143Y-46895890D01*
X269787143Y-46895890D02*
X269739524Y-46943509D01*
X269739524Y-46943509D02*
X269691905Y-47038747D01*
X130996667Y-90079700D02*
X131139524Y-90127319D01*
X131139524Y-90127319D02*
X131377619Y-90127319D01*
X131377619Y-90127319D02*
X131472857Y-90079700D01*
X131472857Y-90079700D02*
X131520476Y-90032080D01*
X131520476Y-90032080D02*
X131568095Y-89936842D01*
X131568095Y-89936842D02*
X131568095Y-89841604D01*
X131568095Y-89841604D02*
X131520476Y-89746366D01*
X131520476Y-89746366D02*
X131472857Y-89698747D01*
X131472857Y-89698747D02*
X131377619Y-89651128D01*
X131377619Y-89651128D02*
X131187143Y-89603509D01*
X131187143Y-89603509D02*
X131091905Y-89555890D01*
X131091905Y-89555890D02*
X131044286Y-89508271D01*
X131044286Y-89508271D02*
X130996667Y-89413033D01*
X130996667Y-89413033D02*
X130996667Y-89317795D01*
X130996667Y-89317795D02*
X131044286Y-89222557D01*
X131044286Y-89222557D02*
X131091905Y-89174938D01*
X131091905Y-89174938D02*
X131187143Y-89127319D01*
X131187143Y-89127319D02*
X131425238Y-89127319D01*
X131425238Y-89127319D02*
X131568095Y-89174938D01*
X131901429Y-89127319D02*
X132139524Y-90127319D01*
X132139524Y-90127319D02*
X132330000Y-89413033D01*
X132330000Y-89413033D02*
X132520476Y-90127319D01*
X132520476Y-90127319D02*
X132758572Y-89127319D01*
X133044286Y-89127319D02*
X133663333Y-89127319D01*
X133663333Y-89127319D02*
X133330000Y-89508271D01*
X133330000Y-89508271D02*
X133472857Y-89508271D01*
X133472857Y-89508271D02*
X133568095Y-89555890D01*
X133568095Y-89555890D02*
X133615714Y-89603509D01*
X133615714Y-89603509D02*
X133663333Y-89698747D01*
X133663333Y-89698747D02*
X133663333Y-89936842D01*
X133663333Y-89936842D02*
X133615714Y-90032080D01*
X133615714Y-90032080D02*
X133568095Y-90079700D01*
X133568095Y-90079700D02*
X133472857Y-90127319D01*
X133472857Y-90127319D02*
X133187143Y-90127319D01*
X133187143Y-90127319D02*
X133091905Y-90079700D01*
X133091905Y-90079700D02*
X133044286Y-90032080D01*
X160783333Y-46059580D02*
X160735714Y-46107200D01*
X160735714Y-46107200D02*
X160592857Y-46154819D01*
X160592857Y-46154819D02*
X160497619Y-46154819D01*
X160497619Y-46154819D02*
X160354762Y-46107200D01*
X160354762Y-46107200D02*
X160259524Y-46011961D01*
X160259524Y-46011961D02*
X160211905Y-45916723D01*
X160211905Y-45916723D02*
X160164286Y-45726247D01*
X160164286Y-45726247D02*
X160164286Y-45583390D01*
X160164286Y-45583390D02*
X160211905Y-45392914D01*
X160211905Y-45392914D02*
X160259524Y-45297676D01*
X160259524Y-45297676D02*
X160354762Y-45202438D01*
X160354762Y-45202438D02*
X160497619Y-45154819D01*
X160497619Y-45154819D02*
X160592857Y-45154819D01*
X160592857Y-45154819D02*
X160735714Y-45202438D01*
X160735714Y-45202438D02*
X160783333Y-45250057D01*
X161116667Y-45154819D02*
X161783333Y-45154819D01*
X161783333Y-45154819D02*
X161354762Y-46154819D01*
X140357142Y-44259580D02*
X140309523Y-44307200D01*
X140309523Y-44307200D02*
X140166666Y-44354819D01*
X140166666Y-44354819D02*
X140071428Y-44354819D01*
X140071428Y-44354819D02*
X139928571Y-44307200D01*
X139928571Y-44307200D02*
X139833333Y-44211961D01*
X139833333Y-44211961D02*
X139785714Y-44116723D01*
X139785714Y-44116723D02*
X139738095Y-43926247D01*
X139738095Y-43926247D02*
X139738095Y-43783390D01*
X139738095Y-43783390D02*
X139785714Y-43592914D01*
X139785714Y-43592914D02*
X139833333Y-43497676D01*
X139833333Y-43497676D02*
X139928571Y-43402438D01*
X139928571Y-43402438D02*
X140071428Y-43354819D01*
X140071428Y-43354819D02*
X140166666Y-43354819D01*
X140166666Y-43354819D02*
X140309523Y-43402438D01*
X140309523Y-43402438D02*
X140357142Y-43450057D01*
X141309523Y-44354819D02*
X140738095Y-44354819D01*
X141023809Y-44354819D02*
X141023809Y-43354819D01*
X141023809Y-43354819D02*
X140928571Y-43497676D01*
X140928571Y-43497676D02*
X140833333Y-43592914D01*
X140833333Y-43592914D02*
X140738095Y-43640533D01*
X142166666Y-43354819D02*
X141976190Y-43354819D01*
X141976190Y-43354819D02*
X141880952Y-43402438D01*
X141880952Y-43402438D02*
X141833333Y-43450057D01*
X141833333Y-43450057D02*
X141738095Y-43592914D01*
X141738095Y-43592914D02*
X141690476Y-43783390D01*
X141690476Y-43783390D02*
X141690476Y-44164342D01*
X141690476Y-44164342D02*
X141738095Y-44259580D01*
X141738095Y-44259580D02*
X141785714Y-44307200D01*
X141785714Y-44307200D02*
X141880952Y-44354819D01*
X141880952Y-44354819D02*
X142071428Y-44354819D01*
X142071428Y-44354819D02*
X142166666Y-44307200D01*
X142166666Y-44307200D02*
X142214285Y-44259580D01*
X142214285Y-44259580D02*
X142261904Y-44164342D01*
X142261904Y-44164342D02*
X142261904Y-43926247D01*
X142261904Y-43926247D02*
X142214285Y-43831009D01*
X142214285Y-43831009D02*
X142166666Y-43783390D01*
X142166666Y-43783390D02*
X142071428Y-43735771D01*
X142071428Y-43735771D02*
X141880952Y-43735771D01*
X141880952Y-43735771D02*
X141785714Y-43783390D01*
X141785714Y-43783390D02*
X141738095Y-43831009D01*
X141738095Y-43831009D02*
X141690476Y-43926247D01*
X244246667Y-25579700D02*
X244389524Y-25627319D01*
X244389524Y-25627319D02*
X244627619Y-25627319D01*
X244627619Y-25627319D02*
X244722857Y-25579700D01*
X244722857Y-25579700D02*
X244770476Y-25532080D01*
X244770476Y-25532080D02*
X244818095Y-25436842D01*
X244818095Y-25436842D02*
X244818095Y-25341604D01*
X244818095Y-25341604D02*
X244770476Y-25246366D01*
X244770476Y-25246366D02*
X244722857Y-25198747D01*
X244722857Y-25198747D02*
X244627619Y-25151128D01*
X244627619Y-25151128D02*
X244437143Y-25103509D01*
X244437143Y-25103509D02*
X244341905Y-25055890D01*
X244341905Y-25055890D02*
X244294286Y-25008271D01*
X244294286Y-25008271D02*
X244246667Y-24913033D01*
X244246667Y-24913033D02*
X244246667Y-24817795D01*
X244246667Y-24817795D02*
X244294286Y-24722557D01*
X244294286Y-24722557D02*
X244341905Y-24674938D01*
X244341905Y-24674938D02*
X244437143Y-24627319D01*
X244437143Y-24627319D02*
X244675238Y-24627319D01*
X244675238Y-24627319D02*
X244818095Y-24674938D01*
X245151429Y-24627319D02*
X245389524Y-25627319D01*
X245389524Y-25627319D02*
X245580000Y-24913033D01*
X245580000Y-24913033D02*
X245770476Y-25627319D01*
X245770476Y-25627319D02*
X246008572Y-24627319D01*
X246532381Y-25055890D02*
X246437143Y-25008271D01*
X246437143Y-25008271D02*
X246389524Y-24960652D01*
X246389524Y-24960652D02*
X246341905Y-24865414D01*
X246341905Y-24865414D02*
X246341905Y-24817795D01*
X246341905Y-24817795D02*
X246389524Y-24722557D01*
X246389524Y-24722557D02*
X246437143Y-24674938D01*
X246437143Y-24674938D02*
X246532381Y-24627319D01*
X246532381Y-24627319D02*
X246722857Y-24627319D01*
X246722857Y-24627319D02*
X246818095Y-24674938D01*
X246818095Y-24674938D02*
X246865714Y-24722557D01*
X246865714Y-24722557D02*
X246913333Y-24817795D01*
X246913333Y-24817795D02*
X246913333Y-24865414D01*
X246913333Y-24865414D02*
X246865714Y-24960652D01*
X246865714Y-24960652D02*
X246818095Y-25008271D01*
X246818095Y-25008271D02*
X246722857Y-25055890D01*
X246722857Y-25055890D02*
X246532381Y-25055890D01*
X246532381Y-25055890D02*
X246437143Y-25103509D01*
X246437143Y-25103509D02*
X246389524Y-25151128D01*
X246389524Y-25151128D02*
X246341905Y-25246366D01*
X246341905Y-25246366D02*
X246341905Y-25436842D01*
X246341905Y-25436842D02*
X246389524Y-25532080D01*
X246389524Y-25532080D02*
X246437143Y-25579700D01*
X246437143Y-25579700D02*
X246532381Y-25627319D01*
X246532381Y-25627319D02*
X246722857Y-25627319D01*
X246722857Y-25627319D02*
X246818095Y-25579700D01*
X246818095Y-25579700D02*
X246865714Y-25532080D01*
X246865714Y-25532080D02*
X246913333Y-25436842D01*
X246913333Y-25436842D02*
X246913333Y-25246366D01*
X246913333Y-25246366D02*
X246865714Y-25151128D01*
X246865714Y-25151128D02*
X246818095Y-25103509D01*
X246818095Y-25103509D02*
X246722857Y-25055890D01*
X146894819Y-20583333D02*
X147609104Y-20583333D01*
X147609104Y-20583333D02*
X147751961Y-20630952D01*
X147751961Y-20630952D02*
X147847200Y-20726190D01*
X147847200Y-20726190D02*
X147894819Y-20869047D01*
X147894819Y-20869047D02*
X147894819Y-20964285D01*
X146990057Y-20154761D02*
X146942438Y-20107142D01*
X146942438Y-20107142D02*
X146894819Y-20011904D01*
X146894819Y-20011904D02*
X146894819Y-19773809D01*
X146894819Y-19773809D02*
X146942438Y-19678571D01*
X146942438Y-19678571D02*
X146990057Y-19630952D01*
X146990057Y-19630952D02*
X147085295Y-19583333D01*
X147085295Y-19583333D02*
X147180533Y-19583333D01*
X147180533Y-19583333D02*
X147323390Y-19630952D01*
X147323390Y-19630952D02*
X147894819Y-20202380D01*
X147894819Y-20202380D02*
X147894819Y-19583333D01*
X165657142Y-44339580D02*
X165609523Y-44387200D01*
X165609523Y-44387200D02*
X165466666Y-44434819D01*
X165466666Y-44434819D02*
X165371428Y-44434819D01*
X165371428Y-44434819D02*
X165228571Y-44387200D01*
X165228571Y-44387200D02*
X165133333Y-44291961D01*
X165133333Y-44291961D02*
X165085714Y-44196723D01*
X165085714Y-44196723D02*
X165038095Y-44006247D01*
X165038095Y-44006247D02*
X165038095Y-43863390D01*
X165038095Y-43863390D02*
X165085714Y-43672914D01*
X165085714Y-43672914D02*
X165133333Y-43577676D01*
X165133333Y-43577676D02*
X165228571Y-43482438D01*
X165228571Y-43482438D02*
X165371428Y-43434819D01*
X165371428Y-43434819D02*
X165466666Y-43434819D01*
X165466666Y-43434819D02*
X165609523Y-43482438D01*
X165609523Y-43482438D02*
X165657142Y-43530057D01*
X166609523Y-44434819D02*
X166038095Y-44434819D01*
X166323809Y-44434819D02*
X166323809Y-43434819D01*
X166323809Y-43434819D02*
X166228571Y-43577676D01*
X166228571Y-43577676D02*
X166133333Y-43672914D01*
X166133333Y-43672914D02*
X166038095Y-43720533D01*
X167180952Y-43863390D02*
X167085714Y-43815771D01*
X167085714Y-43815771D02*
X167038095Y-43768152D01*
X167038095Y-43768152D02*
X166990476Y-43672914D01*
X166990476Y-43672914D02*
X166990476Y-43625295D01*
X166990476Y-43625295D02*
X167038095Y-43530057D01*
X167038095Y-43530057D02*
X167085714Y-43482438D01*
X167085714Y-43482438D02*
X167180952Y-43434819D01*
X167180952Y-43434819D02*
X167371428Y-43434819D01*
X167371428Y-43434819D02*
X167466666Y-43482438D01*
X167466666Y-43482438D02*
X167514285Y-43530057D01*
X167514285Y-43530057D02*
X167561904Y-43625295D01*
X167561904Y-43625295D02*
X167561904Y-43672914D01*
X167561904Y-43672914D02*
X167514285Y-43768152D01*
X167514285Y-43768152D02*
X167466666Y-43815771D01*
X167466666Y-43815771D02*
X167371428Y-43863390D01*
X167371428Y-43863390D02*
X167180952Y-43863390D01*
X167180952Y-43863390D02*
X167085714Y-43911009D01*
X167085714Y-43911009D02*
X167038095Y-43958628D01*
X167038095Y-43958628D02*
X166990476Y-44053866D01*
X166990476Y-44053866D02*
X166990476Y-44244342D01*
X166990476Y-44244342D02*
X167038095Y-44339580D01*
X167038095Y-44339580D02*
X167085714Y-44387200D01*
X167085714Y-44387200D02*
X167180952Y-44434819D01*
X167180952Y-44434819D02*
X167371428Y-44434819D01*
X167371428Y-44434819D02*
X167466666Y-44387200D01*
X167466666Y-44387200D02*
X167514285Y-44339580D01*
X167514285Y-44339580D02*
X167561904Y-44244342D01*
X167561904Y-44244342D02*
X167561904Y-44053866D01*
X167561904Y-44053866D02*
X167514285Y-43958628D01*
X167514285Y-43958628D02*
X167466666Y-43911009D01*
X167466666Y-43911009D02*
X167371428Y-43863390D01*
X173307142Y-23109580D02*
X173259523Y-23157200D01*
X173259523Y-23157200D02*
X173116666Y-23204819D01*
X173116666Y-23204819D02*
X173021428Y-23204819D01*
X173021428Y-23204819D02*
X172878571Y-23157200D01*
X172878571Y-23157200D02*
X172783333Y-23061961D01*
X172783333Y-23061961D02*
X172735714Y-22966723D01*
X172735714Y-22966723D02*
X172688095Y-22776247D01*
X172688095Y-22776247D02*
X172688095Y-22633390D01*
X172688095Y-22633390D02*
X172735714Y-22442914D01*
X172735714Y-22442914D02*
X172783333Y-22347676D01*
X172783333Y-22347676D02*
X172878571Y-22252438D01*
X172878571Y-22252438D02*
X173021428Y-22204819D01*
X173021428Y-22204819D02*
X173116666Y-22204819D01*
X173116666Y-22204819D02*
X173259523Y-22252438D01*
X173259523Y-22252438D02*
X173307142Y-22300057D01*
X174259523Y-23204819D02*
X173688095Y-23204819D01*
X173973809Y-23204819D02*
X173973809Y-22204819D01*
X173973809Y-22204819D02*
X173878571Y-22347676D01*
X173878571Y-22347676D02*
X173783333Y-22442914D01*
X173783333Y-22442914D02*
X173688095Y-22490533D01*
X174592857Y-22204819D02*
X175211904Y-22204819D01*
X175211904Y-22204819D02*
X174878571Y-22585771D01*
X174878571Y-22585771D02*
X175021428Y-22585771D01*
X175021428Y-22585771D02*
X175116666Y-22633390D01*
X175116666Y-22633390D02*
X175164285Y-22681009D01*
X175164285Y-22681009D02*
X175211904Y-22776247D01*
X175211904Y-22776247D02*
X175211904Y-23014342D01*
X175211904Y-23014342D02*
X175164285Y-23109580D01*
X175164285Y-23109580D02*
X175116666Y-23157200D01*
X175116666Y-23157200D02*
X175021428Y-23204819D01*
X175021428Y-23204819D02*
X174735714Y-23204819D01*
X174735714Y-23204819D02*
X174640476Y-23157200D01*
X174640476Y-23157200D02*
X174592857Y-23109580D01*
X119520476Y-63579700D02*
X119663333Y-63627319D01*
X119663333Y-63627319D02*
X119901428Y-63627319D01*
X119901428Y-63627319D02*
X119996666Y-63579700D01*
X119996666Y-63579700D02*
X120044285Y-63532080D01*
X120044285Y-63532080D02*
X120091904Y-63436842D01*
X120091904Y-63436842D02*
X120091904Y-63341604D01*
X120091904Y-63341604D02*
X120044285Y-63246366D01*
X120044285Y-63246366D02*
X119996666Y-63198747D01*
X119996666Y-63198747D02*
X119901428Y-63151128D01*
X119901428Y-63151128D02*
X119710952Y-63103509D01*
X119710952Y-63103509D02*
X119615714Y-63055890D01*
X119615714Y-63055890D02*
X119568095Y-63008271D01*
X119568095Y-63008271D02*
X119520476Y-62913033D01*
X119520476Y-62913033D02*
X119520476Y-62817795D01*
X119520476Y-62817795D02*
X119568095Y-62722557D01*
X119568095Y-62722557D02*
X119615714Y-62674938D01*
X119615714Y-62674938D02*
X119710952Y-62627319D01*
X119710952Y-62627319D02*
X119949047Y-62627319D01*
X119949047Y-62627319D02*
X120091904Y-62674938D01*
X120425238Y-62627319D02*
X120663333Y-63627319D01*
X120663333Y-63627319D02*
X120853809Y-62913033D01*
X120853809Y-62913033D02*
X121044285Y-63627319D01*
X121044285Y-63627319D02*
X121282381Y-62627319D01*
X122187142Y-63627319D02*
X121615714Y-63627319D01*
X121901428Y-63627319D02*
X121901428Y-62627319D01*
X121901428Y-62627319D02*
X121806190Y-62770176D01*
X121806190Y-62770176D02*
X121710952Y-62865414D01*
X121710952Y-62865414D02*
X121615714Y-62913033D01*
X123139523Y-63627319D02*
X122568095Y-63627319D01*
X122853809Y-63627319D02*
X122853809Y-62627319D01*
X122853809Y-62627319D02*
X122758571Y-62770176D01*
X122758571Y-62770176D02*
X122663333Y-62865414D01*
X122663333Y-62865414D02*
X122568095Y-62913033D01*
X174996667Y-90079700D02*
X175139524Y-90127319D01*
X175139524Y-90127319D02*
X175377619Y-90127319D01*
X175377619Y-90127319D02*
X175472857Y-90079700D01*
X175472857Y-90079700D02*
X175520476Y-90032080D01*
X175520476Y-90032080D02*
X175568095Y-89936842D01*
X175568095Y-89936842D02*
X175568095Y-89841604D01*
X175568095Y-89841604D02*
X175520476Y-89746366D01*
X175520476Y-89746366D02*
X175472857Y-89698747D01*
X175472857Y-89698747D02*
X175377619Y-89651128D01*
X175377619Y-89651128D02*
X175187143Y-89603509D01*
X175187143Y-89603509D02*
X175091905Y-89555890D01*
X175091905Y-89555890D02*
X175044286Y-89508271D01*
X175044286Y-89508271D02*
X174996667Y-89413033D01*
X174996667Y-89413033D02*
X174996667Y-89317795D01*
X174996667Y-89317795D02*
X175044286Y-89222557D01*
X175044286Y-89222557D02*
X175091905Y-89174938D01*
X175091905Y-89174938D02*
X175187143Y-89127319D01*
X175187143Y-89127319D02*
X175425238Y-89127319D01*
X175425238Y-89127319D02*
X175568095Y-89174938D01*
X175901429Y-89127319D02*
X176139524Y-90127319D01*
X176139524Y-90127319D02*
X176330000Y-89413033D01*
X176330000Y-89413033D02*
X176520476Y-90127319D01*
X176520476Y-90127319D02*
X176758572Y-89127319D01*
X177091905Y-89222557D02*
X177139524Y-89174938D01*
X177139524Y-89174938D02*
X177234762Y-89127319D01*
X177234762Y-89127319D02*
X177472857Y-89127319D01*
X177472857Y-89127319D02*
X177568095Y-89174938D01*
X177568095Y-89174938D02*
X177615714Y-89222557D01*
X177615714Y-89222557D02*
X177663333Y-89317795D01*
X177663333Y-89317795D02*
X177663333Y-89413033D01*
X177663333Y-89413033D02*
X177615714Y-89555890D01*
X177615714Y-89555890D02*
X177044286Y-90127319D01*
X177044286Y-90127319D02*
X177663333Y-90127319D01*
X160033333Y-43659580D02*
X159985714Y-43707200D01*
X159985714Y-43707200D02*
X159842857Y-43754819D01*
X159842857Y-43754819D02*
X159747619Y-43754819D01*
X159747619Y-43754819D02*
X159604762Y-43707200D01*
X159604762Y-43707200D02*
X159509524Y-43611961D01*
X159509524Y-43611961D02*
X159461905Y-43516723D01*
X159461905Y-43516723D02*
X159414286Y-43326247D01*
X159414286Y-43326247D02*
X159414286Y-43183390D01*
X159414286Y-43183390D02*
X159461905Y-42992914D01*
X159461905Y-42992914D02*
X159509524Y-42897676D01*
X159509524Y-42897676D02*
X159604762Y-42802438D01*
X159604762Y-42802438D02*
X159747619Y-42754819D01*
X159747619Y-42754819D02*
X159842857Y-42754819D01*
X159842857Y-42754819D02*
X159985714Y-42802438D01*
X159985714Y-42802438D02*
X160033333Y-42850057D01*
X160890476Y-43088152D02*
X160890476Y-43754819D01*
X160652381Y-42707200D02*
X160414286Y-43421485D01*
X160414286Y-43421485D02*
X161033333Y-43421485D01*
X160661593Y-47509580D02*
X160613974Y-47557200D01*
X160613974Y-47557200D02*
X160471117Y-47604819D01*
X160471117Y-47604819D02*
X160375879Y-47604819D01*
X160375879Y-47604819D02*
X160233022Y-47557200D01*
X160233022Y-47557200D02*
X160137784Y-47461961D01*
X160137784Y-47461961D02*
X160090165Y-47366723D01*
X160090165Y-47366723D02*
X160042546Y-47176247D01*
X160042546Y-47176247D02*
X160042546Y-47033390D01*
X160042546Y-47033390D02*
X160090165Y-46842914D01*
X160090165Y-46842914D02*
X160137784Y-46747676D01*
X160137784Y-46747676D02*
X160233022Y-46652438D01*
X160233022Y-46652438D02*
X160375879Y-46604819D01*
X160375879Y-46604819D02*
X160471117Y-46604819D01*
X160471117Y-46604819D02*
X160613974Y-46652438D01*
X160613974Y-46652438D02*
X160661593Y-46700057D01*
X161233022Y-47033390D02*
X161137784Y-46985771D01*
X161137784Y-46985771D02*
X161090165Y-46938152D01*
X161090165Y-46938152D02*
X161042546Y-46842914D01*
X161042546Y-46842914D02*
X161042546Y-46795295D01*
X161042546Y-46795295D02*
X161090165Y-46700057D01*
X161090165Y-46700057D02*
X161137784Y-46652438D01*
X161137784Y-46652438D02*
X161233022Y-46604819D01*
X161233022Y-46604819D02*
X161423498Y-46604819D01*
X161423498Y-46604819D02*
X161518736Y-46652438D01*
X161518736Y-46652438D02*
X161566355Y-46700057D01*
X161566355Y-46700057D02*
X161613974Y-46795295D01*
X161613974Y-46795295D02*
X161613974Y-46842914D01*
X161613974Y-46842914D02*
X161566355Y-46938152D01*
X161566355Y-46938152D02*
X161518736Y-46985771D01*
X161518736Y-46985771D02*
X161423498Y-47033390D01*
X161423498Y-47033390D02*
X161233022Y-47033390D01*
X161233022Y-47033390D02*
X161137784Y-47081009D01*
X161137784Y-47081009D02*
X161090165Y-47128628D01*
X161090165Y-47128628D02*
X161042546Y-47223866D01*
X161042546Y-47223866D02*
X161042546Y-47414342D01*
X161042546Y-47414342D02*
X161090165Y-47509580D01*
X161090165Y-47509580D02*
X161137784Y-47557200D01*
X161137784Y-47557200D02*
X161233022Y-47604819D01*
X161233022Y-47604819D02*
X161423498Y-47604819D01*
X161423498Y-47604819D02*
X161518736Y-47557200D01*
X161518736Y-47557200D02*
X161566355Y-47509580D01*
X161566355Y-47509580D02*
X161613974Y-47414342D01*
X161613974Y-47414342D02*
X161613974Y-47223866D01*
X161613974Y-47223866D02*
X161566355Y-47128628D01*
X161566355Y-47128628D02*
X161518736Y-47081009D01*
X161518736Y-47081009D02*
X161423498Y-47033390D01*
X246096667Y-66919700D02*
X246239524Y-66967319D01*
X246239524Y-66967319D02*
X246477619Y-66967319D01*
X246477619Y-66967319D02*
X246572857Y-66919700D01*
X246572857Y-66919700D02*
X246620476Y-66872080D01*
X246620476Y-66872080D02*
X246668095Y-66776842D01*
X246668095Y-66776842D02*
X246668095Y-66681604D01*
X246668095Y-66681604D02*
X246620476Y-66586366D01*
X246620476Y-66586366D02*
X246572857Y-66538747D01*
X246572857Y-66538747D02*
X246477619Y-66491128D01*
X246477619Y-66491128D02*
X246287143Y-66443509D01*
X246287143Y-66443509D02*
X246191905Y-66395890D01*
X246191905Y-66395890D02*
X246144286Y-66348271D01*
X246144286Y-66348271D02*
X246096667Y-66253033D01*
X246096667Y-66253033D02*
X246096667Y-66157795D01*
X246096667Y-66157795D02*
X246144286Y-66062557D01*
X246144286Y-66062557D02*
X246191905Y-66014938D01*
X246191905Y-66014938D02*
X246287143Y-65967319D01*
X246287143Y-65967319D02*
X246525238Y-65967319D01*
X246525238Y-65967319D02*
X246668095Y-66014938D01*
X247001429Y-65967319D02*
X247239524Y-66967319D01*
X247239524Y-66967319D02*
X247430000Y-66253033D01*
X247430000Y-66253033D02*
X247620476Y-66967319D01*
X247620476Y-66967319D02*
X247858572Y-65967319D01*
X248144286Y-65967319D02*
X248810952Y-65967319D01*
X248810952Y-65967319D02*
X248382381Y-66967319D01*
X163016666Y-48731009D02*
X162683333Y-48731009D01*
X162683333Y-49254819D02*
X162683333Y-48254819D01*
X162683333Y-48254819D02*
X163159523Y-48254819D01*
X163873809Y-48731009D02*
X164016666Y-48778628D01*
X164016666Y-48778628D02*
X164064285Y-48826247D01*
X164064285Y-48826247D02*
X164111904Y-48921485D01*
X164111904Y-48921485D02*
X164111904Y-49064342D01*
X164111904Y-49064342D02*
X164064285Y-49159580D01*
X164064285Y-49159580D02*
X164016666Y-49207200D01*
X164016666Y-49207200D02*
X163921428Y-49254819D01*
X163921428Y-49254819D02*
X163540476Y-49254819D01*
X163540476Y-49254819D02*
X163540476Y-48254819D01*
X163540476Y-48254819D02*
X163873809Y-48254819D01*
X163873809Y-48254819D02*
X163969047Y-48302438D01*
X163969047Y-48302438D02*
X164016666Y-48350057D01*
X164016666Y-48350057D02*
X164064285Y-48445295D01*
X164064285Y-48445295D02*
X164064285Y-48540533D01*
X164064285Y-48540533D02*
X164016666Y-48635771D01*
X164016666Y-48635771D02*
X163969047Y-48683390D01*
X163969047Y-48683390D02*
X163873809Y-48731009D01*
X163873809Y-48731009D02*
X163540476Y-48731009D01*
X165064285Y-49254819D02*
X164492857Y-49254819D01*
X164778571Y-49254819D02*
X164778571Y-48254819D01*
X164778571Y-48254819D02*
X164683333Y-48397676D01*
X164683333Y-48397676D02*
X164588095Y-48492914D01*
X164588095Y-48492914D02*
X164492857Y-48540533D01*
X165967142Y-46444580D02*
X165919523Y-46492200D01*
X165919523Y-46492200D02*
X165776666Y-46539819D01*
X165776666Y-46539819D02*
X165681428Y-46539819D01*
X165681428Y-46539819D02*
X165538571Y-46492200D01*
X165538571Y-46492200D02*
X165443333Y-46396961D01*
X165443333Y-46396961D02*
X165395714Y-46301723D01*
X165395714Y-46301723D02*
X165348095Y-46111247D01*
X165348095Y-46111247D02*
X165348095Y-45968390D01*
X165348095Y-45968390D02*
X165395714Y-45777914D01*
X165395714Y-45777914D02*
X165443333Y-45682676D01*
X165443333Y-45682676D02*
X165538571Y-45587438D01*
X165538571Y-45587438D02*
X165681428Y-45539819D01*
X165681428Y-45539819D02*
X165776666Y-45539819D01*
X165776666Y-45539819D02*
X165919523Y-45587438D01*
X165919523Y-45587438D02*
X165967142Y-45635057D01*
X166919523Y-46539819D02*
X166348095Y-46539819D01*
X166633809Y-46539819D02*
X166633809Y-45539819D01*
X166633809Y-45539819D02*
X166538571Y-45682676D01*
X166538571Y-45682676D02*
X166443333Y-45777914D01*
X166443333Y-45777914D02*
X166348095Y-45825533D01*
X167252857Y-45539819D02*
X167919523Y-45539819D01*
X167919523Y-45539819D02*
X167490952Y-46539819D01*
X139758333Y-36984819D02*
X139425000Y-36508628D01*
X139186905Y-36984819D02*
X139186905Y-35984819D01*
X139186905Y-35984819D02*
X139567857Y-35984819D01*
X139567857Y-35984819D02*
X139663095Y-36032438D01*
X139663095Y-36032438D02*
X139710714Y-36080057D01*
X139710714Y-36080057D02*
X139758333Y-36175295D01*
X139758333Y-36175295D02*
X139758333Y-36318152D01*
X139758333Y-36318152D02*
X139710714Y-36413390D01*
X139710714Y-36413390D02*
X139663095Y-36461009D01*
X139663095Y-36461009D02*
X139567857Y-36508628D01*
X139567857Y-36508628D02*
X139186905Y-36508628D01*
X140710714Y-36984819D02*
X140139286Y-36984819D01*
X140425000Y-36984819D02*
X140425000Y-35984819D01*
X140425000Y-35984819D02*
X140329762Y-36127676D01*
X140329762Y-36127676D02*
X140234524Y-36222914D01*
X140234524Y-36222914D02*
X140139286Y-36270533D01*
X97297142Y-61959580D02*
X97249523Y-62007200D01*
X97249523Y-62007200D02*
X97106666Y-62054819D01*
X97106666Y-62054819D02*
X97011428Y-62054819D01*
X97011428Y-62054819D02*
X96868571Y-62007200D01*
X96868571Y-62007200D02*
X96773333Y-61911961D01*
X96773333Y-61911961D02*
X96725714Y-61816723D01*
X96725714Y-61816723D02*
X96678095Y-61626247D01*
X96678095Y-61626247D02*
X96678095Y-61483390D01*
X96678095Y-61483390D02*
X96725714Y-61292914D01*
X96725714Y-61292914D02*
X96773333Y-61197676D01*
X96773333Y-61197676D02*
X96868571Y-61102438D01*
X96868571Y-61102438D02*
X97011428Y-61054819D01*
X97011428Y-61054819D02*
X97106666Y-61054819D01*
X97106666Y-61054819D02*
X97249523Y-61102438D01*
X97249523Y-61102438D02*
X97297142Y-61150057D01*
X97678095Y-61150057D02*
X97725714Y-61102438D01*
X97725714Y-61102438D02*
X97820952Y-61054819D01*
X97820952Y-61054819D02*
X98059047Y-61054819D01*
X98059047Y-61054819D02*
X98154285Y-61102438D01*
X98154285Y-61102438D02*
X98201904Y-61150057D01*
X98201904Y-61150057D02*
X98249523Y-61245295D01*
X98249523Y-61245295D02*
X98249523Y-61340533D01*
X98249523Y-61340533D02*
X98201904Y-61483390D01*
X98201904Y-61483390D02*
X97630476Y-62054819D01*
X97630476Y-62054819D02*
X98249523Y-62054819D01*
X98868571Y-61054819D02*
X98963809Y-61054819D01*
X98963809Y-61054819D02*
X99059047Y-61102438D01*
X99059047Y-61102438D02*
X99106666Y-61150057D01*
X99106666Y-61150057D02*
X99154285Y-61245295D01*
X99154285Y-61245295D02*
X99201904Y-61435771D01*
X99201904Y-61435771D02*
X99201904Y-61673866D01*
X99201904Y-61673866D02*
X99154285Y-61864342D01*
X99154285Y-61864342D02*
X99106666Y-61959580D01*
X99106666Y-61959580D02*
X99059047Y-62007200D01*
X99059047Y-62007200D02*
X98963809Y-62054819D01*
X98963809Y-62054819D02*
X98868571Y-62054819D01*
X98868571Y-62054819D02*
X98773333Y-62007200D01*
X98773333Y-62007200D02*
X98725714Y-61959580D01*
X98725714Y-61959580D02*
X98678095Y-61864342D01*
X98678095Y-61864342D02*
X98630476Y-61673866D01*
X98630476Y-61673866D02*
X98630476Y-61435771D01*
X98630476Y-61435771D02*
X98678095Y-61245295D01*
X98678095Y-61245295D02*
X98725714Y-61150057D01*
X98725714Y-61150057D02*
X98773333Y-61102438D01*
X98773333Y-61102438D02*
X98868571Y-61054819D01*
D11*
%TO.C,U7*%
X93900000Y-54665000D02*
X93900000Y-54440000D01*
X93900000Y-58500000D02*
X93900000Y-57975000D01*
X93900000Y-58500000D02*
X94425000Y-58500000D01*
X94425000Y-54200000D02*
X94200000Y-54200000D01*
X98200000Y-54200000D02*
X97675000Y-54200000D01*
X98200000Y-54200000D02*
X98200000Y-54725000D01*
X98200000Y-58500000D02*
X97675000Y-58500000D01*
X98200000Y-58500000D02*
X98200000Y-57975000D01*
X93900000Y-54200000D02*
X93660000Y-53870000D01*
X94140000Y-53870000D01*
X93900000Y-54200000D01*
G36*
X93900000Y-54200000D02*
G01*
X93660000Y-53870000D01*
X94140000Y-53870000D01*
X93900000Y-54200000D01*
G37*
%TO.C,R4*%
X96643641Y-52830000D02*
X96336359Y-52830000D01*
X96643641Y-52070000D02*
X96336359Y-52070000D01*
%TO.C,R3*%
X93946359Y-52070000D02*
X94253641Y-52070000D01*
X93946359Y-52830000D02*
X94253641Y-52830000D01*
%TO.C,C19*%
X98812164Y-52090000D02*
X99027836Y-52090000D01*
X98812164Y-52810000D02*
X99027836Y-52810000D01*
D10*
%TO.C,J1*%
X158205000Y-22105000D02*
X158205000Y-20705000D01*
X158205000Y-18305000D02*
X158205000Y-18155000D01*
X158205000Y-18155000D02*
X157905000Y-18155000D01*
X157905000Y-18155000D02*
X157905000Y-17705000D01*
X155855000Y-24280000D02*
X155855000Y-23855000D01*
X155855000Y-23855000D02*
X156855000Y-23855000D01*
X155130000Y-24280000D02*
X155855000Y-24280000D01*
X152255000Y-23855000D02*
X151255000Y-23855000D01*
X150205000Y-18155000D02*
X149905000Y-18155000D01*
X150205000Y-17705000D02*
X150205000Y-18155000D01*
X149905000Y-20705000D02*
X149905000Y-22105000D01*
X149905000Y-18155000D02*
X149905000Y-18305000D01*
D11*
%TO.C,SW1*%
X135545000Y-38050000D02*
X135545000Y-38250000D01*
X135545000Y-35050000D02*
X135545000Y-36750000D01*
X134495000Y-33200000D02*
X133705000Y-33200000D01*
X133705000Y-40100000D02*
X134495000Y-40100000D01*
X132695000Y-35250000D02*
X131405000Y-35250000D01*
X132695000Y-33800000D02*
X132695000Y-39500000D01*
X131405000Y-36550000D02*
X132695000Y-36550000D01*
X131405000Y-36550000D02*
X131195000Y-36350000D01*
X131405000Y-35250000D02*
X131195000Y-35450000D01*
X131195000Y-35450000D02*
X131195000Y-36350000D01*
%TO.C,U1*%
X149440000Y-43150000D02*
X148970000Y-43490000D01*
X148970000Y-42810000D01*
X149440000Y-43150000D01*
G36*
X149440000Y-43150000D02*
G01*
X148970000Y-43490000D01*
X148970000Y-42810000D01*
X149440000Y-43150000D01*
G37*
X158710000Y-42510000D02*
X157760000Y-42510000D01*
X158710000Y-41560000D02*
X158710000Y-42510000D01*
X158710000Y-32290000D02*
X158710000Y-33240000D01*
X157760000Y-32290000D02*
X158710000Y-32290000D01*
X149440000Y-42510000D02*
X148490000Y-42510000D01*
X148490000Y-42510000D02*
X148490000Y-41560000D01*
X148490000Y-33240000D02*
X148490000Y-32290000D01*
X148490000Y-32290000D02*
X149440000Y-32290000D01*
D12*
%TO.C,U4*%
X212875000Y-86770000D02*
G75*
G02*
X212675000Y-86770000I-100000J0D01*
G01*
X212675000Y-86770000D02*
G75*
G02*
X212875000Y-86770000I100000J0D01*
G01*
D13*
X228325000Y-104120000D02*
X226775000Y-104120000D01*
X228325000Y-96020000D02*
X228325000Y-104120000D01*
X226775000Y-104120000D02*
X226775000Y-105240000D01*
X226775000Y-96020000D02*
X228325000Y-96020000D01*
X224905000Y-108020000D02*
X223675000Y-108020000D01*
X224275000Y-92120000D02*
X224905000Y-92120000D01*
X224275000Y-85820000D02*
X224275000Y-92120000D01*
X223675000Y-108020000D02*
X223675000Y-111220000D01*
X213975000Y-111220000D02*
X213975000Y-108020000D01*
X213975000Y-108020000D02*
X212755000Y-108020000D01*
X213375000Y-92120000D02*
X213375000Y-85820000D01*
X213375000Y-85820000D02*
X224275000Y-85820000D01*
X212755000Y-92120000D02*
X213375000Y-92120000D01*
X210875000Y-105290000D02*
X210875000Y-105020000D01*
X210875000Y-105020000D02*
X207725000Y-105020000D01*
X207725000Y-105020000D02*
X207725000Y-95220000D01*
X207725000Y-95220000D02*
X210875000Y-95220000D01*
D12*
%TO.C,U5*%
X64125000Y-49570000D02*
G75*
G02*
X63925000Y-49570000I-100000J0D01*
G01*
X63925000Y-49570000D02*
G75*
G02*
X64125000Y-49570000I100000J0D01*
G01*
D13*
X79575000Y-66920000D02*
X78025000Y-66920000D01*
X79575000Y-58820000D02*
X79575000Y-66920000D01*
X78025000Y-66920000D02*
X78025000Y-68040000D01*
X78025000Y-58820000D02*
X79575000Y-58820000D01*
X76155000Y-70820000D02*
X74925000Y-70820000D01*
X75525000Y-54920000D02*
X76155000Y-54920000D01*
X75525000Y-48620000D02*
X75525000Y-54920000D01*
X74925000Y-70820000D02*
X74925000Y-74020000D01*
X65225000Y-74020000D02*
X65225000Y-70820000D01*
X65225000Y-70820000D02*
X64005000Y-70820000D01*
X64625000Y-54920000D02*
X64625000Y-48620000D01*
X64625000Y-48620000D02*
X75525000Y-48620000D01*
X64005000Y-54920000D02*
X64625000Y-54920000D01*
X62125000Y-68090000D02*
X62125000Y-67820000D01*
X62125000Y-67820000D02*
X58975000Y-67820000D01*
X58975000Y-67820000D02*
X58975000Y-58020000D01*
X58975000Y-58020000D02*
X62125000Y-58020000D01*
D11*
%TO.C,C1*%
X144640000Y-41757836D02*
X144640000Y-41542164D01*
X145360000Y-41757836D02*
X145360000Y-41542164D01*
%TO.C,C9*%
X160107836Y-50140000D02*
X159892164Y-50140000D01*
X160107836Y-50860000D02*
X159892164Y-50860000D01*
%TO.C,C15*%
X141340000Y-45972164D02*
X141340000Y-46187836D01*
X142060000Y-45972164D02*
X142060000Y-46187836D01*
%TO.C,J3*%
X218390000Y-19190000D02*
X228610000Y-19190000D01*
X218390000Y-20410000D02*
X219610000Y-20410000D01*
X218390000Y-27610000D02*
X218390000Y-19190000D01*
X219610000Y-20410000D02*
X219610000Y-25410000D01*
X219610000Y-24410000D02*
X227390000Y-24410000D01*
X219610000Y-25410000D02*
X218390000Y-25410000D01*
X219610000Y-25410000D02*
X219610000Y-27610000D01*
X219610000Y-27610000D02*
X218390000Y-27610000D01*
X220680000Y-20990000D02*
X221000000Y-20910000D01*
X220680000Y-24410000D02*
X220680000Y-20990000D01*
X220700000Y-28100000D02*
X221300000Y-28100000D01*
X221000000Y-20910000D02*
X221320000Y-20990000D01*
X221000000Y-24410000D02*
X220680000Y-24410000D01*
X221000000Y-27500000D02*
X220700000Y-28100000D01*
X221300000Y-28100000D02*
X221000000Y-27500000D01*
X221320000Y-20990000D02*
X221320000Y-24410000D01*
X221320000Y-24410000D02*
X221000000Y-24410000D01*
X222170000Y-25410000D02*
X222330000Y-25410000D01*
X223180000Y-20990000D02*
X223500000Y-20910000D01*
X223180000Y-24410000D02*
X223180000Y-20990000D01*
X223500000Y-20910000D02*
X223820000Y-20990000D01*
X223500000Y-24410000D02*
X223180000Y-24410000D01*
X223820000Y-20990000D02*
X223820000Y-24410000D01*
X223820000Y-24410000D02*
X223500000Y-24410000D01*
X224670000Y-25410000D02*
X224830000Y-25410000D01*
X225680000Y-20990000D02*
X226000000Y-20910000D01*
X225680000Y-24410000D02*
X225680000Y-20990000D01*
X226000000Y-20910000D02*
X226320000Y-20990000D01*
X226000000Y-24410000D02*
X225680000Y-24410000D01*
X226320000Y-20990000D02*
X226320000Y-24410000D01*
X226320000Y-24410000D02*
X226000000Y-24410000D01*
X227390000Y-20410000D02*
X227390000Y-25410000D01*
X227390000Y-25410000D02*
X228610000Y-25410000D01*
X227390000Y-27610000D02*
X227390000Y-25410000D01*
X228610000Y-19190000D02*
X228610000Y-27610000D01*
X228610000Y-20410000D02*
X227390000Y-20410000D01*
X228610000Y-27610000D02*
X227390000Y-27610000D01*
%TO.C,U2*%
X166800000Y-24740000D02*
X170560000Y-24740000D01*
X166800000Y-31560000D02*
X170560000Y-31560000D01*
X170560000Y-24740000D02*
X170560000Y-26000000D01*
X170560000Y-31560000D02*
X170560000Y-30300000D01*
X165520000Y-24840000D02*
X165280000Y-24510000D01*
X165760000Y-24510000D01*
X165520000Y-24840000D01*
G36*
X165520000Y-24840000D02*
G01*
X165280000Y-24510000D01*
X165760000Y-24510000D01*
X165520000Y-24840000D01*
G37*
%TO.C,SW10*%
X184330000Y-66672500D02*
X184330000Y-68172500D01*
X185580000Y-70672500D02*
X190080000Y-70672500D01*
X190080000Y-64172500D02*
X185580000Y-64172500D01*
X191330000Y-68172500D02*
X191330000Y-66672500D01*
%TO.C,C12*%
X151721164Y-49568435D02*
X151936836Y-49568435D01*
X151721164Y-50288435D02*
X151936836Y-50288435D01*
%TO.C,C3*%
X160990000Y-34042164D02*
X160990000Y-34257836D01*
X161710000Y-34042164D02*
X161710000Y-34257836D01*
%TO.C,SW14*%
X150350000Y-71300000D02*
X150350000Y-72800000D01*
X151600000Y-75300000D02*
X156100000Y-75300000D01*
X156100000Y-68800000D02*
X151600000Y-68800000D01*
X157350000Y-72800000D02*
X157350000Y-71300000D01*
%TO.C,C2*%
X149957164Y-29127500D02*
X150172836Y-29127500D01*
X149957164Y-29847500D02*
X150172836Y-29847500D01*
%TO.C,C14*%
X161115000Y-27861252D02*
X161115000Y-27338748D01*
X162585000Y-27861252D02*
X162585000Y-27338748D01*
%TO.C,J5*%
X70470000Y-19190000D02*
X80690000Y-19190000D01*
X70470000Y-20410000D02*
X71690000Y-20410000D01*
X70470000Y-27610000D02*
X70470000Y-19190000D01*
X71690000Y-20410000D02*
X71690000Y-25410000D01*
X71690000Y-24410000D02*
X79470000Y-24410000D01*
X71690000Y-25410000D02*
X70470000Y-25410000D01*
X71690000Y-25410000D02*
X71690000Y-27610000D01*
X71690000Y-27610000D02*
X70470000Y-27610000D01*
X72760000Y-20990000D02*
X73080000Y-20910000D01*
X72760000Y-24410000D02*
X72760000Y-20990000D01*
X72780000Y-28100000D02*
X73380000Y-28100000D01*
X73080000Y-20910000D02*
X73400000Y-20990000D01*
X73080000Y-24410000D02*
X72760000Y-24410000D01*
X73080000Y-27500000D02*
X72780000Y-28100000D01*
X73380000Y-28100000D02*
X73080000Y-27500000D01*
X73400000Y-20990000D02*
X73400000Y-24410000D01*
X73400000Y-24410000D02*
X73080000Y-24410000D01*
X74250000Y-25410000D02*
X74410000Y-25410000D01*
X75260000Y-20990000D02*
X75580000Y-20910000D01*
X75260000Y-24410000D02*
X75260000Y-20990000D01*
X75580000Y-20910000D02*
X75900000Y-20990000D01*
X75580000Y-24410000D02*
X75260000Y-24410000D01*
X75900000Y-20990000D02*
X75900000Y-24410000D01*
X75900000Y-24410000D02*
X75580000Y-24410000D01*
X76750000Y-25410000D02*
X76910000Y-25410000D01*
X77760000Y-20990000D02*
X78080000Y-20910000D01*
X77760000Y-24410000D02*
X77760000Y-20990000D01*
X78080000Y-20910000D02*
X78400000Y-20990000D01*
X78080000Y-24410000D02*
X77760000Y-24410000D01*
X78400000Y-20990000D02*
X78400000Y-24410000D01*
X78400000Y-24410000D02*
X78080000Y-24410000D01*
X79470000Y-20410000D02*
X79470000Y-25410000D01*
X79470000Y-25410000D02*
X80690000Y-25410000D01*
X79470000Y-27610000D02*
X79470000Y-25410000D01*
X80690000Y-19190000D02*
X80690000Y-27610000D01*
X80690000Y-20410000D02*
X79470000Y-20410000D01*
X80690000Y-27610000D02*
X79470000Y-27610000D01*
%TO.C,U6*%
X109540000Y-54462500D02*
X109590000Y-54462500D01*
X109540000Y-55512500D02*
X109540000Y-54462500D01*
X109540000Y-57682500D02*
X109540000Y-56632500D01*
X109590000Y-57682500D02*
X109540000Y-57682500D01*
X114710000Y-54462500D02*
X114760000Y-54462500D01*
X114760000Y-54462500D02*
X114760000Y-55512500D01*
X114760000Y-56632500D02*
X114760000Y-57682500D01*
X114760000Y-57682500D02*
X114710000Y-57682500D01*
X110390000Y-58142500D02*
X109910000Y-58142500D01*
X110150000Y-57812500D01*
X110390000Y-58142500D01*
G36*
X110390000Y-58142500D02*
G01*
X109910000Y-58142500D01*
X110150000Y-57812500D01*
X110390000Y-58142500D01*
G37*
%TO.C,SW9*%
X217180000Y-48022500D02*
X229480000Y-48022500D01*
X217180000Y-50142500D02*
X217180000Y-48022500D01*
X217180000Y-55142500D02*
X217180000Y-53202500D01*
X217180000Y-60322500D02*
X217180000Y-58202500D01*
X229480000Y-48022500D02*
X229480000Y-50142500D01*
X229480000Y-53202500D02*
X229480000Y-55142500D01*
X229480000Y-58202500D02*
X229480000Y-60322500D01*
X229480000Y-60322500D02*
X217180000Y-60322500D01*
X228009050Y-54212500D02*
G75*
G02*
X218850950Y-54212500I-4579050J0D01*
G01*
X218850950Y-54212500D02*
G75*
G02*
X228009050Y-54212500I4579050J0D01*
G01*
%TO.C,C11*%
X148557836Y-49540000D02*
X148342164Y-49540000D01*
X148557836Y-50260000D02*
X148342164Y-50260000D01*
%TO.C,R2*%
X168696359Y-17670000D02*
X169003641Y-17670000D01*
X168696359Y-18430000D02*
X169003641Y-18430000D01*
%TO.C,C10*%
X152842164Y-48040000D02*
X153057836Y-48040000D01*
X152842164Y-48760000D02*
X153057836Y-48760000D01*
%TO.C,D1*%
X167515000Y-19665000D02*
X167515000Y-21135000D01*
X167515000Y-21135000D02*
X169800000Y-21135000D01*
X169800000Y-19665000D02*
X167515000Y-19665000D01*
%TO.C,C6*%
X147165580Y-46927500D02*
X146884420Y-46927500D01*
X147165580Y-47947500D02*
X146884420Y-47947500D01*
%TO.C,C5*%
X147157836Y-44390000D02*
X146942164Y-44390000D01*
X147157836Y-45110000D02*
X146942164Y-45110000D01*
%TO.C,Y1*%
X148639000Y-51318435D02*
X148639000Y-54738435D01*
X148639000Y-54738435D02*
X152759000Y-54738435D01*
%TO.C,SW6*%
X262680000Y-48022500D02*
X274980000Y-48022500D01*
X262680000Y-50142500D02*
X262680000Y-48022500D01*
X262680000Y-55142500D02*
X262680000Y-53202500D01*
X262680000Y-60322500D02*
X262680000Y-58202500D01*
X274980000Y-48022500D02*
X274980000Y-50142500D01*
X274980000Y-53202500D02*
X274980000Y-55142500D01*
X274980000Y-58202500D02*
X274980000Y-60322500D01*
X274980000Y-60322500D02*
X262680000Y-60322500D01*
X273509050Y-54212500D02*
G75*
G02*
X264350950Y-54212500I-4579050J0D01*
G01*
X264350950Y-54212500D02*
G75*
G02*
X273509050Y-54212500I4579050J0D01*
G01*
%TO.C,SW3*%
X128830000Y-93172500D02*
X128830000Y-94672500D01*
X130080000Y-97172500D02*
X134580000Y-97172500D01*
X134580000Y-90672500D02*
X130080000Y-90672500D01*
X135830000Y-94672500D02*
X135830000Y-93172500D01*
%TO.C,C7*%
X158777836Y-45290000D02*
X158562164Y-45290000D01*
X158777836Y-46010000D02*
X158562164Y-46010000D01*
%TO.C,C16*%
X141290000Y-42607836D02*
X141290000Y-42392164D01*
X142010000Y-42607836D02*
X142010000Y-42392164D01*
%TO.C,SW8*%
X240180000Y-28022500D02*
X252480000Y-28022500D01*
X240180000Y-30142500D02*
X240180000Y-28022500D01*
X240180000Y-35142500D02*
X240180000Y-33202500D01*
X240180000Y-40322500D02*
X240180000Y-38202500D01*
X252480000Y-28022500D02*
X252480000Y-30142500D01*
X252480000Y-33202500D02*
X252480000Y-35142500D01*
X252480000Y-38202500D02*
X252480000Y-40322500D01*
X252480000Y-40322500D02*
X240180000Y-40322500D01*
X251009050Y-34212500D02*
G75*
G02*
X241850950Y-34212500I-4579050J0D01*
G01*
X241850950Y-34212500D02*
G75*
G02*
X251009050Y-34212500I4579050J0D01*
G01*
%TO.C,J2*%
X136060000Y-18870000D02*
X136060000Y-21630000D01*
X143790000Y-18870000D02*
X136060000Y-18870000D01*
X143790000Y-18870000D02*
X143790000Y-21630000D01*
X143790000Y-21630000D02*
X136060000Y-21630000D01*
X145060000Y-18870000D02*
X146440000Y-18870000D01*
X146440000Y-18870000D02*
X146440000Y-20250000D01*
%TO.C,C18*%
X163990000Y-42737836D02*
X163990000Y-42522164D01*
X164710000Y-42737836D02*
X164710000Y-42522164D01*
%TO.C,C13*%
X170461252Y-22015000D02*
X169938748Y-22015000D01*
X170461252Y-23485000D02*
X169938748Y-23485000D01*
%TO.C,SW11*%
X117830000Y-66672500D02*
X117830000Y-68172500D01*
X119080000Y-70672500D02*
X123580000Y-70672500D01*
X123580000Y-64172500D02*
X119080000Y-64172500D01*
X124830000Y-68172500D02*
X124830000Y-66672500D01*
%TO.C,SW2*%
X172830000Y-93172500D02*
X172830000Y-94672500D01*
X174080000Y-97172500D02*
X178580000Y-97172500D01*
X178580000Y-90672500D02*
X174080000Y-90672500D01*
X179830000Y-94672500D02*
X179830000Y-93172500D01*
%TO.C,C4*%
X161090000Y-42112164D02*
X161090000Y-42327836D01*
X161810000Y-42112164D02*
X161810000Y-42327836D01*
%TO.C,C8*%
X158720424Y-46790000D02*
X158936096Y-46790000D01*
X158720424Y-47510000D02*
X158936096Y-47510000D01*
%TO.C,SW7*%
X241180000Y-67522500D02*
X253480000Y-67522500D01*
X241180000Y-69642500D02*
X241180000Y-67522500D01*
X241180000Y-74642500D02*
X241180000Y-72702500D01*
X241180000Y-79822500D02*
X241180000Y-77702500D01*
X253480000Y-67522500D02*
X253480000Y-69642500D01*
X253480000Y-72702500D02*
X253480000Y-74642500D01*
X253480000Y-77702500D02*
X253480000Y-79822500D01*
X253480000Y-79822500D02*
X241180000Y-79822500D01*
X252009050Y-73712500D02*
G75*
G02*
X242850950Y-73712500I-4579050J0D01*
G01*
X242850950Y-73712500D02*
G75*
G02*
X252009050Y-73712500I4579050J0D01*
G01*
%TO.C,FB1*%
X159565481Y-48390000D02*
X159891039Y-48390000D01*
X159565481Y-49410000D02*
X159891039Y-49410000D01*
%TO.C,C17*%
X163790000Y-45592164D02*
X163790000Y-45807836D01*
X164510000Y-45592164D02*
X164510000Y-45807836D01*
%TO.C,R1*%
X139771359Y-37320000D02*
X140078641Y-37320000D01*
X139771359Y-38080000D02*
X140078641Y-38080000D01*
%TO.C,C20*%
X97462164Y-59990000D02*
X97677836Y-59990000D01*
X97462164Y-60710000D02*
X97677836Y-60710000D01*
%TD*%
M02*
