%TF.GenerationSoftware,KiCad,Pcbnew,9.0.7*%
%TF.CreationDate,2026-01-18T23:44:21-08:00*%
%TF.ProjectId,STM32_HID_controller-right,53544d33-325f-4484-9944-5f636f6e7472,rev?*%
%TF.SameCoordinates,Original*%
%TF.FileFunction,Legend,Top*%
%TF.FilePolarity,Positive*%
%FSLAX46Y46*%
G04 Gerber Fmt 4.6, Leading zero omitted, Abs format (unit mm)*
G04 Created by KiCad (PCBNEW 9.0.7) date 2026-01-18 23:44:21*
%MOMM*%
%LPD*%
G01*
G04 APERTURE LIST*
%ADD10C,0.150000*%
%ADD11C,0.120000*%
G04 APERTURE END LIST*
D10*
X128678152Y-179047142D02*
X128678152Y-178666190D01*
X128344819Y-178904285D02*
X129201961Y-178904285D01*
X129201961Y-178904285D02*
X129297200Y-178856666D01*
X129297200Y-178856666D02*
X129344819Y-178761428D01*
X129344819Y-178761428D02*
X129344819Y-178666190D01*
X129344819Y-178332856D02*
X128678152Y-178332856D01*
X128868628Y-178332856D02*
X128773390Y-178285237D01*
X128773390Y-178285237D02*
X128725771Y-178237618D01*
X128725771Y-178237618D02*
X128678152Y-178142380D01*
X128678152Y-178142380D02*
X128678152Y-178047142D01*
X129344819Y-177713808D02*
X128678152Y-177713808D01*
X128344819Y-177713808D02*
X128392438Y-177761427D01*
X128392438Y-177761427D02*
X128440057Y-177713808D01*
X128440057Y-177713808D02*
X128392438Y-177666189D01*
X128392438Y-177666189D02*
X128344819Y-177713808D01*
X128344819Y-177713808D02*
X128440057Y-177713808D01*
X128678152Y-176809047D02*
X129487676Y-176809047D01*
X129487676Y-176809047D02*
X129582914Y-176856666D01*
X129582914Y-176856666D02*
X129630533Y-176904285D01*
X129630533Y-176904285D02*
X129678152Y-176999523D01*
X129678152Y-176999523D02*
X129678152Y-177142380D01*
X129678152Y-177142380D02*
X129630533Y-177237618D01*
X129297200Y-176809047D02*
X129344819Y-176904285D01*
X129344819Y-176904285D02*
X129344819Y-177094761D01*
X129344819Y-177094761D02*
X129297200Y-177189999D01*
X129297200Y-177189999D02*
X129249580Y-177237618D01*
X129249580Y-177237618D02*
X129154342Y-177285237D01*
X129154342Y-177285237D02*
X128868628Y-177285237D01*
X128868628Y-177285237D02*
X128773390Y-177237618D01*
X128773390Y-177237618D02*
X128725771Y-177189999D01*
X128725771Y-177189999D02*
X128678152Y-177094761D01*
X128678152Y-177094761D02*
X128678152Y-176904285D01*
X128678152Y-176904285D02*
X128725771Y-176809047D01*
X128678152Y-175904285D02*
X129487676Y-175904285D01*
X129487676Y-175904285D02*
X129582914Y-175951904D01*
X129582914Y-175951904D02*
X129630533Y-175999523D01*
X129630533Y-175999523D02*
X129678152Y-176094761D01*
X129678152Y-176094761D02*
X129678152Y-176237618D01*
X129678152Y-176237618D02*
X129630533Y-176332856D01*
X129297200Y-175904285D02*
X129344819Y-175999523D01*
X129344819Y-175999523D02*
X129344819Y-176189999D01*
X129344819Y-176189999D02*
X129297200Y-176285237D01*
X129297200Y-176285237D02*
X129249580Y-176332856D01*
X129249580Y-176332856D02*
X129154342Y-176380475D01*
X129154342Y-176380475D02*
X128868628Y-176380475D01*
X128868628Y-176380475D02*
X128773390Y-176332856D01*
X128773390Y-176332856D02*
X128725771Y-176285237D01*
X128725771Y-176285237D02*
X128678152Y-176189999D01*
X128678152Y-176189999D02*
X128678152Y-175999523D01*
X128678152Y-175999523D02*
X128725771Y-175904285D01*
X129297200Y-175047142D02*
X129344819Y-175142380D01*
X129344819Y-175142380D02*
X129344819Y-175332856D01*
X129344819Y-175332856D02*
X129297200Y-175428094D01*
X129297200Y-175428094D02*
X129201961Y-175475713D01*
X129201961Y-175475713D02*
X128821009Y-175475713D01*
X128821009Y-175475713D02*
X128725771Y-175428094D01*
X128725771Y-175428094D02*
X128678152Y-175332856D01*
X128678152Y-175332856D02*
X128678152Y-175142380D01*
X128678152Y-175142380D02*
X128725771Y-175047142D01*
X128725771Y-175047142D02*
X128821009Y-174999523D01*
X128821009Y-174999523D02*
X128916247Y-174999523D01*
X128916247Y-174999523D02*
X129011485Y-175475713D01*
X129344819Y-174570951D02*
X128678152Y-174570951D01*
X128868628Y-174570951D02*
X128773390Y-174523332D01*
X128773390Y-174523332D02*
X128725771Y-174475713D01*
X128725771Y-174475713D02*
X128678152Y-174380475D01*
X128678152Y-174380475D02*
X128678152Y-174285237D01*
X129344819Y-173428094D02*
X129344819Y-173999522D01*
X129344819Y-173713808D02*
X128344819Y-173713808D01*
X128344819Y-173713808D02*
X128487676Y-173809046D01*
X128487676Y-173809046D02*
X128582914Y-173904284D01*
X128582914Y-173904284D02*
X128630533Y-173999522D01*
X121938095Y-139254819D02*
X121938095Y-138254819D01*
X121938095Y-138731009D02*
X122509523Y-138731009D01*
X122509523Y-139254819D02*
X122509523Y-138254819D01*
X122938095Y-138350057D02*
X122985714Y-138302438D01*
X122985714Y-138302438D02*
X123080952Y-138254819D01*
X123080952Y-138254819D02*
X123319047Y-138254819D01*
X123319047Y-138254819D02*
X123414285Y-138302438D01*
X123414285Y-138302438D02*
X123461904Y-138350057D01*
X123461904Y-138350057D02*
X123509523Y-138445295D01*
X123509523Y-138445295D02*
X123509523Y-138540533D01*
X123509523Y-138540533D02*
X123461904Y-138683390D01*
X123461904Y-138683390D02*
X122890476Y-139254819D01*
X122890476Y-139254819D02*
X123509523Y-139254819D01*
X141238095Y-139654819D02*
X141238095Y-138654819D01*
X141238095Y-139131009D02*
X141809523Y-139131009D01*
X141809523Y-139654819D02*
X141809523Y-138654819D01*
X142809523Y-139654819D02*
X142238095Y-139654819D01*
X142523809Y-139654819D02*
X142523809Y-138654819D01*
X142523809Y-138654819D02*
X142428571Y-138797676D01*
X142428571Y-138797676D02*
X142333333Y-138892914D01*
X142333333Y-138892914D02*
X142238095Y-138940533D01*
X128849999Y-150747200D02*
X128945237Y-150794819D01*
X128945237Y-150794819D02*
X129135713Y-150794819D01*
X129135713Y-150794819D02*
X129230951Y-150747200D01*
X129230951Y-150747200D02*
X129278570Y-150651961D01*
X129278570Y-150651961D02*
X129278570Y-150604342D01*
X129278570Y-150604342D02*
X129230951Y-150509104D01*
X129230951Y-150509104D02*
X129135713Y-150461485D01*
X129135713Y-150461485D02*
X128992856Y-150461485D01*
X128992856Y-150461485D02*
X128897618Y-150413866D01*
X128897618Y-150413866D02*
X128849999Y-150318628D01*
X128849999Y-150318628D02*
X128849999Y-150271009D01*
X128849999Y-150271009D02*
X128897618Y-150175771D01*
X128897618Y-150175771D02*
X128992856Y-150128152D01*
X128992856Y-150128152D02*
X129135713Y-150128152D01*
X129135713Y-150128152D02*
X129230951Y-150175771D01*
X129707142Y-150794819D02*
X129707142Y-149794819D01*
X130135713Y-150794819D02*
X130135713Y-150271009D01*
X130135713Y-150271009D02*
X130088094Y-150175771D01*
X130088094Y-150175771D02*
X129992856Y-150128152D01*
X129992856Y-150128152D02*
X129849999Y-150128152D01*
X129849999Y-150128152D02*
X129754761Y-150175771D01*
X129754761Y-150175771D02*
X129707142Y-150223390D01*
X130754761Y-150794819D02*
X130659523Y-150747200D01*
X130659523Y-150747200D02*
X130611904Y-150699580D01*
X130611904Y-150699580D02*
X130564285Y-150604342D01*
X130564285Y-150604342D02*
X130564285Y-150318628D01*
X130564285Y-150318628D02*
X130611904Y-150223390D01*
X130611904Y-150223390D02*
X130659523Y-150175771D01*
X130659523Y-150175771D02*
X130754761Y-150128152D01*
X130754761Y-150128152D02*
X130897618Y-150128152D01*
X130897618Y-150128152D02*
X130992856Y-150175771D01*
X130992856Y-150175771D02*
X131040475Y-150223390D01*
X131040475Y-150223390D02*
X131088094Y-150318628D01*
X131088094Y-150318628D02*
X131088094Y-150604342D01*
X131088094Y-150604342D02*
X131040475Y-150699580D01*
X131040475Y-150699580D02*
X130992856Y-150747200D01*
X130992856Y-150747200D02*
X130897618Y-150794819D01*
X130897618Y-150794819D02*
X130754761Y-150794819D01*
X131945237Y-150128152D02*
X131945237Y-150794819D01*
X131516666Y-150128152D02*
X131516666Y-150651961D01*
X131516666Y-150651961D02*
X131564285Y-150747200D01*
X131564285Y-150747200D02*
X131659523Y-150794819D01*
X131659523Y-150794819D02*
X131802380Y-150794819D01*
X131802380Y-150794819D02*
X131897618Y-150747200D01*
X131897618Y-150747200D02*
X131945237Y-150699580D01*
X132564285Y-150794819D02*
X132469047Y-150747200D01*
X132469047Y-150747200D02*
X132421428Y-150651961D01*
X132421428Y-150651961D02*
X132421428Y-149794819D01*
X133373809Y-150794819D02*
X133373809Y-149794819D01*
X133373809Y-150747200D02*
X133278571Y-150794819D01*
X133278571Y-150794819D02*
X133088095Y-150794819D01*
X133088095Y-150794819D02*
X132992857Y-150747200D01*
X132992857Y-150747200D02*
X132945238Y-150699580D01*
X132945238Y-150699580D02*
X132897619Y-150604342D01*
X132897619Y-150604342D02*
X132897619Y-150318628D01*
X132897619Y-150318628D02*
X132945238Y-150223390D01*
X132945238Y-150223390D02*
X132992857Y-150175771D01*
X132992857Y-150175771D02*
X133088095Y-150128152D01*
X133088095Y-150128152D02*
X133278571Y-150128152D01*
X133278571Y-150128152D02*
X133373809Y-150175771D01*
X134230952Y-150747200D02*
X134135714Y-150794819D01*
X134135714Y-150794819D02*
X133945238Y-150794819D01*
X133945238Y-150794819D02*
X133850000Y-150747200D01*
X133850000Y-150747200D02*
X133802381Y-150651961D01*
X133802381Y-150651961D02*
X133802381Y-150271009D01*
X133802381Y-150271009D02*
X133850000Y-150175771D01*
X133850000Y-150175771D02*
X133945238Y-150128152D01*
X133945238Y-150128152D02*
X134135714Y-150128152D01*
X134135714Y-150128152D02*
X134230952Y-150175771D01*
X134230952Y-150175771D02*
X134278571Y-150271009D01*
X134278571Y-150271009D02*
X134278571Y-150366247D01*
X134278571Y-150366247D02*
X133802381Y-150461485D01*
X134707143Y-150794819D02*
X134707143Y-150128152D01*
X134707143Y-150318628D02*
X134754762Y-150223390D01*
X134754762Y-150223390D02*
X134802381Y-150175771D01*
X134802381Y-150175771D02*
X134897619Y-150128152D01*
X134897619Y-150128152D02*
X134992857Y-150128152D01*
X135850000Y-150794819D02*
X135278572Y-150794819D01*
X135564286Y-150794819D02*
X135564286Y-149794819D01*
X135564286Y-149794819D02*
X135469048Y-149937676D01*
X135469048Y-149937676D02*
X135373810Y-150032914D01*
X135373810Y-150032914D02*
X135278572Y-150080533D01*
D11*
%TO.C,trigger1*%
X129650000Y-181890000D02*
X129650000Y-180507000D01*
X129650000Y-181890000D02*
X131033000Y-181890000D01*
X129890000Y-170730000D02*
X134110000Y-170730000D01*
X129890000Y-181650000D02*
X129890000Y-170730000D01*
X129890000Y-181650000D02*
X134110000Y-181650000D01*
X131190000Y-181650000D02*
X132810000Y-181650000D01*
X131190000Y-183510000D02*
X131190000Y-181650000D01*
X132810000Y-181650000D02*
X132810000Y-183510000D01*
X132810000Y-183510000D02*
X131190000Y-183510000D01*
X134110000Y-181650000D02*
X134110000Y-170730000D01*
%TO.C,shoulder1*%
X126100000Y-151350000D02*
X138400000Y-151350000D01*
X126100000Y-153470000D02*
X126100000Y-151350000D01*
X126100000Y-158470000D02*
X126100000Y-156530000D01*
X126100000Y-163650000D02*
X126100000Y-161530000D01*
X138400000Y-151350000D02*
X138400000Y-153470000D01*
X138400000Y-156530000D02*
X138400000Y-158470000D01*
X138400000Y-161530000D02*
X138400000Y-163650000D01*
X138400000Y-163650000D02*
X126100000Y-163650000D01*
X136929050Y-157540000D02*
G75*
G02*
X127770950Y-157540000I-4579050J0D01*
G01*
X127770950Y-157540000D02*
G75*
G02*
X136929050Y-157540000I4579050J0D01*
G01*
%TO.C,J4*%
X127390000Y-133190000D02*
X137610000Y-133190000D01*
X127390000Y-134410000D02*
X128610000Y-134410000D01*
X127390000Y-141610000D02*
X127390000Y-133190000D01*
X128610000Y-134410000D02*
X128610000Y-139410000D01*
X128610000Y-138410000D02*
X136390000Y-138410000D01*
X128610000Y-139410000D02*
X127390000Y-139410000D01*
X128610000Y-139410000D02*
X128610000Y-141610000D01*
X128610000Y-141610000D02*
X127390000Y-141610000D01*
X129680000Y-134990000D02*
X130000000Y-134910000D01*
X129680000Y-138410000D02*
X129680000Y-134990000D01*
X129700000Y-142100000D02*
X130300000Y-142100000D01*
X130000000Y-134910000D02*
X130320000Y-134990000D01*
X130000000Y-138410000D02*
X129680000Y-138410000D01*
X130000000Y-141500000D02*
X129700000Y-142100000D01*
X130300000Y-142100000D02*
X130000000Y-141500000D01*
X130320000Y-134990000D02*
X130320000Y-138410000D01*
X130320000Y-138410000D02*
X130000000Y-138410000D01*
X131170000Y-139410000D02*
X131330000Y-139410000D01*
X132180000Y-134990000D02*
X132500000Y-134910000D01*
X132180000Y-138410000D02*
X132180000Y-134990000D01*
X132500000Y-134910000D02*
X132820000Y-134990000D01*
X132500000Y-138410000D02*
X132180000Y-138410000D01*
X132820000Y-134990000D02*
X132820000Y-138410000D01*
X132820000Y-138410000D02*
X132500000Y-138410000D01*
X133670000Y-139410000D02*
X133830000Y-139410000D01*
X134680000Y-134990000D02*
X135000000Y-134910000D01*
X134680000Y-138410000D02*
X134680000Y-134990000D01*
X135000000Y-134910000D02*
X135320000Y-134990000D01*
X135000000Y-138410000D02*
X134680000Y-138410000D01*
X135320000Y-134990000D02*
X135320000Y-138410000D01*
X135320000Y-138410000D02*
X135000000Y-138410000D01*
X136390000Y-134410000D02*
X136390000Y-139410000D01*
X136390000Y-139410000D02*
X137610000Y-139410000D01*
X136390000Y-141610000D02*
X136390000Y-139410000D01*
X137610000Y-133190000D02*
X137610000Y-141610000D01*
X137610000Y-134410000D02*
X136390000Y-134410000D01*
X137610000Y-141610000D02*
X136390000Y-141610000D01*
%TD*%
M02*
