%TF.GenerationSoftware,KiCad,Pcbnew,9.0.7*%
%TF.CreationDate,2026-01-18T23:45:15-08:00*%
%TF.ProjectId,STM32_HID_controller-right,53544d33-325f-4484-9944-5f636f6e7472,rev?*%
%TF.SameCoordinates,Original*%
%TF.FileFunction,Drillmap*%
%TF.FilePolarity,Positive*%
%FSLAX45Y45*%
G04 Gerber Fmt 4.5, Leading zero omitted, Abs format (unit mm)*
G04 Created by KiCad (PCBNEW 9.0.7) date 2026-01-18 23:45:15*
%MOMM*%
%LPD*%
G01*
G04 APERTURE LIST*
%ADD10C,0.050000*%
%ADD11C,0.200000*%
%ADD12C,0.220000*%
G04 APERTURE END LIST*
D10*
X12000000Y-13080000D02*
X12000000Y-18680000D01*
X14500000Y-13080000D02*
X14500000Y-18680000D01*
X12000000Y-13080000D02*
X14500000Y-13080000D01*
X12000000Y-18680000D02*
X14500000Y-18680000D01*
D11*
D12*
X12190000Y-13240000D02*
X12410000Y-13460000D01*
X12410000Y-13240000D02*
X12190000Y-13460000D01*
X14090000Y-13240000D02*
X14310000Y-13460000D01*
X14310000Y-13240000D02*
X14090000Y-13460000D01*
D11*
X12258277Y-18993984D02*
X12258277Y-18793984D01*
X12258277Y-18793984D02*
X12305896Y-18793984D01*
X12305896Y-18793984D02*
X12334467Y-18803508D01*
X12334467Y-18803508D02*
X12353515Y-18822555D01*
X12353515Y-18822555D02*
X12363039Y-18841603D01*
X12363039Y-18841603D02*
X12372562Y-18879698D01*
X12372562Y-18879698D02*
X12372562Y-18908270D01*
X12372562Y-18908270D02*
X12363039Y-18946365D01*
X12363039Y-18946365D02*
X12353515Y-18965412D01*
X12353515Y-18965412D02*
X12334467Y-18984460D01*
X12334467Y-18984460D02*
X12305896Y-18993984D01*
X12305896Y-18993984D02*
X12258277Y-18993984D01*
X12458277Y-18993984D02*
X12458277Y-18860650D01*
X12458277Y-18898746D02*
X12467801Y-18879698D01*
X12467801Y-18879698D02*
X12477324Y-18870174D01*
X12477324Y-18870174D02*
X12496372Y-18860650D01*
X12496372Y-18860650D02*
X12515420Y-18860650D01*
X12582086Y-18993984D02*
X12582086Y-18860650D01*
X12582086Y-18793984D02*
X12572562Y-18803508D01*
X12572562Y-18803508D02*
X12582086Y-18813031D01*
X12582086Y-18813031D02*
X12591610Y-18803508D01*
X12591610Y-18803508D02*
X12582086Y-18793984D01*
X12582086Y-18793984D02*
X12582086Y-18813031D01*
X12705896Y-18993984D02*
X12686848Y-18984460D01*
X12686848Y-18984460D02*
X12677324Y-18965412D01*
X12677324Y-18965412D02*
X12677324Y-18793984D01*
X12810658Y-18993984D02*
X12791610Y-18984460D01*
X12791610Y-18984460D02*
X12782086Y-18965412D01*
X12782086Y-18965412D02*
X12782086Y-18793984D01*
X13039229Y-18993984D02*
X13039229Y-18793984D01*
X13039229Y-18793984D02*
X13105896Y-18936841D01*
X13105896Y-18936841D02*
X13172562Y-18793984D01*
X13172562Y-18793984D02*
X13172562Y-18993984D01*
X13353515Y-18993984D02*
X13353515Y-18889222D01*
X13353515Y-18889222D02*
X13343991Y-18870174D01*
X13343991Y-18870174D02*
X13324943Y-18860650D01*
X13324943Y-18860650D02*
X13286848Y-18860650D01*
X13286848Y-18860650D02*
X13267801Y-18870174D01*
X13353515Y-18984460D02*
X13334467Y-18993984D01*
X13334467Y-18993984D02*
X13286848Y-18993984D01*
X13286848Y-18993984D02*
X13267801Y-18984460D01*
X13267801Y-18984460D02*
X13258277Y-18965412D01*
X13258277Y-18965412D02*
X13258277Y-18946365D01*
X13258277Y-18946365D02*
X13267801Y-18927317D01*
X13267801Y-18927317D02*
X13286848Y-18917793D01*
X13286848Y-18917793D02*
X13334467Y-18917793D01*
X13334467Y-18917793D02*
X13353515Y-18908270D01*
X13448753Y-18860650D02*
X13448753Y-19060650D01*
X13448753Y-18870174D02*
X13467801Y-18860650D01*
X13467801Y-18860650D02*
X13505896Y-18860650D01*
X13505896Y-18860650D02*
X13524943Y-18870174D01*
X13524943Y-18870174D02*
X13534467Y-18879698D01*
X13534467Y-18879698D02*
X13543991Y-18898746D01*
X13543991Y-18898746D02*
X13543991Y-18955889D01*
X13543991Y-18955889D02*
X13534467Y-18974936D01*
X13534467Y-18974936D02*
X13524943Y-18984460D01*
X13524943Y-18984460D02*
X13505896Y-18993984D01*
X13505896Y-18993984D02*
X13467801Y-18993984D01*
X13467801Y-18993984D02*
X13448753Y-18984460D01*
X13629705Y-18974936D02*
X13639229Y-18984460D01*
X13639229Y-18984460D02*
X13629705Y-18993984D01*
X13629705Y-18993984D02*
X13620182Y-18984460D01*
X13620182Y-18984460D02*
X13629705Y-18974936D01*
X13629705Y-18974936D02*
X13629705Y-18993984D01*
X13629705Y-18870174D02*
X13639229Y-18879698D01*
X13639229Y-18879698D02*
X13629705Y-18889222D01*
X13629705Y-18889222D02*
X13620182Y-18879698D01*
X13620182Y-18879698D02*
X13629705Y-18870174D01*
X13629705Y-18870174D02*
X13629705Y-18889222D01*
X11797500Y-19222500D02*
X11997500Y-19422500D01*
X11997500Y-19222500D02*
X11797500Y-19422500D01*
X12248753Y-19233031D02*
X12258277Y-19223508D01*
X12258277Y-19223508D02*
X12277324Y-19213984D01*
X12277324Y-19213984D02*
X12324943Y-19213984D01*
X12324943Y-19213984D02*
X12343991Y-19223508D01*
X12343991Y-19223508D02*
X12353515Y-19233031D01*
X12353515Y-19233031D02*
X12363039Y-19252079D01*
X12363039Y-19252079D02*
X12363039Y-19271127D01*
X12363039Y-19271127D02*
X12353515Y-19299698D01*
X12353515Y-19299698D02*
X12239229Y-19413984D01*
X12239229Y-19413984D02*
X12363039Y-19413984D01*
X12448753Y-19394936D02*
X12458277Y-19404460D01*
X12458277Y-19404460D02*
X12448753Y-19413984D01*
X12448753Y-19413984D02*
X12439229Y-19404460D01*
X12439229Y-19404460D02*
X12448753Y-19394936D01*
X12448753Y-19394936D02*
X12448753Y-19413984D01*
X12534467Y-19233031D02*
X12543991Y-19223508D01*
X12543991Y-19223508D02*
X12563039Y-19213984D01*
X12563039Y-19213984D02*
X12610658Y-19213984D01*
X12610658Y-19213984D02*
X12629705Y-19223508D01*
X12629705Y-19223508D02*
X12639229Y-19233031D01*
X12639229Y-19233031D02*
X12648753Y-19252079D01*
X12648753Y-19252079D02*
X12648753Y-19271127D01*
X12648753Y-19271127D02*
X12639229Y-19299698D01*
X12639229Y-19299698D02*
X12524943Y-19413984D01*
X12524943Y-19413984D02*
X12648753Y-19413984D01*
X12772562Y-19213984D02*
X12791610Y-19213984D01*
X12791610Y-19213984D02*
X12810658Y-19223508D01*
X12810658Y-19223508D02*
X12820182Y-19233031D01*
X12820182Y-19233031D02*
X12829705Y-19252079D01*
X12829705Y-19252079D02*
X12839229Y-19290174D01*
X12839229Y-19290174D02*
X12839229Y-19337793D01*
X12839229Y-19337793D02*
X12829705Y-19375889D01*
X12829705Y-19375889D02*
X12820182Y-19394936D01*
X12820182Y-19394936D02*
X12810658Y-19404460D01*
X12810658Y-19404460D02*
X12791610Y-19413984D01*
X12791610Y-19413984D02*
X12772562Y-19413984D01*
X12772562Y-19413984D02*
X12753515Y-19404460D01*
X12753515Y-19404460D02*
X12743991Y-19394936D01*
X12743991Y-19394936D02*
X12734467Y-19375889D01*
X12734467Y-19375889D02*
X12724943Y-19337793D01*
X12724943Y-19337793D02*
X12724943Y-19290174D01*
X12724943Y-19290174D02*
X12734467Y-19252079D01*
X12734467Y-19252079D02*
X12743991Y-19233031D01*
X12743991Y-19233031D02*
X12753515Y-19223508D01*
X12753515Y-19223508D02*
X12772562Y-19213984D01*
X12963039Y-19213984D02*
X12982086Y-19213984D01*
X12982086Y-19213984D02*
X13001134Y-19223508D01*
X13001134Y-19223508D02*
X13010658Y-19233031D01*
X13010658Y-19233031D02*
X13020182Y-19252079D01*
X13020182Y-19252079D02*
X13029705Y-19290174D01*
X13029705Y-19290174D02*
X13029705Y-19337793D01*
X13029705Y-19337793D02*
X13020182Y-19375889D01*
X13020182Y-19375889D02*
X13010658Y-19394936D01*
X13010658Y-19394936D02*
X13001134Y-19404460D01*
X13001134Y-19404460D02*
X12982086Y-19413984D01*
X12982086Y-19413984D02*
X12963039Y-19413984D01*
X12963039Y-19413984D02*
X12943991Y-19404460D01*
X12943991Y-19404460D02*
X12934467Y-19394936D01*
X12934467Y-19394936D02*
X12924943Y-19375889D01*
X12924943Y-19375889D02*
X12915420Y-19337793D01*
X12915420Y-19337793D02*
X12915420Y-19290174D01*
X12915420Y-19290174D02*
X12924943Y-19252079D01*
X12924943Y-19252079D02*
X12934467Y-19233031D01*
X12934467Y-19233031D02*
X12943991Y-19223508D01*
X12943991Y-19223508D02*
X12963039Y-19213984D01*
X13115420Y-19413984D02*
X13115420Y-19280650D01*
X13115420Y-19299698D02*
X13124943Y-19290174D01*
X13124943Y-19290174D02*
X13143991Y-19280650D01*
X13143991Y-19280650D02*
X13172563Y-19280650D01*
X13172563Y-19280650D02*
X13191610Y-19290174D01*
X13191610Y-19290174D02*
X13201134Y-19309222D01*
X13201134Y-19309222D02*
X13201134Y-19413984D01*
X13201134Y-19309222D02*
X13210658Y-19290174D01*
X13210658Y-19290174D02*
X13229705Y-19280650D01*
X13229705Y-19280650D02*
X13258277Y-19280650D01*
X13258277Y-19280650D02*
X13277324Y-19290174D01*
X13277324Y-19290174D02*
X13286848Y-19309222D01*
X13286848Y-19309222D02*
X13286848Y-19413984D01*
X13382086Y-19413984D02*
X13382086Y-19280650D01*
X13382086Y-19299698D02*
X13391610Y-19290174D01*
X13391610Y-19290174D02*
X13410658Y-19280650D01*
X13410658Y-19280650D02*
X13439229Y-19280650D01*
X13439229Y-19280650D02*
X13458277Y-19290174D01*
X13458277Y-19290174D02*
X13467801Y-19309222D01*
X13467801Y-19309222D02*
X13467801Y-19413984D01*
X13467801Y-19309222D02*
X13477324Y-19290174D01*
X13477324Y-19290174D02*
X13496372Y-19280650D01*
X13496372Y-19280650D02*
X13524943Y-19280650D01*
X13524943Y-19280650D02*
X13543991Y-19290174D01*
X13543991Y-19290174D02*
X13553515Y-19309222D01*
X13553515Y-19309222D02*
X13553515Y-19413984D01*
X13943991Y-19204460D02*
X13772563Y-19461603D01*
X14201134Y-19213984D02*
X14220182Y-19213984D01*
X14220182Y-19213984D02*
X14239229Y-19223508D01*
X14239229Y-19223508D02*
X14248753Y-19233031D01*
X14248753Y-19233031D02*
X14258277Y-19252079D01*
X14258277Y-19252079D02*
X14267801Y-19290174D01*
X14267801Y-19290174D02*
X14267801Y-19337793D01*
X14267801Y-19337793D02*
X14258277Y-19375889D01*
X14258277Y-19375889D02*
X14248753Y-19394936D01*
X14248753Y-19394936D02*
X14239229Y-19404460D01*
X14239229Y-19404460D02*
X14220182Y-19413984D01*
X14220182Y-19413984D02*
X14201134Y-19413984D01*
X14201134Y-19413984D02*
X14182086Y-19404460D01*
X14182086Y-19404460D02*
X14172563Y-19394936D01*
X14172563Y-19394936D02*
X14163039Y-19375889D01*
X14163039Y-19375889D02*
X14153515Y-19337793D01*
X14153515Y-19337793D02*
X14153515Y-19290174D01*
X14153515Y-19290174D02*
X14163039Y-19252079D01*
X14163039Y-19252079D02*
X14172563Y-19233031D01*
X14172563Y-19233031D02*
X14182086Y-19223508D01*
X14182086Y-19223508D02*
X14201134Y-19213984D01*
X14353515Y-19394936D02*
X14363039Y-19404460D01*
X14363039Y-19404460D02*
X14353515Y-19413984D01*
X14353515Y-19413984D02*
X14343991Y-19404460D01*
X14343991Y-19404460D02*
X14353515Y-19394936D01*
X14353515Y-19394936D02*
X14353515Y-19413984D01*
X14486848Y-19213984D02*
X14505896Y-19213984D01*
X14505896Y-19213984D02*
X14524944Y-19223508D01*
X14524944Y-19223508D02*
X14534467Y-19233031D01*
X14534467Y-19233031D02*
X14543991Y-19252079D01*
X14543991Y-19252079D02*
X14553515Y-19290174D01*
X14553515Y-19290174D02*
X14553515Y-19337793D01*
X14553515Y-19337793D02*
X14543991Y-19375889D01*
X14543991Y-19375889D02*
X14534467Y-19394936D01*
X14534467Y-19394936D02*
X14524944Y-19404460D01*
X14524944Y-19404460D02*
X14505896Y-19413984D01*
X14505896Y-19413984D02*
X14486848Y-19413984D01*
X14486848Y-19413984D02*
X14467801Y-19404460D01*
X14467801Y-19404460D02*
X14458277Y-19394936D01*
X14458277Y-19394936D02*
X14448753Y-19375889D01*
X14448753Y-19375889D02*
X14439229Y-19337793D01*
X14439229Y-19337793D02*
X14439229Y-19290174D01*
X14439229Y-19290174D02*
X14448753Y-19252079D01*
X14448753Y-19252079D02*
X14458277Y-19233031D01*
X14458277Y-19233031D02*
X14467801Y-19223508D01*
X14467801Y-19223508D02*
X14486848Y-19213984D01*
X14667801Y-19299698D02*
X14648753Y-19290174D01*
X14648753Y-19290174D02*
X14639229Y-19280650D01*
X14639229Y-19280650D02*
X14629706Y-19261603D01*
X14629706Y-19261603D02*
X14629706Y-19252079D01*
X14629706Y-19252079D02*
X14639229Y-19233031D01*
X14639229Y-19233031D02*
X14648753Y-19223508D01*
X14648753Y-19223508D02*
X14667801Y-19213984D01*
X14667801Y-19213984D02*
X14705896Y-19213984D01*
X14705896Y-19213984D02*
X14724944Y-19223508D01*
X14724944Y-19223508D02*
X14734467Y-19233031D01*
X14734467Y-19233031D02*
X14743991Y-19252079D01*
X14743991Y-19252079D02*
X14743991Y-19261603D01*
X14743991Y-19261603D02*
X14734467Y-19280650D01*
X14734467Y-19280650D02*
X14724944Y-19290174D01*
X14724944Y-19290174D02*
X14705896Y-19299698D01*
X14705896Y-19299698D02*
X14667801Y-19299698D01*
X14667801Y-19299698D02*
X14648753Y-19309222D01*
X14648753Y-19309222D02*
X14639229Y-19318746D01*
X14639229Y-19318746D02*
X14629706Y-19337793D01*
X14629706Y-19337793D02*
X14629706Y-19375889D01*
X14629706Y-19375889D02*
X14639229Y-19394936D01*
X14639229Y-19394936D02*
X14648753Y-19404460D01*
X14648753Y-19404460D02*
X14667801Y-19413984D01*
X14667801Y-19413984D02*
X14705896Y-19413984D01*
X14705896Y-19413984D02*
X14724944Y-19404460D01*
X14724944Y-19404460D02*
X14734467Y-19394936D01*
X14734467Y-19394936D02*
X14743991Y-19375889D01*
X14743991Y-19375889D02*
X14743991Y-19337793D01*
X14743991Y-19337793D02*
X14734467Y-19318746D01*
X14734467Y-19318746D02*
X14724944Y-19309222D01*
X14724944Y-19309222D02*
X14705896Y-19299698D01*
X14915420Y-19213984D02*
X14877325Y-19213984D01*
X14877325Y-19213984D02*
X14858277Y-19223508D01*
X14858277Y-19223508D02*
X14848753Y-19233031D01*
X14848753Y-19233031D02*
X14829706Y-19261603D01*
X14829706Y-19261603D02*
X14820182Y-19299698D01*
X14820182Y-19299698D02*
X14820182Y-19375889D01*
X14820182Y-19375889D02*
X14829706Y-19394936D01*
X14829706Y-19394936D02*
X14839229Y-19404460D01*
X14839229Y-19404460D02*
X14858277Y-19413984D01*
X14858277Y-19413984D02*
X14896372Y-19413984D01*
X14896372Y-19413984D02*
X14915420Y-19404460D01*
X14915420Y-19404460D02*
X14924944Y-19394936D01*
X14924944Y-19394936D02*
X14934467Y-19375889D01*
X14934467Y-19375889D02*
X14934467Y-19328270D01*
X14934467Y-19328270D02*
X14924944Y-19309222D01*
X14924944Y-19309222D02*
X14915420Y-19299698D01*
X14915420Y-19299698D02*
X14896372Y-19290174D01*
X14896372Y-19290174D02*
X14858277Y-19290174D01*
X14858277Y-19290174D02*
X14839229Y-19299698D01*
X14839229Y-19299698D02*
X14829706Y-19309222D01*
X14829706Y-19309222D02*
X14820182Y-19328270D01*
X15105896Y-19213984D02*
X15067801Y-19213984D01*
X15067801Y-19213984D02*
X15048753Y-19223508D01*
X15048753Y-19223508D02*
X15039229Y-19233031D01*
X15039229Y-19233031D02*
X15020182Y-19261603D01*
X15020182Y-19261603D02*
X15010658Y-19299698D01*
X15010658Y-19299698D02*
X15010658Y-19375889D01*
X15010658Y-19375889D02*
X15020182Y-19394936D01*
X15020182Y-19394936D02*
X15029706Y-19404460D01*
X15029706Y-19404460D02*
X15048753Y-19413984D01*
X15048753Y-19413984D02*
X15086848Y-19413984D01*
X15086848Y-19413984D02*
X15105896Y-19404460D01*
X15105896Y-19404460D02*
X15115420Y-19394936D01*
X15115420Y-19394936D02*
X15124944Y-19375889D01*
X15124944Y-19375889D02*
X15124944Y-19328270D01*
X15124944Y-19328270D02*
X15115420Y-19309222D01*
X15115420Y-19309222D02*
X15105896Y-19299698D01*
X15105896Y-19299698D02*
X15086848Y-19290174D01*
X15086848Y-19290174D02*
X15048753Y-19290174D01*
X15048753Y-19290174D02*
X15029706Y-19299698D01*
X15029706Y-19299698D02*
X15020182Y-19309222D01*
X15020182Y-19309222D02*
X15010658Y-19328270D01*
X15201134Y-19213984D02*
X15201134Y-19252079D01*
X15277325Y-19213984D02*
X15277325Y-19252079D01*
X15572563Y-19490174D02*
X15563039Y-19480650D01*
X15563039Y-19480650D02*
X15543991Y-19452079D01*
X15543991Y-19452079D02*
X15534468Y-19433031D01*
X15534468Y-19433031D02*
X15524944Y-19404460D01*
X15524944Y-19404460D02*
X15515420Y-19356841D01*
X15515420Y-19356841D02*
X15515420Y-19318746D01*
X15515420Y-19318746D02*
X15524944Y-19271127D01*
X15524944Y-19271127D02*
X15534468Y-19242555D01*
X15534468Y-19242555D02*
X15543991Y-19223508D01*
X15543991Y-19223508D02*
X15563039Y-19194936D01*
X15563039Y-19194936D02*
X15572563Y-19185412D01*
X15639229Y-19233031D02*
X15648753Y-19223508D01*
X15648753Y-19223508D02*
X15667801Y-19213984D01*
X15667801Y-19213984D02*
X15715420Y-19213984D01*
X15715420Y-19213984D02*
X15734468Y-19223508D01*
X15734468Y-19223508D02*
X15743991Y-19233031D01*
X15743991Y-19233031D02*
X15753515Y-19252079D01*
X15753515Y-19252079D02*
X15753515Y-19271127D01*
X15753515Y-19271127D02*
X15743991Y-19299698D01*
X15743991Y-19299698D02*
X15629706Y-19413984D01*
X15629706Y-19413984D02*
X15753515Y-19413984D01*
X15991610Y-19413984D02*
X15991610Y-19213984D01*
X16077325Y-19413984D02*
X16077325Y-19309222D01*
X16077325Y-19309222D02*
X16067801Y-19290174D01*
X16067801Y-19290174D02*
X16048753Y-19280650D01*
X16048753Y-19280650D02*
X16020182Y-19280650D01*
X16020182Y-19280650D02*
X16001134Y-19290174D01*
X16001134Y-19290174D02*
X15991610Y-19299698D01*
X16201134Y-19413984D02*
X16182087Y-19404460D01*
X16182087Y-19404460D02*
X16172563Y-19394936D01*
X16172563Y-19394936D02*
X16163039Y-19375889D01*
X16163039Y-19375889D02*
X16163039Y-19318746D01*
X16163039Y-19318746D02*
X16172563Y-19299698D01*
X16172563Y-19299698D02*
X16182087Y-19290174D01*
X16182087Y-19290174D02*
X16201134Y-19280650D01*
X16201134Y-19280650D02*
X16229706Y-19280650D01*
X16229706Y-19280650D02*
X16248753Y-19290174D01*
X16248753Y-19290174D02*
X16258277Y-19299698D01*
X16258277Y-19299698D02*
X16267801Y-19318746D01*
X16267801Y-19318746D02*
X16267801Y-19375889D01*
X16267801Y-19375889D02*
X16258277Y-19394936D01*
X16258277Y-19394936D02*
X16248753Y-19404460D01*
X16248753Y-19404460D02*
X16229706Y-19413984D01*
X16229706Y-19413984D02*
X16201134Y-19413984D01*
X16382087Y-19413984D02*
X16363039Y-19404460D01*
X16363039Y-19404460D02*
X16353515Y-19385412D01*
X16353515Y-19385412D02*
X16353515Y-19213984D01*
X16534468Y-19404460D02*
X16515420Y-19413984D01*
X16515420Y-19413984D02*
X16477325Y-19413984D01*
X16477325Y-19413984D02*
X16458277Y-19404460D01*
X16458277Y-19404460D02*
X16448753Y-19385412D01*
X16448753Y-19385412D02*
X16448753Y-19309222D01*
X16448753Y-19309222D02*
X16458277Y-19290174D01*
X16458277Y-19290174D02*
X16477325Y-19280650D01*
X16477325Y-19280650D02*
X16515420Y-19280650D01*
X16515420Y-19280650D02*
X16534468Y-19290174D01*
X16534468Y-19290174D02*
X16543991Y-19309222D01*
X16543991Y-19309222D02*
X16543991Y-19328270D01*
X16543991Y-19328270D02*
X16448753Y-19347317D01*
X16620182Y-19404460D02*
X16639230Y-19413984D01*
X16639230Y-19413984D02*
X16677325Y-19413984D01*
X16677325Y-19413984D02*
X16696372Y-19404460D01*
X16696372Y-19404460D02*
X16705896Y-19385412D01*
X16705896Y-19385412D02*
X16705896Y-19375889D01*
X16705896Y-19375889D02*
X16696372Y-19356841D01*
X16696372Y-19356841D02*
X16677325Y-19347317D01*
X16677325Y-19347317D02*
X16648753Y-19347317D01*
X16648753Y-19347317D02*
X16629706Y-19337793D01*
X16629706Y-19337793D02*
X16620182Y-19318746D01*
X16620182Y-19318746D02*
X16620182Y-19309222D01*
X16620182Y-19309222D02*
X16629706Y-19290174D01*
X16629706Y-19290174D02*
X16648753Y-19280650D01*
X16648753Y-19280650D02*
X16677325Y-19280650D01*
X16677325Y-19280650D02*
X16696372Y-19290174D01*
X16772563Y-19490174D02*
X16782087Y-19480650D01*
X16782087Y-19480650D02*
X16801134Y-19452079D01*
X16801134Y-19452079D02*
X16810658Y-19433031D01*
X16810658Y-19433031D02*
X16820182Y-19404460D01*
X16820182Y-19404460D02*
X16829706Y-19356841D01*
X16829706Y-19356841D02*
X16829706Y-19318746D01*
X16829706Y-19318746D02*
X16820182Y-19271127D01*
X16820182Y-19271127D02*
X16810658Y-19242555D01*
X16810658Y-19242555D02*
X16801134Y-19223508D01*
X16801134Y-19223508D02*
X16782087Y-19194936D01*
X16782087Y-19194936D02*
X16772563Y-19185412D01*
X17134468Y-19490174D02*
X17124944Y-19480650D01*
X17124944Y-19480650D02*
X17105896Y-19452079D01*
X17105896Y-19452079D02*
X17096373Y-19433031D01*
X17096373Y-19433031D02*
X17086849Y-19404460D01*
X17086849Y-19404460D02*
X17077325Y-19356841D01*
X17077325Y-19356841D02*
X17077325Y-19318746D01*
X17077325Y-19318746D02*
X17086849Y-19271127D01*
X17086849Y-19271127D02*
X17096373Y-19242555D01*
X17096373Y-19242555D02*
X17105896Y-19223508D01*
X17105896Y-19223508D02*
X17124944Y-19194936D01*
X17124944Y-19194936D02*
X17134468Y-19185412D01*
X17210658Y-19280650D02*
X17210658Y-19413984D01*
X17210658Y-19299698D02*
X17220182Y-19290174D01*
X17220182Y-19290174D02*
X17239230Y-19280650D01*
X17239230Y-19280650D02*
X17267801Y-19280650D01*
X17267801Y-19280650D02*
X17286849Y-19290174D01*
X17286849Y-19290174D02*
X17296373Y-19309222D01*
X17296373Y-19309222D02*
X17296373Y-19413984D01*
X17420182Y-19413984D02*
X17401134Y-19404460D01*
X17401134Y-19404460D02*
X17391611Y-19394936D01*
X17391611Y-19394936D02*
X17382087Y-19375889D01*
X17382087Y-19375889D02*
X17382087Y-19318746D01*
X17382087Y-19318746D02*
X17391611Y-19299698D01*
X17391611Y-19299698D02*
X17401134Y-19290174D01*
X17401134Y-19290174D02*
X17420182Y-19280650D01*
X17420182Y-19280650D02*
X17448754Y-19280650D01*
X17448754Y-19280650D02*
X17467801Y-19290174D01*
X17467801Y-19290174D02*
X17477325Y-19299698D01*
X17477325Y-19299698D02*
X17486849Y-19318746D01*
X17486849Y-19318746D02*
X17486849Y-19375889D01*
X17486849Y-19375889D02*
X17477325Y-19394936D01*
X17477325Y-19394936D02*
X17467801Y-19404460D01*
X17467801Y-19404460D02*
X17448754Y-19413984D01*
X17448754Y-19413984D02*
X17420182Y-19413984D01*
X17543992Y-19280650D02*
X17620182Y-19280650D01*
X17572563Y-19213984D02*
X17572563Y-19385412D01*
X17572563Y-19385412D02*
X17582087Y-19404460D01*
X17582087Y-19404460D02*
X17601134Y-19413984D01*
X17601134Y-19413984D02*
X17620182Y-19413984D01*
X17839230Y-19280650D02*
X17839230Y-19480650D01*
X17839230Y-19290174D02*
X17858277Y-19280650D01*
X17858277Y-19280650D02*
X17896373Y-19280650D01*
X17896373Y-19280650D02*
X17915420Y-19290174D01*
X17915420Y-19290174D02*
X17924944Y-19299698D01*
X17924944Y-19299698D02*
X17934468Y-19318746D01*
X17934468Y-19318746D02*
X17934468Y-19375889D01*
X17934468Y-19375889D02*
X17924944Y-19394936D01*
X17924944Y-19394936D02*
X17915420Y-19404460D01*
X17915420Y-19404460D02*
X17896373Y-19413984D01*
X17896373Y-19413984D02*
X17858277Y-19413984D01*
X17858277Y-19413984D02*
X17839230Y-19404460D01*
X18048754Y-19413984D02*
X18029706Y-19404460D01*
X18029706Y-19404460D02*
X18020182Y-19385412D01*
X18020182Y-19385412D02*
X18020182Y-19213984D01*
X18210658Y-19413984D02*
X18210658Y-19309222D01*
X18210658Y-19309222D02*
X18201135Y-19290174D01*
X18201135Y-19290174D02*
X18182087Y-19280650D01*
X18182087Y-19280650D02*
X18143992Y-19280650D01*
X18143992Y-19280650D02*
X18124944Y-19290174D01*
X18210658Y-19404460D02*
X18191611Y-19413984D01*
X18191611Y-19413984D02*
X18143992Y-19413984D01*
X18143992Y-19413984D02*
X18124944Y-19404460D01*
X18124944Y-19404460D02*
X18115420Y-19385412D01*
X18115420Y-19385412D02*
X18115420Y-19366365D01*
X18115420Y-19366365D02*
X18124944Y-19347317D01*
X18124944Y-19347317D02*
X18143992Y-19337793D01*
X18143992Y-19337793D02*
X18191611Y-19337793D01*
X18191611Y-19337793D02*
X18210658Y-19328270D01*
X18277325Y-19280650D02*
X18353515Y-19280650D01*
X18305896Y-19213984D02*
X18305896Y-19385412D01*
X18305896Y-19385412D02*
X18315420Y-19404460D01*
X18315420Y-19404460D02*
X18334468Y-19413984D01*
X18334468Y-19413984D02*
X18353515Y-19413984D01*
X18496373Y-19404460D02*
X18477325Y-19413984D01*
X18477325Y-19413984D02*
X18439230Y-19413984D01*
X18439230Y-19413984D02*
X18420182Y-19404460D01*
X18420182Y-19404460D02*
X18410658Y-19385412D01*
X18410658Y-19385412D02*
X18410658Y-19309222D01*
X18410658Y-19309222D02*
X18420182Y-19290174D01*
X18420182Y-19290174D02*
X18439230Y-19280650D01*
X18439230Y-19280650D02*
X18477325Y-19280650D01*
X18477325Y-19280650D02*
X18496373Y-19290174D01*
X18496373Y-19290174D02*
X18505896Y-19309222D01*
X18505896Y-19309222D02*
X18505896Y-19328270D01*
X18505896Y-19328270D02*
X18410658Y-19347317D01*
X18677325Y-19413984D02*
X18677325Y-19213984D01*
X18677325Y-19404460D02*
X18658277Y-19413984D01*
X18658277Y-19413984D02*
X18620182Y-19413984D01*
X18620182Y-19413984D02*
X18601135Y-19404460D01*
X18601135Y-19404460D02*
X18591611Y-19394936D01*
X18591611Y-19394936D02*
X18582087Y-19375889D01*
X18582087Y-19375889D02*
X18582087Y-19318746D01*
X18582087Y-19318746D02*
X18591611Y-19299698D01*
X18591611Y-19299698D02*
X18601135Y-19290174D01*
X18601135Y-19290174D02*
X18620182Y-19280650D01*
X18620182Y-19280650D02*
X18658277Y-19280650D01*
X18658277Y-19280650D02*
X18677325Y-19290174D01*
X18753516Y-19490174D02*
X18763039Y-19480650D01*
X18763039Y-19480650D02*
X18782087Y-19452079D01*
X18782087Y-19452079D02*
X18791611Y-19433031D01*
X18791611Y-19433031D02*
X18801135Y-19404460D01*
X18801135Y-19404460D02*
X18810658Y-19356841D01*
X18810658Y-19356841D02*
X18810658Y-19318746D01*
X18810658Y-19318746D02*
X18801135Y-19271127D01*
X18801135Y-19271127D02*
X18791611Y-19242555D01*
X18791611Y-19242555D02*
X18782087Y-19223508D01*
X18782087Y-19223508D02*
X18763039Y-19194936D01*
X18763039Y-19194936D02*
X18753516Y-19185412D01*
M02*
